<svg xmlns="http://www.w3.org/2000/svg" viewBox="0 0 1200 591.05"><defs><style>.cls-1{opacity:0.15;}.cls-2{fill:none;stroke:#fff;stroke-miterlimit:10;stroke-width:0.5px;}</style></defs><title>arcticthinner</title><g id="Layer_4" data-name="Layer 4"><g class="cls-1"><path class="cls-2" d="M2.83,367.52c3.74.56,6.09-1,8.38-3.33,1.61-1.61,3.92-5,5.9.06.59,1.52,2,.87,3.17.1,3.06-2.05,6-1.74,9.58-.49,3.9,1.35,8.38,1.86,12.21-.93,1.63-1.19,11.16-1.52,12.84-.56s1.72,2.34,1.65,3.72a4.67,4.67,0,0,1-4.53,4.34c-5,.26-8.27,2.74-11.9,4.95a4.51,4.51,0,0,1-2.69.83c-3.56-.18-5.29.48-2.79,3.73,1.2,1.56.1,3.24-1.12,4.6-.79.88-2.43,1.54-2.58,2.43-1.42,8.47-4.7,16.93-.91,25.52.4.9,1.26,1.65.71,2.69-.71,1.34-1.55,2.84,1.21,3,2.11.12,3.13-1.28,2.56-2.78-1.89-5.06,1.26-9.66,3.15-13.7,3.29-7,3.07-14,3.21-21,0-2.33.72-3.54,3.12-4.5,5.06-2,11.5.57,12.39,5.24.29,1.5.52,2.9,2.61,2.95s3.45-.67,3.36-2.74c-.06-1.42.41-3.26,2.27-3.22,2.46.06,1.89,2.21,2.1,3.63.29,1.92.37,3.86.63,5.79.09.67.67,1.58-.22,1.87-5,1.59-4.31,5.35-4.27,8.48s-3.66,2.88-4.45,4.3c-1.51,2.7,5.15.71,4.3,4.07-.88,3.53-2,7.15,3,9.49,1.11.52.64,1.77-.37,2.5-2.13,1.53-4.8,2.88-3,5.79,1.11,1.76,2.82,3.7,5.17,3.36,3.14-.46,6.57-1.68,7.88-4.38,1.89-3.93,4-7.83,3.62-12.38-.27-3.7,1.37-7.33,3.12-10.74,2.5-4.86,4.87-9.6-1-14-.12-.09-.32-.25-.29-.32,2.16-4.42-2.62-8.07-1.89-12.27a7.15,7.15,0,0,0-.09-3.66,5.5,5.5,0,0,1,4.81-7.29c3.42-.45,4.79-1.95,5.45-4.49a9.13,9.13,0,0,1,3.56-4.81c2.73-2.15,4.75-5.2,7.8-.17,1,1.69,3.74,1.34,5.22.05,3-2.67,5.45-2.11,8.19.33s7.82,1,10.77,3.63c.65.58,2.09.72,2.42,1.34,4.77,9,12.88,3.72,19.88,3.48,6-.2,8.47-5.08,13.39-6.7.56,3.94,5.33,7.89,10,7.84,4.09,0,7.55,2.71,11.89,1.5a2.85,2.85,0,0,1,2.95,1.87c.38,1.34-1.18,2.1-2.33,2.27-3.18.47-6.16,1.75-9.62,1.23-4.1-.62-7.92.19-10.58,3.17-1.76,2-3.78,1.72-5.5.36-6.26-5-14.94-4.45-22.15-7.21a3.47,3.47,0,0,0-3.9,1.17c-3.16,3.69-7.51,5.14-12.71,5.27-2.18.05-3.55,1.34-4.79,2.65a4.31,4.31,0,0,0-.7,5.48c1.05,1.8,3.23,1.66,5.22,1.54,6.85-.39,9.49,1.83,9.18,7.6-.11,2.06,0,4.13.06,6.2,0,1,.19,2.07,1.65,2.21s1.86-1,2.11-1.9a35.5,35.5,0,0,0,.9-4.08c.84-5.72,1.62-6.55,8.29-6.24,12.27.57,24.53,1.44,36.79,2.18,3.41.21,5,.67,2.37,3.94-2.8,3.47,2.09,5.42,3.93,7.48s2.94-.9,4-2.07c1.71-1.83,4.19-1.2,6.39-1.54,1.57-.24,4-.26,4.13-1.71.2-1.78-2.32-1.46-3.76-1.89-2.22-.67-6.59.58-6-2.46.38-2,4.57-.8,7-.67a26.1,26.1,0,0,1,5.77,1.06c2.83.81,5.65.29,7.3-1.35,1.93-1.92,3.41-2.07,5.78-1,1,.45,2.53.49,3.14-.46.8-1.26-.74-1.55-1.73-2-3.73-1.6-1.82-3.51,0-4.81,1.26-.89,3.79-1.73,5-1.24,6.18,2.46,12.29-.27,18.43.22,3.72.3,6.62.71,9.71,2.92s5-3.45,8.7-2.42c1.68.47,4.77.22,4,2.57-.62,1.94,1.06,5.86-4,5.35-5.76-.59-11.77.86-17.33-1.81-1.77-.85-4.16-.19-6.21.55,0,1.91,2,1.77,3.13,2,2.12.44,3.83.76,4.75,2.88s3.36,2.34,5.86,1.88c1.72-.32,3.18-1.46,5.71-1.15-2.43,2.6-5.63,4.31-7,7.28-.44,1-2.34.71-3.66.52-3.06-.43-6.14-1.21-9.06.43-.65.37-1.21.38-1.57-.29-.45-.85-.6-2.11-2.26-1.56a2.79,2.79,0,0,0-2,3.09,27.67,27.67,0,0,1-1.18,10.3c-.81,2.43-1.6,4.66-5.48,1.74s-8.8-1.46-13.22-.63c-2.05.39-2.23,2-.39,3.1A15.44,15.44,0,0,0,210.7,418c1.25.43,3.51-.07,3.32,1.72s-2,.77-3.2.72a2.47,2.47,0,0,0-2.78,1.91c-.59,2.14-1.63,4.36-1.36,6.45.33,2.54-.84,3.39-3.28,4.26-3.25,1.16-5.17,1.07-4.88-2.45.08-1,.57-2.17-1-2.42-1.82-.29-1.95,1.11-2.26,2.17a5.76,5.76,0,0,1-2.39,3.55c-2.4,1.47-1.72,3.1-1.14,5.13.65,2.26,2.47,2.29,4.37,2.58.81.12,1.64.12,2.45.21,1,.11,2.12.44,1.93,1.46s-1.38.83-2.38.79c-4-.16-8.09.54-12-1.43-3-1.53-6.19,1.21-10.81.51,3.87-1.57,6.64-2.65,9.37-3.82,1.14-.49,2.71-1,1.86-2.44-1-1.58-2.52-.92-3.77-.19s-2.91,1.8-4.51,1.28c-6.08-2-8.58,1.22-8.88,5.13-.32,4.18-2.89,7.53-4.26,11.25-1.75,4.74-3,9.66-4.3,14.39-1.46,5.48-4.58,10.88-3.34,17,.74,3.63,2,5.6,6.41,5.94s8.86.7,11.07,4.87c.65,1.22,1.25,2.33.52,3.52-3,4.86-1.59,10.09-1.35,15.07.14,2.94-2.41,5.55-.76,8.5,1.53,2.74,3.69,5.32,2.75,9.28,1.18-.88,1.83-1.15,1.8-1.37-.54-4.29,1-6.22,6.69-5.2,3,.54,9.42-4.85,9.23-7.45-.31-4.22,2.78-5.36,6.67-5.54a57.87,57.87,0,0,1,11.31.34c4.87.73,5.77-.54,6.32-4.64a60.42,60.42,0,0,0-1.64-22.6,5,5,0,0,1-.09-1.24c0-1.33,2.55-3.55-1.44-3.49-3.24.05-6.81.77-6.34,4.3.41,3.13-.72,6-.64,9.09.05,2-.81,2-3.32,1.73-5.12-.48-8.62-3.44-13.1-4.76-4-1.19-6-9.39-2.66-11.54,2-1.33,4.9-.76,6.94.2,3.09,1.46,4.83,1,6.12-1.67s2.58-3.28,5.65-.87c2.91,2.29,7.11.94,10.47,0,2.71-.77,3.86-2.89,2.59-5.46-.31-.63-.39-1.36.74-2.13,5.41,5.15,10.12,10.42,8.81,18-.48,2.73-.51,5.52-.77,8.29-.08.83-.31,1.74.77,2.21s1.65-.44,2.44-.87a22.21,22.21,0,0,0,8.44-8.2,2.86,2.86,0,0,1,2.43-1.79c7.73-.6,9.36-1.56,9.48-7.5.09-4.39,2.58-3.28,5.34-2.39,1.52.49,2.88,1.41,4.43,1.75,2.8.6,5.34.69,5.15-2.91-.1-2,.88-4.42,2.74-5.08,4.43-1.58,4.05-5.33,5.87-8,1.62-2.37,1-5.77,4.55-7.41-2.29-3.31,2.67-4.66,2.77-7.14.14-3.69,2.86-5.73,5.7-7.85,1.24-.92,2.89-1.72,1-3.29-.9-.75-.64-1.4.08-2.15a28.08,28.08,0,0,0,5.43-7.76c.5-1.07.95-1.43,2.54-.89,3.15,1.08,5-.88,5.23-3.93.24-3.7-1.49-8.08,3.66-10.65a1,1,0,0,0,.33-.28c-4.16-4.76,4-7.68,2.51-12a25.54,25.54,0,0,0-1.12-2.36c3,.51,8.17-1.84,8.7-3.76.39-1.4-4.38-5.23-6.15-4.61-3.62,1.26-3.94-.49-4.07-2.69-.17-2.9-.41-5.79-.48-8.69,0-1,.13-2-1.06-2.57-2.25-1-1.94-2.22-.68-3.72,1.68-2,1.78-3.72-1.23-5.12-1.55-.72-2.21-2.37.56-2.23,3.34.16,2.92-1.57,3-3.19.17-6,3.27-10.53,9.18-13.94a6.59,6.59,0,0,0,3.52-6.52c-.34-2.83-3.26-2.62-5.68-2.88-1.79-.19-3.85-.23-5-1.51-3.33-3.78-8.34-3.51-12.93-3.81-3.22-.21-6.29-.09-9.59-.88C280,330.46,273,333.51,265.78,334c-.77.06-1.66.49-1.62,1.33.06,1.1,1.15,1.13,2.13,1.27,8.21,1.2,8.2,1.21,9.07,8.14a28.87,28.87,0,0,0,.6,2.87c1,4.29-1,5.42-6.13,5-8.79-.8-17.51-3.19-26.55-1.28a18.33,18.33,0,0,1-6.83-.1c-6.34-1.17-12.62-.21-18.93-.11-2.74,0-4.2-.69-3.48-3.55.51-2,2.28-4.68-1.4-6.24-.48-.2-.26-.61,0-1,3.57-5,3.21-6.69-3.09-11.24-3-2.14-6.37-3.86-9.57-5.77,22.69,3.95,45.23-1,67.9-.31-1.54-2-3.67-2.25-5.69-2-12.4,1.32-24.76-.32-37.14-.23-4.54,0-9,.48-13.65.3-3.59-.14-8,.07-11.31,2.38-8.05-1.54-16.14-3-24.36-4.18,37.06-2.05,74.07-.66,112.32-.91-2.86,2.49-5.49,2-7.67,2.35s-5.72-.6-5.4,2a6.29,6.29,0,0,0,5.53,5.65c4.08.53,8.42.94,12.25,0,4.86-1.24,9.89-1.34,14.77-2.47a102.73,102.73,0,0,1,22.93-2.24c2.54,0,7.35,1.11,4.77-3.88-.58-1.13.69-1.33,1.71-1.33,7.69,0,15.4-.23,23.08,0a105,105,0,0,0,19.49-1.66,2.78,2.78,0,0,1,1-.1c15.55,3.43,31.63.39,47.11,2.71,4.62.69,7.52.86,12-.5,4.94-1.51,11-.29,16.61-.37,1.5,0,3.84.47,4-1.46s-2.14-2.14-3.93-2.43a1.9,1.9,0,0,0-.49,0c-9.44,1-18.82-1.55-28.27-.27a5.07,5.07,0,0,1-2.88-.2c-7.28-4.56-16.79-4.13-24.44-7.85a7,7,0,0,0-3.7-.93c-7.62,1.27-14.08-.84-20.38-5.16a4.85,4.85,0,0,0,2.4,4.38c3,2.21,1.87,3.75-1,5.09-5.49,2.55-11.19,1.32-16.78.5-1.93-.28-3.86-1-5.78-.59-3.12.7-5.39.45-6.66-2.45-.8-1.83-3-2.28-5-2-5,.75-8.09-1.57-10.82-4.49-1.89-2-3.9-3.87-7.22-3.81-3.49.06-5-1.67-5.78-4.17-.89-2.75-1.45-5.37-4.43-7.57-2.16-1.59-.87-5-1.22-7.56-.3-2.26-.21-4.48-3.43-5.4a2.25,2.25,0,0,1-1.55-2.41c-.14-4.55-1.28-9.1.09-13.66a9.29,9.29,0,0,1,1.74-3.85c4.16-4.63,4.26-6.87.59-11.78-.21-.28-.14-.72-.27-1.45a8.19,8.19,0,0,1,5.71,4.9c1.82,4.43,5.77,7.95,7,12.56.53,1.92,1,4.09,4.5,2.32,1.44-.74,1.81.62,2.51,1.35,5.95,6.26,11.36,12.8,15,20.27,2.12,4.36,8.24,4.91,11.16,8.5.13.16,1,.1,1.33-.09a1.06,1.06,0,0,0,.16-1.83c-4.25-3.5-3.93-9.55-9.69-12.2-1.19-.55-.85-1.67-.73-2.65.52-4.27,1-8.55,1.49-12.82,0-.41,0-.92.29-1.21,7.73-8.15,3.11-17.31,2.93-26.08,0-2.06-1.09-4.22.77-6,2.92-2.76,1.15-5.1-1.6-6.09-5-1.8-6.45-5.48-7.85-9-2.25-5.71-4.34-11.46-5.08-17.58-.67-5.55-1.63-11.31-6.09-16-.3-.32-.7-.73-.68-1.09.43-8.5-5.67-16.25-4-24.9.34-1.8.62-3.42,2.16-4.92,2-2,2.07-4.47,1.8-7.08-.68-6.63-1.3-13.28.07-19.91a19,19,0,0,1,1.2-3.6c.38-.89.76-2,2.09-2.11,1.55-.16,1.64,1.08,2.16,1.9,4,6.34,5.72,13.57,11,19.44,1.41,1.58.54,3.76,1,5.66,1,4.24,6,6.13,7.47,10.11,1.84,5,3.07,9.66,8.38,14,6.92,5.65,12,13,20.91,17,2.54,1.16,4.95,2.25,4.91,5,2.07.17,2.19-1,2.55-1.83.88-2,2.43-2.58,4.6-1.52s3.86,2.47,2.19,4.7c-1.09,1.45-2.58,2.72-.65,4.36s3.16-.25,4.75-.66c4-1,11.32-1,1.68-5.15a1.32,1.32,0,0,1-.49-1.88c.37-.77,1.19-.84,2-.92,4.17-.37,9.9,2.51,11.87,5.92a11.41,11.41,0,0,0,4.72,4.66c4.8,2.51,4.88,4.66.58,7.5-3.46,2.28-4,6.53-1.11,9.35,1.62,1.59,2.7,10.83,1.07,12.36s-1.6,3.19-1.42,5a68.06,68.06,0,0,0,6.51,23.81,42.6,42.6,0,0,1,4.22,15.74c.12,1.6-.38,4.25,3.4,2,1.89-1.11,2.41.7,3.08,1.73.54.84,1.32,2.32,2.33,1.45,3.76-3.23,4.39.21,6.34,1.66,5.68,4.22,12.9,5.94,19.88,7.83,2.82.76,5.53,1.7,8.25,2.62,1.85.63,3.38,1.21,5.58.64,3.12-.8,6.45,1.52,6.49,4.46,0,3.2,1.64,5.45,5,6.49,4.12,1.27,7.36,4.25,12.08,4.29,1.5,0,2.2,1.06,3,2,4.82,5.42,11.23,7.93,19.21,7,2.21-.25,2.28,1.22,3.28,1.94,2.42,1.76,4.18,1.63,4.81-1.24.54-2.46.92-4.93,2.37-7.17.66-1,.51-2.87,2.59-2.48s1.67,2.13,1.47,3.46c-.37,2.5.83,4.55,2.11,6.69,2.05,3.43,6.55,2.12,9.67,3.59,1.45.68,1.45-3.26,3.28-4.53.29,0,.78,0,.85.14,3.73,6.58,9.84,8,18.2,7.5,10.77-.59,21.64.23,32.48-.62,4.74-.38,5.83-2.15,5.2-5.73s-.59-6.94-4.44-9.61c-3-2.09-2.66-5.47-1.73-8.51.37-1.22,1.2-2.54,3.07-2,1.57.46,1.29,1.75.92,2.86-.09.27-.24.52-.33.78-.51,1.42-1.79,3.16.25,4.14,2.81,1.35,2.54-1.88,4.23-2.49,1.86.62,1.23,2.1,1.29,3.18.18,3.26,2.91,3.62,5.79,3.9,3.32.32,2.43-1.83,2.82-3.34.77-3,3.14-3.68,6.11-1.73.77.51,1.4,1.17,2.15,1.71.92.67,2,1.14,3.08.32,1.24-.94.82-2-.09-2.95-.31-.32-.7-.59-1-.9-.76-.73-1.74-1.47-1-2.53A2.26,2.26,0,0,1,638,294c1.38,0,2.89.47,3,1.75.39,7.49,6.36,10,13.8,11.32a3.31,3.31,0,0,1,.88.36c1.54.77,2.51,3.25,4.82,1.74s.55-3.19-.57-4.73-.86-3.19.36-4.69a8.58,8.58,0,0,0,2.18-4.57c.09-1,.32-2.06,1.94-1.91,1.17.11,1.9,1,1.58,1.78-1.92,4.53,4.17,6.87,4.1,11,0,1.42,2.13,2.73,4.14,1.89s.05-1.72-.41-2.62c-1.39-2.73,2.58-3.42,3.28-5.61.47-1.48,2.18.59,3.13,1.31a12.21,12.21,0,0,0,3.23,1.83c4.19,1.53,4.23,2.33.48,4.93,5.49,4.64,6.72,4.75,13.37,2.42,2.79-1,6.07-1.35,7,2.16,1,3.91,3.32,4.59,8.18,5,18,1.59,36,.56,54,1.13a16.15,16.15,0,0,0,6.71-.75c0-.33.06-.72-.09-.81-7.87-4.39-7.66-4.36-6-12,1-4.73,1.31-9.58,2.7-14.58,1.21,2.43,2.93,4.77,3.5,7.3a7.51,7.51,0,0,0,5.3,5.94c3.39,1.25,5.36,4.79,10.1,4.06,1.16-.18,1.62,1.85,2.19,3,3.64,7.39,5.24,8.13,14.84,8,10.62-.12,21.23,0,31.85,0,1.41,0,3.24.59,4-.85.85-1.62-.92-2.49-2.1-3.38-5.43-4.11-10.22-8.46-11.45-14.95-.37-2-2.13-3.66-3.94-5.17-8.83-7.35-13.49-16.55-15.78-26.62-1-4.23-2.36-7.81-6.63-10.67A36.37,36.37,0,0,1,790,243.69c-5-9.33-12.5-17.66-15.6-27.74-.57-1.86-2.61-2.83-4.29-3.9-2.76-1.77-5.12-3.88-7.65-5.85-2.75-2.14-1.42-4-.19-5.88.66-1,1.9-2,2.63,0,.55,1.54,1.21,2.93,3.35,3.11.71.06,1-.67.89-1.25-.34-1.73,1.75-3.81-1.21-5.19-2-.93-3.81-2.17-5.75-3.21-1.58-.85-3.26-1.87-3.13-3.5.5-6-5-8.67-9.25-12-5.66-4.38-11.1-8.94-17.78-12.36a21.87,21.87,0,0,1-8.39-8.05c-.63-1-2.54-1.93-.87-3.17a4.31,4.31,0,0,1,5-.08c2.53,1.54,5.58,2.71,7.51,4.67,4.33,4.39,9.95,7.16,15.59,10,5.14,2.56,9.44,6,13.8,9.35a14.78,14.78,0,0,1,5.62,9.88c-1.68.78-4.62-.12-4.93,2-.27,1.83,2.21,2.54,3.74,3.51a22.76,22.76,0,0,0,8.88,3.4c3.28.5,4.28-.57,3.68-3.16a30.11,30.11,0,0,0-5.57-11c-1.44-1.94-3.36-3.68-4-6.18,2.08.12,2.49,1.48,3.4,2.35,8.61,8.3,16.18,17.48,27.87,23.14a4.77,4.77,0,0,1,1.17.76c.92.86,3,1.29,2.34,2.77-.57,1.2-2.35.59-3.59.58-4.76,0-9.51-.7-14.28-.08-1.63.21-3.46.12-4.17,1.68s.64,2.69,2,3.49c6.43,3.9,12.5,8.09,17.05,13.66a3.13,3.13,0,0,0,1.95,1.19c9.6,0,14.08,6.58,20.18,11.05,1,.75,2,1.5,3.49,1s1.15-1.5,1.18-2.49c.19-6.25.13-12.42-3-18.32-1.29-2.41,1.25-6.55,4.1-7.6.83-.31,1.89-.48,2.19.2,1.08,2.51,4.72,2.68,6,4.64,2,3,4.25,4.63,8.74,5.18,2.67.32,4.31,1,6.13-1a2.28,2.28,0,0,1,3.39-.3c8.18,7,19.4,9.44,29.23,13.95,3.45,1.58,5.62,3.21,4.14,7.2-1.27,3.43.6,7,3.7,9.45,2.43,1.94,5.5,1.19,8.83,0-3.77-2.92-7.43-5.67-8.33-11.33,4.91,4.68,11.54,5.9,15.19,10.3,3,3.58,7.3,4.38,11.54,4.16,3.23-.17,6.09.45,7.49,2.15,5.53,6.73,15.43,10.32,18.63,18.66a3.83,3.83,0,0,0,1.59,1.55,26.6,26.6,0,0,1,9.24,8.93c1.75,2.91,4.75,4.87,8.19,6.37,2.86,1.24,3,2.65.94,4.9-3.54,3.94-8.66,6.31-12.63,9.81-1.52,1.34-4.36-.32-6.51,1-2.7,1.69-6.21,2-9.1,3.79s-6-.28-8.44-1.84-4.41-3.32-6.62-5c-.73-.55-1.59-1.53-2.29-1.47-7.63.58-12.31-4.5-18.46-6.7-1.32-.47-3.37-1.54-3.85,0-1.31,4.11-3.56,1.07-5.66,1-5.51-.15-10.34-1.85-15.45-3.28-6.88-1.93-12.36-5.76-18.26-8.76-9.89-5-15.6-13.49-19.15-22.85A66.59,66.59,0,0,0,834,245.46c-.64-.89-1.18-1.83-2.52-1.59-1.66.3-1.79,1.58-1.53,2.67a32.86,32.86,0,0,0,2,6.85c4.3,9,8.44,18.06,14.76,26.22,1.46,1.89,2,3.53,1.44,5.79-.86,3.3.31,5.75,4,8.09,4.89,3.15,10.93,6,11.46,12.26.1,1.18,1.49,2.45.16,3.48s-2.23-.94-3.58-.63c-.16,6.55,3.09,9.49,10.52,9.54,11.23.08,22.48.62,33.67.1,10.46-.49,20.84-.33,31.25.19a16.54,16.54,0,0,0,7.71-1c2.15-1,4.55-.64,6.78-.37s5.87-.17,6,1.82c.09,2.35-3.62,1.41-5.66,1.94-1.6.41-3.68-.28-4.84,1.75,3.28,1.45,7.19.68,10.31,2.25.3.93-.51,1.22-1.27,1.45-6.56,2-8.21,4.34-6.89,9.95.58,2.47,3,2.64,5.3,2.94,6.24.83,10.83,8.3,7.74,12.93a19,19,0,0,1-9,7.59c-3.49,1.4-5.1,4.66-6.22,7.58-.69,1.8-1.48,3.62-2,5.46-.81,2.7-2.51,3.12-5.47,2.5-3.3-.69-6.47-.83-4,3.51.77,1.37.07,2.69-1.8,2.72-5.36.08-10.24,3-16,1.39-4.5-1.23-7.12,3.26-6.92,4.75.37,2.72-1,2.39-2.64,2.37-3.85-.06-7.81,1.32-11.52-.86-1.5-.88-3.46,0-3.25,1.32.47,3-2.08,2.91-4.11,3.54-7.82,2.4-15.2.89-22.14-2.22-7.64-3.43-8.73-3.5-14.86,1.73-1,.84-2.9.83-3.1,2.45,2,1.74,4.4-.67,6.92.62-3.45,1.34-4.45,3.54-4,6.49a4.44,4.44,0,0,1-2.53,4.31c-3.4,1.81-3.8,4.18-3.06,7.17.91,3.71,1.16,7.45,4.61,10.53,2.47,2.21-.07,4.35-1.81,6.19s-3,.29-4.51-.47c-3.1-1.54-6.48-2.69-9.52-4.3s-4.53-3.78-2.88-7c1.46-2.87,2.45-5.38-1.39-8.38-2.91-2.27-1.19-6.8-1.17-10.24,0-6.11-.14-6.63-7.12-5.64-1.77.25-4,1-4.95-.65s1.59-2.07,2.58-3c.62-.6,1.85-1,1.34-2s-1.57-.65-2.55-.42c-2.86.68-2-.94-1.77-2.11.25-1.38-.56-2.19-2.08-2.32-1.87-.16-1.75.94-2,2.16-1,5.29-2.25,10.55-3.47,15.81-.28,1.21-1.13,2.37-.5,3.63,1.69,3.41,0,3.85-3.31,2.62a12.59,12.59,0,0,0-5.26-.68,28.36,28.36,0,0,1-5.41-.19c-3-.42-5.59-2.45-6-4.32-.59-2.53,3.51-1.5,5.41-2.66-1-1.64-4-1.44-4.61-3.72,5.39-1.13,9.35-4.69,14.67-6-.21-.46-.24-.82-.44-.92-1.49-.75-3.92.9-4.8-1.11s1.64-2.63,2.87-3.42c4.35-2.79,4.84-7,6.82-10.76,2.1-4,3.11-8.81,7.38-12,.36-.27,1-.65,1-.84-1.83-5.87,3.9-7.88,7.73-10.87s5.64-14.5,2-17c-3.27-2.26-7.84-2.37-12.21-2.34-6.88.05-13.77-.22-20.66-.38a2.29,2.29,0,0,1-2.24-1.12c1-1.57,3-1.18,4.56-1,6.42.57,12.85-.49,19.2,0,8.84.69,15.47-3,23.11-7.16-5.55-1.33-10.47-.67-15.23-.85-7.71-.29-15.53-.61-23.16.14-8.83.87-17.51,2.82-26.23,4.43-3,.55-5.54,1.29-5.92-2.56-.21-2.18-2.72-1.63-4.37-1.63-10.2,0-20.39,0-30.58.17-7.21.11-14.42-1.13-21.64.24-2.25.43-4.53.53-6.42,1.84a5.1,5.1,0,0,1-4.2.78c-7.86-2.29-15.2,1.58-22.88,1.29a2.21,2.21,0,0,0-1.63.64c-.48.82.44,1.17,1.15,1.5,1.4.66,3.36,1.05,3,2.84-.3,1.51-2.24,1.39-3.52,1.9-5.83,2.32-9.16,6.32-10.24,11.54-.32,1.52-.56,2.46-2.37,3.15-2.56,1-4.11,2.74-3.76,5.29.21,1.5-.36,2.5-2.25,2.59s-3.36-.53-3.62-2.18c-.59-3.84-1.52-7.67-1.06-11.58.26-2.18.9-4,4.28-2.59a3.07,3.07,0,0,0,2.81-.08c1.28-.74,3.65-.7,3.6-2.42-.06-1.89-2.35-1.79-3.83-1.86-6-.28-11.91-.93-18.06.06a36,36,0,0,1-15.05-.76,16.84,16.84,0,0,0-10.11-.07c-3.16,1.08-6.45,1-9.68,1.33-2.32.21-4.62.22-6.35-2.1-1.32-1.77-4.22-2.52-6.75-3.21-1.18-.32-3-.33-2.49-1.94.37-1.3,1.91-1.34,3.24-1.39,3.77-.15,7.57-.11,11.31-.49,2.59-.26,5.59-.3,7.25-3.08a51.12,51.12,0,0,0-11.87-1.42c-11-.11-22.07-.72-33-.15-6.72.35-13.38,1.51-20.19,1-1.54-.11-2.64,1-3.69,1.91-.67.56-1.64,1.11-1.15,2.08.38.76,1.35.61,2.14.75,1.46.26,3.8-.5,3.89,1.54.07,1.55-2,1.53-3.38,1.85-1.7.39-3.74.34-2.32,2.86.86,1.52-1.28,1.2-2.16,1.2-5.72,0-11.5.89-17.12-.82-3-.91-5.58.94-8.55,1.11-9.74.55-19.6.28-29.49,2.17,4.16.9,8.31,2.48,7,6.37-1.67,4.84-.32,11.54-9,13.15-1.34.25-3.43.8-3.42,2.08,0,3.46-3.06,3.73-5.63,4.07-7.16.95-13.62,3.91-20.8,4.84-2.72.35-6,.83-5.14,4.69.4,1.75-1.88,1.47-3.3,1.44s-3.87-.73-3.68,1.38c.17,1.85,2.52,1.21,4.07,1.19.95,0,1.94-.48,2.82.26.43,1.17-.88,1.81-1.53,1.64-4.18-1.11-7.49,2.56-11.7,1.36a2.16,2.16,0,0,0-2.75,1.86c.28,5.47-4,9.73-5.25,14.77-1.53,6.06.85,8,7.75,6.25a14.17,14.17,0,0,1,2.32-.62,1.66,1.66,0,0,1,1.82,1.14,1.18,1.18,0,0,1-1.15,1.55c-5.15.12-4.14,1.33-1.61,4,1.83,1.94-1.56,2.69-4,3.82,3.47.93,6.83.51,7.71,4,.47,1.85,4.49,0,5.83,2-.19,1-1.07,1-1.88,1-4.56.24-6.09,1.6-4.75,5.17,1.49,4-2.16,7.23-1.4,11.08.26,1.34-1.94,1.88-3.64,2.28-4,.95-5.88,3.95-4.65,7.35.37,1,1.53,2.12.36,3.08-4.3,3.52-3.41,7.44-1.58,11.51a2.9,2.9,0,0,1,0,1.61c0,.19-.45.34-1,.72-3.42-4.9-8.71-5.87-15.17-6.17a32.13,32.13,0,0,1-20.43-8c-1.68-1.53-4.35-3.13-6.49-2.5-7,2-16-1.39-21.35,5.23-.25.31-.85.41-1.24.65-1.46.88-4.72-.25-4.52,2.2.16,2,3.26,1.38,4.77,2.36.77.5,2.27.87,2.32,1.38.33,3.35,2.88,4.22,6.25,4.59,1,.11,2.37.64,2.21,1.87-.13,1-1.38,1-2.28,1.29-1.12.34-3.12,0-2.79,1.65.27,1.3,2,1.29,3.31,1.23,4.52-.22,5.41,1.28,4.57,5-1.68,7.48-2.58,8.93-9.44,10.74,1.23,2,4.71-.15,5.7,2.19-.57,1.36-2.24,1-3.3,1.52-2.42,1.27-4.25,3-2.94,5.47,1.53,2.86,1.08,5.66.76,8.56-.22,1.91-.47,3.83-3.45,3.65-3.35-.2-3.2-2.54-2.92-4.41a50,50,0,0,0,.15-14.83c-.15-1,.52-2.58-1.51-2.49-1.63.07-.85,1.5-1.07,2.36-1.75,6.83-.36,13.76-1.07,20.63-.3,2.94,2.71,2.4,4.58,2.36,4.58-.11,5.6.9,4.84,5.1-1,5.37,0,11,.22,16.51,0,.72.3,1.49,1.25,1.56s1.24-.69,1.47-1.38c2.1-6.29,2.8-12.75,3.26-19.24a1.91,1.91,0,0,0-.94-1.81c-3.1-2.17-.44-2.88,1.41-3.12,5.28-.68,8.61-3,10.23-7.29.41-1.08,1.07-2.61,3-2.2s2.2,1.76,2.26,3.29c.07,1.91-.79,5.09,2.11,5.07s3.18-3.32,3.16-5.46c-.07-5.85,1.49-11.55,1.7-17.37.06-1.78.13-3.68,1.39-5.21s.89-2.18-1-2.72c-1.2-.33-2.88-.73-2-2.22s2.49-1.19,3.93-.78c1.07.3,2,1,3.06,1.29a5.12,5.12,0,0,0,4.59-.89c1.71-1.46-1.4-1.87-1.07-3.2,2.24-1.08,4.76-.54,7.14-.52,3.69,0,7.17-.13,10.14-2.34,1.68-1.25,3.12-1.06,5.11.3,3.13,2.15,6.76,5.05,10.13-.29,1.17-1.87,4.3-.75,6.47-1.26,1.21-.28,3-.07,3-1.6s-1.59-1.54-2.89-1.68c-.81-.09-1.65,0-2.46-.12s-1.75-.22-1.58-1.17a1.18,1.18,0,0,1,1.47-.83c4.32,1.2,5.52-1.43,7.46-3.79s3.36-4.39,2.67-7.23c-.52-2.11.17-3.32,3-2.79,1.43.27,3.06.43,3.43,1.95.33,1.34-.92,1.93-2,2.58s-3.19,1.08-1.91,2.72a3.37,3.37,0,0,0,4.77.49,7.73,7.73,0,0,1,6.5-1.9c1.45.19,2.71-.68,2.11-2.08-.76-1.77.16-2.79,2.35-3.52-3.28-1.55-6.34-1.45-9.09-2.25-1.07-.31-2.44-.77-2.18-1.93.3-1.35,1.66-1,2.78-.7,1.55.48,2.78.39,3.87-.87,3.6-4.18,7.44-4.24,11.88-.35a4.73,4.73,0,0,0,2.53,1.12c3.2.23,5.24.94,3.5,4.13-.47.87,0,1.68,1.11,2a2.9,2.9,0,0,0,3-1,2.53,2.53,0,0,0,.19-3.51c-2.52-3.2-.19-3.82,2.93-4.07,1-.08,2-.08,3-.15s1.71-.3,1.84-1.1-.52-1.36-1.3-1.62c-6.6-2.17-12.69-7.21-20.51-2.66a.87.87,0,0,1-.47.1c-7.26-.69-15,.36-21.15-4.24a5.71,5.71,0,0,1-2.11-2.24c-1.25-3.85,2.94-5.87,4.59-8.73,1.14-2,3.7-2.6,6.44-1.79a16.08,16.08,0,0,0,6.23,1c2.6-.25,6-1,3.64,3.11-.61,1.08.94,2,2,1.86,6.53-1,13.1,2.77,19.58-.13,1.57-.7,3.16-1.37,5.21-2.27-.83,4.9-7.32,3.87-9.32,6.86.23,2.39,4-.49,3.82,2-.12,1.62-2.24.55-3.46,1.4,1.36,1.3,2.74,2.06,4.57,1,2.05-1.23,3.44-1.4,3.23,1.2-.12,1.57.89,2,2.32,2,4.57,0,4.45,2.92,4.95,5.51.35,1.81-.28,2.65-2.61,2.37a12.87,12.87,0,0,0-3.4,0c-1,.15-1.77.81-1.54,1.8.19.8,1,1,1.89,1.07,2,.18,5.25-1.56,5.88.32,1.08,3.21,2.09,6.63,1.58,10.12a65.66,65.66,0,0,0,.45,20.77,46.24,46.24,0,0,1,.48,5c.08,1.33.27,2.66,2.19,2.76s1.91-1.25,2.27-2.54c.83-3-.62-6,.42-8.95.57-1.63.46-3.4,3.22-3.45,3.45-.06,4.47-1.9,4.47-4.42,0-3.5,1.12-6.85,1.89-10.25.4-1.77,1.64-2.65,3.83-2.45,1.93.17,3.54,1.26,3,2.66-1.88,5.34,3.32,9.75,2.49,14.77s1.53,9.93-.71,14.78c-.56,1.2-.11,2.16,1,3s1.54,1.51,1,2.87c-1.45,3.48-.16,4.9,4.33,4.94a53.37,53.37,0,0,0,9.3-.3c3-.51,6-1.06,10.23-1.42-5.67-3.16-11.61-1.32-16.55-3.08a2.18,2.18,0,0,1,3-1.31c5.11,2,10.28,1.23,15.47.47,1.48-.22,3.79.56,4-1.41.19-1.56-1.75-2.15-3.28-2.7-.44-.16-.84-.39-1.46-.69,4.06-4.57,8.42,2,12.63-.61-1.95,2.07-3.43,3.34-.62,6,1.65,1.56,2.67,4.56.9,8.14a14.84,14.84,0,0,1-4.74,6.12,3.74,3.74,0,0,1-2.2.8c-7.87-.81-16,1.44-23.5-.23-5.82-1.3-8.94.77-12.69,3.08-3,1.85-2.33,3.28.75,4.5a41,41,0,0,1,5.14,2.44,4.38,4.38,0,0,0,4.46.09c3.41-1.44,7-2.37,10.18.77,1.92,1.88,4.6.7,7,.69,2.2,0,5.56-1.22,6.32.56.68,1.61-.61,4.37-2.08,5.93a28.1,28.1,0,0,0-5,7c-2.48,5.83-4,12-3,18.66.71,4.93,2.36,8.79,6.29,12.2.42.36.82,1.08.68,1.5-2.42,7.41,4,14.17,2.23,21.58-.26,1.09.37,2.32-.75,3.4-.83.8-1.1,1.9.21,2.49a2.42,2.42,0,0,0,3.23-1.12,6.36,6.36,0,0,0,.52-2c1.18-6.39,3.36-12.71,1.08-19.28-.9-2.59.74-5.08,1.89-7.43.87-1.77,2.5-.6,2.83.24.94,2.43,8.14.55,5.23,4.33-2.07,2.68-1,2.48.64,4.4,1.93,2.2,2.35,5.84,2.11,8.77s.91,4,4,5c8.51,2.64,15.86-.93,23.56-2.71.45-.1,1.11-1,1-1.23-2.55-4.22,1.51-3.07,3.87-3.62,3.68-.86,8.66.16,10-4.53.13-.46,1.3-1,2-1,3.35,0,4.35-1.17,4.35-4,0-3.38,4.25-2,7-3.1-3.31-2-7.36-1.53-10.2-3.8,1.11-1.44,3.09-1.61,4.62-1.47,5.53.51,10.57-1.35,15.84-2a7.11,7.11,0,0,0,3.32-1.58c3.13-2.15,6.88-3.2,10.59-4.52,10.07-3.58,20.07-1.21,30-1.14,8.38.06,16.48-1.82,25-1.22,8.31.59,16.7.86,25.06,1.31,2,.11,4.25.61,2-2.1-.4-.49-.52-1.06.07-1.48a2.27,2.27,0,0,1,2.72.12c3.83,3.05,8.66,2.86,13.07,2.23,8.41-1.2,16.84,0,25.36-1,8.22-.93,18-1.72,25.29.9,11.32,4.06,22.11,2.08,33.2,2.1,1.82,0,3.36-.31,4-1.85.68-1.71-1.27-1.72-2.27-2.5-2.53-2-5.45-3.77-6.1-7.1-.88-4.5-2.63-8.85-3-13.46a4.31,4.31,0,0,1,2.41-4.64c4.37-2.33,8.51-5.34,14.37-2.84,2.76,1.18,4.79.25,5.29-2.5.41-2.27,2-3.09,4.56-2.53,5,1.08,8.38-1.66,12-3.67,1.68-.92,1.15-1.73-.35-2.44-1.14-.54-2.59-1.18-1.86-2.51s2.54-.91,4-.75a11.19,11.19,0,0,1,5.53,2.41c-3.27,1.08-5,1.45-1.25,4.6s9.14,6.77,7.15,13c2.71-2.5,4.77-5,4.27-8s.85-4.43,3.94-5.26c.75-.2,1.81-.5,2.07-1,2.51-4.81,6.55-1,9.79-1.14,1.48-.05,1.17,1.63.43,2.69-1.42,2-.89,3.83,1.43,5s4-.13,5.43-1.59c4.6-4.57,3.14-8.74-4.34-11.91A27.13,27.13,0,0,0,895,498c-1.64,0-2.9-.51-3.32-2a1.68,1.68,0,0,1,.79-2.21c1.44-.72,2.51.07,3.5.82,3.42,2.6,7.69-.39,11.3,1.23.44.2,1.08-.53,1.07-1.15,0-1-.87-1.48-1.72-1.88-3.8-1.76-7.78-3.17-11.36-5.36-2.09-1.28-4.68-2-3.55-4.55.86-1.92,2.57-3.73,5.73-2.37.59.26,1.45.56,1.76,0,2.39-4.65,8-3.16,12.12-4.5,1.59-.52,3.89.14,4.46,1.84.67,2-1.6,2-3,2.48-1.78.63-4.31,1.32-3.24,3.37.93,1.78,4,2.29,5.56,1.29,2.3-1.43,7.23-1.41,5.32-6.06-.83-2,2.56-2.73,4.79-3.81-4,3.23,4.49,4.26.25,7.74,4.8-.72,8.4-1,7.24-5.54,1.84,0,2.31,1.49,3.45,2.18,2,1.2,3.48,1.94,5.42,0,.89-.91,2.61-1.85,3.82-.63,1,1,.07,2.44-1,3.33-1.54,1.33-5.53,2.06-2.89,4.5,2,1.87,4.21-.6,6.31-1.6a50.38,50.38,0,0,0,8.24-4.39c1.79-1.3,3.78-.52,5.5.38,2.41,1.25,4.79,1.73,7.43.49a3.72,3.72,0,0,1,2.33-.46c4.16,1.67,8,1.87,11.78-.83.87-.62,2.19-.08,3.17.56,1.52,1,3.3,2.72,5.11,1.57,2.22-1.41-.31-3.22-.66-5.29,3.84.93,7.26-.64,11.22-.33,5,.4,1.32-3.33,1.71-5.65,3.06,1.75,5.49.39,8.07-.72,1.26-.54,3-1,4.21-.05,1.49,1.19-.44,1.86-1,2.7-1.32,1.85.42,2.31,1.84,2.43,5.83.47,9.85,3.44,13.73,6.71,4.58,3.86,11.73,2.93,14.88-2,1.25-1.94,2.4-1.91,4.16-.55,3.8,2.93,8.08,2,12,.45,5.29-2.08,8.09-1.73,10.82,3,2.83,4.86,8.69,5,13.4,6.87a2.32,2.32,0,0,0,2.63-.72c.79-1.13-.21-1.82-1.17-2.37-1.3-.74-2.25-1.62-2.31-3l-.13.09c4-3.54,4.06-3.55,6.76.77.3.48.65,1.41,1.1,1.16,3.46-1.94,5.47-.92,7.07,2,.39.71,1.84.24,2.69-.21,1.77-.92,3.12-.74,3.91,1,.6,1.3,1.49,1.73,3,1s2.92-1.42,2.62-3.13a2.36,2.36,0,0,0-2.79-1.88c-4.9.75-5.74-3.51-8.82-5-1.44-.7-.49-2.78.78-3.64,1.91-1.29,2.45.35,3,1.47,1.42,2.83,5.75,1.91,7.58,4.19a9.24,9.24,0,0,0,6.67,3.7c1.82.19,3.54,1.84,5.33.09s1.19-3.29-.19-4.93a10.11,10.11,0,0,1-1-2.31c3.72,1.35,5.18,3.35,5.27,6.2.08,2.36.63,4.4,4.06,4.88,1.59.22,1.79,1.4,1.82,2.59,0,.94-1.33,2.55.86,2.6,1.66,0,2.62-1.53,3.53-2.67s.92-2.44-.53-2.87c-4.7-1.4-3.77-5.09-4.9-7.94a1.34,1.34,0,0,1,.62-1.84c1.17-.59,1.78.15,2.33.89.09.12.11.32.23.36,3.66,1.42,4.84,4,4.8,7.17a1.58,1.58,0,0,0,1.68,1.73c1.22-.07,1.32-1,1.53-1.86.29-1.14-.22-2.73,1.83-3,1.76-.23,1.69,1.8,2.62,2,5.34,1.36,5.83,4.76,5.66,8.61a1.4,1.4,0,0,0,1.91,1.38c2.44-.56-.21-2.13.87-3.24,2.48,2,4.69,4.53,8.82,2.63,1.22-.56,2.06.75,2.48,1.59,1.74,3.45,4.21,3.35,7.22,1.21a3.66,3.66,0,0,1,3-.83c.1,1.74-4.68,4.05.82,5.4,3.31.81,5,.4,6.12-2.17.47-1.05.23-3,2.33-2.53,1.89.44.39,1.8.16,2.78-.53,2.28,1.55,2.41,3.31,2.67,2.29.33,4-1.16,6.05-1.53v28.3c-4.07,0-6.16-1.09-3.73-4.8.87-1.33,1.65-3.22-.28-4.08s-2.27,1.56-3.57,2.17c-2.71,1.28-2.23,5.22-6.31,5.29-1.38,0-3.29,1.12-4-.41s1.5-1.35,2.58-1.7c1.67-.54,2.48-1.46,1.74-2.88s-2.3-1.55-3.69-.72c-2,1.2-5,1-6.36,3-1.59,2.27-4.07,2.35-6.78,2.59-6,.53-12.12.6-17.64,3-1.55.68-2.53.28-3.11-1-.81-1.73-1.29-3.45.5-5,.58-.51.9-1.25.33-1.9a2.29,2.29,0,0,0-2.68-.36c-1.33.53-2.61,1.16-3.9,1.78-3.67,1.75-7.28,3.91-11.33.54-1-.85-1.72,0-2.4.6-1.38,1.18-3,2.19-4.08,3.56-1.89,2.5-4,1.89-6.31.75s-3-2.81-1.42-4.88c.53-.69,1.25-1.47.57-2.28-.81-1-2-.6-3.15-.38s-2.24.41-3.38.54c-1.34.15-2.8.22-3,1.63-.26,1.74,1.23,2,2.84,2.09s2.48.83,2.37,2.15c-.14,1.7-1.57,2.69-3.17,3.48-1.27.63-2.73.66-3.43-.55-2.68-4.65-3.59-2.41-4.73.7-.44,1.19-2.3,2.41-3.33.88-1.49-2.21-2.67-3.31-5.56-1.64-.59.34-1.16-.41-1.14-1,0-2,.17-3.92,3.61-2.31,3,1.41,3.25-.86,3.79-2.33.43-1.18.6-3.09-1.54-2.66-3.22.64-6.62-.57-9.66,1-2.37,1.21-4.57.86-5.88-1.2-1.72-2.69-5.17-2.74-7.82-4a2,2,0,0,0-2.79,1c-.45.87-.06,1.63.85,2.16a6.59,6.59,0,0,0,3.62,1.16c1.12,0,2.46-.4,2.68,1,.18,1.15-.77,1.76-1.86,2.2-2.24.9-4.19,1.25-6-.84-2.54-2.88-5.8-2.14-8.85-.57-.8.41-1.26,1.35-2.42.86a2,2,0,0,1-1.08-2.17,17.8,17.8,0,0,1,.4-2.88c.19-.93.89-2-1-2.24a2.08,2.08,0,0,0-2.5,1.55c-.18.81-.13,1.66-.24,2.48-.26,1.84-1.81,2.36-2.83.92-1.87-2.65-5.19-2.82-7.89-3.85-2.47-.94-4.2-1.73-4.39-4.27a2.42,2.42,0,0,0-3.85-1.83c-4.35,2.91-9.41,4.76-13.93,7.21-4,2.16-6.56,2.83-10.45,1a12.9,12.9,0,0,0-5.08-1.43c-2.87,0-6.38-2.24-7.91-1.25-4.82,3.14-2.26-3.44-5.18-2.41-.87.31-2.21-.51-3.3-.42-7,.57-13.15-2.49-19.86-3.15-1.8-.18-1.76-1.4-1.18-2.58s1-2.62-1-2.35c-5.07.65-10.32-1.48-15.7.85,7.38,3,14.49,5.52,21.77,7.92,4.61,1.52,9.84,1,14,3.67,1.57,1,2.64,2.57,4.48,3.16,10,3.21,14,10.12,15.59,18.34.7,3.64,1.54,7.32-4.68,9-2.82.78-3.82,4.29-5,6.83-.55,1.2,4.46,7.2,5.56,6.92,2.86-.73,4.88-3.52,8.5-2.49a7.65,7.65,0,0,0,.2-1.17c.1-4.83,1.74-6.15,7.35-6.32,1.8-.05,3.78.88,5.71-.34-1.69-2.51-6-.09-7.51-3.11,10.06-.61,19.62,2.15,29.28.63a1.92,1.92,0,0,1,2.25,1.27c1,3.19,4,3.25,7.07,3.25,6.58,0,13.25-.57,19.71.14,8.45.93,18-.18,24.08,7a4.65,4.65,0,0,0,3.09,1.07,71.66,71.66,0,0,1,14.6,1.66,11.62,11.62,0,0,0,7.54-1.26c3.65-1.81,7.63-1.38,11.45-.34,2.37.65,4.21,1.78,1.09,4.23a33.4,33.4,0,0,1,12.14,1.63,14.91,14.91,0,0,0,6.79.4c2.48-.37,6.28-1.19,6.71,1.51.4,2.51-3.26,1.78-5.41,1.86a3.94,3.94,0,0,0-1,.13c-.94.28-2,.62-1.83,1.64.13.77,1.08,1,1.91,1.07,7.13.88,14.25,1.74,20.43,5.29,1.13.65,2.54.22,3.85.06,5.67-.68,11.34-1.3,17-1.95v5.83c-1.85-.29-3.74-1.18-5.52.12a.82.82,0,0,0,0,1.42c1.78,1.3,3.67.42,5.52.12.89,3.52-.76,4.26-4.93,4.26q-282.75-.16-565.5-.09c-5-4.51-11-4.51-16.78,0H469.64a26.56,26.56,0,0,0,.79-3.58c.1-1.2,1.83-3-.41-3.49s-3,1.23-2.8,2.9c.24,1.91-1.21,3-2.51,4.17H403.52c.19-1.91.38-3.83.55-5.74.08-.85,0-1.8-1.23-1.91a1.82,1.82,0,0,0-1.92,1.57c-.53,2-.91,4-1.35,6.07H304.83c1.55-6,3.06-12.09,4.68-18.12.27-1,.45-3,1.58-2.75,4.31,1,5.06-2.26,7.13-3.84,2.71-2.06,4.31-4.59,3.09-7.79-.79-2.09.43-3.11,2.2-4.48,3.64-2.82,8.39-1.61,12.73-2.86-1.7-1.45-4.09-1.18-5.25-2.66-.64-.82-1.64-2.27-.5-2.47,5.62-1,1.91-3.65,1.56-5.54-.54-3-1.35-6.6,2.15-7.84,5.8-2.06,1.76-2.74-.23-3.85-3.6-2-5.19-4.85-5-8.43.37-5.65,1.18-11.24.24-17-.37-2.21-2.39-4.67-1.77-6,1.94-4.26-.89-7.79-1.53-11.52-1.54-9.05,1.9-12.32,12.88-10.85a14.28,14.28,0,0,0,9-1.31c4.6-2.47,4.56-3.92,0-6.59-3.28-1.93-6.66-1.87-10.35-1.26-2.82.47-6.56,1.45-8-1.34s-.3-5.71,3-7.59a5.31,5.31,0,0,0,1.5-1.06c.44-.54,1.13-1.4.91-1.78-1.53-2.57.48-4.19,2-6a3.4,3.4,0,0,0,.79-3.49c-1.45-4.61-1.13-6.05,1.61-10.55a4.88,4.88,0,0,0,.77-2.39c0-4.28,2.84-6.88,7.1-8.65,3.16-1.31,2.91-2.89.18-4.18s-7.1-1.91-1.18-4.78c1.42-.69,1.16-2.59,1-3.92-1.16-7.42,1.19-14.78.32-22.24-.85-7.26-.49-14.62-.83-21.94-.06-1.25.29-3.44-1.65-3.47s-3,2-3.43,3.61a6.91,6.91,0,0,0,.29,2.45c.17,1.54-.81,2.82-2.47,2.29-7.06-2.24-6,2-7.25,5.51-2,5.68,1.2,13.36-8.19,16.45-.32.1-.54.71-.56,1.09-.25,4-2.28,8.21,1.74,11.78a1.7,1.7,0,0,1,.2,2.64c-4.45,5.23-2.79,11.44-.81,16.22,2.56,6.18.12,11.54-.25,17.21-.28,4.39-.39,8.8-.88,13.15-.46,4.12,1.51,9.17-4.54,11.91-2.44,1.1-2.38,2.32-.71,4.32,2,2.41,4.24,5.55,3.13,8.33-1.77,4.42-.48,9.32-3.54,13.44-.74,1,0,1.8,1.2,2.35,3.31,1.53,1.79,2.46-.46,3.68s-5.18,2.28-5.41,5c-.21,2.39-1.5,3.82-4,4.76-1.32.5-3.4,1.49-2.24,2.62,3.09,3-.87,5.47-.31,8.21.16.76-.54,1.64-1.69,1.79-1.31.18-1.53-.76-2-1.49-1.16-2-2.51-2.23-3.72-.08-2,3.52-.14,8.13-4.37,11.09-.14.1,1,1.3,1.26,2.06.9,2.58,2.49,6.55.09,7.57-5.58,2.36-5.4,6.75-6,10.24-1.7,9.41-2.17,19-3.15,28.67-1.68-.85-2.25-2.27-2.91-3.65a1.63,1.63,0,0,0-1.94-.93c-.88.19-1.59.83-1.35,1.52,1.38,4-2.56,7.18-2.13,11.08.2,1.83-1.84,2.74-3.83,1.77-4-1.95-6.6.13-9.43,1.86H210.08c1-1.58.6-3.17.32-4.85-.74-4.52,1-6.38,6.19-7.24,1-.16,3-.27,2-1.57-3.34-4.13.88-2.88,2.89-3,2.64-.16,5.34-1.45,4.29-3.3-1.34-2.34.05-3.29,1.18-4.66.9-1.1,2.55-2,1.24-3.59-1.17-1.44-2.71-1.59-4.74-1.38-3.42.37-7,1.12-11.52-1.22,4.88-.83,8.33-2.1,12.37-.87,2.75.84,5.9-.52,5-2.63-1.84-4.19-1.08-8.39-1.44-12.53-.31-3.61-1.79-4.75-5.9-4.93a186.24,186.24,0,0,1-20.45-1.79c-5.46-.85-6.27-.85-7.7,3.74-.12.38-.31.94-.64,1.06-3.64,1.34-4.26,4.84-6.94,6.81s-2.86,4.16-1.35,6.34c2.33,3.37,1.06,6.15-1.43,9.92C182,563.33,185,558.43,180.2,555c-.66-.47.58-1.41,1.22-2,1.34-1.33.78-2.22-1-2.83s-3.59-1.32-5.4-2c-.79-.28-1.39-1-2.19.36-2.42,4-9.13,3.35-11.34,7.81-.62-2.58.36-4.76-.6-6.88a2.77,2.77,0,0,0-2.48-1.78c-.88-.06-2.09.37-1.89,1,1.38,4-3.63,7.52-1.47,11.12,3,5-.87,8-4.62,8.62-9.66,1.66-7.72,7.61-8.23,12.84-.41,4.23-1.92,8.45-.23,12.71H80.8c.1-2.35-.33-4.46,2-6.72,3-2.92,2-7.23-1.17-9.94-1-.85-1.91-1.6-.57-2.77.74-.64,3-1.21.7-2.21-1.8-.78-5.54-1.48-5.7.07-.51,5-4.67,4-8.15,4.58-1.66.26-2.83.48-1,2.33,2.51,2.47,1.35,9.2-1.43,11.37-1,.75-2,1.54-3.48,1.14a2.37,2.37,0,0,1-2-2.61c.48-3.75-2.4-6.9-2.47-10.51,0-1.16-.26-1.89-1.92-1.7s-3.66-.21-4.64.51c-1.24.91.56,1.82,1.4,2.6,3.59,3.31,2.67,7.07,2.5,11.4-2.83-1.59-1.7-4.1-4.08-5-2.59,2.13,1,5.78-2.68,7.5H31.45c1.22-3.33-.39-6.69.41-10.18.7-3-6-5.08-9.06-3-1.12.73-2.14,1.89-1,2.79,4.08,3.15,2.11,6.86,1.73,10.44-5.92,0-11.85-.12-17.76.06-2.48.07-3-.47-3-2.55.1-25.8.06-51.6.06-77.41,6.7-.69,13.4,1.54,20.09,0,1.37-.32,3.26-.52,3-2.17-.22-1.48-2-1.81-3.46-1.81-6.56,0-13.16-.79-19.64.66V494c1.77,0,3.55.11,5.3,0,1.42-.11,3.09-.35,3.56-1.7s-1.17-2.08-2.24-2.82a10.8,10.8,0,0,0-6.62-2.11V470.73c3.45-.87,1.64-3.85,3-5.65.57-.75-1.75-1-3-1ZM885.37,550.87c-.34,1.81-4.14,1.19-3,3.37,1,1.86,2.87,2.83,5.62,2.51,2.91-.34,5.8-.81,8.68-1.16,7-.86,14.21,1.89,21.34-.14.11,0,.3.1.43.19,2.61,1.88,4.32,1.35,6.36-1,2.2-2.52,6.13-1.44,9.27-1.83,2.64-.32,1.1,2.15,2,3.12,1.46,1.55,3.51,1.69,4.49.14,2.29-3.59,6.22-3.29,9.85-3.34,8.64-.11,17.3-.68,25.9.79,2.6.45,3.94-.59,3.39-3.14-2-9.27-13.2-13.41-22.75-8.74-3.23,1.58-6.9,2.47-11-.54-4.87-3.53-4-8.22-5.13-12.31-.83-3-4.26-4.28-4.66-7.42-.17-1.3-2.15,1.61-3.85,1.24a7.17,7.17,0,0,1-1.76-.65c-4.33-2.25-7.72-1.11-10.52,2.07a7,7,0,0,1-4.28,2.53c-5.43,1-5.56,1.37-3.11,5.72.75,1.33,2.27,2.87.65,4.18-1.88,1.51-3.58,0-5.2-.92a9.07,9.07,0,0,0-2.18-.93c-2.36-.62-5.05-2.75-6.27,1.34-.41,1.38-2.34,1.22-3.7.23-3.35-2.44-6.22-2-8.59,1.06-2.93,3.82-7,5.92-12.48,6a5.76,5.76,0,0,0-1.86.51c-3.45,1.31-4.38.36-4-2.69.39-2.81,1.52-6.39-1.21-8.24S864,529.5,864,526.79a6.89,6.89,0,0,0-2.4-4.48c-1.8-1.77-3.46-2.34-5.41.13-1.72,2.17-3.31,4.34-4.79,6.64-2.12,3.28-.87,4.74,2.67,5.42,2.76.53,3.2,1.35,1.84,3.38s-1.82,4.29.42,6.14c2.85,2.36,2.53,4.64.07,6.9-1.91,1.75-1.68,2.46,1.23,2.69,4.59.36,9.4-.62,13.72,1.8A3,3,0,0,0,875,554C877.16,549.55,881.35,550.76,885.37,550.87ZM373.82,249.36c4.82,3.37,6.39,6.61,6.54,11.09.15,4.33,1.58,8.28,0,13-1.43,4.17,2,8.82,4.16,13,1,1.89,4.21,3.73,5.89,1.64,2.39-3,3.36-1.38,5.38-.14s3.77.25,3.39-1.69c-.56-2.84.24-5.5.47-8.24s-.77-5.12-4.18-5.84c-2.09-.44-2.09-1.27-1.89-2.64a8.58,8.58,0,0,1,1.71-4.73c3-3.36,2-6.29-.49-9.5a9.59,9.59,0,0,1-2.1-8.1c1.82,3.5,2.86,7.3,6.67,9.81,1.29.85,1.58,3.29,3.92,2.34,2.18-.89,2.35-2.93,1.78-4.77-.82-2.65-.46-4.88,2.23-6.72,1.22-.83,1.19-2.22,1.26-3.48.06-1.1-.2-2.55,1-3.1,6-2.85,1.05-4.18-1.19-5.36a38.27,38.27,0,0,0-9.75-3.85c-7-1.46-9.89-5-7.44-10.69,1.52-3.52,1.42-7.07,1.37-10.66,0-2.6-2.11-3.7-4.68-4.1-3.17-.49-3.36,1.87-3.71,3.49a36.35,36.35,0,0,0-.81,9.92c.15,2.26.81,5.31-2.14,6.32-2.8,1-5-1.39-7.16-2.89a11.18,11.18,0,0,1-4.92-8.75c-.08-1-.42-2-1.85-2.11-.48,0-1.4.51-1.45.85-.66,5.17-4.39,10.13-2.48,15.4,1.62,4.48,4.25,8.7,6.54,13,.56,1.05,1.53,2.84,3.13,1.51,2-1.62,2.27-.63,2.92.65a4.74,4.74,0,0,0,2.93,2.66c.78.23,1.69.38,1.54,1.3s-1.17,1.31-2.15,1.42S376,249.36,373.82,249.36ZM848,365.74c5.95,1.07,10.11-1.3,14.79-1.53,2.19-.1,3.37-.41,4.08-2.57.86-2.65,3.63-4.29,6.28-6.07,4.6-3.1,10.73-2.58,15.22-5.32a17.41,17.41,0,0,1,11.48-1.88c5.7.91,10.61-1.13,15.77-1.12,5.47,0,8.54-2.37,11.83-5.05,2.43-2,1.85-3.86-1.47-4.43-1.88-.32-4,.17-5.86-.08-2.33-.31-5.77,1.2-6.36-2.58-.15-1-1.77-.78-2.34,0-.87,1.15-1.81,1.07-3.27,1-4.41-.19-8.8,2.67-13.26,0-6.08,3.49-12.56,0-18.33-.47-6.47-.49-12.52-1.41-19,0-3.05.68-4.54,1.07-3.7,4.31.51,2,2.12,5.37-.73,6.48-3.93,1.54-4.47,4.22-5.15,6.94a34.5,34.5,0,0,1-2.74,7c-1.56,3.15-5.69,5.18-5.3,9.18.11,1.15-1.39,2.12-2.72,2.78a4.31,4.31,0,0,0-2.49,3.39c-.59,3.4-.34,6.89-1.6,10.22a1.52,1.52,0,0,0,1,2.09,2,2,0,0,0,2.54-.71c1.34-3.24,5-5.55,5-9.35s3.23-5.46,6.78-6.89c2.32-.93,6.74,1.14,6.94-2.11C855.63,366.31,850.87,368.4,848,365.74Zm-735.7,96.82c2.69,0,5.47.22,8.2-.57,1-.28,2-.61,2-1.6a1.74,1.74,0,0,0-1.77-1.73c-6.06.05-11.53-2.73-17.89-2-13.49,1.65-27.13,2.33-40.74,3.13-3.36.2-7.07.72-9.6,2.8-1.72,1.42-2.86,2.36-5.35,1.3a2.24,2.24,0,0,0-3.29,1.59c-.15,1.67,1.58,2,3.12,1.77,1.91-.32,3.5.5,5.2.64,5.94.51,9.59,5,16.75,4.83,7.83-.19,14.7-2.24,22-3.36A4,4,0,0,0,93,468.32C98,463.16,104.06,460.34,112.32,462.56ZM384,354.32a185.37,185.37,0,0,0-3.23,28.3c-.09,3.07-.76,5-5.09,5.07-1.68,0-4.78-.32-4.74,1.83,0,1.85,3.05,1.59,4.82,2.16a3.61,3.61,0,0,0,1,.14c3.06.09,3.94,1.08,1.93,3.3-1.59,1.75-1.7,3,1.47,3.25,1.75.15,2.87,1.17,2.26,2.59-1.16,2.7-.46,4.83,1.88,6.77,1.31,1.09.48,2.24.06,3.45a8.86,8.86,0,0,0,2.63,9.28c1-1.08.4-2.42.78-3.57,2.8-8.31.58-17,3-25.36,2.58-8.8,2.48-17.69,2-26.67C392.49,359.69,391.32,355.64,384,354.32Zm555.86-32.17c-3.2-1.76-6.29-1.24-9.26-1.14-2.45.08-4.9.52-7.35.49-17.5-.24-35-.69-52.49,0-3.5.15-6.92.25-9.75,2.22-1.79,1.25-6,.55-5.53,3.17.41,2.46,4.17,1.49,6.37,1.85,9.37,1.52,18.62.06,27.9-1.06a1.92,1.92,0,0,0-1.23-.78c-1.3-.19-3.6.72-3.44-1.18s2.37-.7,3.67-.83c14-1.4,28.12-1,42.19-1.48C933.79,323.35,936.82,323.78,939.91,322.14ZM240.3,560.41c3.4,2.38,3.41,2.39.91,4.88-1.48,1.47-.66,2.62.86,3.44a10.9,10.9,0,0,0,7.6.89c2.12-.45,5.54.51,5.31-2.82-.11-1.52,1.22-2.16,1.73-3.25.9-1.92,3.09-3.34,3.05-5.59s-4-1.07-4.38-3.25a36,36,0,0,0,4.19-2.84c2.67-2.41,1.82-8.53-1.19-8.71a29.07,29.07,0,0,0-10.87,1.42c1.5,1.2,2.87.93,4.15,1,1.75.14,4-.13,3.88,2.15-.13,2-1.86,2.78-4.13,2.73-2,0-4.08-.41-5.71.72-1.28.88-4.69,1.52-2.28,3.54C248.19,558.75,244.19,559.3,240.3,560.41Zm628.08,17.81c2.85.43,5.63-.52,8.46-1.2.8-.19,1.62-.55,1.51-1.37s-1.08-.94-1.89-1c-1,0-2,.16-2.94.11-6.66-.33-13.79,1.09-19.78-2-6.91-3.51-14.85-3.84-22.08-6.22-1.85-.61-4.25-.62-5.06,1.34s-2.76,4.09-1.38,6.62c2.48,4.56,6.82,3.48,10.77,2.34,3.14-.91,5.69-1.37,8.33.85,1.11.93,3.11,1.59,4.5.42,3.14-2.64,6.65-1.57,10.17-1.14C862.06,577.45,865,578.56,868.38,578.22ZM446.11,536.71c-.87-1.85.76-5.2-3-4.77-2.43.28-5.44-.18-7.46,1.24s.94,3.23.4,5a2.84,2.84,0,0,0,0,1.65c1.38,4.32.2,9,2.5,13.16,2.09,3.78,4.19,7.52,2,11.82a1.2,1.2,0,0,0,.74,1.75,1.85,1.85,0,0,0,2.09-.68,5.47,5.47,0,0,0,1.56-3.41c.62-4.48-.42-9.17,2.49-13.36.37-.53.57-1.65.2-2C444,543.94,445.34,540.23,446.11,536.71ZM22.32,477.34c5.21,1,9.44-.39,13.54-2.27,1.6-.73,2.93-1.54,1.09-3.13-6.31-5.47-22.4-5.57-28.64-.19-1,.88-1.35,1.79.27,2.19C13.31,475.09,16.95,479.32,22.32,477.34Zm786-236.68a40.9,40.9,0,0,0,4.08,12.78c.55,1.15,1.32,2.4,3.21,2,1.65-.38,2.48-1.58,2.15-2.88-.61-2.42,0-4.6.91-6.86a4.9,4.9,0,0,0-1-5.14c-1.68-2-4.43-3.14-5.39-5.74-.46-1.24-1.9-.45-2.69.35C808.32,236.39,808.25,237.91,808.28,240.67ZM166.44,409.75a40.65,40.65,0,0,0-4.68.4c-1.4.3-3.06.76-3.23,2.17-.2,1.61,1.71,2.24,3,2.22,8.31-.12,16.48,1.89,24.81,1,1.36-.14,3.36,0,3.59-1.59s-1.81-1.77-3.09-2.11C179.92,410,172.51,412.09,166.44,409.75ZM78.08,538.18a10.28,10.28,0,0,0,5.14-1.28c1.38-.6,3.1-1.38,1.84-2.74-2.15-2.32-4.23-5.13-8.8-4-3.3.82-6.68,1.4-10,2.11-1.41.3-3.26.46-3.31,2,0,1.77,1.85,2.07,3.49,2.3C70.31,537.14,74.2,537.65,78.08,538.18Zm280-273.46c-.16,1.21-.28,1.89-.34,2.58-.18,2,0,3.91,2.36,5.07,2.62,1.31,4.27-.37,6.09-1.46,4.32-2.58,1.75-5-.35-7.33-1.62-1.8-2.25-5.38-5.27-4.83C357.06,259.37,358.54,262.93,358.05,264.72Zm22.37,57.62c13.2,3.05,26.3,1.29,39.42,0C406.69,321.1,393.54,320.7,380.42,322.34ZM186.72,543.83c-.06-.23,0-1-.38-1.26-2.46-1.61-3.44-3.82-4.63-6.17s-4.55-1.88-6,.48a17.51,17.51,0,0,1-1.52,2.57c-1.9,2.18-.68,2.85,1.87,3.12s5.24.5,6.56,2.92a2.1,2.1,0,0,0,2.75,1.1C186.63,546.13,186.8,545.17,186.72,543.83ZM520.36,323.28c-2.12.15-4.25.22-6.35.47-1,.11-2,.51-1.92,1.56s1.16,1.38,2.15,1.33c6.72-.35,13.48.63,20.16-.44,1.09-.17,2.52-.35,1.92-1.78-.39-.94-1.44-2.09-2.52-1.45C529.37,325.61,524.8,322.75,520.36,323.28ZM871.7,526.55c3.31-.39,6.48-1.39,7-4.58.29-1.86-2-2.17-3.92-2.18-4,0-6,2.21-6.73,5C867.53,526.74,870.06,526.35,871.7,526.55Zm-737.63-80.1a12.42,12.42,0,0,0,6.52-1.26c.83-.4,1.95-.72,1.64-1.74s-1.42-1-2.38-1.1c-3.11-.44-6.12.28-9.17.57-1.32.13-2.83.36-2.78,1.76,0,1.67,1.75,1.7,3.24,1.75C131.94,446.48,132.75,446.45,134.07,446.45Zm990.6,49.3a2,2,0,0,0,1.8-2.08c0-2.65-4.41-6.25-7.51-6.13-1.51.06-2.53.6-2.54,2C1116.4,490.29,1123.67,495.8,1124.67,495.75Zm-723-118.67c-2.17.13-5.33-.91-5.35,2,0,2.52,2.94,2.54,5.23,2.37s6.33.67,6.35-2.15C407.87,376.33,403.82,377.68,401.62,377.09Zm-1.71,58.19c-2.13,0-4,.24-4.25,2.15-.2,1.54.57,3.66,2.64,3.19,2.94-.67,7.88.14,8.33-2.73C407,435.63,401.87,436.78,399.91,435.27Zm28.18,116.38c-.09,5.12-2.4,10-1.84,15.1.12,1.1.46,2.57,2.09,2.36,2-.26,1.69-1.81,1.25-3s-1.47-2.28-.77-3.56C430.83,558.84,428.09,555.3,428.09,551.65Zm-294,8.18c.61,1.6-1,4.65,1.25,4.64,2.73,0,.39-3,1.28-4.5a1.94,1.94,0,0,0,.21-.8c.3-3,.65-6,.83-9a1.77,1.77,0,0,0-1.79-2.09c-1.2,0-1.87,1.09-1.45,1.74C136.6,553.24,133.06,556.47,134.09,559.83ZM911,329.93c1.79,0,3.59,0,5.38,0,.7,0,1.26-.45,1.17-1.07-.05-.33-.57-.89-.85-.88-4.57.23-8.94-1.72-13.53-.85a1.82,1.82,0,0,0-1.19,1.09c-.17.66.64.88,1.25,1A22.8,22.8,0,0,0,911,329.93Zm-524.59,6.4c-1.33-.06-2.12.28-2.22,1.32a1.94,1.94,0,0,0,1.85,2.14c2.89.42,5.83.5,8.64,1.37,1,.31,2.48,0,2.75-1.14.23-1-1-1.38-1.78-1.76C392.73,336.92,389,338.17,386.41,336.33ZM460,580.5c5.72.52,11.48,2.48,17.32.28.86-.32,2.12-.58,1.65-1.64s-1.59-.72-2.41-.22c-1.94,1.19-3.93.75-6.07.46A24.11,24.11,0,0,0,460,580.5ZM223.09,342.92c2.44.22,4.26.41,4.23-2,0-3-2.71-3.23-5.28-3.64-2.22-.36-2.21.72-2.4,2.12C219.26,342.17,220.47,343.3,223.09,342.92ZM522,541.56a7.26,7.26,0,0,0,.46,2c.59,1.12,1.32,2.62,3,2.28,1.87-.37.72-1.83.58-2.82-.3-2.18-1-4.33.23-6.5a1.24,1.24,0,0,0-.85-2,1.49,1.49,0,0,0-1.84,1C523,537.47,522.53,539.48,522,541.56ZM390.69,434.88c2.39,0,5-.1,5.12-2.33s-2.58-2-4.47-1.95c-2.13.06-5.35-.62-5.45,1.94C385.82,434.37,388.71,434.81,390.69,434.88Zm540.19,67.49c-2-4-6.86-3.6-9.74-5.7-.71-.52-1.83-1.07-2.61-.23s.09,1.9.86,2.52C922.49,501.47,926.49,501.84,930.88,502.37ZM148.67,401.52c2,.2,3.83.25,4-1.66a2.31,2.31,0,0,0-3-2.5c-2.51.55-6.9-.13-6.93,2.57S147.11,400.15,148.67,401.52ZM439.77,576.64H440c0,1.09,0,2.19,0,3.28,0,.93-.25,2.24,1.22,2.33s1.58-1.23,1.48-2.14a22.56,22.56,0,0,1,.23-8.56,1.13,1.13,0,0,0-1-1.58,1.41,1.41,0,0,0-1.48,1.36C440.11,573.1,440,574.87,439.77,576.64Zm-305.34-149c2-.22,4.65-.43,4.75-2.21.13-2.36-2.8-1.67-4.54-1.78s-4.57-.53-4.51,1.87C130.17,427.27,132.72,427.26,134.42,427.64Zm275.9-216c-3,3-3.6,5.48-2.58,8.23a1.76,1.76,0,0,0,2.13,1.24c.48-.11,1.12-.75,1.11-1.12C410.88,217.57,410.62,215.11,410.32,211.69ZM775.14,321.11c4.82,1.34,9,.85,13.15.85.82,0,1.66-.28,1.63-1.18a1.13,1.13,0,0,0-1.31-1C784.45,320.55,779.94,318.49,775.14,321.11Zm417.54,195.18a2.77,2.77,0,0,0,2.36-3.13c-.1-1.62-1.35-2.44-3.19-2.54-1.52-.08-2.72.48-2.28,1.9S1190,515.93,1192.68,516.29ZM951.91,536.08a6,6,0,0,0-3-4c-.68-.42-1.74-.66-2.24-.07-1.2,1.4,1.29,2,1.24,3.23a4.67,4.67,0,0,0,.2,1.23c.23,1-.26,2.6,1.6,2.54S951.69,537.38,951.91,536.08ZM776.57,204c1.59-.73,4.62-.18,4.95-2.32.24-1.57-2.14-1.3-3.5-1.23-1.91.1-4.35.05-4.65,2.15C773.16,204,775.08,203.85,776.57,204ZM408.69,578.15c.93-.23,3,.21,2.84-1.25-.21-2.36-2.93-2.12-4.91-2.45-1.16-.19-2.63-.09-2.49,1.2C404.36,577.71,406.38,578.06,408.69,578.15ZM374.63,263.09c-1,.27-3,.24-2.58,1.29.74,1.88,3.21,2.52,5.26,3.16,1.28.4,1.54-.71,1.4-1.57C378.4,264,376.73,263.31,374.63,263.09ZM515.46,583.4c-.35.74-.67,1.49-1.05,2.22-1.7,3.24-.63,5.52,1.79,4C519.46,587.57,516,585.49,515.46,583.4Zm654.65-67.6c-.32,1.56-.26,2.89,2,3.06,1.21.09,2.52-.32,2.44-1.43-.1-1.6-.78-3.58-2.51-4C1169.9,512.81,1170.6,514.93,1170.12,515.8ZM16.88,400.15c1.4-.34,3.69.4,3.76-1.59.06-1.58-1.91-1.56-3.3-1.66-1.68-.12-3.59.09-3.72,1.76C13.47,400.48,15.61,399.87,16.88,400.15ZM99.32,448c-1.29.22-3.35-.26-3.07,1.63.21,1.4,2,1.7,3.44,1.63s3.81-.08,3.64-1.82S100.84,448.26,99.32,448ZM355,322.83c3.75.56,6.67,1.23,9.68.21a.7.7,0,0,0,.1-1.34c-2.86-1.65-5.65-.15-8.46.25A8.88,8.88,0,0,0,355,322.83Zm471,53.33c-2.93.09-5.18-2-7.86-.07a1,1,0,0,0,0,1.79c2.4,1.35,4.62-.11,6.89-.52C825.14,377.33,825.27,377,825.93,376.16ZM92.77,445.1c1.49-.12,3.19-.26,3-1.94s-1.88-1.72-3.37-1.7-3.23.08-3,1.85C89.61,444.83,91.25,445,92.77,445.1ZM327.28,341c-1.56.23-2.9.77-2.93,2.27,0,1.25,1.21,1.55,2.43,1.46,1.58-.11,2.94-.68,2.94-2.21C329.72,341.34,328.5,341.11,327.28,341Zm14.26-4.9c.08-1.07-.7-1.54-1.74-1.6-1.81-.11-3.76,0-4.33,1.76-.33,1,1,1.2,2,1.24C339.06,337.63,340.73,337.71,341.54,336.15Zm178,225.7.79.18c1-2.1,2-4.2,2.89-6.32.36-.83.31-1.74-1-1.91-1-.13-1.39.61-1.52,1.3C520.31,557.34,519.95,559.6,519.56,561.85Zm326.2-157.61c.15-1-.5-1.43-1.37-1.44-2.08,0-3.86.64-4.74,2.29-.51,1,.31,1.63,1.47,1.52A5.86,5.86,0,0,0,845.76,404.23ZM137.21,529.81c-1,.39-3.11-.36-3.1,1.52,0,1.29,1.58,1.65,3,1.62,1.57,0,3.2-.48,3.17-2C140.22,529.72,138.6,529.92,137.21,529.81Zm290-124.18c-1.91.33-2,1.58-1.9,2.85.09.81.45,1.91,1.69,1.53,1.5-.46,3-1.41,2.92-2.92C429.81,406.08,428.35,405.83,427.17,405.63ZM369.76,248.44c-1.23-3.1-2.94-4.86-5-7C364.59,245.51,364.82,245.85,369.76,248.44ZM358.71,555.81c-2.45,2.38-.08,4.39-1.16,6.23-.36.61.06,1.48,1.15,1.4a1.31,1.31,0,0,0,1.23-1.55C359.64,560,359.19,558.16,358.71,555.81Zm156.87,23.25a37.93,37.93,0,0,1,1.39-3.78c.58-1.21,1.41-2.33,2.38-3.9C514.34,574.59,514.28,574.71,515.58,579.07ZM26.49,419.85c-1.32,0-2.21.61-2.19,1.7s1.16,1.52,2.37,1.54,2.39-.25,2.2-1.53C28.72,420.52,27.72,420,26.49,419.85ZM781.44,308.37c-.7.17-1.54.51-1.42,1.53a2.27,2.27,0,0,0,2.34,2.16,1.49,1.49,0,0,0,1.67-1.61C784.09,309.16,783.32,308.45,781.44,308.37Zm-371.73,251c0-1.24-.82-1.82-2.07-1.9s-1.86.45-1.92,1.45.25,2,1.68,2.14S409.36,560.3,409.71,559.36ZM53,574c1.19-.15,2.88,0,3-1.41.1-1.05-1.34-1-2.27-1-1.2,0-2.91-.48-3,1.21C50.72,573.84,52,574,53,574ZM517.6,473.11a1.69,1.69,0,0,0-1.58-1.9c-1.55-.14-1.9.83-1.9,1.89a1.66,1.66,0,0,0,1.52,1.86C517.16,475.09,517.44,474,517.6,473.11ZM403.35,581.48c-.2-.89-.3-2-1.79-2.08a1.45,1.45,0,0,0-1.72,1.61c.09,1.12.46,2.36,2.12,2.38C403.19,583.41,403.37,582.43,403.35,581.48Z"/><path class="cls-2" d="M1197,317.58c-7.77-.86-15.39.51-23,1.18-11,1-22.15,1.63-33.12.92-6.07-.39-12.36,1-17.91-.36-9.15-2.24-18.63-1.09-27.67-3.14a26.51,26.51,0,0,0-4.89-.36c-2.3-.08-3.41.61-3.77,2.83-.46,2.76,0,5.93-3.1,8-.57.39-1,1-.32,1.39,5.79,3.65,3.93,9.25,3.41,13.52-2.06,16.88-.32,33.77-1.34,50.62-.3,4.92-4.22,7.92-9.85,7-3-.47-5.53-.51-8,1.82s-7.14,1.42-9.13-1.35a4.84,4.84,0,0,0-2.67-1.68c-.76-.25-2.15-.61-2.13-.85.49-6.42-7.18-5.41-10.5-8-.12-1.6,1.16-1.28,2-1.49,1.87-.47,2.15-1.82.54-2.26-7.33-2-4.52-7.49-5.85-11.49-.46-1.38.41-3,.18-4.51-.33-2.06.75-2.74,2.89-3a2.46,2.46,0,0,0,2.38-2.72,2.18,2.18,0,0,0-2.26-2.32c-4-.2-7.27-2.76-11.87-2.35,2.92-1,3.11-2.3,1.31-4-3.62-3.39-4.11-7.76-4.93-12-.45-2.34,0-4.61,4-4.3,1.55.12,2.15-.78,2.88-1.83a13.05,13.05,0,0,1,11.32-6,11.71,11.71,0,0,0,4.8-.73c1.22-.54,2.18-1.27,2.24-2.53a2.46,2.46,0,0,0-2.13-2.51c-7-1.76-13.14-5.73-20.84-6-3.53-.11-7-.81-4.61-5,.61-1.09.18-1.94-1.15-2.31-2.25-.62-2-1.92-1.36-3.32s1.77-2.77,4.08-1.88c1.32.51,1.92.18,2.69-.88,3.27-4.48,2.82-9.44-1.39-13s-3.87-5.72,1.95-7.72c2.27-.78,2.87-2.6,4.12-3.65,4.31-3.6,4.45-5.76.63-10-2-2.23,2.57-5.6,5.71-7.37,2.4-1.36,3-2.44.77-4.15-1-.77-2.08-1.65-1.42-2.85,2.21-4,.91-8.16,1-12.28.05-2.22-.2-5.45,3.84-5.85,5.2-.51,9,2,9.37,5.69.25,2.52,1.28,5-1.21,7.42-1.53,1.51.28,2.62,2.46,2.95,3.56.53,4.85,2.16,2.95,5-1.3,2-.88,5.84-3.63,5.63s-1.05-3.81-1.6-5.87c-.21-.79,0-1.85-1.22-2s-1.59.8-2.17,1.45c-3.26,3.69-3.32,6.8-.21,10.82.44.57,1.05,1.08.66,1.86-.28.11-.63.38-.84.32-5.73-1.79-6.44-1.7-5.42,3.31a39.9,39.9,0,0,1,.77,12.89c-.73,5.27,1.09,9.88,2,15-.68-.32-1.05-.38-1.2-.57-1.61-2.1-3.8-5-6.39-4.37-2.93.67-3.68,4.32-5,6.69-1.18,2.05,1.5,3.49,3.89,3.8a18.79,18.79,0,0,0,6.81-.11c2.05-.53,3.46-1,5.71-.05,2.1.84,2.41-1.69,3.43-2.83.84-.95,1.34-2.69,3-2.31s.62,1.87.51,2.88c-.14,1.23,0,2.28,1.77,2.47,5.3.58,10.6,1.18,15.92,1.65,2.54.22,3.66-1.63,5-3,1.6-1.66,3.61-2,4.89-.26,4.83,6.6,12.29,4.12,18.94,4a49.17,49.17,0,0,1,6.81,0,199.3,199.3,0,0,0,31.83,1.33c4.78-.18,9.79,1.72,14.3-1.13.23-.15,1,.1,1.36.32,6.18,3.65,13.17,2.17,19.91,2.29,6.38.11,12.65,2,19.1.89Zm-141.07,32.7c.64,5.29,1.27,10.65,1.94,16,.19,1.48.05,3.58,2.37,3.56,2.65,0,2.38-2.26,2.52-3.86a115.24,115.24,0,0,0,.07-17c-.1-1.64-.52-3.67,1-4.79,4.9-3.71,3.45-8.27,2.9-12.75-.33-2.68-2.19-4-5.3-3.82-2.91.15-3.76,1.66-4.5,4C1055,337.86,1057.41,344.09,1055.92,350.28Zm14.95-33.11c.79.64,1.11.79,1.25,1,.91,1.54,1.86,3.09,4.4,2.38a2.62,2.62,0,0,0,2-3c-.15-2.05-1.83-2.9-3.93-3-2.77-.19-5.56-.23-8.34-.17a3.17,3.17,0,0,0-3.35,3c-.2,1.48.18,2.93,2.15,3.27C1068,321.15,1070,320,1070.87,317.17Zm-17.46-1c-.14-1.47-1.51-2.34-3.25-2.22a4.81,4.81,0,0,0-4.59,4.26c-.37,2.14,2,2.26,3.78,2.2C1052.26,320.33,1053.07,318.52,1053.42,316.2Zm-15.4-4c-1,0-2.07.14-2.12,1.18-.06,1.33,1,2,2.49,2,1.16,0,2.52-.33,2.53-1.48C1040.94,312.48,1039.2,312.61,1038,312.23Z"/><path class="cls-2" d="M2.83,190.24c3.25-1.28,6.77-2.12,9.32-4.5,1.88-1.76,4.12-1.32,6.28-.26,1.13.55,2.36,1.42,3.62.71,1.5-.85.24-2-.06-3-.54-1.81-1-3.82,1.36-4.81s4.8-.73,6.2,1.68c.8,1.38,1.78,1.73,3.47.63a58.6,58.6,0,0,1,20.12-8.12c1.39-.29,2.75-.56,3.46.65.87,1.48-.84,2.06-1.93,2.36-3.61,1-4.6,3-4.43,6,.21,3.77-2.73,5.86-7.09,5.66-1.49-.07-3.39-1.39-4.34.49-.85,1.68-1.19,3.9.42,5.13,2.44,1.86,3,4.17,3.7,6.56a3,3,0,0,0,.8,1.51c6.29,5.16,7.12,12.37,10,18.82.29.65.46,1.66,1,1.84,8.37,2.82,3.75,8.62,3.9,13.07a12.67,12.67,0,0,0,1.65,6.5c2.54,4.44,6.12,8.52,6.18,14,0,4.58,1.52,9.15,2.52,14.56a17.73,17.73,0,0,1-7.26-7.1,52.86,52.86,0,0,1-3.39-6c-1.33-2.84-2.91-4.17-7-3-3.05.86-3.6,1.66-1.77,3.6,2.73,2.91,3,6.74,6,9.77,2.25,2.29.73,6.34,2,9.6,2.4,6.33,4.12,12.5,11.26,16.92,3.77,2.34,4.42,7.53,7.35,11.09,1.25,1.52-.92,1.55-2.24,1.39-5.42-.64-11.36-.35-16-2.56-3.16-1.5-6.89-3.06-9.33-5.39-5.16-5-12-7.32-18.83-9.73a10.76,10.76,0,0,1-5.07-3.13A46.91,46.91,0,0,0,18,279.08c-3.19-2.64-6.35-3.88-10.38-1.23-1.36.9-3.14.64-4.79.61V214.37a20.68,20.68,0,0,1,14.31,4.23A29.44,29.44,0,0,1,28.76,239a2.27,2.27,0,0,1-.5,1.9c-1,.77-1.71-.09-2.41-.67s-1.43-1.39-2.49-.79-.91,1.76-.58,2.67a4.53,4.53,0,0,0,1.53,2.06c2.79,2,3.36,4.65,3.59,7.46.1,1.18-1,2.64.68,3.44,2.12,1,1.46-2.3,3.52-1.8.11,6.15,6.8,8.78,10,13.31.92,1.31,3.07.79,2.63-1.09-.89-3.75.22-7.45-.21-11.19-.69-6-3.24-11.57-5.22-17.27-1.43-4.12-3.33-8.42-.26-12.41,1.84-2.39,1.47-4.09-.44-5.93a51.24,51.24,0,0,1-8-10.45c-2.61-4.24-6.06-7.53-12.44-7.25-1.31.06-3.23,0-3.56-1-1.76-5.28-5.95-4.19-10.26-3.08a6.78,6.78,0,0,1-1.47,0Zm9.57,30.47c-1.91.57-1.56,2.1-1.46,3.37.88,12,4.28,23.68,7,35.44.18.76.54,2.1,1.44,1.89a10.26,10.26,0,0,0,4-2.12c1.14-1,.46-2.28-.52-3-3.71-2.53-4.51-6.19-4.66-9.68-.36-7.89-4.05-15.36-3.74-23.3A2.29,2.29,0,0,0,12.41,220.7Z"/><path class="cls-2" d="M79.81,3A17.12,17.12,0,0,0,83,12.46c5.42,7.16,4.75,15.11,4.19,22.87-.46,6.37,0,12.7-.07,19,0,1.06.76,2.39-.86,2.93s-2.2-.82-2.93-1.69c-6.77-8-11.78-17-18.39-25.06C58.76,23,52,15.68,43.61,9.65c-2.75-2-5.7-3.78-7.23-6.69Z"/><path class="cls-2" d="M151.86,593.91c.63-3.7,3-4.87,7.55-5.41a131.41,131.41,0,0,1,16.17-1.28c-3.58-4-8.66-1.36-12.41-3.35,1.85-1.62,4.14-1.21,5.74-1.16a67.23,67.23,0,0,1,20.67,4c1.42.51,3.71,1.92,0,2.88-.88.23-2.23,0-2,1.26.22,1,1.43.92,2.42,1,1.78.14,4.77-1.42,4.23,2.08Z"/><path class="cls-2" d="M2.83,339.22c16.43-.49,32.83.79,49.31.29,9.92-.3,20.19-1.35,30.15,1.39-26.48,1.1-52.92,2.83-79.46,2.48Z"/><path class="cls-2" d="M2.83,53.73c2.94.1,3.92,1.6,3.9,3.84-.08,9.6,2.1,19.19,0,28.82-.59,2.79-1.24,5.39-3.95,7.29Z"/><path class="cls-2" d="M2.83,286c3.29.34,7.86,4.07,8.08,6.53.05.6,0,1.12-.72,1.33a2.17,2.17,0,0,1-2.14-.67c-1.59-1.44-2.15-3.85-5.22-3.86Z"/><path class="cls-2" d="M151.18,312.4c-2.69-2.05-5.83-2.58-9.17-2.63a5.91,5.91,0,0,1-5.63-3.42,17,17,0,0,0-4.26-5.55c-1.06-.89-2.13-1.85-3.84-1.35-1.86.54-1.7,1.79-1.43,3.1a16.94,16.94,0,0,1-.32,3.17c-1.82-5.24-4.23-4.06-7.68-3.08-9.16,2.59-12.77,3.45-17.57-6-1.73-3.42-3.76-6.41-8.16-7.88-1.28-.43-2.82-1.42-3.21-2.43-1.9-4.94-6.66-7.81-11-10.75-4.67-3.16-3.86-7.71-5.35-11.63-.78-2.05,1.73-1.76,3.35-1.65,7,.48,11.62-4.43,10.83-10.28-.69-5.14.37-10.44-2-15.46-.43-.89-.23-2.14-.91-2.77-4.42-4-4.12-9.21-4.75-14.09-.35-2.67-1.07-4.77-4.11-6.12-1.34-.6-3.16-1.75-2.11-3.28s2.58-.34,3.91.18c2.3.89,3.47,1.52,3.49-1.9,0-3.73-.2-6.42-4.43-8.44a3.56,3.56,0,0,1-1.38-4.92c.85-1.7,2.71-1,4.28-1.14,10.22-1.14,18.3,3.05,26.33,7.36,2.13,1.14,4.06,2.36,6.75,1,1.29-.63,2.54,0,3.59.76a22.25,22.25,0,0,0,3.78,2.65c1.85.82,3.28,4,5.56,2.13a5.78,5.78,0,0,0,1-7.7c-1-1.62-2.07-3.14-2.31-5-.18-1.39-.29-2.91,1.47-3.68s3.14.23,4.49,1c2.5,1.44,2.82,3.59,2.72,5.9-.16,3.47-.37,6.93,2.52,9.9,1,1,.71,3,3,2.8s4.42-1.22,5.32-3.25a10.73,10.73,0,0,0,.16-9.33c-.66-1.4-1.75-3,.11-4.18s2.94.62,4.22,1.32c6.3,3.48,11.22,8.27,16.79,12.46,3.14,2.36,7.29,3.56,10.54,5.91,1.51,1.09,2.8.17,2.93-1.45.11-1.38,0-2.78.07-4.16s-.43-3.49,2.11-3.62,2.43,1.83,2.49,3.35c.12,2.62.94,4.93,3.72,6.44,1,.56,1.93,2.07,3.28,1.09s1.22-2.67-.07-3.72c-2.18-1.77-1.67-4.11-2.32-6.21a1.56,1.56,0,0,1,.4-1.5,1.65,1.65,0,0,1,2.14.43c2.38,2.54,6.9,4.38,4,8.71-.67,1-.15,2.19.37,3.22s.88,2.35,2.54,2.15,1.53-1.56,1.59-2.65c.09-1.41-.88-2.88.43-4.81,1,2.54,2.2,4.53,2.53,6.61.37,2.36,2,3.62,3.94,5,2.46,1.71,6.38,1,8.28,3.91.62,1,2.71-.17,3.65-1.22,2.55-2.88,4.61-1.85,6.44.56a17.76,17.76,0,0,1,2,3.3c1.26,2.76,2,5.71,7.08,4.27,1.65-.47,3.37.9,4.8,1.83,4.26,2.79,8.47,5.64,12.72,8.45a13,13,0,0,0,2.83,1.62c5.72,2,9.24,6,8.9,11-.47,6.94,3.5,12.19,8.59,17,3.29,3.11,4,7,4.73,10.72.46,2.26.34,5.7-4.73,3.59-.84-.35-1.64-.47-1.91.5-.41,1.46.37,2.56,1.39,3.78,3.39,4.06,6.65,8.21,9.71,12.46.68,1,2.49,2.64.42,3.55-1.48.66-2.3-1.16-3.05-2.18-1.15-1.58-1.83-1.4-3.13.07-2.06,2.33-2.1,4.7-.79,7.3-2.63.22-3.46-1.44-4.91-2.21-2.1-1.11-3.6-3-6.92-1.89-2.17.71-3.87-1.71-6-2.45-2.29-.8-3.73-1.32-5.94.63-3.35,2.94-9.49,2.52-14.58-.09-8.43-4.31-17.43-7.39-27.39-7.87-2.3-.11-2.86-1.2-3.12-2.56a29.72,29.72,0,0,0-9.24-16.22c-8.16-7.35-7.82-16.37-9-24.89-.83-6.07-6.94-7.17-9.92-11a11.59,11.59,0,0,0-3.43-2.34c-3.94-2.22-6-5-5.82-9.29.16-3.21-.61-6.38-5.77-7-2.52-.28-2.28-2.3-2.24-4,.12-4.69-7.57-12.31-12.91-13-2.13-.28-2.77,1.21-3.89,2.12-1.44,1.16-2.07,2.59-.9,4.12,3.25,4.27,5.65,9.1,11,12a7.87,7.87,0,0,1,3.17,3.12c.48.87,1.15,1.86,0,2.65-.93.63-1.82-.07-2.7-.4-2.24-.85-4.49-1.68-6.77-2.46-1.29-.45-2.68-.52-3.59.53a2,2,0,0,0,.45,3c5.15,3.19,5.38,8.2,7.33,12.67,1.31,3,5.94,4.82,5.28,9-.7-3.78,4-8-2-11.24-1.11-.59-1.39-2.8-1.38-4.26,0-2.87,2.14-.8,3.42-.89,2.23-.16,1.34-1.91,1.83-2.94s.84-2.34,2.18-2.61c1.88-.38,1.81,1.31,2.29,2.18a20.73,20.73,0,0,0,8.72,8.72c6.47,3.37,9.06,9,10.55,14.75,3.48,13.34,7.67,26.36,16.16,38.18a42.44,42.44,0,0,1,4.51,8.71c1.05,2.54-.49,4.38-3.61,3.93-3.46-.5-6.67-1.4-9.82.72a2.79,2.79,0,0,1-2.26-.31c-2.68-2.14-5.52-.94-8.35-.55-.82,1.56,2.85,2.8.71,4-1.93,1-3.64-.8-5.11-1.73-7.06-4.49-12.35-10-14.28-17.57-.59-2.34-2.1-5.08-5.71-5.71-2.06-.36-1.68-2.66-3.75-3.19-2.67,2.61-.2,5.66-1.09,8.64-2.95-1-3.15-3-3-4.78.79-10.94-4-20.45-10.2-29.69-1.84-2.73-2.94-5.82-4.26-8.78-.52-1.17-.32-2,1.59-2.35,3.12-.53,3.57-2.95,2-4.4-2.51-2.38-2.29-4.84-1.64-7.37.72-2.78-.3-4.72-2.54-6.7a157.65,157.65,0,0,0-15.34-12.25c-3.31-2.27-7.4-3-11.55-3-2.53,0-4,1.11-2.6,3.58,4,7,10.28,12.82,15,19.48a9.68,9.68,0,0,0,2.25,2.72c8.55,5.69,9.64,13.91,10.11,22.07.54,9.37,5,17.3,10.42,25.18C144.35,295.82,149.21,303.47,151.18,312.4Zm116.41-24.75c-1.54-1.87.41-6.07-2.86-6.2-2.17-.09-1.26,4.21-1.53,6.57a1.14,1.14,0,0,0,0,.41c.52,2-.92,5.57,1.78,5.54C267.38,294,266.78,290.14,267.59,287.66Zm-9.21-35.45c-1.14,2.72-2.14,4.64-1.51,6.73.32,1.08.14,2.9,2.14,2.71,1.52-.15,1.33-1.72,1.33-2.78A14.35,14.35,0,0,0,258.38,252.2Zm-49.3-21.41c-1.72,2.57-2.43,4.61-.87,6.78.62.87,1.61,1.68,2.8,1.13s.49-1.54,0-2.2C209.7,235,210.44,233,209.08,230.79Zm-120.61-22c-.46-1.39-.77-3-3-3.23A1.08,1.08,0,0,0,84.18,207c.58,1.53.87,3.46,3.1,3.83C88.39,211,88.45,209.75,88.47,208.83Z"/><path class="cls-2" d="M263.05,51.1c.26,5.65,7.74,8,7.46,13.76-.05,1.06.91,2.06,2.07,2.71,1.91,1.07,1.89,1.53.15,3.28-2.33,2.34-1.27,5.41,1.58,7.64,1.26,1,3.3,1.41,3.33,3.32-1.58.74-1.86-.79-2.81-1.08-2.58-.79-3.5.26-3.07,2.2a10.33,10.33,0,0,0,1.84,3.35c3.83,5.49,5.69,11.7,10,17.14,6,7.64,12,15.51,14.52,24.71.18.65.52,1.58,1.09,1.78,5.48,1.91,6.18,6.92,9.41,10.28,4.26,4.44,3.08,10.33,4.82,15.49,1.92,5.7,3.4,11.51,5.56,17.18A35.09,35.09,0,0,1,320.06,193c-1,4.41-3,8.78-9.42,10-2.3.44-1.81,2.38-2,3.84-.13.83-.22,1.76-1.39,2s-1.75-.59-2.2-1.34c-1.76-2.91-4.33-4.42-8.39-5-3.76-.51-5.82-3.38-7-6.4-5.59-13.79-14.43-26.35-21.31-39.66-1.92-3.72-5.61-6.41-11-6.89-1.74-.15-5.65.21-2-3.08,2-1.76-.32-2.92-2-3.81-7.54-3.91-14.67-8.15-18.84-15.1-.86-1.43-2.52-2.52-3.84-3.75-.44-.41-1.06-.69-1.45-1.13-3.36-3.87-5.48-8.83-12.52-9.31-.93-.06-2.57-1.34-2-2.52.85-1.7,2.56-.45,3.83-.23,5,.87,6.45.11,7.53-4.18.71-2.81.41-5.81,2.48-8.38a2.27,2.27,0,0,0,0-2.35c-3.73-4.91-2.32-10.22-1.63-15.38,1.07-8-.78-14.73-9.68-19.3-3.28-1.69-5.81-4.43-8.61-6.75-.53-.44-1.14-1.25-1-1.76,2-7.73-5.22-11.53-10.08-16-3.68-3.39-5.22-6.18-2-10.16,1.38-1.69,1-3.74,1.13-5.66.6-6.83,4.09-8.38,11.52-5.88,6.18,2.08,10.24,6.42,15.63,9.28,8,4.24,15.92,8.57,24,12.67,2.78,1.41,4.62,3.9,8,4.64.77.17,1.26,1.33.8,1.77C252.2,47.32,258,51,257.16,55a1.73,1.73,0,0,0,1.58,2.25c1.38.08,1.71-1.07,2.18-2C261.56,54,260.84,52.43,263.05,51.1Zm10.46,45.16c0-5.35-3.75-8-10.09-7.53-1,.08-1.68-.19-1.93-.87-2.54-6.92-9.92-10.48-15.21-15.47a22.37,22.37,0,0,0-12.42-6.3,3.48,3.48,0,0,0-3.18.7c-.9,1-.22,1.86.61,2.56,1.36,1.16,1.44,2.73,2.11,4.12,1.56,3.24,2,6.66,5.2,9.6,4.93,4.5,11.39,7.49,15.85,12.35,1.69,1.84,3.36,1.13,4.8-.45.89-1,2.39-2.48,3.17-.46,1.11,2.89,4.12,2.64,6.29,3.84C273.08,100.76,273.77,99.22,273.51,96.26ZM235.62,41a12.47,12.47,0,0,0-5.06-8.38,1.47,1.47,0,0,0-2.17,1c-.21,3.38.53,6.55,3.71,9,.71.54,1.39,1.38,2.44,1.1C236,43.38,235.46,42.19,235.62,41Z"/><path class="cls-2" d="M483.07,153.4c-4.47,7.18-2.94,13.41,2.56,19.3a16.48,16.48,0,0,1,1.89,2.43c.7,1.1,1.63,2.57.22,3.4-1.68,1-2.57-.65-3.32-1.62-1.62-2.1-4.19-2.78-6.95-4.32-.25,2.81,1.72,3.94,2.56,5.48,1.24,2.25-.81,5.2-3.36,4.37-3.47-1.14-8.48-1.25-8.89-5.91-.22-2.49-1.73-3.58-4.84-3.52a6.67,6.67,0,0,1-5.14-2.1c-2-2.18-4-4.77-8-2.31a1.29,1.29,0,0,1-1.67-.51c-2.15-3.79-6.19-4.52-10.59-5-1.36-.15-3.84-.74-3.15-2.49s2.75-.8,4.29-.45c6.45,1.46,8.07.49,9.27-5.26.43-2.07,2.17-2.26,4.1-1.32a20,20,0,0,1,6.71,5.4c1,1.22,2.71,2.55,4.57,1.65s-.13-2.2-.33-3.31c-.36-1.91-.93-3.8-1.43-5.69a1.84,1.84,0,0,1,.82-2.47c3.28-2.3,3.22-5.14-.23-7.41-2.36-1.55-3-3-2.58-5.61s-1.31-5.14-3-7.77c-3.21-4.88-8.41-8.87-9.12-15.15-.78-7-1-13.78.91-20.59.65-2.29.77-4.93,2.25-6.76,3.39-4.17,4.33-8.63,4.64-13.52A8.94,8.94,0,0,0,448,63c-5.77-1.19-8.6-5.35-6.75-10,.25-.63,1-1.71,1.23-1.66,3.59.78,7.26-1.33,10.54-.24,5.09,1.69,10.25,3.36,14.34,6.82,2,1.65,4.26.61,4.28-1.85,0-4,3.19-3.76,6.56-4.44,7.16-1.46,13.32,2.71,20.31,1.92,1.84-.21,3.86-.07,5.8-.34,6-.83,7.32.09,7.64,5.27a18.77,18.77,0,0,1,0,2.49c-.35,4.88-.13,9.6,2.61,14.17,1.45,2.41,2,5.29,2.51,8s1.08,5.41,3,7.82,1,4.87-.57,7.05-3.43.26-5.18-.06c-1.3-.24-2.69-.35-3.56.76s0,1.93.67,2.65c3.35,3.43,6.4,6.93,6.42,11.69a2.7,2.7,0,0,0,1.68,1.92c4.53,1.41,7.31,4.69,11,7,1.37.84,2.2,1.65,1.77,3.06-.55,1.81-2.12,1.61-3.9,1.53a91.46,91.46,0,0,0-18.52,1.18c-6.06,1-7,3.7-2.88,7.45,2.59,2.34,1.93,4.4,0,7,3,.17,3.71-1.23,4.13-2.89a5,5,0,0,1,1.42-3,2.49,2.49,0,0,1,2.69-.46,1.19,1.19,0,0,1,.67,1.78q-2.87,4.57-5.92,9.06a1.06,1.06,0,0,1-1.89.1,3.73,3.73,0,0,0-1.87-1.21c-2.66-.49-6.24.49-6.16-3.6,0-2.25-2.13-4.47-.07-6.77.41-.45.62-1.33,0-1.45-3.05-.62-6.13-1-8.79,1-2.36,1.79-2.12,3.58-.06,5.36.92.79,2,1.43,2.89,2.25s1.32,1.59.07,2.51c-2.77,2-2.72,4.21.69,6,3.17,1.68,4,3.47,3.09,6.54-.78,2.59-1.91,5.67,3.48,6.62,1.65.29,2.53,2.78,1.88,5.07-.77,2.71-1.51,5.7,1.86,8,1.1.74-1.14,8.61-2.41,9.15s-1.82-.17-2.06-1a6.29,6.29,0,0,1,.74-5.63,2.05,2.05,0,0,0-.62-3c-1.81-1.08-2.12.74-2.79,1.46-1.32,1.42-2.83,3.79-4.6,3.26-2.13-.64-2.76-3.18-2.64-5.33a10.16,10.16,0,0,0-1.67-6c-2.33-3.67-2.82-7.62-3.32-11.61C485.48,156.63,485.63,154.87,483.07,153.4Zm4.48-4.61c-.84-2.35-2-4.93-2-7.77,0-1.83-.35-3.88-2.67-4.55a14.8,14.8,0,0,0-8.61.44c-1.86.62-.79,2.28.45,2.41,4.82.51,5.33,3.36,5.87,6.53a13.68,13.68,0,0,0,2,4.21c.71,1.21,2.06,1.25,3.41.92A1.82,1.82,0,0,0,487.55,148.8Zm-20.93,6.5c.44,1.8-.53,5,2.68,4.77,2.23-.16-.21-3.06.42-4.69a.82.82,0,0,0,0-.41c-.2-1.2-.14-3-1.89-2.87C465.89,152.25,466.93,154.1,466.62,155.29Zm30.76,18a13,13,0,0,1,.41-3c.41-1,2.57-1.74.79-3.11a2.25,2.25,0,0,0-1.71-.38,5.37,5.37,0,0,0-2.36,3.52C494.21,171.66,495.11,172.63,497.38,173.25Zm-22.7-105.6c-1.14-.06-1.82.34-1.73,1.13.21,1.82,2.08,1.78,3.59,2,.93.17,1.74-.28,1.58-1C477.77,68.18,476,68,474.68,67.65Z"/><path class="cls-2" d="M664.5,454.48c-2.65-.32-2-2.12-3.57-2.56-.24.26-.76.55-.76.84,0,3.74-4.95,5.85-4.48,9.7.44,3.64-.18,6.33-4.63,8.55-2.11,1.05-1.83,5.1-3.22,7.68-.63,1.17-1.14,2.53-2.38,3-6,2.14-4.28,6.22-3.68,10a4,4,0,0,1-.64,2.32c-1,2.56-1.1,5.81-2.28,7.74a19.83,19.83,0,0,0-3.23,12.78c.15,1.66-2.63,3.39-5.11,3.16-2.66-.24-2.22-2.59-2.27-4.06-.21-6.39-.52-12.78.19-19.17.25-2.29.38-4.49-2.86-5.53-1-.33-2.46-.68-2-1.94s1.76-1,2.92-.82,2.69.7,3-.5c.38-1.6-1.62-1.38-2.77-1.63-9.11-2-12.7.23-15.12,8.87-.58,2.08-1.49,3.23-3.84,3.68-4.47.85-8.94,1.73-13.41,2.56-1.67.31-3.67.73-3.41,2.38.33,2.14,2.5,1.09,4,.94s2.92-.84,4.06.48a1.5,1.5,0,0,1,.07,2c-1,1.42-2.66,1.61-4.32,1.33a37.79,37.79,0,0,0-8.78-.16c-3.43.22-6.24-.91-5.87-4.54a4.72,4.72,0,0,0-1.38-3.45c-.52-.65-1.2-1.92-.88-2.22,3.56-3.37,2-7.8,3.11-11.62A87.7,87.7,0,0,0,584,468c.14-1.44.16-2.65,1.46-3.74,1.84-1.54,4.87-2.93.75-5.34-1.32-.77.24-2,1.3-2.63,3.78-2.14,4.44-5.12,5-8.82.73-5-.12-10.25,2.54-15,.4-.73.49-1.76,1.85-1.5a1.3,1.3,0,0,1,1,1.71c-.88,3.39,4.26,5.47,2.64,9.19-.42,1,2.09,1.41,3.6,1.36,1.35,0,2.22-.54,1.79-1.85-.28-.86-.42-1.73,1-1.92a2.32,2.32,0,0,1,2.39,1.16c1.54,2.6,4.31,4.85,1.88,8.29-1.17,1.67,2.67,7.15,4.91,7.1,3-.06,5.16-2.08,7.59-3.38.64-.35,0-1.26-.42-1.87a10.27,10.27,0,0,1-.72-1.48c4.64.81,1.8-3.89,4.63-4.46,1.62-.33,1.06-1.35,1-2.33-.16-3.4,1-6.31,4.92-7.94a5.14,5.14,0,0,0,2.88-2.71c1.26-2.85,3.95-3.87,7.28-4.19,5.21-.5,6.18.37,5,4.7-.26,1-.78,1.94.65,2.52a4.86,4.86,0,0,0,3.77.42c1.39-.56,1.13-1.47.64-2.47-1.16-2.34.74-3.6,2.81-4,3.59-.7,3.55-2.05,1.5-3.94-1.85-1.7-1.59-2.75.81-3.8a5.06,5.06,0,0,0,3.16-6.05,53,53,0,0,1,1.15-28.22c2.37-7.48.23-15.07,2.23-22.46.4-1.47.17-3.08.69-4.51.58-1.61,2.28-2.37,4.26-2.27s1.88,1.6,2.15,2.8a18.88,18.88,0,0,1-.14,7.42c-2,11.9-4.78,23.77-3.77,35.88.33,3.92-.71,8.36,5.51,10.45,2.5.84,1.6,5.88-1.36,7s-3.87,3-3.12,5.3c.87,2.7-.74,5-1.74,7.14-2,4.24,2,9.85-4.28,13-.51.26-.37.69.09,1C666.53,449.5,663.46,452,664.5,454.48Z"/><path class="cls-2" d="M336.55,56.26c6.54-1.33,13-3.25,19.79-4,2.48-.26,3.92-.35,5.13,1.71,1.33,2.27,3.31,3.16,5.66.71.42-.44,1-1.07,1.56-.66,3.25,2.27,4.6-.12,6.28-1.72a4.16,4.16,0,0,1,4-1.18c2.07.55,1.09,2.06.93,3.2A6.2,6.2,0,0,0,381,58.7,9.8,9.8,0,0,1,382.34,67c-1,4.46,2.38,8.36,5.32,12,1.69,2.09,5.05,3.29,4.47,6.53-.13.73.68,1.09,1.65,1.18,5.95.51,9.17,2.77,10.82,7.48.37,1.06.67,2.36,2.33,2.32S408.58,95,408.87,94C410,90,410,86.05,410.35,82.1c.36-3.61,2.37-7.79,7.82-10.27a66.34,66.34,0,0,0-2.94,15.94c-.07,2.15.43,3.43,3.2,4.36,3.9,1.32,6.89,4.14,10.92,5.5a3.9,3.9,0,0,1,2.36,3.91c0,4.14,2.68,7,6.15,9.53,2.11,1.5,3.32,2.88,2.93,5.56-.49,3.37.12,6.87.34,10.31.15,2.3-.83,2.83-3.14,1.62s-5-1.49-6.5-3.55a2,2,0,0,0-2.49-.82c-1.32.67-.54,1.69-.2,2.59a7,7,0,0,0,3.46,3.39,24.69,24.69,0,0,1,6.39,5.55c-1.7,1.12-2.54,0-3-.63-3.18-4.19-9-5.73-12.77-9.48-2.59-2.6-7-1.84-10.78-1.68-6.2.26-9.91-1.37-11.6-6.3-1-3-3.52-6.15-.07-9.72,2.35-2.43-1.56-5.89-9.05-7.28,5.3,5.38,7.32,10.34-.48,14.33-1.21-1.68-2.5-3.71-4.06-5.59-1.21-1.46-2.62-3.12-5.08-2.81s-3.65,2.19-4.51,4c-.63,1.33-.23,3.52-2.74,3.35-2.19-.15-2.25-2.25-2.64-3.62-1.12-3.9-2-7.85-2.91-11.78-.61-2.6-1.71-4.63-5.28-5.31a4.72,4.72,0,0,1-3.74-3.44c1.21-1.11,1.88-.19,2.62.23s1.76,1,2.63.21a1.53,1.53,0,0,0-.25-2.59c-3.1-2.18-3.37-5.11-3.86-8.21-.69-4.38-5.87-6.44-8.3-10-.35-.51-1.21-.42-1.75,0-.73.52-.53,1.25-.44,1.94.48,3.79,2.25,7.32,3.22,11,1.39,5.29,1.24,11.11,5.76,15.62.64.64,1.2,1.93.37,2.24-5.84,2.19-5,8.72-10.38,11.14-1.24.55-2,2.11-3.73,1.54s-1.39-2-1.28-3.27c.07-.82.45-1.71-.47-2.33-8.07-5.53-5.85-12.92-4.35-19.74a59.68,59.68,0,0,0,.92-14c0-2.26-1.24-3.3-3.63-1.62-3.68,2.59-8.44,1.92-12.55,3.18a1.6,1.6,0,0,1-2-.76c-1.84-5.47-6.91-7.35-12.8-8.56-1.3-.27-4.19-1-1.24-3,1.44-.95.76-1.83.19-2.9s-3.25-1.86-1.34-3.4c1.41-1.14,3.69-2,5.46-1.34,3.54,1.24,7.11.64,10.64.71a16.14,16.14,0,0,1,9.12,2.56c1.47,1,3,3.18,4.85,2.2C339.63,59.35,336,57.86,336.55,56.26Zm33.14,16.91A8.21,8.21,0,0,0,373.11,81,12.41,12.41,0,0,1,378,89.27c.5,3.35,1.91,6.6,1.93,10.1,0,1.82,1.52,3.14,3.87,3,1.41-.1,1.38-1.21,1.34-2.27-.21-5.32-2.86-10.51-.92-16,.38-1.06-1.12-1.9-2.27-2.78-3.08-2.36-7.94-3.57-8.18-8-.1-1.81.93-4.82-2-4.75C368.53,68.63,370.42,71.91,369.69,73.16Zm32.15,20.72c-2.11.21-3,1.62-3.82,2.9-1.26,1.9.67,3,1.79,4.33.48.54,1.26,1.25,2,.69,1.34-1,.63-2.34.19-3.48C401.45,96.86,403.11,95.37,401.84,93.89ZM374.47,64.71c1.38-.25,1.46-1.11,1.15-1.93-.47-1.27-.69-3-2.64-3.13-1.29-.11-1.13,1.16-1.06,1.94C372.06,63,372.48,64.34,374.47,64.71Zm18.28,26.08c-.46-1.3-1.79-2.09-3.06-2.89-.62-.39-1.44-.1-1.38.55a3.53,3.53,0,0,0,3,3.25A1.06,1.06,0,0,0,392.75,90.79Zm-11.87-16.3c-1.31-.71-1.65-2.7-3.92-2.85-.75,0-1,.7-.69,1.22a5.09,5.09,0,0,0,3.63,3C380.57,76,381,75.48,380.88,74.49Z"/><path class="cls-2" d="M646.75,170.72c2.44-3.08-1-4.55-1.08-6.92,5.55,3.33,10.6,6.95,12.91,12,1,2.27,4.51,6.18-1,8.5-.9.37-1.14,1.34-.35,1.69,3.5,1.58,2.61,4.48,3.23,6.94a5.4,5.4,0,0,0,4.09,4.23c3.3,1,6,2.88,6.91,6a5.44,5.44,0,0,0,3.18,3.53c.7.31,1.6.76,1.82,1.31,1.07,2.66,4,6.18.82,7.94-2.66,1.46-5.13-1.84-6.6-4.24-.2-.32-.72-.5-2.05-1.37.63,6.69-1.68,12.82,2.9,18.57-2.17.55-3.3-2.55-5.19-1-1.38,1.12-.42,2.94-.83,4.41a8.69,8.69,0,0,0,1.37,7.21c2.17,3.48.35,7.63,2.53,11.15.19.31-.28,1.13-.71,1.45-.87.64-1.57-.07-2-.57-3.37-3.72-7-7.34-5.79-12.6,1.37-5.83,3.4-11.53,4.39-17.45.54-3.26-.14-6.34-.39-9.48-.11-1.42-1.55-2.65-3-3.18-5.74-2.15-8-6.71-11-10.75-1.71-2.28-9.18-5.55-12.08-4.94-4,.85-2.53,3.84-2.57,5.93-.06,3.17,3.27,3.34,6,3.7.89.12,1.88-.46,2.84-.54a1.72,1.72,0,0,1,1.85,1.11c.24.68.2,1.92-.34,1.85-3.21-.39-5.56,3-8.54,1.67s-6.85-2.56-6.48-6.53c.21-2.21-1.38-3.79-2.59-5.63-3-4.62-6.51-9.15-7.35-14.58a18.72,18.72,0,0,0-.48-2.46c-.85-2.87-3.9-4.22-6.56-4.28-2.81-.07-2.14,2.94-2.63,4.69a9.75,9.75,0,0,0,0,3.3c.12,1.55,2.85,3.22.76,4.46-1.56.92-3.51-1-5.31-1.56-2.73-.87-5.66-1.56-8.11-.36-3.82,1.87-4.28-.8-4.3-2.32,0-2.38-.34-5,1.73-7.16,1.73-1.8,2.08-4,2.12-6.29,0-1.4,0-3-2.16-3.28-1.74-.26-2.57.91-3.38,2-.68.91-.14,3-2.46,2.38a2.93,2.93,0,0,1-2.23-3.41c1.82-6.45-3.38-11.32-5.32-16.87-1.14-3.25-.64-6.58-1.95-9.77-.66-1.61,1.49-1.68,2.64-1.25,10.8,4.08,24.18,3.61,32,13a11.75,11.75,0,0,0,5.2,3.06,31.29,31.29,0,0,1,12.15,7.37C637,165,643.42,166.1,646.75,170.72ZM617,161.92c.63-.29,1.36-.43,1.65-.8.54-.7-.07-1.38-.67-1.81-3.47-2.46-6.92-4.95-10.53-7.25a2.86,2.86,0,0,0-3.92.38c-1,1.3-.9,3.09.46,3.78C608.14,158.3,612.56,160,617,161.92Z"/><path class="cls-2" d="M1000.64,444.61c-3.08.18-5.37,1.62-8,2.42-1.23.38-2.63,1.31-3.65,1.07-5.13-1.17-8.86-.19-11.14,4.08-.46.87-1.66.76-2.62.34-2.77-1.2-5.49.16-8.24.12-3.65-.05-4,2.13-4.09,4.55,0,.28-.93.69-1.5.81-11.23,2.29-22.24,5.46-33.88,6.22a8,8,0,0,0-3.67,1.1c-4.94,3.29-10.66,2.36-16.26,2.48-3.72.08-7.42.68-11.12,1.12-1.17.14-2.55,1.35-3.21-.43-.46-1.24.52-2.08,1.71-2.7a2.24,2.24,0,0,1,.89-.35c9.6-.26,14.22-6.61,20-11.59a3.83,3.83,0,0,1,1.47-1c4.32-.94,3.84-2.79,1.39-4.86.23-.78.73-.68,1.13-.5,1.65.71,3.31,1.41,5,.16a1.39,1.39,0,0,0,.31-1.93,5.28,5.28,0,0,0-4.37-2.37c-2.29-.07-4.59.26-6.88.22-3.19-.06-5.35-.89-3.1-4,.6-.83,1.55-1.76.38-2.56-.94-.64-1.74.32-2.47.82a33.36,33.36,0,0,1-14.08,5.89c-2.16.33-4.17.6-5.18-1.09s.26-3.47,1.88-4.71a10.42,10.42,0,0,1,2.63-1c-2.53-4,1.5-3.57,4-5.15,5-3.16,7.46-3.09,12.46-.19,7.58,4.4,15.06,9.77,25.48,8.59,2.37-.27,4.48-1.2,5-2.91,1.27-4.27,4.56-6.84,8.76-9,2.6-1.32,3.41-3.53,4-5.95.31-1.4.74-3.15,2.89-3.55,2.31-.43,2.4,1.36,3.24,2.48,2.18,2.9,7.15,3.15,9.9.58,1.08-1,2-2.49,3.89-2.13,2.21.42,2.16,2.11,2.46,3.65,1,5.14,7,9.23,13.2,9.12,6-.1,9.28,3.72,7.1,8.21C994.39,444.5,999.73,442.21,1000.64,444.61Z"/><path class="cls-2" d="M798.82,422.55c-2.25,3.43-2.25,3.43,3,4.7-.71,1.39-2.24.68-3.34,1-2.14.54-5-1.37-4.88,3.52.09,3.69-1.4,10-8.61,11.83-2.95.74-1.37,2.14.36,2.64,3,.86,2.64,1.92.86,3.53-1.13,1-3.16,2.07-.54,3.62,1.5.89.17,1.21-.59,1.71-2.68,1.77-7.88,1.15-7.62,5.7-.79,0-1.57-.05-2.36,0a43.43,43.43,0,0,0-13.24,2.76,2.87,2.87,0,0,0-1.68,1.42c-.89,2.93-.78,6.43-6,6.51-.11,0-.32.21-.31.29,1.22,7.1-6.12,2.9-8.89,4.74-.43.28-1.32,0-1.93.17-1.64.43-4.36,0-4.56,1.69s2.48,1.21,3.87,1.72c2.6,1,3,2.26.39,3.48s-4.23,3.24-6,5.26c-2,2.3-4.49,5-9,3a4.13,4.13,0,0,0-5.32,1.78c3.33.8,6.76-.29,9.71.95,1.85.77,4.52,1.25,4.22,3.44-.26,1.9-2.78,2.31-4.66,2.52-5.21.56-10.44,1-15.68,1.22a49.53,49.53,0,0,0-7.1,1.22c.07-1.09,2.3-2.58-.63-3-1.59-.23-2.58-1.28-2.31-2.76s1.71-1.87,3.14-2.32c1.23-.39,3.73,0,3.1-1.84-1.15-3.31,1.4-5.88,1.85-8.85.37-2.42,3.41-3.5,4.92-5.42.58-.74,2.42-1.33,1.33-2.25-3.49-2.95-.68-4.59,1.25-6.86,2.37-2.78,6-4.88,6.52-8.83.23-1.64,2.69-1.36,4.61-.85,7.26,1.93,13-.21,15.65-5.71.46-.95.36-1.12-2.33-3.67A76.52,76.52,0,0,1,758.54,449c1,0,2.17,0,2.43-1,.35-1.33-1-1.53-2.11-1.8-.63-.16-1.31-.2-1.91-.41-1.85-.65-5.38-.34-5-2.44.52-2.65,4.06-1.55,6.29-1.52a8.15,8.15,0,0,1,6.1,3.11c1.39,1.66,3.46,2.45,4.84,1,1.17-1.25,2.65-3.39.61-5.26-1.2-1.1-2.62-2-4.11-3.15.51-.23.91-.57,1.28-.55,3.31.16,7.29,2.13,6.17-3.88-.67-3.59,3.67-6.11,7.91-7.2,2.8-.72,3.44-1.83,2.1-3.94-.44-.7-1.26-1.48-.39-2.26s2.1-.46,3.22-.18C790.28,420.5,794.57,421.52,798.82,422.55Z"/><path class="cls-2" d="M14.72,88.61C12.32,80.39,16,72,13.95,63.79c-.59-2.4.05-4.92,4.23-2.69a8.08,8.08,0,0,0,5.21.57C36,59.85,42.57,65.06,40.92,75.59c-.49,3.12-.46,5,4.48,3.7,2.58-.66,3.94,1,2.53,3.34-.44.74-1,1.41-1.47,2.15-.55,1-.54,2.35-2.27,2.4s-2.36-1.24-3.11-2.32-.66-3.11-2.77-3c-2.28.08-1.77,2-2.12,3.25a1.5,1.5,0,0,1-2.08,1.21c-2.59-.94-6.18-.65-7.16-3.7a13,13,0,0,1-.22-3.3c0-.9.75-2.19-.81-2.5a2.42,2.42,0,0,0-3,2.15,7.2,7.2,0,0,1-4.86,6.24c-1.51.62-1.4,2.08-.79,3.34a8,8,0,0,1,.61,1.13c.51,1.8,2.23,3.57.4,5.46a1.78,1.78,0,0,1-2.23.22c-2-1.36-1.17-3.31-1.34-5C14.68,89.72,14.72,89.16,14.72,88.61Z"/><path class="cls-2" d="M675.39,531.75c-4.89-.43-9.77-.88-14.66-1.29-2.81-.23-4.49-1.42-5-3.81-.28-1.28-.59-2.54,1-3.32,2.27-1.13,4.49-1.64,6.63.37.58.54,2.15,1.12,2.59.86,3.49-2,6-1.13,8.93,1.1,2.07,1.56,4.58-.2,6.74-1.22,1.23-.58,2.75-2.08,3.12.86.24,1.92,2.84,1.59,4,.85,7.68-4.88,16.23-1.77,24.35-1.91,3.6-.06,7.17.1,10.7-.58a40.83,40.83,0,0,1,17,.67c2.05.47,4.36,1.56,3.65,3.21-.88,2.06-3,.27-4.49-.2-6-1.91-12-2.8-18.21-.65-1.66.58-3.65,1.27-3.62,3,0,1.95,2.41,1.38,3.81,1.86,4.11,1.42,8.7,1.39,12.72,3.11,1.3.56,3.06.64,2.65,2.4-.37,1.55-1.85,1.89-3.42,1.7-8.74-1-17.5-2-25.63-5.21a7.79,7.79,0,0,0-3.21-.94c-8.33.86-16.32-3.17-24.74-1.1-1.51.37-3.26.05-4.91.05ZM695.63,525c-1.26.3-3,.5-2.9,1.79.15,1.91,2.28,1.58,3.82,1.61,1.14,0,2.56-.16,2.35-1.48S697.24,525,695.63,525Zm10.86,4.44c1.32-.15,2.77-.41,2.55-1.83s-1.78-1.4-3.06-1.43-2.78.31-2.54,1.75S705.2,529.28,706.49,529.43Z"/><path class="cls-2" d="M738.07,215.58c1.31,9.75,6.54,17.2,12,24.54A28.31,28.31,0,0,0,753.8,244c3.73,3.38,2,7.57,2.26,11.4.08,1.37-1.73.68-2.66.16-2.26-1.27-2.62-3.42-3.39-5.38-2-5.09-5.36-9-11.7-10.94-5.36-1.61-11.27-10-9.92-14.71.93-3.21-.85-4-3.6-4.65-7.64-1.91-8.4-2.76-8.07-9.68a15.44,15.44,0,0,0-3.94-11.73c-1.9-2.09-2.87-4.36-1.7-7,.43-1,.44-2.38,2.34-2.18,1.39.15,1.68,1.13,1.9,2.13a22.75,22.75,0,0,0,1.09,4c.63,1.49,1,3.5,4,1.84,2-1.13,2.06.73,2.37,1.6.85,2.43.51,5,.36,7.43-.3,5.08,2.24,9.12,6.43,12.49,3.85,3.1,4.56,2.94,7-1C736.89,217.36,737.2,216.91,738.07,215.58Z"/><path class="cls-2" d="M552.68,112.88a5.24,5.24,0,0,1-.46,1.75c-1,1.39-1.14,3.69-3,4.05-2.38.45-2.72-2-3.78-3.27a12.77,12.77,0,0,1-3.11-9.25c.08-2.73-2.82-5.68-4.87-8.26s-4.13-5.27-4.27-8.27c-.23-4.9-4.55-5.84-8.51-7.22-.87-.3-2-.2-2.41-1.07-3.27-7.65-7-15.23-3.43-23.64,1.05-2.51,3.4-2.43,5.56-2.51,2.78-.1,2.8,2,3,3.59a13.06,13.06,0,0,0,1.48,5.64c1.48,2.43,1.24,4.61,0,7.11-2.26,4.44-1,7.59,3.1,10.19,2.54,1.61,4.14,1.52,4.85-1.31.16-.65.13-1.54,1.28-1.42a1.65,1.65,0,0,1,1.49,1.48,18.87,18.87,0,0,0,7.74,13c1.72,1.32,1.76,3.2-.29,4.73a4.72,4.72,0,0,0,1.35,8.37C552,107.93,551.72,110.62,552.68,112.88Z"/><path class="cls-2" d="M942.16,203.61c1.44,2-2.11,4.64.48,6,2.15,1.15,4.57-.88,6.87-1.46,1.13-.29,2.69-.64,2.75.7.09,2.05,3,3.84.5,6.18s-5.46,3.53-8.31,5.13c-1.55.87-2.34,0-2.58-1.36-.45-2.57-1.85-1.68-3.2-.53-.46.39-.78.89-1.2,1.32-1.61,1.63-3.6,4.78-4.78,4.57-3.17-.54-6.65-.37-9.52-1.49-3.58-1.4-6.57-1-9.84.39a41.65,41.65,0,0,1-6.45,2,2.74,2.74,0,0,1-3.29-1.24,2.48,2.48,0,0,1,.31-3.13c1.13-1.12,2.2-.53,3.46,0a11.75,11.75,0,0,0,3.76.72c1.13.09,2.31-.69,1.32-1.42-2.43-1.79-2-4.7-4.06-6.52-.88-.76-2.41-1.36-.87-2.62,1.34-1.09,3.22-.95,3.81.25,1.83,3.7,6.62,3.16,9.6,5.16a3.22,3.22,0,0,0,4-.48c.68-.59,1.21-1.46,2-1.75,3.3-1.15,7.62-.36,10.12-2.71C939.38,209.19,939.12,205.59,942.16,203.61Zm8.31,8.94c-.16-1-.83-1.22-1.45-1-2.08.69-4.11,1.56-4.87,3.5-.23.59.72,1,1.33.74A11.76,11.76,0,0,0,950.47,212.55Z"/><path class="cls-2" d="M1002,234.66c-1.32,3.67-4.22,4.47-7.63,3-6.84-3-13.61-6.09-21.21-7.58-1.25-.25-1.72-1.1-2.28-2-.88-1.43-1.57-4.42-3.95-.74-.19.29-1.25.37-1.82.25-3.83-.83-6.27.06-7.5,3.48-.52,1.44-2.46,1.5-5.21.8,4.49-2.79,4.88-8.31,11.56-8.32.79,0,.79-.8.42-1.3a2.3,2.3,0,0,0-3-.63c-2.3,1.07-4.51,2.27-6.79,3.37-.81.39-1.85,1.09-2.52.06-.52-.79.12-1.76.93-2.19,6.25-3.27,11.85-8.31,20.42-5.4-.63,1.4-2.55.6-3.7,1.26-1.49.86-2.42,2-2.19,3.48s1.91,2.18,3.29,2.89c1.68.87,2.69.23,3.42-1.18a2.85,2.85,0,0,1,3.35-1.17c2.58.62,8.47-1,9.88-2.83,1-1.33.06-2.08-1.07-2.73-1.55-.9-2.06-2-.33-2.93a2.09,2.09,0,0,1,3.09,1.19c.52,2.89,2.09,4.5,5.45,5.61,2.19.72,1,5.45-1.49,5.93-3,.58-3.48,1.32-1.06,3.05.79.56,1.6,1.48,0,1.83-4.78,1-1.21,2.19,0,2.9C995.23,236.57,998.57,238.07,1002,234.66Z"/><path class="cls-2" d="M1089.14,282.63c-2.66,3.83-2.45,8.42-1.92,13.14.27,2.4-2.2,2.2-4.29,1.81-2.31-.43-2.77-1-1.59-3.1,2.12-3.74.3-5.58-4.62-5.34-4.67.23-7.67-1.92-8.51-6-.13-.65-.32-1.57-.86-1.83-2.73-1.34-4-3.39-2-5.43,2.19-2.29,2.78-6.66,8.27-5.65a2,2,0,0,0,1.36-.17c1.35-1.08,2.65-3.62,4.41-2.28s4.18,3,5,5.36C1085.38,276.3,1088.77,278.6,1089.14,282.63Zm-4.74-3.47a9.88,9.88,0,0,0-3.6,5.72,1.73,1.73,0,0,0,2.49,1.73c2.66-1,2.78-3.62,3.67-5.63C1087.32,280.15,1086.28,279.23,1084.4,279.16Z"/><path class="cls-2" d="M593.34,541.25c1.62-2.95,3.08-6.43,5.34-9.48s5.4-5.52,7.31-8.76c1-1.79,1.82-1.65,3.42-.1,2.59,2.51,3.86,5,2.46,8.27a4.92,4.92,0,0,0-.35,3.23c.65,2,2.06,4.32-.94,5.44s-5.83,3.57-9.49,1.28c-2.28-1.42-3.56-.76-4.12,1.44-.22.89-.15,2.28-1.71,2.11C593.33,544.47,593.61,542.9,593.34,541.25Z"/><path class="cls-2" d="M1015.45,218.42c9.84,9.61,11.77,9.68,30,1.91-2.91,3.47-3,7.68-4.65,11.45-1.13,2.53-3.48,3.8-7.1,3a36,36,0,0,0-9.7-1.29,3.85,3.85,0,0,1-3.41-1.35C1017.63,228.19,1014.89,224.17,1015.45,218.42Z"/><path class="cls-2" d="M673.48,287.75c-2-2.52-5.08-3.1-6-4.64-1.53-2.5-6.62-3.59-5.55-6.31,2-5.14,2.25-11,7-15.26,1.26-1.14,2-.36,2.84.29,2.63,2.11,3.06,8.26,1.25,11-1.93,2.94-.34,6.12.09,9.12C673.31,283.56,673.92,285.11,673.48,287.75Z"/><path class="cls-2" d="M882.58,484c-5.09.25-9.39,1.17-12.82,4.58-2,2-4.7.22-6.78-.57-2.8-1.06-5.27-2.58-8.49-3-1.73-.22-4-1.14-3.65-3.28.3-1.77,2.19-2.24,4-2.51,2.74-.4,5.52-.67,8.22-1.21a5.83,5.83,0,0,1,5.67,1.34C872.43,482.65,877.54,483.15,882.58,484Z"/><path class="cls-2" d="M834.59,464.59c2.14,1.87,1.67,3.27,1.55,4.62-.14,1.56-.14,3.36,1.37,4.26,4.66,2.79,3.55,7.33,5.09,11,.34.82.77,2.39-.57,2.57-4.21.57-4.39,3-4.62,5.77-.12,1.48-1.24,3.31-3.35,2.87-1.91-.4-.6-2.11-.55-3.26.24-5.1-2-10-1.55-15.15C832.29,473.16,832.38,469,834.59,464.59Z"/><path class="cls-2" d="M108.16,163.13a3.24,3.24,0,0,1-2.63,3.6c-2.56.47-2.59-1.56-3-3-2.16-7.09-5-8.22-12.54-5.1-3.66,1.51-7.73,2.28-10.9,4.67a1.7,1.7,0,0,1-2.88-1c-.45-1.92-.83-4.1,2-4.92,1.65-.47,3.59-.17,5.36-.4,4.22-.55,8.46-1,12.6-1.86C102.6,153.83,108,157.38,108.16,163.13Z"/><path class="cls-2" d="M523.06,167.34c.67-2,1-3.34,1.56-4.6.67-1.5,1.12-3.45,3.86-3s3.46,2.33,3.7,4.36a3.33,3.33,0,0,1-.5,1.57c-4.11,9-4.14,9.06-12,2.43-1.8-1.51-2.93-3.44-5.58-4.4-1.69-.62-1.53-2.78-.55-4.1,1.1-1.49,2.15-.4,3,.52.2.21.56.59.67.55,8.63-3.15,3.35,3.4,5,5.11A11.87,11.87,0,0,1,523.06,167.34Z"/><path class="cls-2" d="M553.47,65.2c-2.34-1.45-4.55-1.39-7.1-.82a13.65,13.65,0,0,1-12.13-2.57c-1.46-1.18-2.37-2.28-1.65-3.93s2.51-1.66,4.12-1.54c4.22.32,8.43.75,12.63,1.19C555.3,58.14,552.69,62.26,553.47,65.2Z"/><path class="cls-2" d="M564.55,224.3c6.75,5.54,15,8.46,23.5,11.08a8,8,0,0,1,3.07,2c1.19,1.17,3.6,2.6,1.75,4.09-1.53,1.24-3.11-.79-4.46-1.65-4-2.56-8.13-4.7-13.43-4.32a3.07,3.07,0,0,1-2.69-.77C569.74,231.29,565.83,228.57,564.55,224.3Z"/><path class="cls-2" d="M714.92,439.74a38.31,38.31,0,0,0-.67-3.94c-.55-1.89.71-2.52,2.54-2.77s2.4,0,2.71,2.09c.69,4.66.6,11.45-1.35,15-.51.92-.9,1.87-2.26,1.92-1.66.06-2.07-1.09-2.59-2.13-1.19-2.35-.76-4.64.47-6.83C714.48,441.77,715.15,440.54,714.92,439.74Z"/><path class="cls-2" d="M653.95,290.81a11.5,11.5,0,0,0-.49-1.93c-.91-2.29.18-3.49,2.85-3.69,2.4-.18,4.81,0,4.94,2.7.07,1.36.35,3.14-.49,4-2.71,2.86-4.84,5.79-5.15,9.54a1.62,1.62,0,0,1-2,1.37,2,2,0,0,1-1.54-3A30.89,30.89,0,0,0,653.95,290.81Z"/><path class="cls-2" d="M564.26,539.48c3-.17,4.42.41,3.34,1.75-2.71,3.35-2,6.81-1.32,10.39.22,1.25.69,3.07-1.7,3.3-2.17.21-2.08-1.31-2.65-2.7-1.18-2.84-.59-6.4-4.39-8.34a1.12,1.12,0,0,1,.3-2.07C560.42,541,562.73,539.5,564.26,539.48Z"/><path class="cls-2" d="M890.68,417.44c4.75,0,2.38,4.47,5.31,5.79.51.23-2.1,1.79-3.64,1.82-2.77.06-4.73,3.29-8.13,1.13-2.1-1.34-3-2.19-1.1-4.21C885.22,419.76,887.16,417.59,890.68,417.44Z"/><path class="cls-2" d="M880.64,438.14c-1.92,1.91-3.09,4.85-6.41,4.82-2.23,0-5.44-.53-6.19-3.09-.47-1.58,6.76-7.08,9-6.7C879.84,433.66,879.25,436.36,880.64,438.14Z"/><path class="cls-2" d="M548.42,84.38c-.33-2.57-2.29-4.28-3.79-6.24C543,76,541.12,75,538.1,75.65c-3.46.76-4.79-1-5.32-3.43a2.45,2.45,0,0,1,.85-2.68c1.11-.83,2.06-.15,3.1.27C545,73.14,549.3,78.25,548.42,84.38Z"/><path class="cls-2" d="M1053.74,406.81c7.71-2.35,14.68-.25,21.71,0,.82,0,2.15.22,2,.81a7.77,7.77,0,0,1-2.08,3.59c-.91.83-2.94.77-3.57-.13-2.82-4-6.82-2.7-10.81-2.11C1058.28,409.32,1056.13,408.17,1053.74,406.81Z"/><path class="cls-2" d="M297,318c6.29,0,12.58-.05,18.87,0,2.45,0,4.9.34,7.35.58,1.08.11,1.9.61,1.77,1.62-.1.76-.76,1.13-1.72,1.17-8.16.34-16.2-1.54-24.39-.89-.62,0-1.32-.64-2-1Z"/><path class="cls-2" d="M636.11,142.32c.88-.33,2.12-1.1,2.7-.41,3.15,3.71,7.28,6.92,9.65,12.51-4.3-1.9-7.62-3-10.4-4.73-1.74-1.07-4.1-2.74-1.43-5.15.39-.35-.27-1.52-.44-2.31Z"/><path class="cls-2" d="M120.58,234.73c-2.76-1-4.84-2.66-5.47-4.9-.83-2.91-1.73-5.53-4.87-7.29a1.6,1.6,0,0,1-.76-2.22c.7-1.19,1.93-.73,3-.48,3.59.84,6.41,2.23,5.81,6C117.79,229,118.88,231.81,120.58,234.73Z"/><path class="cls-2" d="M684.78,126.9c7.65,4.16,15.69,7.33,23.22,11.21,1.23.63,3.11,1.25,2.24,2.72s-2.71.81-3.88.11c-6.95-4.18-13.82-8.44-20.69-12.71C685.24,128,685.08,127.35,684.78,126.9Z"/><path class="cls-2" d="M631.69,350.9c-3-3-3.3-6.3-3.9-9.52-.34-1.81.69-2.92,3-3,2.1-.07,3.49.64,3.7,2.53C634.84,344.34,633.75,347.48,631.69,350.9Z"/><path class="cls-2" d="M172.63,456.56c3.91.61,7.17-1.34,10.65-.55,1.19.27,3,.13,3.14,1.51.13,1.55-1.74,1.25-2.9,1.58-4.47,1.27-9.23-1.39-13.73.86-1,.51-3.19-.09-3.16-1.77,0-1.43,1.7-1.5,3-1.61S171.91,456.56,172.63,456.56Z"/><path class="cls-2" d="M85.39,69.25a2.9,2.9,0,0,1-1.84,3,3,3,0,0,1-3.16-.43c-.49-.36-.93-.77-1.38-1.17-2-1.78-3.41-3.73-2-6.28a1.66,1.66,0,0,1,2.33-.88C82.05,65,84.82,66.55,85.39,69.25Z"/><path class="cls-2" d="M181,485.81c2.77,5.19,1.52,9.65,1.93,14,.1,1.07-1.09,2.05-2.61,2.11s-2.45-1-2.1-1.84C179.92,495.74,178.35,491,181,485.81Z"/><path class="cls-2" d="M478.5,409.7c-3.07,0-5.84-.24-7.54,2.34a2.11,2.11,0,0,1-3.28.45c-1-1,.59-1.59,1.16-2.35,2.94-3.9,6.6-5.35,11.7-2.77,1,.5,3.05.1,2.62,1.73-.31,1.15-1.89.72-3,.71C479.51,409.8,478.86,409.73,478.5,409.7Z"/><path class="cls-2" d="M433.26,56.14c-2.58,6.11,5.48,10.57,3.31,16.58-.36,1,.28,2.48-1.81,2.18-1.51-.21-2.11-1.14-1.51-2.49,1.3-2.93,1.52-5.64-2.18-7.61a1.18,1.18,0,0,1-.27-1.87C432.47,60.87,432,58.42,433.26,56.14Z"/><path class="cls-2" d="M132,23c-3.53-3.23-6.9-6.5-8.87-10.56-.62-1.29-.93-3.08,1-3.58s2.21,1.4,2.48,2.45C127.57,15.48,131.64,18.55,132,23Z"/><path class="cls-2" d="M130.93,319.1c-8.06,1.16-16.12.76-24.18-.11C114.81,317.85,122.87,317.17,130.93,319.1Z"/><path class="cls-2" d="M675.63,343.61c.18-1.49-1.22-3.23,1.06-4.15a3.77,3.77,0,0,1,3.65.62c1.75,1.3,1,2.9.21,4.17-1.06,1.67,0,5.19-3.21,4.75C674.56,348.62,676.28,345.41,675.63,343.61Z"/><path class="cls-2" d="M569.53,329.39c-.24.23-.71.8-.82.76-4.29-1.75-8.47,1.71-12.73.18-1-.35-2.61-.25-2.47-1.53s1.66-1.13,2.75-1.13q5.6,0,11.2.13A1.93,1.93,0,0,1,569.53,329.39Z"/><path class="cls-2" d="M768.51,351.77c-1.63-4.32-.89-7.73-.93-11.08,0-1,.17-2.13,1.61-2.2a2.26,2.26,0,0,1,2.42,2.18C772.24,344.32,771.12,347.67,768.51,351.77Z"/><path class="cls-2" d="M856.42,433.63c3-1.07,5.09-4.18,9-2.87.89.3,2,.48,2,1.5,0,.81-.93,1.08-1.67,1.3C862.72,434.48,859.66,435.19,856.42,433.63Z"/><path class="cls-2" d="M556.07,539.07c-1.13-2.64-.19-3.81,2.39-4.42s5.37-1.47,7.93.25c.53.35.91,1.05.27,1.42a6.9,6.9,0,0,1-3.08,1.06C560.93,537.4,558.17,536.69,556.07,539.07Z"/><path class="cls-2" d="M234.91,479.19c.17-1.92.55-3.84,3.3-3.95a2,2,0,0,1,2.13,2.67c-.43,1.63.09,4-2.64,4.4C235.22,482.63,235.17,480.65,234.91,479.19Z"/><path class="cls-2" d="M954.19,217.11c-1.12,4.4-4.47,6.35-9,7.29-.79.16-1.67.57-2.19-.15s.08-1.34.8-1.72C947.17,220.74,950.55,219,954.19,217.11Z"/><path class="cls-2" d="M404,56.31c1-1.65-.75-4.63,2.83-5.33a1.52,1.52,0,0,1,1.8,2.2c-.95,2,.34,5.11-3.19,5.79C403.89,59.28,404,57.58,404,56.31Z"/><path class="cls-2" d="M597.56,202.15c-2.47-2.28-3.62-4.6-3.29-7.36a2.22,2.22,0,0,1,2.37-2.22c1.83,0,1.88,1.23,1.74,2.41C598.11,197.27,597.85,199.56,597.56,202.15Z"/><path class="cls-2" d="M1063.56,292.13c0,1-5.5,5.06-6.74,5a1.5,1.5,0,0,1-.47-.06c-1-.4-.82-1.07-.5-1.73,1.17-2.36,2.7-4.47,6-4.84C1063.11,290.37,1063.52,291.2,1063.56,292.13Z"/><path class="cls-2" d="M390.71,55.68c0,1.53-.33,2.88-2.21,2.84-2.18,0-3.72-1.32-3.66-3.13,0-1.62,1.1-3.61,3.24-3.44S390.42,54.26,390.71,55.68Z"/><path class="cls-2" d="M690.93,414.16c2.55-.63,4.88-2.11,7.52-.76.88.45,1.68,1,1.44,1.94s-1.32,1.19-2.33,1.08C695.18,416.17,692.83,415.79,690.93,414.16Z"/><path class="cls-2" d="M208.74,472.33c-.52,1.93-2,2-3.47,1.85-1.71-.18-3.27-.75-2.81-2.57.33-1.32.92-2.93,2.94-2.68C207.64,469.22,207.69,471.3,208.74,472.33Z"/><path class="cls-2" d="M583,170.38a7.36,7.36,0,0,1,1.49.23c1.7,1.7,4.89,2.69,4,5.63a1.63,1.63,0,0,1-2.27,1C583.42,175.7,583.72,173.11,583,170.38Z"/><path class="cls-2" d="M228.12,422.81c-2.69,1.69-5.3,1.35-7.75,1-1.33-.19-2.21-1.29-1.59-2.57.52-1.08,1.7-1.26,2.88-.85C223.69,421.1,225.68,421.89,228.12,422.81Z"/><path class="cls-2" d="M537,131.73c-3.25,2.2-6.93,2-9.84,3.41a1.65,1.65,0,0,1-2.1-.6c-.43-.82.36-1.42,1.09-1.59C529.43,132.17,532.67,130.75,537,131.73Z"/><path class="cls-2" d="M1061.9,412c1.39,0,2.54.28,2.23,1.31-.64,2.11-2.8,3.26-4.83,4.3a1.18,1.18,0,0,1-1.71-1.31A5.94,5.94,0,0,1,1061.9,412Z"/><path class="cls-2" d="M370.47,163.08c0-.8,0-2.2,1-1.92a7,7,0,0,1,4.67,4.82c.38,1.13-1,1.6-2.29,1.42C371,167,370.61,165.09,370.47,163.08Z"/><path class="cls-2" d="M645.21,424.68c-1.4-.61-3.92-.15-3.5-2.11.27-1.25,2.13-2.18,3.83-2,1.54.18,3.62.76,3.47,2.31S646.74,424.48,645.21,424.68Z"/><path class="cls-2" d="M73.1,70.23c1.62,2.54,2.94,4.5,4.13,6.51.44.74.59,1.66-.59,2.09a1.81,1.81,0,0,1-2.09-.71C73,75.91,71.51,73.65,73.1,70.23Z"/><path class="cls-2" d="M620.26,422.76c-3.66,2-6.81,2.69-10.26,1.51-.21-.07-.36-.94-.19-1C612.89,421.3,616.21,422,620.26,422.76Z"/><path class="cls-2" d="M677,187.43a14.23,14.23,0,0,0,2.11,8.07c.27.49.46,1.09-.2,1.49s-1.18.06-1.69-.3C674.46,194.76,673.95,191.12,677,187.43Z"/><path class="cls-2" d="M1084.85,483.83c-4.64-.26-6.23-1.78-4.64-4.43a2.61,2.61,0,0,1,2.57-1.56c1.51.17,1.53,1.23,1.32,2.21-.28,1.36-.57,2.69.61,3.88Z"/><path class="cls-2" d="M552.74,76.08a3.75,3.75,0,0,1-2-3.48c-.09-1.05-.58-2.39.69-3,1.47-.73,2.23.65,3.16,1.31,1.38,1,1.66,1.88-.17,2.84C553.46,74.2,554.1,75.64,552.74,76.08Z"/><path class="cls-2" d="M694.82,464.71c-1.5,2.44-4.89,3-5.48,5.56,0,.21-.83.49-1.17.42a.89.89,0,0,1-.72-1.3C688.74,466.82,689.44,463.58,694.82,464.71Z"/><path class="cls-2" d="M436,397.23c-1.25-.17-3.08.12-2.52-1.31.65-1.66,2.85-1.66,4.62-1.59,1.46.06,4.31-.28,3.76,1.39C441.14,397.86,437.74,396.25,436,397.23Z"/><path class="cls-2" d="M1053.52,290.84c-2.12-3.15-2.08-5.34-.36-7.42.39-.47,1.47-.49,1.62.1C1055.37,285.81,1054.93,288,1053.52,290.84Z"/><path class="cls-2" d="M431.22,85.42c-2.14-2.59-2.28-4.6-.23-6.54a1.15,1.15,0,0,1,1.71.11C434,81.21,433.26,83.18,431.22,85.42Z"/><path class="cls-2" d="M197.59,103.09c.11,1.23-.62,1.93-2,1.82a3.6,3.6,0,0,1-3.39-2.58c-.24-.83.15-1.74,1.45-1.73C195.66,100.61,197.07,101.41,197.59,103.09Z"/><path class="cls-2" d="M53.81,61.15c.46-.09.66-.19.77-.15,2.34.92,3.88,2.36,3.8,4.65a1,1,0,0,1-1.41.78A5.23,5.23,0,0,1,53.81,61.15Z"/><path class="cls-2" d="M47.4,68.35c1.59,2.34,4.4,4.38,3.23,8C47.38,74,47.19,71.24,47.4,68.35Z"/><path class="cls-2" d="M636.19,142.22c-2.76-2.05-3.07-4.92-4.09-8.1,5.35,1.8,4.16,5.16,4,8.19Z"/><path class="cls-2" d="M695.16,185.11c-2-.91-1.54-2.52-2.25-3.68-.58-.95-2-2.44.17-2.95,1.41-.33,2.46,1.14,2.88,2.34A4.94,4.94,0,0,1,695.16,185.11Z"/><path class="cls-2" d="M1028.54,282.49a4.31,4.31,0,0,1-3.95,1.35c-1.27-.17-2.07-.92-1.65-2,.58-1.5,2-1.5,3.54-1.09C1027.56,281,1028.54,281.42,1028.54,282.49Z"/><path class="cls-2" d="M895.22,199.25l8.73-5.6C903.29,197.32,903.29,197.32,895.22,199.25Z"/><path class="cls-2" d="M329.16,250c-3.06-2.57-5.54-4.07-6.36-6.89C326.89,244.27,327.69,245.06,329.16,250Z"/><path class="cls-2" d="M488.85,409.13c3.29.59,6.85.6,9.62,4.09C494.44,411.9,491.28,411.15,488.85,409.13Z"/><path class="cls-2" d="M426.33,159.84c-.18.95-1,1.15-1.82,1-1.55-.28-3.56-.2-4.15-1.73-.47-1.2,1-1.21,1.91-1.11C423.89,158.16,425.53,158.41,426.33,159.84Z"/><path class="cls-2" d="M681.87,410.94c1.45,0,2.65.61,3,1.75.4,1.41-1,1.54-2.17,1.46s-2.83-.21-3.08-1.54S680.75,411.16,681.87,410.94Z"/><path class="cls-2" d="M464.57,404.07c.53-1.34,1.68-1.41,2.8-1.37,1.36,0,2.71.39,2.55,1.82-.12,1-1.3,1.05-2.28.93C466.4,405.3,465.13,405.11,464.57,404.07Z"/><path class="cls-2" d="M633.84,430a3.35,3.35,0,0,1-2.78,2.46c-1,.16-1.38-.61-1.38-1.35,0-1.44.82-2.37,2.6-2.46A1.3,1.3,0,0,1,633.84,430Z"/><path class="cls-2" d="M673.55,454.32c-.78-2.58-1.24-4.23.74-5.41a1.39,1.39,0,0,1,2,.62C677.16,451.58,675,452.35,673.55,454.32Z"/><path class="cls-2" d="M179.85,516.53a2.16,2.16,0,0,1,2.19,1.79,1.31,1.31,0,0,1-1.25,1.81,2.21,2.21,0,0,1-2.57-1.92C178.11,517.31,178.72,516.69,179.85,516.53Z"/><path class="cls-2" d="M1021.44,259.32c-2.11-1.64-2.33-3.51-1.36-6.11C1022.3,255.34,1022.15,257.29,1021.44,259.32Z"/><path class="cls-2" d="M256.64,434.69a1.53,1.53,0,0,1-2,.7c-1.67-.66-3.87,1.15-5.16-.82-.09-.13.45-.8.76-.83C252.51,433.45,254.87,432.94,256.64,434.69Z"/><path class="cls-2" d="M609.35,436.06c-1.35,0-2-.5-2.18-1.42-.18-1.13.47-1.83,1.8-1.92,1.06-.07,1.87.36,2,1.32C611.12,435.18,610.22,435.7,609.35,436.06Z"/><path class="cls-2" d="M1021.63,291c-.07,2.9-1.42,4.35-3.58,6.85C1018.37,294.55,1018.21,292.47,1021.63,291Z"/><path class="cls-2" d="M1138.09,536.08c-3.1.5-4.81-.92-4.65-3.1.22-3.11,3.84-2.51,6.15-2.9a2.94,2.94,0,0,1,3.63,3.09C1143.22,536.08,1140.62,536.26,1138.09,536.08Z"/><path class="cls-2" d="M203.7,562.2c2.52.73,3.61,1,4.62,1.36.83.31,1.41,1.13.77,1.67-2.27,1.91-5.22,1.46-7.82.87-2.39-.54-2-2.38-.91-3.74,4.56-5.63.12-10.47-2.42-15.07-1.74-3.15-.53-3.92,2.31-4.09,4.4-.26,8.85,0,13.27.06.89,0,2.32-.15,2.18,1a2,2,0,0,1-2.53,1.44c-3.84-1.86-5.88,1.7-9,1.9-1.38.09-1.68,1.24-1.33,2.28.58,1.74-.32,4.05,2.67,4.89,2.32.65,4.6,1.41,6.89,2.12,1,.3,1.86.8,1.82,1.73s-1.2,1.1-2.15,1.33C209.75,560.56,207.45,561.2,203.7,562.2Z"/><path class="cls-2" d="M173.58,578.35c4-.31,8.14,1.1,11.44-1.44,1.59,1.58,4.49,2.2,5.07,4.48.25,1-.89,2.33-2,1.45-3.59-2.81-8.09-1.73-12.13-2.52C175,580.14,173.94,580.05,173.58,578.35Z"/><path class="cls-2" d="M163.5,560c1.3,0,2.36.12,2.37,1.22a1.86,1.86,0,0,1-1.9,2,2.06,2.06,0,0,1-2.14-1.89C161.65,560.19,162.87,560.17,163.5,560Z"/><path class="cls-2" d="M387.06,255.42c1.18,2.75,2.41,5.38,3.4,8.08a1.71,1.71,0,0,1-1.28,2.4c-1.24.25-1.49-.87-1.81-1.61C386.17,261.46,381.89,258.79,387.06,255.42Z"/><path class="cls-2" d="M388.05,373.37a2.3,2.3,0,0,1-1.84-2.47,1.27,1.27,0,0,1,1.49-1.24c1.7.15,1.79,1.3,1.77,2.4C389.47,372.79,389.16,373.37,388.05,373.37Z"/></g></g></svg>