<?xml version="1.0" encoding="utf-8"?>
<!-- Generator: Adobe Illustrator 21.0.2, SVG Export Plug-In . SVG Version: 6.00 Build 0)  -->
<svg version="1.1" xmlns="http://www.w3.org/2000/svg" xmlns:xlink="http://www.w3.org/1999/xlink" x="0px" y="0px"
	 viewBox="0 0 1920 1080" style="enable-background:new 0 0 1920 1080;" xml:space="preserve">
<style type="text/css">
	.st0{opacity:0.19;fill:none;stroke:#CAD8E0;stroke-miterlimit:10;enable-background:new    ;}
</style>
<g id="Layer_2_1_">
</g>
<g id="Layer_1">
	<g id="Layer_2">
	</g>
	<g id="Layer_1_1_">
		<title>background-2</title>
		<g id="Layer_23">
			<path class="st0" d="M1722.6,114.8c1.1,4.7-0.9,9.6-5.1,12.1c-2.3,1.4-4.1,3.5-6.3,5c-1.2,0.9-2.2,2.2-2.6,3.6
				c-1.7,5.6-6.3,8.6-10.3,12.1c-2.5,2.2-5.2,4.2-7.8,6.4c-5.1,4.6-13,4.2-17.6-0.9c-0.4-0.5-0.8-1-1.2-1.6c-1-1.6-2.7-2.6-4.5-2.8
				c-6.1-0.9-11.9-3.3-18.2-4c-5.6-0.6-9.7-5.1-13.7-8.9c-1.1-1-1.3-2.7-1.4-4.2c-0.7-6.1-0.4-12,2.2-17.8c1.2-2.4,2.1-4.9,2.8-7.5
				c1.7-6.5,6.2-9.8,12.2-11.5c4.2-1.1,8.5-2,12.8-2.5c4.8-0.7,9.3,1,13.8,2.4c9.4,3,19.2,5,29.1,5.8c3.8,0.3,6.7,2.6,9.3,4.7
				C1719.1,107.4,1722.1,110.5,1722.6,114.8z"/>
			<path class="st0" d="M362.5,388.8c5.2-0.8,8.2,3,10.4,6.9s4.9,5.9,9.1,5.9c9.5,0.1,18.1,3.3,26.5,7.3c5.6,2.5,9.6,7.6,10.9,13.6
				c0.8,3.4,1.3,6.9,1.9,10.4c0.6,3.9-2.2,6.5-3.9,9.5c-0.5,0.9-1.5,0.4-2.2,0c-7.7-5-16.3-5.9-25.1-5.5c-1.2,0-2.3-0.2-3.5-0.5
				c-3.5-1.1-7.2-1.5-10.9-1.4c-3.6,0.1-6.8-0.7-9.2-4c-2.8-3.8-7.5-5.6-10.3-9.5c-0.8-1.1-2.1-1.1-3.2-1.3
				c-10-2.2-11.6-10-10.9-17.1c0.2-2.3,2-3.9,3.5-5.4c2.4-2.4,4.9-4.6,7.6-6.6C355.7,389.2,358.9,388.7,362.5,388.8z"/>
			<path class="st0" d="M633.6,647c-3.1,1.6-5.8,3.1-8.5,4.3c-4.8,2.3-8.8,5.5-12.7,9c-5.2,4.6-11.2,8.1-17.8,10.2
				c-3.3,1.1-5.7,0.6-8.2-1.9c-3.5-3.6-7-7.3-11.1-10.3c-1.9-1.4-3.1-3.6-3.2-6c-0.6-8.6-1.9-17-3.7-25.4c-1-4.3,0.6-7.9,1.9-11.7
				c2.6-8,8.7-12.5,16-15.6c0.8-0.3,1.6-0.4,2.5-0.2c3,0.6,6,0.7,9,0.5c5.3-0.1,12.2,3.6,13.7,9.9c1.2,4.7,4.6,6.9,9.4,6.7
				c5.2-0.2,8.5,1.7,10.4,6.8c1.6,4.6,4.1,8.9,6.3,13.2c1.9,3.9,2,4.2-1.1,7.5C635.5,645.2,634.3,646.3,633.6,647z"/>
			<path class="st0" d="M1666.7,164.5c0.8-0.1,2.2-0.3,3.5-0.4c10-0.7,19.6-2.7,28.5-7.7c2.2-1.2,4.7-1.9,6.8-3.2
				c3.1-1.9,5.8-1.6,8.7,0.6c4.5,3.2,8.7,6.7,12.8,10.4c1.4,1.4,1.9,2.7,0.9,4.4c-3.9,6.6-6.1,14-10.2,20.6
				c-2.9,5.1-7.6,9-13.1,10.9c-4.1,1.5-8,3.5-11.5,6c-7.1,5.1-19.8,3.3-25.4-0.4c-1-0.7-1.8-1.5-2.4-2.6
				c-4.9-8.6-9.2-17.5-11.3-27.3c-0.5-2.1-0.2-4,1.7-5.4C1658.9,167.9,1662.2,165.7,1666.7,164.5z"/>
			<path class="st0" d="M1737.5,92c6.8-1.3,13.9-3.5,21.4-1.9c5.1,1.1,9.4,3.2,12.5,7.8c3.5,5.3,3.4,10.9-1,15.6
				c-3.7,4-7.7,7.8-8.2,13.5c-0.4,2.5-1.1,4.9-2.1,7.2c-1,2.7-2.7,5.1-4.9,6.9c-4.5,3.8-8.6,8-14.1,10.4c-5.7,2.7-12.5,2.2-17.7-1.4
				c-2.7-1.7-3.4-3.6-2-6.3c1-2.1,1.7-4.4,1.9-6.7c0.4-3.1,2.1-5.6,4-8c3.8-4.8,4.7-9.8,1.5-15.4c-2.3-4-2.1-8.8-3.4-13.2
				c-0.7-2.4,3.2-6.3,6.7-7.2C1733.8,93,1735.5,92.9,1737.5,92z"/>
			<path class="st0" d="M76.3,42.3c1.2-0.3,2.7,0.5,3.4-0.6c1.6-2.6,4.2-2,6.4-1.8c4.8,0.4,9.7,0.9,14.4,1.7c3.4,0.5,6.4,2.6,8,5.6
				c2.3,4.5,4.4,9.1,6.6,13.6c0.7,1.5,0.9,2.9-0.6,4.1c-3.6,2.7-5.6,6.7-8,10.3c-4.6,6.9-10.8,12-17,17c-3.6,2.9-8.1,4.6-11.5,8
				c-1.6,1.5-3.8,1.2-5.7,0.2c-4.3-2.4-9.1-3.5-14-3.3c-1.5,0.1-2.9-0.3-3.4-1.7c-1.9-4.9-5-9.4-2.3-15.3c2.2-4.9,4.1-9.8,6.5-14.7
				c2-4.6,3.4-9.5,3.9-14.4c0.5-3.6,1.7-5.8,5.6-6.5C71.2,44.1,73.2,41.2,76.3,42.3z"/>
			<path class="st0" d="M533.6,586.7c-2.4-2.2-2.9-4.9-2.1-8.2c1-4.4,1.7-8.9,2.4-13.3c0.4-2.6,1.2-4.9,3.4-6.5
				c2.8-2.1,5.7-4.1,8.6-6.2c1.6-1.3,3.9-1.4,5.6-0.2c3.1,2.1,7,2.6,10.6,1.6c2-0.4,4-0.5,6-0.2c6.5,0.5,9.7,3.1,11.3,9.5
				c1.1,4.2,1.7,8.6,3.2,12.7c0.5,1.5,0.4,3-0.2,4.5c-1.9,5.2-4.9,9.9-8.8,13.9c-4.7,4.6-10.4,7.3-15.9,10.3
				c-8.3,4.5-16.1-0.1-20.3-5.8c-0.8-1.3-1.2-2.8-1.1-4.3C536.3,589.9,536.2,589.9,533.6,586.7z"/>
			<path class="st0" d="M407.9,930.2c-0.1-5,0.1-10,0.8-14.9c0.5-5,6-10.1,10.9-10.4c0.3-0.1,0.7,0,1,0.1c4.3,2.8,10.1,3.1,13.1,8
				c1.2,2,2.9,3.7,4.9,5c4.8,2.7,7.9,7.6,8.3,13.1c0.2,2.2,1.5,3.6,2.9,5.1c4.8,5.1,5.2,8.8,0.7,14.2c-4,4.7-8.3,9.2-12.9,13.3
				c-3,2.7-3.7,2.4-6.9-0.1c-1.5-1.1-2.9-2.3-4.4-3.4c-3.5-2.7-7.3-4.9-11.9-5.1c-2.6-0.2-4.3-1.6-4.5-3.9
				C409.2,944,406.2,936.9,407.9,930.2z"/>
			<path class="st0" d="M371.8,379.5c0.5-8.8,2.4-11,11.2-12.5c1.8-0.3,3.7-0.3,5.5-0.5c6.1-0.8,9.4-4.1,10.7-10.1
				c1-4.6,1.7-9.2,3.6-13.5c1.3-2.9,2.4-3.6,5.3-2.5c0.5,0.2,0.9,0.4,1.3,0.7c3,2.8,6.5,4.7,9.8,7c3.5,2.5,3.7,3.8,1.6,7.6
				c-0.1,0.3-0.3,0.6-0.5,0.9c-3.7,3.1-5.2,7.7-7.5,11.7c-3.3,5.4-5.3,11.6-5.6,18c-0.2,2.8-3,6.2-5.8,6.8c-5.1,1-10.2,1.7-15.4,2.4
				c-3.2,0.5-5.4-1.2-7.1-3.8c-1.9-2.9-2.7-6.5-6.2-8.3C371.4,382.6,371.6,380.8,371.8,379.5z"/>
			<path class="st0" d="M404.9,959.2c14.3,0.6,24.2,6.5,30,18.8c1.3,2.6,1.9,5.4,1.9,8.3c0,3.3-0.8,6.4-4,8.2
				c-5.8,3.3-10.5,7.8-15.1,12.4c-3.4,3.3-7,4.4-11.4,2.8c-1.4-0.5-2.9-1-4.3-1.4c-2.6-0.7-4.8-2.6-5.8-5.2
				c-3.4-7.2-5.3-14.8-7-22.5c-0.1-1-0.3-2-0.7-2.9c-0.8-1.2-3-1.9-1.8-3.7c1.5-2.3,1.1-5.8,4-7.2c1.4-0.9,2.7-2,3.8-3.3
				C397.6,960.3,401.3,958.8,404.9,959.2z"/>
			<path class="st0" d="M693.2,133.1c-0.6,5-1.7,9.5-5.8,12.6c-1.1,1-2.1,2.2-2.9,3.4c-2.9,3.9-6.9,6.3-11.1,8.5
				c-0.9,0.4-2,0.3-2.8-0.2c-4.2-1.9-9-2-13.2-0.3c-1.7,0.7-3.5,1.1-5.3,1.7c-8,2.4-13.4-2.2-16-8.5c-0.6-1.6-1-3-2.3-4.3
				c-1.8-1.9-1.7-4.9,0.2-6.7c0.1-0.1,0.2-0.2,0.4-0.3c3.7-2.5,5.7-6.2,7.4-10c2.9-6.5,6.3-12.5,11.7-17.4c1.7-1.6,3.7-2.8,5.8-3.7
				c2-1,4.5-0.6,6.1,1c5,4.2,10.5,7.9,16.3,11c3.7,2.1,6.7,5.1,9.8,7.9C692.6,129.3,693.4,131.2,693.2,133.1z"/>
			<path class="st0" d="M1544.4,74.7h0.3c0,0.5-0.1,1-0.1,1.5c0,5.8,1.8,8,7.7,9.1c3,0.6,6,1,8.7,2.5c4,2.4,8.5,3.8,13.2,4.3
				c3.4,0.3,3.9,0.1,4.3-3.4c0.2-2-0.6-4,0.1-6c2.3-5.9,2.2-12.6,6.3-17.9c1.6-2,1.1-4.1-1.1-5.1c-4.3-2.2-8.7-4.2-13.2-5.9
				c-4.7-1.8-10-1-14.7-3c-0.8-0.3-1.7,0-2.3,0.6c-0.9,0.7-2.1,1.1-3.2,1.2c-3.5,0.7-4.1,1.4-3.9,5.1c0,2-0.2,4-0.6,6
				C1545.1,67.4,1544.8,71,1544.4,74.7z"/>
			<path class="st0" d="M765,111.1c0,10.9-1.1,13-10.8,15.4c-8.7,2.2-16.9,6.6-26.1,7c-1.1,0-2.3,0.6-3.5,0.2
				c-4.5-1.5-9.1-2.4-13.8-2.7c-1.6-0.1-2.9-1.4-3-3c-0.3-5.2-2-10.4,1-15.6c1.6-2.8,1.6-6.5,3.8-9.2c2-2.4,4.1-4,7.8-3
				c3.1,0.8,6.5,1.6,9.8,0c0.4-0.2,1-0.2,1.4,0c6.8,4,13.5,2.3,20.3-0.3c1.7-0.6,3.6-0.9,5.4-0.9c5.2,0,6.5,1,7.2,6.3
				C764.8,107.5,764.9,109.7,765,111.1z"/>
			<path class="st0" d="M1856.8,154.9c-2.3-4.6-5.7-8.7-6.6-14c-0.5-3-1.3-6.3-4.5-7.4c-5.1-1.8-9.5-3.6-15.8-3.4
				c-11.4,0.4-13.4,13.2-14.7,16.1c-2.1,4.7-1.3,7.6,2.5,11c4.9,4.5,11.3,7.1,15.8,12.2c0.3,0.4,0.8,0.6,1.3,0.7
				c3.6,0.4,6.1,3.1,8.1,5.3c2.5,2.8,5.7,5,9.3,6.3c3.7,1.4,5.7,0.6,6.5-3.3c0.6-3.1,1-6.3,1.2-9.5
				C1860.1,164.1,1859.1,159.2,1856.8,154.9z"/>
			<path class="st0" d="M374.5,358.6c0.1,1.3-0.3,2.5-1.1,3.5c-1,1.3-2.1,2.6-3.2,3.8c-4.2,3.9-8.2,7.9-11.3,12.8
				c-1.6,2.6-4.4,4.1-6.9,5.7s-5.2,2.4-7.2,4.5c-1.4,1.4-2.7,0.9-3.9-0.4c-0.5-0.8-1.2-1.6-1.9-2.4c-7.5-6-5.1-6-3.4-13.9
				c0.3-1.5,1.3-3,0.8-4.4c-1.8-5,0.1-9.9,1.8-14.2c2.7-7,6.6-13.5,10.3-20c1-1.9,3.3-2.7,5.3-1.7c1.5,0.7,3.3,1,4.6,2
				c7.7,6,13.3,14.2,16.1,23.5C374.4,357.9,374.5,358.3,374.5,358.6z"/>
			<path class="st0" d="M399.4,931.2c0.3,5.8,0.7,10.2,0.3,14.6c-0.2,3.3-2.2,6.2-5.2,7.5c-5.9,2.7-11.8,5.5-18.4,6.6
				c-2.3,0.4-3.5-0.2-4.4-2.1c-1.9-4.1-3.9-8.2-6-12.1c-0.7-1.1-0.7-2.6,0-3.8c2.2-3.8,4.1-7.7,5.6-11.8c2.5-6.4,7.6-10.6,13-14.3
				c3.9-2.7,11.7-0.9,14.6,3.1c0.9,1.2,0.7,2.6,0.6,3.9C399.3,925.5,399.2,928.3,399.4,931.2z"/>
			<path class="st0" d="M630.3,602.1c-6.4,4.7-11.1,4.8-14.9,0c-3.4-4.3-7.4-8.3-12.6-10.7c-2.6-1.2-1.3-2.8,0-3.9
				c3.3-2.8,6.8-5.4,10.5-7.7c1.6-0.8,3-2,4.1-3.4c6.3-8.4,15.4-9,23.3-6.5c3.6,1.1,5.6,4.4,4.3,7.9
				C641.5,587.8,636.7,596.9,630.3,602.1z"/>
			<path class="st0" d="M668,93.5c-0.1-6.4,1.6-11.5,2.4-16.7c0.2-1.6,1.6-2.6,3.2-2.4h0.1c5.8,0.4,11.3-1.1,16.6-3.2
				c2.5-1,5-0.4,7.3,0.7c3.2,1.5,6.4,3,9.6,4.5c5.5,2.5,7.3,5.9,5.7,11.5c-1.5,5.2-3.3,10.1-9.4,12c-3.7,1.2-5.2,5-7.5,7.9
				c-2.5,3.7-6.9,5.6-11.3,5.1c-2.7-0.2-5.2-1.1-6.4-3.4c-1.7-3.2-4.5-5.4-6.9-7.9C668.8,98.9,667.7,96.1,668,93.5z"/>
			<path class="st0" d="M1786.3,914.7c-1.4-0.2-2.6-0.2-3.7-0.4c-1.3-0.1-2.3-1.2-2.2-2.5c0-0.1,0-0.3,0.1-0.4
				c0.9-5.4,0.9-11,4-15.9c2-3.5,5-6.3,8.7-8c3.1-1.3,5.9-3.2,8.3-5.6c2.6-2.6,5.5-4.8,8.8-6.5c2.8-1.5,5.8-1.5,8.6-2.2
				c3-0.8,6.4,4,5.5,7.4c-0.4,1.6-1.1,3.2-2.2,4.5c-6.4,7.2-10.9,15.7-16,23.7c-1.7,2.7-4.7,4.5-7.9,4.7
				C1794.1,914,1790,913.8,1786.3,914.7z"/>
			<path class="st0" d="M234.8,826c5.9-1,10.3,3.3,15.2,6.4c0.9,0.6,1.3,1.7,0.9,2.7c-0.7,2.6-1.7,5-1.3,7.8c0.2,1.1-1.1,2-1.9,2.9
				c-2.7,3.2-5.4,6.4-8.1,9.6c-1.3,1.5-3,2.7-4.8,3.5c-1.9,1.1-4.3,1-6.2-0.3c-2.8-1.9-5.6-3.7-9.3-3.4c-1.4,0.1-2.4-0.9-3.3-2
				c-2.7-3.6-5-7.6-6.8-11.7c-2.1-4.5-0.3-9.9,4.4-11.1C220.4,828.7,226.9,825.7,234.8,826z"/>
			<path class="st0" d="M231,873c0.1,2-0.5,4-1.7,5.6c-0.8,1.1-1.3,2.4-1.4,3.7c-1.1,5.2-5,8.5-10.4,7.6c-6.5-1.1-12.7,0.1-18.9,1.4
				c-4,0.8-4.9,0.7-6.2-3.1c-2.4-6.8-5.2-13.7-3.8-21.3c0.6-3.5,2.5-5.5,5.2-7.5c5.2-3.8,11-2.3,16.2-1.3c5.7,1.2,11.3,3.4,16.3,6.3
				C229.8,866.5,231.1,868.5,231,873z"/>
			<path class="st0" d="M170.4,926.8c-0.6-3.5,0.9-6.1,3.6-8.3c3.2-2.6,5.1-6.3,7.2-9.6c4.7-7.4,10.7-11.9,19.9-10.6
				c4.5-2.1,5.7,1.3,7.4,4.3c1.9,3.3,3.4,6.9,4.4,10.7c0.9,4,0.5,8.1-1.1,11.8c-1.3,3.6-4.3,6.2-7.9,7.2c-1.9,0.5-3.9,0.9-5.9,1.1
				c-3.2,0.3-6.3,1-8.8,3.2c-3.2,2.8-7.2,2.8-11,3c-2.4,0.2-4.4-1.5-5.7-3.6C170.6,933.2,169.9,930,170.4,926.8z"/>
			<path class="st0" d="M1605.2,166l-6.2,2c-4.5,1.4-9.1,2.4-13.4-0.6c-0.4-0.3-0.9-0.5-1.4-0.6c-5.3-0.1-6.1-4.5-7.7-8.1
				c-0.4-0.8-0.5-1.6-0.3-2.4c2.1-4.4,3.3-9.2,6.9-12.8c3.3-3.2,7.3-3.2,11.3-2.7c4.3,0.7,8.7,0.5,13-0.4c2.6-0.6,5.4-0.2,8,0
				c4.9,0.5,8.6,7.1,6.1,11.4c-2.2,3.8-4.6,7.4-7.2,10.8C1612.1,165.6,1608.4,165.2,1605.2,166z"/>
			<path class="st0" d="M650,88.9c-1.9-3.2-4.6-5.9-8.7-6c-2-0.1-4,0.1-6,0.1c-4.3,0.1-8.5,1.8-13,0.5c-1.9-0.6-3.2,0.9-3.5,2.8
				s-4.5,7.5-4.6,7.7c-1.4,1.8-6.2,15.2-4.1,16.8c3,2.4,5.6,5.4,7.5,8.7c1.6,2.8,2.5,2.8,5.3,1.2c1.7-1.1,3.2-2.5,4.4-4.2
				c5.2-6.1,10.4-12.3,17.3-16.7c1.6-1.2,3.1-2.5,4.5-4C651,94.2,651.4,91.2,650,88.9z"/>
			<path class="st0" d="M82.4,358.5l-2.7-2.4c-6.5-5.8-6.6-6-2.7-14c1.3-2.6,2.9-3.3,5.7-2.3s5.7,2.9,7.1,5.4
				c3.6,6.7,9.7,9.9,15.9,13.1c2.6,1.1,5,2.7,7.2,4.5c0.6,0.5,1.3,1.1,1.8,1.7c1.9,2.2,2.2,5,0.9,6.4s-4.5,1.7-6.6,0.5
				c-1-0.6-1.8-1.5-2.7-2.2c-1.5-1-3.3-2.4-5-1.9c-5.7,1.7-9.6-1.6-13.8-4.3C85.6,361.7,83.9,360.3,82.4,358.5z"/>
			<path class="st0" d="M1813.4,867.4c-2.4,0-7.4-3.6-8-6c-0.3-1.2,0-2.4,0.9-3.2c0.8-0.8,1.7-1.6,2.6-2.3c3.4-2.7,4.7-5.7,2.9-10.1
				c-1.7-4-0.6-7.3,2.3-9.4c1.4-1,2.7-1.5,4.6-0.4c3.7,2.2,7.7,4,11.8,5.3c6.8,2,8.1,9,3.1,13.9c-4.1,4-8.9,7-13.6,10.3
				C1818,867,1815.7,867.1,1813.4,867.4z"/>
			<path class="st0" d="M618.5,499.9c-5.1,3.5-8.7,2.6-11.1-3.1c-1.2-3-2.8-6.2-1-9.7c1-2.1-0.3-3.9-1.1-5.8c-3.4-8-3.3-8.5,2-15.3
				c4.2-5.3,8.3-5.8,13.8-1.6c3.1,2.3,5.7,5.1,9.1,7.2c2.7,1.7,3.2,4.8,2.7,7.7s-1.2,5.9-3.3,8.3C626.1,492,623.3,496.8,618.5,499.9
				z"/>
			<path class="st0" d="M508,882.6c0.2,3.1-1,6.1-3.2,8.2c-3.9,3.7-7.4,7.8-9.4,13c-0.6,1.2-1.3,2.3-2.3,3.3
				c-3.5,3.6-5.9,3.3-8.6-0.9c-1.7-2.6-2.1-4.4,0-7.5c2.5-3.6,5-8,3.2-13.2c-0.8-2.3-0.6-5-0.5-7.5c0.2-4.2,3.2-6.6,7.4-6
				c1.3,0.2,2.7,0.3,4,0.4C504.4,872.7,508,876.8,508,882.6z"/>
			<path class="st0" d="M1794.1,843.4c2,0.1,4,0.4,6,0.4c2.2,0,2.8,1.2,3,3.2c0.1,2.2-0.8,4.4-2.3,6c-3.7,4.2-5.1,10-3.6,15.5
				c1.3,5.2-0.9,7.4-6.3,7c-3.2-0.3-6.2-1.3-9.5-1.2c-1.8,0.1-2.5-1.5-2.5-3.2c0-3-0.6-6-1.9-8.7c-1.2-2.5-0.3-5.2,1.3-7.6
				c2.6-4,6.3-7,9.6-10.3C1789.6,842.6,1791.9,843.2,1794.1,843.4z"/>
			<path class="st0" d="M237.7,760c6.7-0.3,9,2.3,7.3,8.1c-1,3.5-2.3,7-4,10.3c-2.5,4.6-7,7-11.6,9.1c-1.4,0.6-2.9,1-3.6,2.5
				c-0.9,1.8-1.6,3.9-3.8,4.4c-3,0.6-6,1-8.9-0.1c-4.1-1.5-4.6-2.5-3.5-6.7c2-7.7,6-14,12.9-18.3c2.9-1.8,5.5-3.8,8-6.1
				C232.6,760.9,235,759.5,237.7,760z"/>
			<path class="st0" d="M562.4,543.1c2.4,4.1,4.6,4.7,9.1,1.7c3.8-2.5,7.2-5.4,11.8-6.5c0.8-0.3,1.5-0.7,2.1-1.3
				c2.1-1.8,3.8-6.4,2.2-8.1c-3.8-3.9-4.2-12.7-12.1-10.7c-0.3,0.1-5.8,1.1-7,2.5c-3.6,4.3-6.6,8.9-7.5,14.6
				C560.6,538.1,561.1,540.8,562.4,543.1z"/>
			<path class="st0" d="M431.5,94c0,1.6-0.6,3.1-1.7,4.2c-2.1,2.2-3.7,4.8-4.8,7.6c-1.7,3.9-2.7,4-5.7,1.3c-1.9-1.7-3.6-3.4-4-6.2
				c-0.2-2.1-1.7-3.8-3.8-4.3c-1.5-0.5-2.7-1.4-3.6-2.7c-2.5-3.4-5.6-6.3-9-8.7c-1.9-1.2-1.7-2.6-1.1-4.3c0.5-1.4,1.3-2.8,2.3-3.9
				c1.9-2.3,4.4-4.1,6.1-6.7c1.2-1.7,2.5-1.4,3.8,0.6c1.6,2.6,3.5,4.8,5.1,7.4c1.7,2.8,4,5.2,7.8,5.8c3.5,0.6,5.8,3.3,7.7,6.1
				C431.3,91.4,431.6,92.7,431.5,94z"/>
			<path class="st0" d="M1548.3,204.3c-1.1-5.2,0-9,3.1-10.7c3-1.6,4.3-1.7,7.3,0.5c4.2,3.1,7.6,7.1,12,9.9c1.8,1.2,3.6,2.6,5.2,4
				c2.4,1.8,3.2,5,2.1,7.7c-0.2,0.6-0.3,1.3-0.6,1.9c-2.9,7.6-3,7.6-10.6,5.2c-3-0.9-6.5-0.2-8.8-3c-0.4-0.5-1.4-0.7-1.5-1.2
				c-1.7-5-5.8-8.5-7.8-13.3C1548.5,204.9,1548.5,204.6,1548.3,204.3z"/>
			<path class="st0" d="M477.7,895.4c-0.3,2.4-1.7,4.5-3.7,5.9c-3.3,2.3-6.4,4.8-9.4,7.5c-1.9,1.5-3.9,2.6-6.2,3.3
				c-1,0.4-2.1,0.9-2.9,0.3c-2.1-1.7-4.7-1.5-7.1-2.1c-3.4-0.7-4.8-3.7-2.5-5.8c6.2-5.6,10.6-13.1,18.5-16.8
				c2.4-1.1,4.4-1.3,6.5,0.4c1.6,1.2,3.5,2,5.2,3.1C477.6,892,478.3,893.8,477.7,895.4z"/>
			<path class="st0" d="M1642.2,172.7c-3.1,0.8-6.1,1.9-9,3.3c-6.2,2.6-14.8-2.2-16.1-8.9c-0.1-0.7-0.4-1.3,0-1.9
				c3.6-4.6,6.6-9.7,13.6-9.8c4.7,0.1,9.3,0.7,13.9,1.9c4.8,1.1,5.8,3.9,4.8,8.7C1648.4,170.4,1646.4,172.9,1642.2,172.7z"/>
			<path class="st0" d="M1602,105.2c-4.5-0.2-8.5-2.1-12.1-4.5c-2.2-1.5-2.7-3.8-1.3-6.7c1.2-2.6,2.1-5.3,2.6-8.1
				c0.6-2.9,2-4.2,5-4.5c4.9-0.4,9.8,0.1,14.4,1.5c2,0.5,3.5,2.3,3.4,4.4c0.4,5.3-1.5,10-4,14.3
				C1608.4,104.3,1605.3,105.4,1602,105.2z"/>
			<path class="st0" d="M1583.4,117.7c0,1-0.3,1.9-0.7,2.8c-4,5.5-6.9,12-13.2,15.5c-1.3,0.8-2.7,1.3-4.2,1.4
				c-3.6,0.3-6.2-2.9-4.6-6.2c1.3-2.4,1.9-5,1.7-7.7c-0.2-1.2,0.2-2.4,0.8-3.3c3.5-4.1,7.6-7.4,12.7-9.1
				C1580.5,109.8,1583.4,112.3,1583.4,117.7z"/>
			<path class="st0" d="M606.3,574c-6.1,3.7-6,3.6-9.1-2.7c-1.8-3.6-2.3-6.9-0.1-10.5c0.4-0.6,0.6-1.4,1.2-1.6
				c3.8-1.2,5.4-4.7,7.9-7.3c1.7-1.8,4-2.3,6.4-2.6c1.4-0.2,2.7,0.6,3.3,1.8c3.5,5.4,2.6,12.5-2,16.9
				C611.6,570.4,609.1,572.4,606.3,574z"/>
			<path class="st0" d="M1877.1,144.8c-0.5,3.5-1.2,6.9-3.1,10c-2.9,4.6-6.7,5.6-10.6,1.9c-3.3-3.1-6-6.9-6.3-11.7
				c-0.1-1.2-0.2-2.4-0.2-3.5c-0.3-5.2,1.4-7.4,6.7-7.2c4.4,0,8.7,1.8,11.8,5C1876.8,140.6,1877.5,142.7,1877.1,144.8z"/>
			<path class="st0" d="M201.4,815.5c-1-2.6,0.1-4,1.3-5.5c2.4-3,5.9-4.4,9.1-6.1c2-1,3.7,0,4.3,2c1.4,4.8,2.5,9.8,2.1,14.9
				c-0.2,3-2.1,4.8-4.6,6.1s-5.2,1.3-7.9,1.2c-1.5,0-2.3-0.8-3-2.2C201.1,822.4,200.2,818.8,201.4,815.5z"/>
			<path class="st0" d="M472.8,923.2c-0.1,3.3-0.7,6.7-2,9.8c-1.4,3.4-4.3,4.5-7.3,5.6c-0.3,0.1-0.7,0.1-1,0.1
				c-1.6,0-7.5-5.4-8.3-7.5c-0.7-1.8,0.6-3.2,0.7-4.9c0.1-1.9,1.6-2.3,2.9-3.2c2.6-1.7,4.8-4.1,7.5-5.8c5.6-3.6,7.1-1.5,7.5,3.8
				C472.9,921.8,472.8,922.5,472.8,923.2z"/>
			<path class="st0" d="M375.3,316.2c0,6-1.9,8.4-6.5,8.6c-0.9,0-1.9,0-2.1-0.9c-1-5.1-5.1-8.6-6.3-13.6c-0.6-2.6-0.9-5.3-0.8-8
				c0-1.1-0.1-2.3,0.8-3.3c3.1-3.5,5.2-3.5,8.8-0.7c2.7,2.1,3.8,5,4.6,8.2C374.7,309.7,375.2,312.9,375.3,316.2z"/>
			<path class="st0" d="M59.3,327.9c1.3,0.9,3.5,2.7,6,4.2c2.9,1.7,5,4.6,5.5,8c0.4,2,0.7,3.6-1.5,4.6c-2,0.9-4.3,1.1-5.3-1
				c-1.7-3.5-4.4-3.6-7.6-3.4s-5.9,0.3-7.8-3s-0.4-6.3,1-9C51.8,324,54.9,323.8,59.3,327.9z"/>
			<path class="st0" d="M762.1,88.6c-0.1,4.6-3.1,7.1-9.3,8.5c-2.6,0.6-6.1-1.3-7.4-3.9c-0.4-1.1-0.5-2.3-0.4-3.5
				c-0.1-1.5,0.1-3-0.1-4.5c-0.7-5.5-0.7-5.5,4.7-7.8c1.4-0.6,2.7-1.4,4.1-1.9c2.7-1,5.3,0,6.1,2.7
				C760.8,81.8,761.1,85.7,762.1,88.6z"/>
			<path class="st0" d="M1802,836.3c-2.3-0.4-4.3-0.3-6.2-2c-3.2-2.8-1.2-5.9-1.3-8.9c0-2.5,2.3-2.5,4-3.1c0.3-0.1,0.6-0.2,0.9-0.3
				c6-3.9,10.3-0.1,14.8,3.1c1.1,0.6,1.4,1.9,0.8,3c-0.1,0.2-0.2,0.4-0.4,0.5C1811.7,832.8,1807.1,835.5,1802,836.3z"/>
			<path class="st0" d="M243.2,809.2c0,5-1.8,7.3-6.7,8.5c-0.5,0.1-1,0.1-1.5,0.2c-6.9,1.7-7.5,1.5-10-5.2c-0.7-1.9-3.5-3.4-1.8-5.8
				c2.6-3.8,2.1-9.5,7.7-11.7c2.4-1.1,5.2-1.2,7.7-0.3c1.2,0.3,2.1,1.2,2.3,2.4C241.4,801.4,243.1,805.2,243.2,809.2z"/>
			<path class="st0" d="M599.4,462.9c-0.8-2.2-3-1.3-4.6-1.4c-0.9-0.1-1.8-0.1-2.7,0c-4.8,0.5-7,2.8-7.2,7.4
				c-0.1,2.8,0.4,5.7-0.3,8.5c-0.4,1.6,0.5,2.7,2.2,2.5c2.7-0.3,5.3-0.7,7.9-1.2C600.2,477.5,600,464.6,599.4,462.9z"/>
			<path class="st0" d="M1611.7,187.8c-1,0.1-2.1,0.2-3.2,0.1c-3-0.5-6-0.6-8.9-0.2c-2.5,0.3-3.2-0.7-2.5-3.3
				c0.5-2.1-0.3-3.5-1.2-5.1c-1.7-3.1-0.5-5.1,2.9-5.7c6-1,10.7,1.9,15.2,5c2.1,1.4,1.7,3.9,1.5,6
				C1615.4,186.9,1613,186.9,1611.7,187.8z"/>
			<path class="st0" d="M1709.5,79.5c5.1-0.7,9.7-1.8,14,1.3c3.8,2.8,4,4.8,0.3,7.8c-2.7,2.2-5.9,3.1-9,4.4
				c-3.7,1.5-6.1-0.4-8.3-2.8c-1.5-1.7-1.5-6.3-0.2-8.6C1706.8,80.4,1708.1,79.6,1709.5,79.5z"/>
			<path class="st0" d="M1693.7,940.2c2.7,0.7,5.6,0.6,8.3-0.4c1-0.3,2.3,0.2,3.4,0.6c1.8,0.6,3,2.3,3,4.2c0.1,1.9-1.5,2.4-3,2.8
				c-4.2,1.2-8.1,3-12.5,3.5s-6.8-0.5-7.1-3.4S1688.2,939.5,1693.7,940.2z"/>
			<path class="st0" d="M355.3,308.9c0,4.9-2.2,7.7-6.3,8.8c-1.3,0.5-2.8-0.1-3.4-1.3c-1.4-2.1-2.1-4.6-2.2-7.1
				c-0.1-3.5,1-7,0.4-10.5c-0.1-0.9,0.3-1.7,1.1-2.1c1.8-1.1,7.4,0.8,8.4,2.8C354.9,302.4,354.7,305.9,355.3,308.9z"/>
			<path class="st0" d="M209.6,764c1.8,0.2,2.8,1.2,2.7,2.9c0,1.4-0.6,2.7-1.6,3.6c-2.9,2.1-4.1,5.2-5.2,8.4
				c-0.8,2.4-2.5,4.4-4.8,5.6c-1.5,0.8-3,1.2-4.1-0.1s-3.2-2.9-2.1-5.2c1.5-3.1,2.2-6.6,5.8-8.5c2-1,3.6-2.9,5.3-4.5
				C206.8,765.1,208.2,764.3,209.6,764z"/>
			<path class="st0" d="M185.4,792.5c-1-2.6,0.1-3.7,2.8-3.6c1.5,0,3-0.2,4.4-0.7c2.3-0.8,4.8,0.1,6.1,2.1c1.9,2.6,3.1,5.7,1.7,8.4
				s-4.8,3.9-7.7,5.2c-2.2,0.9-3.2-1.4-4.8-2c-1.4-0.5-1.5-1.8-1.6-2.9C186,796.8,185.1,794.7,185.4,792.5z"/>
			<path class="st0" d="M1691.3,83.2c3.2-1.2,5.3-0.3,7.3,0.6s2.5,3,1.2,5.1c-2.3,3.8-7.5,5.6-12.3,4.3c-1.1-0.3-2.2-0.7-3.4-1
				c-2.8-0.7-3.3-2.4-1.3-4.6C1685.4,85,1689,84.2,1691.3,83.2z"/>
			<path class="st0" d="M1830.3,803.4c-0.9,3.3-1.5,6.6-3.9,9.2c-4,4.2-11.3,2.9-13.2-2.4c-0.3-1.2,0.1-2.4,1-3.2
				c3.2-3.5,7.2-6,10.9-8.8c0.8-0.6,2.1-0.8,2.7,0.1C1828.8,800,1831.1,801,1830.3,803.4z"/>
			<path class="st0" d="M606.9,519.3c1.5-0.9,3.2-1.5,5-1.7c5.6-0.9,6.6-0.2,7.1,5.3c0.1,1.2,0.1,2.3,0.3,3.5c0.6,5.2,0.6,5.3-4.1,7
				c-2,0.7-4.2,1.3-6.3,1.9c-1.9,0.5-3.2-0.2-3.8-2.2c-1-3.4-0.9-7-0.6-10.4C604.6,520.8,606.3,520.3,606.9,519.3z"/>
			<path class="st0" d="M1825.4,825.9c0.1-4.7,3.4-8.7,8.1-9.6c0.9-0.2,1.8,0.3,2,1.2c0,0.1,0,0.3,0,0.4c0.3,2,0.8,3.9,2.7,5.2
				c0.7,0.5,1,1.4,0.8,2.3c-0.5,2.8-5.9,7.4-8.8,7.5C1827.1,832.8,1825.4,830.5,1825.4,825.9z"/>
			<path class="st0" d="M1663.1,83.7c-0.9-3.1,0.5-6.5,3.4-8c0.6-0.3,1.2-0.6,1.9-0.7c2.9-0.3,7.4,4.3,7.7,8c0.3,3.1-2.7,6.6-6,6.8
				C1667.6,90.1,1664.1,87,1663.1,83.7z"/>
			<path class="st0" d="M1780.4,922.3c2.1,4.2-2.8,3.6-3.8,5.3c-2.1,3.6-5.5,5.3-9.3,6.3c-2.5,0.6-4.2-0.5-5.7-3.1s0.3-3.8,1.6-5.2
				c1-1,2.5-1.5,3.6-2.5C1770.8,919.8,1775.1,919.9,1780.4,922.3z"/>
			<path class="st0" d="M183.9,819c0.6-3,1.1-6.1,2-9.1c0.5-1.8,4.4-1.7,6.1-0.1c3.9,3.8,3.6,12.6-0.6,16.1c-1.5,1.3-3,1.4-4.4-0.1
				C185.3,824,184.2,821.6,183.9,819z"/>
			<path class="st0" d="M439,123.1c0,1.3-3.7,5.3-6.5,5.9c-2.4,0.5-4.6-1.2-5.7-4.4c-0.2-0.8-0.4-1.6-0.9-2.4
				c-2.4-3-0.9-5.6,0.8-8.2c1.4-2.2,4.3-2.9,6.5-1.5c0.1,0.1,0.2,0.2,0.4,0.3C436.7,115,439.1,117.9,439,123.1z"/>
			<path class="st0" d="M1689,79.9c-0.9,0-1.8,0.1-2.6,0.2c-1.8,0.3-3.5,0.7-4.7-1.5c-1.1-2-1.7-4-0.8-6.2c1.7-3.8,8.3-5.9,11.7-3.5
				c2.5,1.7,1.8,4.5,1.7,6.9C1694.3,78.5,1692.2,79.3,1689,79.9z"/>
			<path class="st0" d="M1564.9,168.1c3.3-0.8,6.7,0.2,7.9,2c1.4,2,1.5,6.6,0,8.7s-4.1,1.9-6.2,3c-1.4,0.8-2.1-1.2-3-2.1
				c-0.5-0.4-1-0.9-1.5-1.4c-1.2-1.7-4.1-2.7-3.2-5.3C1560,170.2,1562.8,169.1,1564.9,168.1z"/>
			<path class="st0" d="M127.3,390.7c-3.8-3.3-4.4-4.8-3.4-7.2c1.4-3.2,8.3-4.8,11-2.5c0.1,0.1,0.3,0.2,0.4,0.3
				c0.7,0.8,1.3,11,0.6,11.8c-0.8,1.2-2.4,1.5-3.5,0.7l0,0C130.6,393,128.9,391.9,127.3,390.7z"/>
			<path class="st0" d="M726.7,87c0.1-0.3,0.2-0.6,0.2-0.8c0.9-8,0.9-7.9,8.8-6.2c2.1,0.5,2.8,1.5,2.3,3.6c-0.4,1.8-0.9,3.6-1.1,5.4
				c-0.3,2.1-0.8,4-3.1,4.7c-1.7,0.5-4.9-0.9-6-2.8C727.2,89.7,726.4,88.6,726.7,87z"/>
			<path class="st0" d="M339.7,281.6c4,0.2,7.8,3.4,7.7,6.3c-0.1,3.6-4.1,6.9-8,6.8c-3.3-0.1-6-3.9-5.8-8.1
				C333.8,283.4,336.2,281.4,339.7,281.6z"/>
			<path class="st0" d="M1739.3,166.1c0.1,0,0.8-0.4,1.5-0.8c1.1-0.7,3-1,2.8-2.5c-0.3-1.7-2.1-1.8-3.6-1.9c-1-0.1-2,0-3,0.2
				c-1.5,0.2-2.5,1.6-2.2,3.1c0,0.3,0.1,0.5,0.2,0.7C1735.7,166.5,1736.9,167.1,1739.3,166.1z"/>
			<path class="st0" d="M1875.5,127.1c-3.6,0.1-7.3-2-7.2-4c0.2-2.9,3.2-7.4,5.1-7.5c2.8-0.3,7.4,3.6,7.7,6.2
				C1881.3,123.7,1878.3,127.7,1875.5,127.1z"/>
			<path class="st0" d="M192.2,763.3c2.5-0.1,3.1,0.9,2.5,3.4c-1,4.6-4.8,7.3-7.1,11.1c-0.5,0.7-1.2,1.1-2,1.3
				c-1.5,0.4-3.2-1.4-2.4-2.6c1.6-2.3,1.7-5,2.2-7.6C186.2,764.1,187.4,764.3,192.2,763.3z"/>
			<path class="st0" d="M1741.3,939.8c0.6,4.5-2.8,7.7-8.1,7.6c-1.2,0-2.3-0.7-2.7-1.8c-0.7-1.8,0.2-6.3,1.7-7.9
				c1.3-1.4,6.5-2.1,8.1-1.1S1741.2,938.8,1741.3,939.8z"/>
			<path class="st0" d="M1610.8,70.7c-0.1,3.3-3.5,6-7.6,5.8c-2.6-0.1-3.9-1.7-3.8-4.8c0.1-3.7,2.2-6.7,4.6-6.6
				C1608.7,65.4,1610.9,67.3,1610.8,70.7z"/>
			<path class="st0" d="M631.1,656.3c2.5-1.7,5.9-1.1,7.6,1.4c0,0.1,0.1,0.1,0.1,0.2c0.9,1.3-0.6,7.4-2,8.3c-2,1.2-5.3-0.7-7.9-4.4
				C627.4,659.4,627.8,658.5,631.1,656.3z"/>
			<path class="st0" d="M727.6,66c0.1-4.1,1-5.5,3.6-5.3c3.6,0.3,6.1,2.7,6.2,6.1c0,2.5-2.1,4.6-4.6,4.6c-0.1,0-0.2,0-0.3,0
				C728.6,71.1,727.6,70,727.6,66z"/>
			<path class="st0" d="M640.6,1025.2c-0.1,1.5-1.2,3-2.1,4.6c-0.3,0.7-1.1,0.7-1.8,0.4c-3.7-1.2-6.7-6.3-5.9-10
				c0.4-1.7,1.2-3.4,2.8-3.8s3.2,0.5,4.5,1.9C639.7,1020.2,640.5,1022.6,640.6,1025.2z"/>
			<path class="st0" d="M1631.3,138.1c1.8,0,3.8,0,4.9,2.2c0.6,1.2,1.4,2.3,2.1,3.4s0.4,2.2-0.4,3.2s-1.4,2-3.2,1.7
				c-4.1-0.7-5.9-2.3-6.4-6.4C1628.1,139.9,1628.9,138.6,1631.3,138.1z"/>
			<path class="st0" d="M336.9,248.2c1.8,0.1,3,2.4,4,4.7c0.9,2.1,4.7,6.7,2.6,8.6c-3,2.6-8.8-0.5-10.1-4.4
				c-0.4-1.1-0.9-2.2-1.6-3.2C330.5,251.3,332.6,248.1,336.9,248.2z"/>
			<path class="st0" d="M1589.6,182.1c0.7,2.4-1.1,4.6-4.4,5.5c-1.5,0.4-4.9-3.2-5.6-6c-0.6-2.5,0-3.7,2.1-4.2
				C1585.8,176.5,1588.4,178,1589.6,182.1z"/>
			<path class="st0" d="M1583.8,202.8c0.7-1.7,0.1-3.8,0.2-5.7c0-1,0.8-1.7,1.7-1.7c0.1,0,0.2,0,0.4,0c3.1,0.4,5.9,1.4,7.6,4.3
				c0.6,1.1,0.8,2.4-0.5,3c-2.3,1-4.5,2.1-7.1,2c-1.1,0.1-2-0.7-2.1-1.7C1583.8,202.9,1583.8,202.8,1583.8,202.8z"/>
			<path class="st0" d="M601.6,515.5c-2.3,1.6-6.5,1.1-7.6-0.9c-0.9-1.5,0-6.1,1.5-7c2-1.3,6.4-0.5,7.9,1.5S604.1,513.9,601.6,515.5
				z"/>
			<path class="st0" d="M601,549.6c-2,1.4-5.6,0.9-6.9-0.8c-1.3-1.8,0-6.5,1.9-7.8c1.7-1.1,6.5,0.3,7.6,2.2
				C604.6,545.1,603.4,547.9,601,549.6z"/>
			<path class="st0" d="M509.7,866.6c0-0.2,0.1-0.3,0.1-0.5c0.8-7.5,3.3-8.7,9.6-4.7c0.7,0.4,1.2,1.2,1.3,2c0.4,3.8-4.4,8.7-8.2,8.4
				C510.8,871.7,509.5,869.2,509.7,866.6z"/>
			<path class="st0" d="M105.7,142.4c0,3.2-1.3,4.7-4.3,4.9c-2.1,0.1-4.5-2.6-4.6-5.1c-0.1-3.5,0.8-4.9,3.2-5
				C103.7,137,105.7,138.8,105.7,142.4z"/>
			<path class="st0" d="M1847.6,838.1c-2.6-0.1-5-1.9-5.5-4c-0.2-1.1,3.4-1.7,4-3.5c0.7-2,2.5-0.8,3.9-0.6c2.4,0.3,2.8,2.2,3.1,4.1
				c0.3,2-1.2,3-2.8,3.6C1849.4,837.9,1848.5,838,1847.6,838.1z"/>
			<path class="st0" d="M1651.8,156.2c-0.6-1.5,1.5-5.1,3.2-5c2.4,0.1,5,0.4,6.7,2.6c1.2,1.5,0.8,2.8-0.7,3.8
				c-1.9,1.2-6.8,0.8-8.5-0.7C1652.2,156.6,1652,156.4,1651.8,156.2z"/>
			<path class="st0" d="M635.9,691.5c1.5,2.2,0.6,7-1.4,8.2c-1.6,0.9-4.6,0-5.7-1.8c-1.8-2.8-1.6-5.6,0.6-7.1
				C631.7,689.3,634.5,689.5,635.9,691.5z"/>
			<path class="st0" d="M102.3,112.7c-0.3,1.7-0.5,3.5-0.9,5.3c-0.1,1-1,1.9-2,2c-1.7,0.3-3.8-1.8-4.8-4.5c-0.7-1.9-0.7-3.7,1.3-4.8
				c1.5-0.8,3.2-1.1,4.9-0.8C102.3,110,102.4,111.4,102.3,112.7z"/>
			<path class="st0" d="M543.1,964.3c0,0.8-0.1,1.7-0.1,2.5c0.1,1.6-0.7,2.4-2.3,2.7c-1.3,0.3-2.7-0.3-3.3-1.6
				c-1.5-2.4-0.8-4.9-0.1-7.2c0.5-1.6,2.5-1.3,4-1.2c1.2,0,2.2,1.1,2.2,2.3l0,0C543.4,962.7,543.3,963.5,543.1,964.3z"/>
			<path class="st0" d="M581.1,939.2c-0.1,2.8-1.4,5-3.1,5c-2.2,0-3-1.7-3.8-3.5c-1.2-2.5-0.1-4.6,1.3-6.6c0.9-1.3,2.1-0.7,3.2-0.2
				C581.2,935,580.5,937.6,581.1,939.2z"/>
			<path class="st0" d="M142.9,378c-2.3-1.9-2.7-5.3-0.9-7.7c0.9-1.1,5-0.9,6.4,0.4c2.2,2,2.7,5.2,1,7.1
				C147.7,380,145.2,380.1,142.9,378z"/>
			<path class="st0" d="M202.3,754.9c0,1.7-2.5,3.6-4.8,3.6c-1.8,0.1-3.3-1.2-3.5-2.9c-0.3-1.8,3.7-5.1,5.6-5
				C200.7,750.6,202.3,753.1,202.3,754.9z"/>
			<path class="st0" d="M86.2,720.8c0.1,2.7-2,4.9-4.7,5c-0.1,0-0.2,0-0.4,0c-1.5-0.1-2.9-2.3-2.8-4.6c0-2.1,2.2-3.5,5.1-3.5
				C85.8,717.6,86.3,719,86.2,720.8z"/>
			<path class="st0" d="M86.8,113.3c-2.8,0.1-3.3-1.7-4-3.4s0.2-2.5,1.7-2.9c1.1-0.3,2-1.3,3.3-0.9c1.7,0.5,3.1,1.4,3.3,3.3
				C91.2,110.4,87.9,113.2,86.8,113.3z"/>
			<path class="st0" d="M423.5,135.6c1.2,2.6,0.9,5.7-0.8,8.1c-0.6,1-1,2.2-2.4,2.3c-1.6,0.1-2.2-1.3-2.9-2.5
				c-1.2-2.2-0.3-3.8,1.6-5.1C419,139,421.5,136,423.5,135.6z"/>
			<path class="st0" d="M126.9,367.4c-0.4-0.3-0.7-0.7-0.7-1.2c0-1.3,0-2.8,1.3-3.6c1.3-0.8,2.2,0.2,3.1,0.9c0.8,0.6,1.6,1.3,2.2,2
				c1.4,1.5,2.9,3.1,1,5.1S127.5,367.8,126.9,367.4z"/>
			<path class="st0" d="M637.9,711.7c-1.4,1-2.3,1.2-3.3,0.7c-1-0.6-0.8-1.3-0.8-2.2c-0.1-2.8,1.3-4.7,3.6-5.2c1-0.3,2,0.1,2.7,0.9
				c0.7,0.8,0.8,1.9,0.2,2.7C639.4,709.9,638.4,711,637.9,711.7z"/>
			<path class="st0" d="M590.7,490.7c1.5-1.7,2.8-0.8,3.8,0.4c1.4,1.7,0.5,4.7-1.4,6c-1.2,0.8-2.3,1.3-3.4-0.1
				C588.2,495,588.7,492.1,590.7,490.7z"/>
			<path class="st0" d="M358.5,285.8c-0.3,1.5-0.9,2.8-2.5,2.7c-2.1-0.1-2.5-1.9-2.5-3.6c0-1.5,0.6-2.8,2.2-2.6
				C357.7,282.5,358.3,284.2,358.5,285.8z"/>
		</g>
	</g>
</g>
</svg>
