<?xml version="1.0" encoding="utf-8"?>
<!-- Generator: Adobe Illustrator 21.0.2, SVG Export Plug-In . SVG Version: 6.00 Build 0)  -->
<svg version="1.1" id="Layer_1" xmlns="http://www.w3.org/2000/svg" xmlns:xlink="http://www.w3.org/1999/xlink" x="0px" y="0px"
	 viewBox="0 0 1920 1080" style="enable-background:new 0 0 1920 1080;" xml:space="preserve">
<style type="text/css">
	.st0{opacity:0.11;fill:none;stroke:#CAD8E0;stroke-miterlimit:10;enable-background:new    ;}
</style>
<title>backgr</title>
<g id="map_drawing">
	<path class="st0" d="M988.3,919c-3.3,2.4-8.6,4.3-11.3,5.5c-6.1,3.1-5.6,5.5-9.9,11c-0.9,0.8-1.5,2-1.6,3.2
		c-0.6,3.3-1.4,6.6-2.4,9.9c-1,2.8-0.4,5.1,1.8,7.4c0.3,0.3,0.6,0.7,0.8,1.1c2.4,5.4,7.9,8.1,13.7,11.3c6.7,3.7,13.8,8.3,13.2,16.2
		c-0.4,5.9-5.9,11-13.5,12.6c-4.5,0.8-9,1.9-13.3,3.3c-1.6,0.6-3.2,0.9-4.9,0.9c-4.4,0-8.7,0.9-12.7,2.8c-4.2,1.9-8.9,2.2-13.1-0.7
		c-3.1-2.1-7.4-2.9-10.6-5c-1.4-0.9-3.3-0.6-4.9-0.5c-4.2,0.1-7.6-0.8-10.6-3.2c-2.1-1.7-4.5-3.2-6.9-4.4c-2.8-1.4-5.4-2.5-5.5-5.5
		c0-1.4-2.1-1.8-3.5-2.6c-6-3-12.5-5.1-18.8-7.8c-3.5-1.3-6.7-3.4-9.3-6.1c-2.4-2.7-6.5-3.8-10.4-3.5c-5.8,0.5-11.4,1.8-16,4.9
		c-3.3,2.3-3.8,3.9-1.9,7.1c1.7,2.7,0.7,5.3-1.5,7.3c-3.6,3.5-3.3,6.8-1,10.6c3.5,5.8,2.2,9-4.6,12.5c-5.8,2.9-11.3,6.5-16.4,10.6
		c-0.9,0.6-1.7,1.5-2.2,2.5c-1.7,4.1-5.8,6.3-10.6,7.8c-1.7,0.6-3.4,1.2-5,1.9c-4.2,1.8-4.6,1.7-3.9,5.2c1.1,4.9-0.2,9.1-4.5,13
		c-1.9,1.7-2.9,4-4.2,6.1c-2.4,3.6-6.7,5-11.5,5.4c-3.2,0.4-6.2-1.4-7.4-4.4c-0.6-1.5-0.9-3.1-1.5-4.6c-0.7-1.8-1.5-3.8-3.3-5
		c-8.2-5-10-12.3-11.9-19.5c-1-3.8-1.1-7.8-2.4-11.6c-0.7-1.7-0.7-3.5-0.1-5.2c2.6-6.1-0.2-11.8-2.1-17.5c-1.3-3.8-0.2-7.2,4.3-9.3
		c2.1-1,4.4-1.7,6.1-3.1c6.2-5.3,7.3-11.5,5.8-18.3c-0.4-1.6-1.4-2.9-2.8-3.7c-4.7-2.9-3.8-6.5-2.6-10.3c1.3-4.1,3.8-7.8,6.4-11.5
		c0.4-0.5,1-1,1.1-1.5c0.8-4.1,3.7-5.9,9-5.5c2.5,0.2,2.7-1.7,3.8-2.8c3.4-2.9,4-5.8,2.2-9.6c-1.9-4-0.9-7.6,3.7-10.9
		c4.2-2.9,8.3-6.1,11-10.1c2.4-3.5,7.3-4.9,11.3-7c2.7-1.4,6.2-0.2,9.3,0.2c4.9,0.7,9.7,2,14.9,1.7c3.3-0.2,6.7,0.4,9.7,1.8
		c3.1,1.3,6.4,2,9.7,1.9c2.8,0,5.8-0.2,8.4,0.3c9.8,1.9,18.7-0.8,27.5-3.3c2.2-0.5,4.4-0.6,6.6-0.1c2.4,0.5,4.8,0.2,7-0.7
		c4.1-2,8.9-2.2,13.3-3.5c1.8-0.5,3.7-0.3,5.3,0.6c2.2,1,4.1,0.6,6.3-0.4c3.8-1.8,7.1-4.4,9.7-7.8c3.2-3.9,6.8-7.5,10.7-10.6
		c3.2-2.6,5.9-5.5,10.3-7.1c2.4-0.9,4.4-2.5,5.8-4.6c1.4-2.2,4.2-3.3,7.3-3.5c4.1-0.3,8.5-0.7,12.2,0.6c5.3,1.9,9.3,0.2,11.8-2.5
		c3.8-4.1,9.9-5.7,14-9.3c2.2-1.9,5.9-2.2,9.9-1c5.5,1.7,8.9,5.1,12.9,8.1c2.2,1.6,2.6,4.1,2.3,6.6c-0.4,3.5,0.6,6.4,3.4,9.3
		c3.6,3.7,5.2,8.3,7.8,12.5c0.6,0.9,0.3,2,0.2,3c-0.2,1.3-0.5,2.7,0.4,3.9c1.6,2.2,1.2,4.2-0.3,6.2c-0.8,1.3-1.1,2.8-0.9,4.3
		c0.2,1.5-0.6,2.9-2,3.4c-4.4,1.6-8,4.5-13.2,4.6c-6.7,0.2-12.6,2.5-18.8,4.2c-2.6,0.7-5.5,0.9-7.7,2.5c-1.7,1.3-4,1.9-3.9,4.4
		C992.3,915.8,990.4,918.2,988.3,919z"/>
	<path class="st0" d="M1570.4,660.1c0-2.5-0.4-4.7,1.3-6.7c0.8-1-0.2-1.5-1.2-2c-3.1-1.6-6.1-3.5-9.4-4.8c-2.6-1-4.5-2-3.9-4.5
		c0.1-0.6,0-1.2-0.3-1.7c-3-4.4-3.6-6.1-3.7-10.4c0-0.1,0-0.3,0-0.4c-2.5-6.1-1.3-12,1.3-17.9c0.7-1.5,0.1-2.5-1.4-3.3
		c-3.2-1.8-5.4-5-6-8.6c-0.8-3.4-3.5-6.5-2.3-10.2c0.3-0.9-0.7-1.6-1.7-2.1c-4.1-2.1-4-5-2.7-8.1c0.6-1.4,1.3-2.7,0.9-4.2
		c-0.3-1.3,0-2.7,0.8-3.8c2.2-2.8,2.1-5.4,0.1-8.2c-0.7-1-0.4-1.9,0.2-2.9c0.7-0.8,1.1-1.8,1.2-2.9c0.1-4.3,3.3-6.1,8.2-7.1
		c2.5-0.5,5-1.3,7.5-1.9c6.5-1.5,12.6-4.3,17.9-8.4c6.2-4.8,11.3-10.8,15-17.7c1.3-2.1,2.7-4.2,4.4-6c2.1-2.5,1.8-5,0.6-7.5
		c-0.6-1.4-1.4-2.8-2.3-4c-3.8-4.8-4.3-10.1-3.6-15.5c0.4-3.4,2.7-6.3,5.6-8.4c4.7-3.4,7.2-7.8,10.4-11.8c3.1-3.8,7.5-5.6,12.4-6.8
		c4-1,7.8-2.5,11.4-4.6c2.6-1.3,4.6-3.6,5.6-6.3c1-3.2,3.5-5.4,6.8-7.2c1.2-0.7,2.3-1.5,3.3-2.3c3-2.3,6.8-1.7,8.8,1.1
		c1.8,2.6,2.3,5.9,1.3,8.9c-0.7,2.4-1.5,4.8-0.8,7.3c0.5,1.7-0.4,3.1-1.4,4.6c-1.2,1.7-1.3,3.5,0.3,4.9c2.5,2.3,4.3,5.1,7.9,6.7
		c2.6,1.2,4.7,2.8,5.4,5.3c0.4,1.1,1.1,1.9,2.1,2.5c3.8,2.5,4.4,5.6,3.6,9.1c-0.5,2.3-0.7,4.7-0.6,7c0.1,3.3-0.5,6.5-2,9.4
		c-1.1,2.1-1,4.1,0.9,5.8c6.2,5.4,8.4,11.9,9.3,18.8c0.5,3.5,2.2,6.1,6.6,7.4c7.2,2.1,7.6,7,7.8,11.8c0,1.4-1.1,2.5-2.5,3.3
		c-5,2.9-8.8,7.1-15.2,8.8c-3,0.8-3.3,3.1-1.2,4.9c1.5,1.3,3.1,2.6,5.4,3c1.9,0.2,3.7,1.2,4.8,2.8c3.8,5.3,9.8,9.1,14.9,13.5
		c3.9,3.3,7.4,6.9,9.3,11.3c0.1,0.3,0.2,0.6,0.4,0.8c3.4,2.9,2.8,6.1,1.3,9.4s-2.6,6.4-6.5,8.4c-3.5,1.8-4.5,4.9-6,7.7
		c-4.5,8.5-10.8,15.8-18.5,21.6c-3.1,2.4-7.4,3.4-11.4,4.6c-4.5,1.3-8.2,3.5-12,5.6c-1.2,0.7-2.5,1.5-2.7,2.7
		c-0.8,3.8-4.3,6.4-6.3,9.6c-1.5,2.6-3.9,4.6-6.8,5.6c-2,0.8-4,1.7-5.1,3.3c-1.7,2.7-4.8,3.9-8.2,5c-7.6,2.5-15.5,4.3-22.6,7.7
		c-2.9,1.4-6.4,1.6-9.7,2c-4.3,0.5-6.6-2-8.5-4.2c-2.8-3.1-5.8-6.3-7.3-9.8c-1.2-3.1-2.9-5.9-5-8.5c-0.6-0.8-1.2-1.5-2-2.1
		C1571.1,666.9,1569.2,663.8,1570.4,660.1z"/>
	<path class="st0" d="M0,628.1c4.3-0.8,5.7-2.7,9.1-5.5c4.1-3.2,8.8-3.5,13.8-3.4c2.6,0.2,5.2-0.2,7.7-1c2.8-1.1,4.8-0.3,7,1.1
		c3.8,2.5,7.3,5.3,12.6,6.2c6.7,1.2,11.9-0.7,15.2-4.5c5-5.6,10.1-11.5,12.7-17.8c2.9-7.2,4.3-15,0-22.5c-0.6-0.9-1.2-1.8-2-2.6
		c-4.3-4.9-7-10-6.1-16.3c1.2-7.9-0.5-15.4-5.7-22.6c-4.4-6.3-7.6-13.4-9.4-20.8c-0.5-2.5-0.2-5.1,1.1-7.3c0.5-1.3,1.6-2.2,2.9-2.5
		c3.3-0.7,5.5-2.9,8.6-4c2.2-0.6,3.6-2.9,3-5.1c0,0,0,0,0-0.1c-0.9-4.7,0.4-9.2,1-13.8c0.5-3.2,2.1-6.2,4.4-8.4
		c2.2-2.3,3.9-5.2,4.8-8.3c1.4-3.7,2.5-7.5,5.1-11c3.5-4.7,3.1-9.6,0-14.2c-3.3-4.9-6.5-9.7-8.4-15.1c-1.6-4.3-5.3-8-8.5-11.8
		c-1.8-2.1-4.9-2.6-7.7-3.3c-2.6-0.5-4.9-1.8-6.8-3.6c-3-3-6.7-5.5-9-8.9c-2-3.2-3.8-6.5-5.3-10c-1.8-4-4.9-6.6-9.7-7.8
		c-3-0.7-3.9-1.8-3.8-4c0.1-1.3-0.5-2.5-1.6-3.2c-2.7-1.9-4.1-4.5-6-6.8c-4.3-5.2-12.4-12.2-19.2-14.7"/>
	<path class="st0" d="M1805.3,961.1c-2.1,0.2-4.1,0.3-6.2,0.4c-4.7,0.2-8.8-0.6-12.5-3.1c-4.1-2.7-8.4-5.3-14-5.9
		c-1.9-0.2-3.8-0.8-4.6-2.3c-2.4-4.3-8.2-6.7-10.6-11.1c-1-1.8-3.6-2.8-6.3-3.3c-3.2-0.5-6.1-2.4-7.8-5.3c-1.3-2-1.4-3.9,0.2-5.8
		c3.4-3.8,5.2-8.7,4.9-13.8c-0.2-4,0.3-8,1.3-11.9c1.1-3.9,1.9-7.9,2.4-12c0.2-2.4,1.6-4.1,4-5.4c4-2.2,8.3-4.3,13.1-4.7
		c6.2-0.6,11.9-2.3,18-3.3c8.6-1.4,17.1,0.3,21.7,6.7c2.2,2.8,5.2,4.9,8.6,6c2.9,1,4.8,3.5,8.1,4.4c1.8,0.5,3.5,1.2,5.4,0.9
		c4.4-0.5,8.8-1.2,13.1-2.2c2.6-0.7,5.4-1.2,7.7-0.6c7,1.9,14.9,2.6,20.6,6.4c5.1,3.3,8.8,8.3,10.5,14.1c0.2,0.7,0.2,1.5,0,2.2
		c-2.4,6.3-4.9,12.8-14,15.2c-3.7,0.9-6.9,3-9.3,6c-1.7,2-3.7,3.8-5.8,5.3c-1.7,1.2-3.3,2.7-4.7,4.3c-2.8,3.5-7.1,6.1-11.7,8
		c-5.3,2.1-10.2,4.9-14.7,8.5c-1.1,0.9-2.5,1.4-3.9,1.5c-4.5,0.3-9,0.6-13.4,0.9L1805.3,961.1z"/>
	<path class="st0" d="M1345.8,97.1c-5.9,0.7-11.6-0.1-17.3-0.8c-3.9-0.5-4.6-1.4-4.5-4.5c0.2-3.5,0.7-6.8-3.5-9.6
		c-2.4-1.6-0.7-6,2.2-7.5c1.5-0.8,2.9-1.7,4.2-2.9c3.6-3.6,8.9-5.2,13.8-7.2c1.7-0.7,3.3-0.1,4.8,0.6c5.1,2.4,10.1,5,16.1,6
		c1.9,0.3,3,1.7,4,2.9c3.9,5,8.3,9.6,14.6,13c2.7,1.4,3.8,3.9,4.6,6.4c0.6,1.5,0.2,3.1-1.1,4.1c-5.1,3.9-3.5,8.7-2.6,13.1
		c0.5,2.3,0.1,3.5-2,4.8c-2.3,1.6-5.2,2.1-7.8,1.1c-3.8-1.4-7.3-3.6-10.3-6.5c-0.6-0.5-0.9-1.2-0.9-2c0.4-2.9-1.4-5.3-2.4-7.9
		s-3-3.4-6.2-3.2C1349.6,97.2,1347.7,97.1,1345.8,97.1z"/>
	<path class="st0" d="M1325.1,138.7c0,3.6,1.3,7.1,3.7,9.9c3.7,4.4,6.2,9.7,7.3,15.4c0.5,2.9,2.2,4,5.1,5c3.2,1.1,6.6,1.1,9.8-0.2
		c2-0.8,4.1-1.5,6.2-2.1c4.5-0.9,8.2-4,10-8.2c1.2-2.6,2.2-5.2,3-7.9c0.4-1.4,1.4-2.6,2.8-3.1c3.8-1.3,5.3-4,7-6.6
		c2.5-3.5,1.6-8.4-1.9-10.9c-0.5-0.3-0.9-0.6-1.5-0.8c-4.5-2.1-8.8-4.9-14.4-5.4c-2.5-0.1-5-0.8-7.2-2c-2.6-1.4-5.6-1.9-8.6-1.4
		C1334.9,121.8,1325.7,129.6,1325.1,138.7z"/>
	<path class="st0" d="M1920,337.1c-2.4,0-9-0.2-11.4-0.8c-1.3-0.3-2.6-0.1-3.7,0.6c-2.9,1.8-6.2,3.4-7.3,6.4
		c-1.9,4.8-5.2,8.6-10.4,11.9c-5.8,3.7-11.8,5.6-19,4.8c-5-0.6-9.5,0.2-14.2,1.2c-5.2,1.1-7.9,3.6-9.3,7.4c-0.4,1.2-0.6,2.6-0.5,3.9
		c0.2,4.1-1.4,7.7-4.6,11c-1.8,1.6-3.2,3.5-4.3,5.6c-2.5,6.1-7.4,10.2-15.2,12.5c-3.5,1-7,1.5-10.4,0.5c-5-1.7-10.3-1.7-15.3,0
		c-3.1,1-12.5,5.2-14.9,7c-3.2,2.7-7.3,4.1-11.5,3.8c-5.3-0.3-9.7-3.7-10-7.7c-0.1-2-0.5-4.1-1.1-6c-0.9-2.8-2.5-5.3-7-5.3
		c-1.1,0-2.2-0.3-3.1-0.8c-2.8-2.4-5.9-1.9-9.2-0.8c-3.1,1.2-6.6,0.7-9.3-1.3c-2.9-2-6.2-3.8-9.1-5.8c-4.2-2.9-8.8-4.9-14.7-4.5
		c-1.9,0.1-3.8,0-5.6,0c-9.8,0.1-11.8-1-15.8-7.9c-1.6-2.7-1.9-5-0.2-7.8c1.5-2.5,1.9-5.3,2.6-8c0.5-2-0.2-3.8-2.8-4.8
		c-1.9-0.7-2.4-2-3.2-3.4c-2.2-3.6-2.1-6.9,0.8-10.2c0.9-1.1,1.6-2.3,2.5-3.4c1.7-2.4,2.8-4.5,0.1-7.1s-2.3-3.7,1-5.9
		c5.8-4,9.6-9.2,14.3-13.9c2.3-2.2,3.2-5.6,2.2-8.7c-2.1-8.4-0.9-16.8,0.6-25.1c1.3-7.3-1.6-11.2-10.5-13.2
		c-10.3-2.3-15.2-7.1-11.6-15.2c1.1-2.6,0.8-5.1,0.2-7.7c-1.1-4.8,1-7.8,6.6-9.6c4-1.3,6.8-3.6,8.3-6.7c1.4-2.9,2.6-5.8,3.9-8.6
		c0.8-1.5,0.4-3.5-1.1-4.4c-1-0.9-2.1-1.7-3.3-2.4c-3.5-1.7-4.3-4.1-4.2-7.1c0.1-4.5-0.4-9-1.3-13.4c-0.3-1.5-0.8-3.1-2.7-3.6
		c-3.5-0.9-3.8-3-4.3-5.4c-1-5.3-6.8-9.6-13.7-10.7c-2.5-0.4-4.4,0.4-5.2,2.4c-0.9,1.9-2.1,3.5-3.5,4.9c-2.1,2.3-5.1,3.5-8.2,3.4
		c-9.8-0.3-19.8,0.1-29.2-3.2c-2.8-1-5-1.8-5.1-4.8c-0.1-4-3.4-5.6-8.6-5.8c-3.7-0.1-7.4,0.5-10.8,1.8c-7.6,2.7-15.2,3.2-21.7-2
		c-1.3-1.1-2.7-2-4.2-2.9c-4.3-2.4-8.9-3.8-14.2-2.2c-6,1.8-12,1.7-18.1,0.5c-5.8-1.1-11.4-1.3-15.9,2.7c-0.3,0.3-1,0.5-1.3,0.8
		c-4.7,3.8-9.4,7.7-7,13.7c0.5,1.2,0.8,2.5,0.8,3.9c0.1,2.3,0.4,4.8-2.3,6.4c-3.5,2-7.3,3.5-11.9,1.6c-2.1-0.7-4.2-1.2-6.4-1.6
		c-3.3-0.9-7-1.3-8.5-4.4c-0.6-0.9-1.5-1.5-2.6-1.6c-6.8-0.9-13.4-4.2-20.6-1.1c-1.3,0.4-2.6,0.5-3.9,0.5c-5.3,0.4-7.8-0.9-8.4-4.9
		c-0.5-3.3-2.3-5.5-6.2-6.6c-1.5-0.4-2.1-1.1-2.2-2.2c-0.1-1-0.3-2-0.7-3c-1.3-3.9-4.9-5.6-9.9-5c-5.2,0.6-9.1,3.3-14,4.5
		c-1.8,0.4-2.2,1.8-1.4,3.3c2.9,5.3,2.2,10.5-1.2,15.6c-0.4,0.8-0.6,1.6-0.8,2.5c-2.8,8.5-6.5,10.7-17.7,10.4c-0.8,0-1.5,0-2.3,0
		c-2.4,0.2-4.8-0.4-6.8-1.7c-6-4.8-13.8-3.5-21.1-3.7c-3.1-0.1-6.4,0-8.9,2c-2.2,1.7-5.2,2-7.8,0.8c-1.8-0.8-4-0.7-5.7,0.3
		c-2.4,1.3-5.3,1.4-7.8,0.1c-3.7-1.8-8.1-1-10.9,2c-1.3,1.4-2.8,2.9-3.2,4.6c-1,4.5-4.9,7.3-9.2,9.5c-4,2.1-5.4,4.8-5.4,8.1
		c0,2.2-0.6,4.3-0.7,6.5c-0.1,2.6-1.8,4.3-5.3,4.9c-1.8,0.4-3.7,0.5-5.5,0.5c-3.9-0.2-7.8-0.4-11.8-0.7c-1.9-0.1-3.8-0.3-5.3,0.8
		c-1.9,1.3-3.3,0.8-4.6-0.6c-0.8-0.8-1.6-1.6-2.5-2.4c-4.5-3.9-8.7-8.2-16.8-6.4c-1.3,0.1-2.6,0.1-3.9,0c-1.6,0-1.8,0-3.1,0.3
		c-3.5,0.1-11.7,4.2-14,5c-1.8,0.7-3.4,1-5.1-0.3c-2.8-2.2-3.8-6.8-2.1-9.6c1.3-2.3,3.7-4,5.6-6c2.1-2.1,3.4-4.4,2.4-7.3
		c-1.9-5.9-1.4-11.5,3.6-16.5c0.3-0.4,0.6-0.7,0.8-1.1c1.2-2.1,3.4-3.4,5.8-3.6c2.6-0.3,5-1.5,5.5-3.9c0.8-3.6,0.6-7.3-0.5-10.8
		c-0.6-1.7-2-2.5-4.3-2.9c-12.5-2.1-16.2-9.7-12.4-17.9c1.5-3.2,1.3-3.4-3.1-3.9c-3.7-0.4-8.1,0.3-10.9-1.5c-3.1-1.9-6.5-3-10.1-3.3
		c-2.1-0.2-5.4-0.1-5.6-2.1c-0.3-2.9-4.2-5.6-0.9-8.7c1.9-1.8,1.9-3.6,0.5-5.6c-0.7-1-1.3-2.1-2-3.1c-1.6-2-2.1-4.6-1.4-7
		c0.9-4.1,1.9-8.9-4.9-11.3c-4.1-1.5-7.9-4-12.6-0.8c-2,1.4-5,1.4-7.6,1.1c-2.6-0.4-5.2-0.4-7.8,0.1c-5.3,1.1-7.2-2.3-9.8-4.5
		s-0.3-3.7,0.9-5.4c1.8-2.7-1.2-7.3-5-7c-3.4,0.3-7.1-0.2-10,2.2c-2.3,1.9-5.5,2.4-9.2,2.4c-5.4,0.1-10.8-0.2-16.2-0.8
		c-2.1-0.5-4.3,0.3-5.7,2.1c-3.2,4.1-4.5,8.3-1,12.7c0.7,0.8,1.3,1.7,1.7,2.7c0.5,1.5,0.2,2.4-2,2.9c-5.4,1.3-10.3,3-14.2,6.5
		c-2.4,2.2-5.1,4.3-6.4,7.1c-1,2-2.8,3.4-4.4,5c-2.2,2.2-4.6,2.9-8.3,1.7c-4-1.3-8.2-2.9-12.9-1.3c-1.7,0.6-3.2-0.5-4.2-1.7
		c-2-2.3-1.7-4.6-0.2-7c1.1-1.7,2.6-3.5,1.9-5.3c-0.8-2.1-1-4.3-0.6-6.4c0.2-1.8-0.9-2.9-3.2-3c-3.3-0.2-6.6-1.3-9.7,0.7
		c-1.7,0.9-3.6,1.2-5.4,0.8c-5.4-0.6-10.3,0.9-15.3,2.1c-2.5,0.5-3.7,1.8-3.6,3.8c0.1,2,0.1,4.1-0.1,6.1c-0.5,3.7-2.4,7.1-5.4,9.3
		c-1.2,1-2.6,1.2-3.4-0.4c-0.7-1.6-2-3-3.5-3.9c-3.5-2.3-7.1-2.4-11.9-0.7c-3.6,1.3-1.1,3.6-1.7,5.4c-0.2,0.9-0.1,1.8,0.2,2.6
		c0.6,2.2-0.6,3.6-2.8,4.8c-4.3,2.3-9.6,2.2-14.3,3.4c-1.8,0.5-4.3-0.7-5.7-2.3c-1.6-1.8-3.1-3.7-3.2-5.9c-0.1-2.7-1.9-4.6-4.5-5.7
		c-4.9-2.1-8.9-5.4-14.4-6.7c-2.3-0.5-2.7-1.7-2.5-3.3c0.4-3.3,0.5-6.7,1.6-9.9c0.6-2,0.3-3.3-2.4-4.2c-1.8-0.7-3.5-1.5-5.2-2.5
		c-2.6-1.4-2.8-2.3-1-4.3c1.5-1.5,3.2-3,4.7-4.3s3-2.8,3.2-4.5c0.4-4.2,0.6-8.4-1.3-12.5c-0.7-1.6-1.8-3.2-3.9-3.5
		c-4.4-0.5-4-2.8-4-5.1c0-0.9,0-1.7-0.1-2.6c-0.5-3.3-1.9-4.6-6.1-5.3c-5.8-1-11.5-1.1-16.8,1.3c-7.7,3.4-16,5.6-24.5,7.4
		c-2.9,0.5-5.7,1.5-8.3,3c-2.5,1.4-5.1,2.6-7.8,3.4c-11.7,4.3-24.5,5.5-36.9,7.7c-3.3,0.4-6.7,0.2-10-0.7c-4.7-1.1-9.6-1.3-14.4-0.6
		c-5,0.7-10.9,1.6-14.8-0.9c-4.7-3-10.1-4-15.3-5.7c-1.8-0.7-3.6-1.5-5.3-2.4c-1.3-0.6-2.6-1.2-3.9-1.7c-4.8-1.4-7.6-0.6-10.3,2.8
		c-1.1,1.4-2.2,2.7-3.4,4c-1.8,1.8-1.9,3.5-1,5.7c1.3,3.2,2.3,6.6-0.2,9.7c-2.7,3.4-5.2,7.1-9.6,9.5c-1.1,0.6-2.2,1.2-1.9,2.4
		c0.8,3-1.9,4.5-4.5,5.9s-5.5,1.9-8.3,2.6s-4.9,0.4-7-1.4c-2.5-2.2-5.7-3.4-9.2-4.6c-4.4-1.6-9.1-1.5-13.4-3s-6.3-0.8-6.9,2.8
		c-0.7,4.3-2.8,8.4-1.4,12.8c-2.3,3-0.9,5.4,1.9,7.7c0.7,0.6,0.7,1.6,1.1,2.4c1.7,3.6,5.1,6,9.1,6.4c2,0.4,3.9,1,5.8,1.7
		c2.4,0.7,4.2,1.8,4.5,4c0.7,4.1,3.5,7.9,3.2,12.1c0,0.8,0.8,1.6,1.3,2.3c2.1,2.9,5.4,5.2,8,7.8c1.5,1.3,3.5,2,5.5,1.9
		c4.2,0.2,8.4-0.8,12.1-2.8c2.3-1.3,4.6-2.5,7.6-2.5c4.2,0,7.6,1.1,10,4c3.9,4.6,8.4,8.5,16.1,9.2c2.1,0.3,4.1,1.3,5.5,2.9
		c1.5,1.7,2.2,3.4,0,5.1c-1.5,1.2-2.8,2.2-1.5,4.1c0.9,1.5,1.8,3.3,3.8,3.6c4.1,0.4,5,2.9,7,4.9c4,4.1,2.9,7.9,0.1,11.8
		c-1.1,1.4-2,3.1-2.6,4.8c-1.9,7.2-7.5,11.7-16,14.6c-2.9,1-6,1.4-9,2.3c-10.4,3.1-18.1,8.8-24.4,15.6c-4.2,4.5-5.2,9.7-2.1,14.9
		c3.6,5.9,4.9,11.8,1.6,18.1c-0.8,1.8-1.4,3.6-1.8,5.5c-0.5,2-1.8,3.7-3.5,4.8c-2.1,1.5-4.1,3.2-4.2,5.5c-0.3,4.5-2.2,8.8-2.6,13.3
		c-0.3,2.1-1.5,3.9-3.4,4.8c-4.4,2.7-8.8,5.5-13.3,8c-5.7,3.2-9.3,7-7.9,12.8c0.1,1,0,2-0.2,3c-0.9,5.9,1.4,11,6.4,15.3
		c2.7,2.2,3.4,4.6,2.6,7.2c-1.3,4.5-1.5,9.2-4,13.5c-2.7,4.7-2.4,9.1,2.8,12.8c5,3.5,2.5,12.1-5.5,13c-1.8,0.2-3.7,0.5-5.4,1.1
		c-5.8,1.8-10.4,4.7-11.7,9.7c-1.1,4.4-4,7.7-8.5,10.5c-4.5,2.9-9.9,4-15.1,3.1c-5.9-0.9-10.7,0.4-14.6,3.8
		c-0.3,0.2-0.6,0.4-0.8,0.6c-6.9,5.6-16.1,6.5-25.2,7c-3.3,0.2-7.2-0.5-9.1-2.7s-6-4-3.3-7.5c0.7-0.9-0.5-2.1-1.2-2.8
		s-1.7-1.3-1.3-2.3c1.3-3.3-0.5-6.3-1.7-9.3c-0.9-2.4-1.5-4.8-0.5-7.3c1.2-2.8-0.4-5.4-3-7c-5-3.1-9.4-6.6-13.9-10
		c-1.9-1.6-4.1-2.7-6.5-3.4c-10.2-2.1-11.3-2.5-14.5,5.2c-0.2,0.7-0.5,1.4-0.9,2.1c-2,3.5-3.8,7.1-10.1,6.7
		c-1.1,0.1-2.2,0.4-3.2,0.9c-2.2,0.6-4.4,0.7-6.6,0.3c-5.2-0.7-10-3.4-13.2-7.5c-2.2-2.7-2.3-8.8,0.2-10.3c5.9-3.6,8.7-8.5,11-13.8
		c1.3-3.1,1.8-5.7-0.2-8.7c-2.7-3.7-3-8.6-0.8-12.7c2.8-5.6,9.2-7.1,15.6-3.8c8,4.3,19.9,3.8,27.7-1.2c1.8-1.3,3.8-2,6-2.2
		c2.8-0.1,5.6-0.5,8.3-0.7c2.5-0.1,4.9-1,6.9-2.6c2.2-2,4.9-3.4,7.8-4.2c2.2-0.7,4.1-2.2,5.4-4.1c2.5-3.3,7.3-4.9,10.8-7.5
		c0.2-0.1,0.4-0.1,0.5-0.1c3.8,0.3,7.8,0.1,10.8,2.7c2.8,2.4,6.2,4.1,9.8,4.9c1.7,0.4,3.3,0.8,4.8-0.1c2.8-1.8,6.3-3.2,6.7-6.6
		c0.4-1.3,1.1-2.6,2.2-3.5c1.5-1.5,1.9-3.9,0.9-5.8c-1.8-4.5-3-9.2-3.6-14c-0.6-4.8-1.5-9.7-8.2-12.1c-0.3-0.1-0.6-0.3-0.8-0.6
		c-3.9-4.3-7.1-8.9-12.5-12.4c-2.7-1.7-4.5-4.1-7.5-5.8c-3.5-2-6-4.7-4.5-8.3s3.5-7.2,8.4-8.9s6-4.8,5.8-8.6
		c-0.2-3.5,1.4-6.2,5.5-7.9c2.5-1,5.3-2,6.4-4.1c1.7-3.4,5.2-4.2,9.2-4.8c5.2-0.8,8.1-3.9,8.4-8.1c0-1,0.2-2,0.4-3
		c1.2-4.4,1.2-4.4-3.7-6.3c-1.5-0.6-3.1-1.4-4.7-1.4c-4.8,0-7.3-2.4-9.8-5c-4.3-4.3-4.3-6.3,0-10.6c1.3-1.3,2.6-2.9,0.6-4.3
		c-2.9-2.1-6.1-4.1-10.2-4.1c-3.7-0.1-7.3-0.9-10.7-2.4c-2.3-1.1-4.8-1.9-7.3-2.1c-6.1-0.3-10,3.8-7.1,8c1.3,1.8,1.8,4,1.4,6.2
		c-1.4,7.1-1.3,7.1,6.4,11.4c0.2,0.1,0.3,0.2,0.5,0.2c2.8,1.2,3.3,3,2.5,5.2c-1.1,3.5-3.1,6.8-5.8,9.3c-2.3,2.1-4.2,4.8-8.3,4.2
		c-2.4-0.3-5.2-5.8-4.9-8.4c0.1-0.3,0.2-0.6,0.3-0.8c1.4-3.7-0.2-6.6-4.1-8.8c-1.4-0.7-2.3-2.1-2.3-3.7c-0.2-3.6-1.8-7.2-0.1-10.8
		c-3-6.6-5.1-13.6-13.7-17.4s-12.2-9.5-11.4-17c0.1-1.4,0.3-2.9-1.6-3.9c-4-2-5.2-5.6-8-8.3c-1.5-1.5-1-3,0-4.5
		c1.1-1.5,2.1-3.1,2.9-4.7c1.7-4,1.1-4.9-3.5-7c-4.2-1.9-8.7-3.5-11.9-6.5c-1.3-1.2-2.2-2.5-1.7-4c0.6-2.2,0.3-4.5-0.8-6.4
		c-1.1-1.9-0.6-4.3,1.1-5.7c2.4-2.4,4.6-5,7-7.4c3-3.1,3-3.7-0.9-5.9c-0.7-0.5-1.5-0.9-2.4-1.1c-4.7-1.3-8.6-3.6-12.8-5.5
		c-9-4-13.9-15.5-3.5-22.7c0.8-0.6,1.6-1.2,2.5-1.8c5.6-4,5.4-8.4-0.3-12c-2.2-1.6-4.9-2.4-7.6-2.3c-2.6,0.1-5.2-0.3-7.7-1.1
		c-7.7-2.5-7.8-2.5-10.9,3.6c-2.3,4.6-8.1,6.3-12.1,9.5c-0.3,0.2-0.6,0.3-1,0.3c-5.1,0.3-10,1.6-15.1,1.2
		c-7.1-0.6-12.9-2.8-13.5-8.9c-0.2-2.5-2.3-4-5.1-5.3c-5.3-2.3-10.6-1.5-15.7-0.2c-2.8,0.8-5.8,1.2-8.7,1c-2.2-0.1-4.5-0.1-6.7-0.1
		c-5.8,0.1-13.2,4.3-15,8.3c-2.2,5-2.1,4.9,3,8.6c2.8,2,5.5,3.2,9.5,2.5s8.3-0.8,12.1-1.9c7.1-2.1,12.1,0.2,16.3,4
		c2.1,1.9,4.5,3.2,7.2,3.9c1.7,0.4,3.3,1.1,4.7,2.3c1.4,1.5,2.1,2.6-0.7,3.8c-1.7,0.7-3.8,1.4-4,3.4c-0.4,4,5.7,7.3,10.5,5.5
		c1.5-0.7,3.1-1.1,4.8-1.2c2.2,0,3.1,1.1,2.1,2.6c-1.9,2.8-5.8,4.2-10,3.5c-2.2-0.4-4.3-1-6.5-1.4c-3.3-0.6-6.6-0.3-8.9,1.7
		c-3.9,3.5-9.4,6.5-6,12.3c0.8,1.4,0.5,3.2,0.5,4.8c-0.2,2.2,0.2,4.4,1.2,6.4c1.4,2.4,0.7,4.4-1.5,5.9c-3.8,2.7-3.6,5.4-1.2,8.5
		c1,1.2,1.7,2.6,2.7,3.8c1.5,1.9,2.6,3.9,1.7,6.2s-3.9,1.9-6.1,2.5c-3.6,1-7.4,2.5-8.1,5.5c-0.7,3.2,2.7,5.2,6,6.7
		c0.3,0.1,0.6,0.3,1,0.5c5.2,2.2,9.7,5.5,13.4,9.7c1.2,1.4,3.3,2.4,3.5,4.4c0.6,4.7-1.3,9.1-2.4,13.6c-0.1,0.5-0.9,0.9-1.4,1.3
		c-2.9,2.4-6.7,3.6-10.9,4.1c-1.6,0.3-3.2-0.2-4.3-1.4c-4.6-4.4-11-5.7-17.7-4.7c-6.1,0.9-11.9,0.3-17.9,0c-4-0.3-8-1.3-11.6-3.2
		c-3.1-1.5-3.6-2.9-2.3-5.5c0.5-1.1,2-2,1.5-3.2c-1.2-2.6,1.1-3.2,3.3-3.6c5.2-0.9,7.7-3.8,9.6-7.3c0.9-1.5,1.8-2.9,2.9-4.2
		c3-4.3,2.1-8.9,1.1-13.5c-0.3-1.4-1.7-2.3-3.1-2c-3.6,0.7-6.5-0.5-9.6-1.6c-6.3-2.2-10.1-1.1-13.3,3.7c-0.4,0.5-0.7,1-1,1.6
		c-1,1.9-2.2,2.5-5.1,1.5c-4.5-1.6-9.1-2.6-14.5-1.4c-4.1,0.9-7.9,2.5-12.1,3.2c-2,0.3-3.1,1.9-4.3,3.3s-0.3,2.5,0.1,3.7
		c0.6,1.5-0.5,2.8-1.2,4.1c-1.2,2.6-3.8,4.6-4.6,7.4c-1.4,4.7-1.9,5.2-8,4.4c-4.1-0.7-8.4-0.1-12.2,1.6c-0.5,0.2-1.1,0.3-1.6,0.4
		c-9.1,2-8.6,5.2-8.6,10.5c0.1,1.6,0.6,3.2,1.3,4.7c2.1,5.1,1.2,6.8-5,8.8c-4.7,1.6-6.9,0.3-6.5-3.7c0.1-0.7,0.4-1.5,0.8-2.1
		c1.8-2.4,0.7-4.1-2-5.6c-0.8-0.4-1.4-0.9-2-1.5c-2-2.5-5.1-4-8.3-3.8c-1.4-0.1-2.8-0.6-3.8-1.7c-1.1-1,0-1.9,0.4-2.8
		c0.9-2.7-2.3-3.4-4-4.7s-3.4-0.9-5,0.3c-2.9,2-5.6,4.3-9.4,5.5c-0.9,0.3-1.5,1-1.1,1.8c1.9,4.9-4.1,6.3-6.7,9.2
		c-1,1.1-3.2,0.9-4.8,0.5c-1.9-0.6-1.4-2-0.9-3c0.8-1.7-0.7-2.8-1.7-3.9c-0.8-0.9-1-2.6-3-2.2s-3.8,1.4-3.7,3.4
		c0.2,1-0.1,2.1-0.8,2.9c-0.6,0.5-1.1,1.1-2.3,0.8c-4.9-1.6-5.5-3.6-2.1-6.7c1.2-1,2.6-1.8,4.1-2.3c2-0.7,4-1.5,5.9-2.5
		c4-2.2,7.6-4.8,12.4-5.9c1.2-0.2,2.3-0.9,2.9-2c1.2-3.2,3.8-6.2,4.4-9.3c0.5-3.2,2.4-4.1,5.5-5c2.8-1,5.6-1.7,8.5-2.2
		c6.3-0.7,12.1-3.6,16.4-8.3c2.1-2.3,3.1-4.5,1.7-7.3c-1.2-2.4-2.7-4.9-2.2-7.6c0.5-3.2-1.1-5.4-4.5-7c-0.9-0.5-1.7-1-2.5-1.8
		c-3.1-3-7.8-3.8-12-5c-2.8-0.8-5.9-0.6-7.6-3c-0.8-0.8-1.8-1.2-2.9-1.2c-2.2-0.2-4.4-0.7-6.5-1.5c-2.1-0.7-4.4-0.7-6.5-0.1
		c-2.5,0.7-5.1,1.1-7.6,1.3c-2.2,0.1-4.4,0.6-6.3,1.6c-8.3,4.5-15.7,0.8-23.3-1.5c-1.2-0.4-1.2-1.3-1.6-2.2
		c-1.6-3.5-8.4-4.9-12.4-2.9s-8.2,3.8-13.5,3.3c-3.7-0.3-6.1,2-6,5c0,1,0.4,2,0.2,3c-0.6,2.2-2.9,2.4-5.3,2.5
		c-2.2,0.1-3-0.7-2.8-2.5s-1.4-2.6-2.9-3.5c-4.1-2.4-7.6-0.8-11.1,0.5c-0.3,0.9,0.2,1.3,0.8,1.7c1.4,0.9,1.8,2,0.3,2.9
		c-1.4,0.8-2.4-0.1-3.3-0.9c-2.3-2.2-2.3-3.3,0.5-5c2.1-1.3,4.1-2.6,3.9-4.9c-0.1-2.2,1.6-4.6,0.2-6.4c-2-2.6-5.5-4.4-6.3-7.6
		c-5.3-1.4-10-4.5-16.3-3.3s-9.8,3.8-10.3,8.8c-0.2,1.8-1.1,2.8-3.1,3.7c-3,1.3-6.1,2.4-9.3,3.1c-4.3,1.1-8.5,2.4-12.6,3.7
		c-4.1,1.4-7.6,4.3-9.6,8.2c-2,3.8-4,7.5-5.8,11.3c-0.5,1.1-1.3,2.2-0.9,3.3c1.9,4.7-0.5,8.8-2.5,13.1c-1.1,2.3-3.3,3.9-5.8,4.4
		c-6.1,1.6-12.1,3.1-18.7,1.8c-3.3-0.7-6.7-0.2-9.7,1.4c-2.6,1.3-4.9,3-7.1,4.9c-1.8,1.6-2,2.8,0.2,4.4c3.7,2.9,3.7,5.9-0.4,8.1
		c-4.7,2.5-6.4,6.2-8.5,9.8l0,0c-0.7,1.2-2,1.8-3,2.8c-2,2-1.9,3.2,0.5,4.9c1.4,1,3,1.8,4.4,2.7c3.6,2.6,4.1,5.4,1.4,8.6
		c-1.6,2-3.4,4-6.3,4.9c-4.4,1.3-6,3.6-5.1,7.2c0.4,1.9,0.3,3.8-0.5,5.6c-2.4,6.2-1.4,12.7-2.5,19c-0.3,2,0.4,4,1.9,5.4
		c5.4,5.9,4.5,12.4,2.6,18.9c-1.3,4.8-4.3,8.9-8.5,11.6c-2,1.3-3,3-2.7,5c0.6,4.7-0.2,9.3-0.3,13.9c0,3-0.1,6.1,1.5,9
		c0.8,1.3,0.8,2.9,0,4.3c-2,3.3-0.1,6.3,1.3,9.3c0.4,0.9,1.1,1.1,2.5,1.1c5.4-0.1,7.9,1.8,8.1,5.9c0.1,1.5-0.1,2.9,0.1,4.4
		c0.2,1.8-0.3,3.9,3.9,3.3c2.1-0.3,2.9,1.6,3.7,2.9c3.3,5.7,5,6.2,11.5,2.9c4.1-2.1,8.2-2.3,12.1-0.3c5.2,2.7,10.1,2.8,15-0.2
		c2-1.3,4.6-1.4,6.8-0.5c5.5,1.9,9.1,1.1,12.1-3.1c1.6-2.1,3.4-2.4,6-2s5.4,1.3,8.3,1.2c3.9-0.2,7.5-0.7,9-4.1
		c0.7-1.5,2.3-2.3,3.9-3.1c3.7-1.7,6.6-4.8,11.8-4.1c1.1,0,2.1-0.4,2.9-1.2c3-3.6,6.4-7.1,6-11.7c-0.4-4-0.4-3.8,4.3-5.7
		c4.2-1.7,8.4-2.7,12.9-1.7c3,0.6,6,1.6,8.9,2.5c0.5,0.2,1,0.4,1.5,0.5c7.8,0.6,11.6,5,15.5,9.4c0.9,1,1.8,2,1.5,3.2
		c-1,4.3-1,8.7-3.5,12.7c-1.4,2.1-3.5,3.7-5.9,4.5c-7,2.6-10.8,7.4-14.4,12.4c-3,4.3-2.2,8.7,0.6,12.5c3.3,4.4,9.1,5.6,15.4,4.6
		c4-0.7,8.1-1.1,12.2-1.3c6-0.3,8.5-4.1,10.8-7.4c1-1.6,2.6-2.9,4.4-3.4c5.7-2,11.4-1.6,17.1-0.4c2.3,0.5,3.7,1.5,4.4,3.5
		c1,2.8,1.5,2.4,5.3,1.6c6-1.2,11.8-3.5,18.4-2.7c4,0.5,4.9,1.2,4,4.3c-1.5,4.9-3.5,9.8-3.2,15c0.1,2.3-2.1,3.6-4.2,4.9
		c-4,2.2-8.4,3.5-13,3.6c-13,0.5-15.8,5-17.8,13.7c-1.8,8-9.7,11.6-18.8,11c-7.2-0.5-11.9,2.1-13.2,7.6c-0.1,0.3-0.3,0.6-0.2,0.9
		c0.7,3.5-1.7,5.4-5.7,6.2c-3.7,0.8-7.1,2.6-11,2.5c-2.4-0.1-4.7,0.6-6.5,2.1c-3.5,3.2-7.9,5.7-11.3,9c-4,3.8-6.8,8.3-10.7,12.2
		c-2.7,2.7-1.9,6.5-2.2,9.7c-0.5,6.3-3.4,11.2-9.3,15.7c-3.8,2.9-7.1,6.3-10.8,9.3s-3.5,4.9,0.3,8.2c1.1,1,2.3,1.9,2.7,3.3
		c0.1,0.5,0.4,1.4,0.9,1.5c5.9,1.8,4.4,5.8,4.7,9.2c0,0.4,0,0.9,0,1.3c-0.1,1.9,1,2.8,3.4,2.1c4.2-1,8.5-1.5,12.8-1.4
		c7.5-0.1,14-2.9,20.4-5.4c7.8-3,16.9-1.6,21.9,3.9c2.1,2.4,4.9,4.6,3.9,7.9c-1.3,4.3-4.1,7.9-7.8,10.4c-1.9,1.3-4.9,1.2-7.5,1.1
		c-1.5-0.1-3-0.3-4.5-0.3c-6.7,0-7.3,0.4-8.3,5.4c-1.4,6.4,2.8,10.1,11.3,9.8c2.4-0.2,4.9-0.2,7.3,0c7.9,0.9,14.7,3.5,19.3,8.5
		c4.3,4.8,11.1,5,17.2,6.5c2.8,0.7,6.1-3.2,4.2-5c-2.9-2.8-3.9-6.6-8.2-8.7c-3.1-1.5-1.5-4.2-0.5-6c2.7-4.6,5.2-9.3,8.9-13.6
		c3.1-3.4,7-6,11.3-7.5c1-0.5,2.1-0.7,3.2-0.8c6.1,0,10.5-4,10.1-9c-0.1-1.3-0.1-2.8-0.8-3.9c-2.3-3.4-0.5-6.3,1.5-9
		c4.2-5.7,11.2-9.1,18.5-12.3c1.4-0.5,2.9-0.6,4.3-0.1c4.5,1.2,9.2,1.8,13.8,1.8c1.1-0.1,2.2,0,3.3,0.3c7.3,2.6,13.8,0.8,20.3-1.8
		c4.3-1.7,8.7-3.2,13.9-1.9c3.2,0.8,6.7,0.8,10,1.3c3,0.5,4,2,4.9,4.5c2.6,6.9,2.6,14.5,8.6,20.5c0.8,0.8,1.6,1.6,2.5,2.4
		c5.6,4.4,6.7,9.5,4.9,15.3c-1.1,3.4-2,6.8-1.2,10.3c1.7,7-2.5,12.8-6.8,18.4c-1.3,1.7-3.3,3.1-5.1,4.7c-2.6,2.3-6,3.4-9.5,3
		c-2.2-0.4-4.4,0.2-6.1,1.6c-5.1,4.5-12.2,4.8-19.1,5c-2.8,0.1-5.6,0.1-8.4,0.3c-6.1,0.4-12.3-0.4-18.2-2.1
		c-5.8-1.6-11.9-2.8-18.2-2.2c-2,0.2-4,0.5-6,1c-2.3,0.6-4.8,1.2-4.5,3.7c0.3,2.2,2.4,4,5.6,4.2c3,0.2,5.9,0.7,8.9,0.5
		c5.3-0.4,13.3,4.5,14.8,8.4c0.9,2.3,0.2,4.1-2.4,5.3c-4.3,1.7-7.5,5.3-8.7,9.7c-0.5,1.7-1.8,2.7-3.8,3.5c-5.4,2.1-8.8,5.8-11.9,9.6
		c-1.7,2.2-2.6,4.5-0.9,7c1,1.4,0.5,2.8-0.3,4.2c-2.5,4.5-4.7,9.2-7.2,13.7c-0.9,1.7-1.4,3.6-1.2,5.5c0.2,2.2,0.4,4.3-0.6,6.5
		c-0.9,1.9,0,3.8,1.8,5.2c1.6,1.3,2.4,3.2,2.1,5.2c-0.2,3.3,0.1,6.7-0.7,10c-0.4,1.8-1.5,3.4-3.1,4.5c-5.1,3.8-11.4,5.6-17.8,5
		c-3.7-0.3-7.5-0.4-11.2-0.3c-4.2,0.3-8.3-1.3-11.2-4.2c-1.5-1.3-3.2-2.4-5.1-3.2c-4.6-2.3-8.8-5.5-12.1-9.4
		c-2.5-3.1-5.8-4.8-10.6-4.7c-2,0-4,0.6-5.7,1.6c-9.7,5.7-15.1,13.4-16.9,22.7c-0.9,4.9-6.5,9.4-12.8,10c-4.1,0.4-8.1-0.3-12.2,0.5
		c-1.3,0.2-2.5-0.2-3.5-1.1c-2.7-2-5.6-2-8.8-0.7c-0.8,0.3-1.8,0.5-2.6,0.9c-4,1.8-7.7,1.3-12.2,0.3c-5.9-1.4-11-4.2-17.1-5.2
		c-2.7-0.5-5.5-0.3-8.1,0.7c-9.6,3.7-18.1,8.3-23.1,16c-1.3,1.9-3.3,3.1-5.6,3.3c-3.6,0.5-5.8,2.6-7.8,4.7s-2.9,4.4-0.8,6.8
		c1.8,2.1,1.8,4.4,1.5,6.8c-0.3,3.3-0.2,6.7,0.4,10c0.3,2.2,0.6,4.4-0.1,6.5c-1.7,4.9-0.8,9.8-0.4,14.6c0.2,2.5,1.8,4.6,4.2,5.4
		c7.6,3.2,14.2,7.5,22,10.5c4.8,1.8,10,2.5,14.9,4c1.6,0.4,3.4,0.1,4.8-0.8c2.9-1.9,6.7-1.7,10-2.8c1.4-0.5,2.9,0,3.7,1.2
		c1.6,2.3,3.6,4.5,2.8,7.3c-1.2,3.9,2.3,7,2.7,10.5c0.1,0.5,1.1,1.2,1.9,1.5c2.7,1,5.6,1.8,8.7,0.8c8.6-2.5,12.5,1.1,12.7,7.2
		c0,2.3-0.3,4.7-0.9,6.9c-1.3,4.9-2.8,9.9-2,15c0.3,1.8-1.1,2.3-2.9,2.5c-2.4,0.3-4.8-0.1-7.2,0.7c-4.3,1.3-5.5,2.5-4.2,5.9
		c1.8,4.7,1.6,9.5,2.6,14.2c0.7,3.3,1.9,6.2,5.5,8.2c2.6,1.4,4.1,1.4,6.2-0.5c1.6-1.5,3.4-2.8,5.3-3.8c2.7-1.3,4.8-1,6.8,1
		c1.3,1.3,2.3,2.9,3,4.7c0.5,1.3,1.3,2.5,2.3,3.5c2.2,2,4,2.5,6.8,1s5.1-1.2,8.3-0.6c5.6,1.1,11.1,2.7,16.8,3.5
		c0.7,0,1.5,0.1,2.2,0.3c5.9,3.4,13.1,5.8,15.8,11.7c1.4,3,4.4,4.3,7.7,5.2c3.4,0.8,6.7,2.4,9.5,4.5c2.6,2,8.9,1.9,10.7-0.6
		c2.1-2.8,4.8-2.8,8.1-2.5c1.8,0.3,3.7,0.3,5.5-0.3c6.2-2.4,13.2-3.2,19.2-6c1.8-0.9,8.2-4.1,10.1-4.6c2.6-0.7,3.9-2,2.4-4
		c-3.5-4.8-3.1-9.7-1.5-14.8c1.2-3.6,0.1-4.9-3.9-6.8c-0.5-0.2-1-0.4-1.5-0.6c-6.8-2.8-6.8-2.8-3.4-8.1c1.1-1.6,1.6-3.4,3.3-4.9
		c2-1.9,0.9-4.3-0.8-6.1c-1.8-2-2-4.3-3-6.4c-2.9-5.4-1.4-11.6-5.5-16.7c-1.1-1.3-0.9-2.4,0.7-3.4c3-1.9,3.7-4.3,3.4-7.3
		c-1-8.5,6-15,17.1-15.8c3.2-0.2,4.7-1.4,5.7-3.5c1.3-2.7,1.5-5.8,0.4-8.5c-0.8-2.2-0.6-4.7,0.7-6.8c2.4-4.4,3.9-9,8.9-12.4
		c1.7-1.3,3.8-1.9,5.9-1.7c6.4,0.6,11.8-0.7,16.4-4.3c1-0.7,2.1-1.3,3.3-1.7c2.6-0.9,4.5-3.1,5-5.8c0.8-3.8,2.4-7.7,7.9-9.3
		c5-5.3,13-3.5,19.6-4.8c1.1-0.1,2.2,0.3,3,1c2.6,2,5.9,2.4,9.1,3c1.6,0.2,3.2,0.7,4.6,1.5c2.3,1.4,4.9,2.3,7.6,2.6
		c6.1,1,7.9,4.2,4.4,8.2c-0.8,1-2.2,1.7-2.9,2.6c-1.3,1.6-2.2,3-0.5,5.1c1.7,2.3,2.3,5.2,1.5,8c-0.6,2.8,0.7,4.3,4.1,5.8
		c5.1,2.3,10.4,2.4,15.7,1.8c2.9-0.2,5.9,0,8.8,0.8c4,0.8,5.4,2.8,3.4,5.6c-2.4,3.4-1.2,6.3,0.9,9c2.8,3.6,5.1,7.5,8.9,10.6
		c2.1,1.7,3.1,3.8,2.5,6c-1.7,6.4,2.2,11,7.6,15.1c2.9,2.2,5,4.6,5.3,7.9c0.2,1.3-0.1,2.6-0.8,3.8c-2.1,3.2-4.3,6.5-6.5,9.7
		c-3.7,5.5-6.3,11.2-6.6,17.4c-0.3,2.2-1,4.3-2.1,6.3c-1,2-2.9,3.2-6,3.3c-3,0-6,0.3-9,0.7c-5,0.8-6.9,3.5-4.5,7.1
		c3,4.5,2.9,8.8,0.5,13.4c-2.2,4.3-5,8.3-8.1,11.9c-0.9,1.1-1.8,2.2-2.6,3.3c-5,7.2-0.4,13.4,10.1,13.8c1.1,0,2.2,0.1,3.3,0.3
		c11.5,2.8,13.1,4.9,8.9,13.5c-2.6,5.3-5.1,10.6-4.5,16.5c0.2,2-0.7,3.9-1.5,5.8c-1.9,4.7-0.9,9.3,3.7,13c4.7,3.9,9.6,7.5,14.7,10.8
		c1.5,0.9,3,1.8,3.8,3.2c1.2,2,3.3,2.1,6,2.3c6.8,0.4,11.2-3.4,16.7-5.3c1.7-0.6,2.8-2.3,2.7-4.1c0-3.5,2.4-6,5.5-8.3
		c1.9-1.4,3.7-2.9,5.5-4.4s3.8-2.2,7.1-2.3c4.6-0.1,9.6-0.9,13.5-3.7c4.3-3,9.1-5.6,11.8-9.8c1-1.2,1.6-2.6,1.9-4.1
		c0.5-5.1,1.8-10.1,1.4-15.2c-0.1-1.5,0.4-3,1.3-4.1c2-2.3,3.2-5.2,3.4-8.2c0.3-4.8,3.1-9.3,2.5-14.2c-0.1-0.5,0.4-1.1,0.8-1.6
		c3.6-4.7,4.5-10.1,6.2-15.3c0.5-1.7,1.3-3.3,2-5c0.2-0.7,0.7-1.4,1.3-1.9c4.6-3,9.9-5.2,15-7.6c0.6-0.3,1.8,0.2,2.7,0.4
		c1.8,0.6,3.5,1,5.4,1.4c5.6,0.5,7.3,3.5,8.2,7.1c1.5,6.1,1.5,5.9,9.5,4.3c4.3-0.8,8.8-1.4,13.2-2.1c3.6-0.6,6.9,1.4,9.5,3.1
		c2.4,1.6,2,4.2,0.9,6.5c-0.7,1.5-1.2,3.1-2,4.5c-1.2,2.3,0,3.8,2.5,5.1c3.4,1.7,7.1,1.8,10.8,1.6c5.8-0.3,11.5-1,17.4-0.7
		c3.1,0,6.2,0.7,8.9,2.2c1.8,1,3.8,1.8,5.8,2.7c2.6,1.1,5.4,1.3,8.2,0.6c1.1-0.2,2.1-0.7,3.2-0.9c6.2-1.1,9-4,10.8-8.8
		c2.2-6,8-10.4,14.7-13.8c0.6-0.3,1.3-0.5,2-0.6c8.2-0.6,12.6-4.9,15.3-10.2c1.6-2.9,3.6-5.5,6-7.8c2.3-2.3,4.9-4.4,5.8-7.3
		c0.1-0.3,0.2-0.6,0.5-0.8c4-1.7,7.8-3.7,11.7-5.6s9.3-0.6,13,2.1c4.5,3.2,9.1,2.2,13.9,0.8c5.8-1.4,10.4-5.1,16.8-5.6
		c0.5-0.1,1.1-0.3,1.5-0.6c4.6-3.7,10.5-6.7,12.1-12.2c1.5-5.1,3.2-10.2,3.3-15.4c0.1-5.8,3.2-10.6,7.4-15.2c2.9-3.1,7-4,11.4-5
		c6.9-1.7,10.5-6.6,8.5-12c-1.4-3.7-1.5-7.4-1.8-11.2c-0.3-3.2-1.3-6.8-4.5-8.7c-4.8-2.8-9.1-6.4-15.5-7.7
		c-4.5-0.9-8.6-2.8-12.9-4.2c-2.1-0.6-4-1.8-5.5-3.5c-2.2-2.9-5.2-5.3-7.2-8.3c-1.3-2-2.7-4.2-5.5-5.4c-3-1.3-3.1-3.5-2.5-5.7
		c0.5-1.8,1.5-3.6,1.7-5.5c0.4-2.9,0.8-6.2-2.3-8.2c-4.3-2.7-5.4-6.2-5.8-10s0.6-7.5,0.9-11.3c0.2-3.2-1.2-5.4-4.6-6.9
		s-4.3-3.5-4.4-6.4c-0.1-2.5,0.6-5.7-2.2-7.4c-3.4-2.1-6.5-4.4-9.9-6.4c-2-1.3-4.5-1.8-6.9-1.4c-7,1.4-14.4-0.9-21.2,1.7
		c-0.4,0.1-0.7,0.1-1.1,0c-3.6-0.7-6.4,0.5-9.4,1.9c-3.2,1.5-8.4,0.6-10.8-1.5c-2.7-2.4-2.9-5.2-0.5-8c1.6-2,3.5-3.8,5.1-5.8
		c2.8-3.4,3.9-7.8,3-12.1c-0.8-3.7-0.4-6.5,2.7-9.2c0.8-0.7,1.5-1.6,1.9-2.6c0.1-0.4,0.2-0.8,0.3-1.2c0.4-2.9-1.6-5.5-4.5-5.9
		c-4.5-0.5-6.6-4.4-11.3-4.4c-1.1,0-1.6-1.1-1.8-2s-0.1-1.8-0.4-2.6c-0.5-1.4-12.3-6.7-14.1-6.5c-3.6,0.3-6.2,1.7-6.8,4.4
		c-0.8,3.2-3.1,5.5-5.5,7.9c-1.8,1.8-3.7,1.4-6,0.8c-2.6-0.6-2.3-1.9-1.8-3.5c1-3.1-0.4-5.4-3.8-7.1c-0.5-0.2-0.9-0.5-1.4-0.7
		c-2.3-1.7-2.1-2.7,0.5-4c1.4-0.7,2.9-1.3,4.5-1.9c7-2.4,12.7-6.2,18.4-10c2.1-1.5,3-3.2,2.3-5.5c-1.9-6.2,0.1-12.4-0.2-18.7
		c-0.2-3.3-0.7-5.9-3.2-8.4c-8-8.3-9.1-17.5-7-27.3c0.8-3.6,4.3-6.7,4-10.4c-0.2-3.9,2.2-6.3,5.8-8.3c2.3-1.3,4.5-2.6,6.9-3.8
		c1.9-0.8,3.7-1.9,5.2-3.3c4.8-5.4,10.8-10.4,14.8-16.1s12.6-7.4,18.6-4c4.5,2.6,9.5,4.6,13.4,7.8c2,1.6,4.8,2.1,7.3,1.2
		c9.1-2.8,18.8-8.8,19.4-18.5c0-0.6,0-1.2,0-1.7c0.7-4,5.2-7.8,9.3-7.4c6.4,0.7,10.6-1.3,14.3-5.1c2.2-2.2,2.9-5.3,6.2-6.6
		c6.1-2.5,11.2-6.5,18.6-6.9c1.6-0.1,3.2-0.6,4.5-1.6c2.6-2.2,7.8-1.5,9.2-5c0.1-0.4,1.7-0.5,2.6-0.5c3.5,0,7.1,0.5,10.5,1.5
		c2.3,0.7,4,1.8,3.7,3.9c-0.1,1.8,0.4,3.6,1.5,5c1.5,2.1,1.6,4.9,0.3,7.2c-1.2,2.5-1.4,5.1-2,7.7c-0.5,2.4,0.6,3.9,3.2,5
		c2.7,1.1,5.2,2.7,7.3,4.7c4.3,4.3,10.1,5.8,16.8,5.5c4.1-0.1,8.2-0.7,12.1-1.8c5.2-1.7,10.9-3.5,11.5-8.6c0.4-3.7,3-4.9,6.9-5.8
		c3.1-0.6,6.3-0.6,9.4-0.1c4.3,0.5,8.1,2.6,12.5,2.3c3.4-0.2,5.1,1.3,5.6,3.4c0.6,3,2.8,5.1,5.1,7.4c2,2,3.6,2.4,6.6,1.7
		c8.2-1.8,16.5-3.8,25.2-3.6c4.9,0.1,9.2-0.7,12.9-3.3s8.1-3.4,13.1-2.5c3.7,0.5,7.4-0.1,10.7-1.8c4.2-1.8,8.5-3.2,13-4.1
		c5.4-1.1,10.9-1.8,15.9-4.1c3.1-1.4,6.4-1.9,9.7-1.5c12.7,1.2,22.1,7.5,32.3,12.5c0.5,0.2,0.9,0.5,1.2,0.9c1.1,2.4,3.8,3.4,6.4,4.6
		c4.2,1.9,5.3,4.1,4.2,7.9c-0.2,1-0.1,2.1,0.3,3c0.6,2.1,1.4,4.2,1.8,6.3c0.8,3.9,4.3,6,9.3,5.3c7.6-1,14.5-3.6,21.6-5.9
		c2.7-0.9,4.9-1.9,6.2-4c1.7-2.8,4.4-4.9,7.7-6.8c2.6-1.5,5.3-3.3,6.6-5.8c1.8-3.3,5.3-3.9,9.3-3.3c1.4,0.4,2.9,0.3,4.3-0.1
		c6-2.3,7.5-7,3.3-11.1c-1.3-1.3-2.6-2.5-4-3.7c-1.6-1.4-1.4-3-1-4.5s2.5-0.7,3.8-1c2.1-0.5,4.2-1.1,6.3-1.8
		c3.1-1.2,5.9-2.8,4.9-6.1c-0.5-1.6,0.7-2.1,2.3-2.5c5.8-1.2,11.7-2.7,16.9,1.3c2.4,1.8,5.7,2,8.3,0.6c2.9-1.5,6.1-3.4,5.4-6.6
		c-0.7-2.9-1.2-6.2-5.2-7.9c-1-0.5-1.9-1.3-2.5-2.3c-2.1-2.6-3.1-5.3-2.2-8.3c0.3-1.1,0.5-2.3,0.6-3.5c0.2-2.6-2.5-3.5-4.8-4.2
		s-5-1.6-7.2,0.5c-1.3,1.3-2.6,2.5-3.8,3.8c-6.2,7.1-16.4,7.1-22.3,0.1c-1.3-1.5-1.9-2.8-0.2-4.3c1.8-1.4,2.3-3.8,1.3-5.8
		c-1.5-3.5-1.7-7.5-0.8-11.2c0.5-2.1,1.1-3.6,3.5-4.6c2.6-1.2,4.9-3,6.8-5.2c1.5-1.7,1.8-3.2,0.5-5.2c-2.3-3.6-5.6-6.6-9-9.5
		c-2.6-2.3-6.3-3-9.6-1.9c-1.4,0.4-2.8,0.8-4.3,1.1c-4.4,0.9-6.4,0.1-8.5-3.1c-0.7-1.2-1.5-2.4-2.5-3.4c-2.5-2.3-2.9-4.9-3-7.8
		c0-2.5,0.6-5,1.5-7.3c1.2-3.4,2.1-6.7,1.2-10.3c-0.4-1.6-0.2-3.3,0.5-4.8c1.1-2.2,1.2-4.5,1.4-6.8c0.5-4.2,3.4-6.1,8.9-5.6
		c3.7,0.3,7.2,1.9,9.8,4.5c4.2,4.2,8.2,8.8,16,9.5c0.7,0.1,1.4,0.3,2,0.7c2.1,1.3,4.1,0.8,6.4,0.3c3-0.8,5.8-2.2,9.1-2.1
		c5.2-0.1,10.3-0.8,15.3-2.3c2.2-0.6,3.4-0.6,4.6,0.9c0.6,0.8,1.3,1.4,2.1,2.1c4,3.2,4,3.5,1.7,7.3s-1,5.7,4.2,6.4
		c5.8,0.7,7.6,2.3,7.8,6.9c0.2,3.4-1.6,6.5-2.5,9.8c-0.4,1.5-1.2,3.1-0.2,4.7c2.8,4.5,7,7.7,13.6,8.9s13.4,1.1,19.8,3
		c2.9,0.9,4.6,1.9,4.7,4.6c0.1,4.4,3,7.7,8.2,9.6c2.6,1,3.4,2.4,3.4,4.5c0.1,4.3-2.6,7.8-5,11.4c-2.5,3.6-4.7,7.5-6.6,11.5
		c-2.4,5.6-1.4,11.1-1,16.7c0,1.5,1,2.8,2.4,3.2c3.5,1,3.4,3.1,3.4,5.4c0.1,4.7-3.1,8.4-6.1,12c-2.7,3.2-4.8,6.6-5,10.5
		c-0.2,2.5-1.4,4.8-3.4,6.3c-4.1,3.5-6.9,7.6-8.2,12.2c-0.7,2.1-2.2,3.9-4.1,5c-3.2,1.9-6.3,1.6-8.3-1.1c-1.5-2-5.4-2.4-5.9-4.4
		s0.2-4.2-0.1-6.4c0-1-0.6-1.9-1.6-2.1c-1.4-0.5-3,0-3.9,1.1c-2.4,3.5-6.1,6.3-8.6,9.7c-2.4,3.3-3.9,6.6-3.8,10.3
		c0.1,3.9-0.4,7.8,0.1,11.7s1,8.1,0.3,12.1c-1.3,6.9-1.4,14-8.1,19.5c-1.5,1.2-1.8,2.9-2.1,4.4c-0.7,2.9-1.1,5.8-2.1,8.6
		c-1.1,3.4-2.9,4.2-7.3,4.1c-2.3-0.1-4.5,0-6.7-0.3s-3.7,0.5-5.6,1.3c-3.1,1.3-4.6,3.1-5.3,5.7c-0.6,2.3-2.2,4.3-3.6,6.3
		c-3.3,4.5-7.7,8.5-10.6,13.2c-1.8,2.8-5.3,4.9-7,7.8c-1.9,3-4.3,5.6-7.1,7.8c-4.2,3.5-9,6.1-15.5,6.3c-4.8,0.3-9.5,1.2-14,2.8
		c-7.7,2.4-11.8,6.7-11.7,12.8c0.1,5.7-2.8,10.1-7.5,14c-2.8,2.1-5.2,4.8-7,7.8c-1.4,2.6-4,4.4-6.9,4.6c-2.3,0.4-4.5,1.4-6.3,2.7
		c-1.3,0.8-2.3,2-1.7,3.4c1.4,3.3,1.3,6.9,3.1,10.2c2,3.5,0.7,6.7-1.5,9.5c-1.8,2.6-4.8,4.2-8.1,4.1c-6.9-0.1-13.8,0.2-20.5-1.6
		c-5.8-1.5-10.9-3.3-11.5-8.8c-0.2-2.2-2.4-3.3-4.4-4.2c-2.9-1.3-4-2.8-4.2-5.5c-0.2-4.6-2.5-8.3-9-9.9c-3.7-0.9-7.1-2.6-10.7-3.7
		c-4.2-1.3-7.3-3.3-7.2-7.4c0.1-2.9-2.1-4.7-5.6-5.9c-5.3-1.8-9.8-1.2-13.9,1.9c-4.9,3.7-10.3,6.7-16,8.8
		c-6.4,2.4-9.8,6.3-11.7,11.5c-1.5,4.3-2.7,8.8-5.7,12.7c-2.4,3.4-4.5,6.9-6.4,10.7c-1.5,2.6-3.2,5-5.1,7.3c-2.1,2.6-5,4.3-8.3,5
		c-4.5,1-8.8,2.4-13.3,3.5c-5.2,1.2-10.1,3.3-14.6,6.1c-5,3.1-6,6.7-4.8,11.2c1,3.1,2.6,5.9,4.8,8.3c1.8,2.2,4.6,3.4,7.4,3.2
		c4.2,0,8.1,1.6,11.1,4.5c2.8,2.8,3.8,6.2,1.3,9.8c-2.9,4.1-5.1,8.3-3.9,13.3c0.6,2.4-0.4,4.8-2,7.1c-1.3,1.7-2.5,3.6-2.3,5.7
		c0.5,3.8-1.1,7.2-3.5,10.3c-0.8,1-1.3,2-0.5,2.8c2.4,2.2,4.1,4.7,8.1,5.7c5.6,1.3,11.5,0.9,16.9-1.1c3.6-1.2,7.6-1.2,11.2,0.1
		c4.3,1.3,5.7,2.6,5.4,6.2c-0.2,2,0.7,3.3,2.7,4.4c2.1,1,4,2.4,5.7,4.2c1.1,1.2,2.6,1.9,4.2,2c4.7,0.5,8.8,2.4,13.3,3.3
		c1.8,0.4,3.8,1.2,4.2,2.7c0.9,3.8,2.5,7.6-0.1,11.4c-2.4,3.6-5.3,6.8-8.7,9.5c-1.9,1.4-2.4,2.7,0.1,4.2c2.7,1.6,3.9,4.2,6.7,5.8
		c1.3,0.7,1.8,2.3,1.2,3.6c-1.8,4.1-0.3,8.3-1.1,12.5c-0.9,4.9,5,8,11.1,6.5c2.1-0.5,4.4-0.9,6.4-1.5c3.7-1.2,8-1.5,10.5-4.7
		c3-3.9,8.9-5.8,14.5-4.6c3.3,0.7,6.7,0.9,9.8,1.8c3.9,1.2,7.8,2.2,9.9,5.7c2.2,3.8,6.6,6.1,12.2,6s11.3-0.4,16.2-2.7
		c4-1.8,8.3-3.3,11.4-6.2c1.4-1.3,3.6-2,5.8-2.6c5.4-1.4,10.8-3.2,16-5.3c2.9-1,5.5-2.8,7.5-5.2c4-5,10.2-7.5,17.4-6.6
		c0.9,0.1,2.2,0.1,2.2,1c0,4.4,5.8,3.8,8.4,5.9c9.2,1,18.2,2.9,27.4-1.1c5.3-2.4,11.7-2.3,16.6,1.7c2.3,1.8,5.1,2.3,8.3,2
		c3.3-0.3,6.7,0.1,9.9,1.1c3,0.9,6.1,1.6,9.2,2c3.5,0.4,6.9,1.3,10.1,2.7c5,2.3,5.7,7.2,1.6,10.2c-2.5,1.8-5,3.5-7.4,5.3
		c-1.6,1.2-3.4,2.8-2.3,4.6c2.3,3.6,3.1,7.4,4.1,11.2c0.5,1.9,2,3.5,3.4,5c2.3,2.3,5.2,4,8.4,4.9c3,0.9,4.9-1,7.2-1.7
		c0.7-0.2,1.4-0.4,2.1-0.5c2.6-0.5,4.9-1.9,6.6-3.8c2.2-2.2,2.9-4.7,3.7-7.2c1.3-4.5,7.5-7.3,12.1-4.5c5.6,3.3,11.8,5.5,18.3,6.5
		c3.3,0.6,5.8,2.6,8.7,3.7c4.7,1.8,7.3,4.3,8.4,8.1c0.2,0.5,0.4,1.3,0.9,1.5c3.9,1.9,2.5,4.9,2.8,7.5c0.3,2.9-1.6,5.1-5.1,6.2
		c-4.4,1.5-8.4,3.8-13.5,4c-0.7,0-1.5,0.2-2.1,0.6c-3.7,3.3-7.2,6.6-7.9,11.2c-0.3,1.6,0.3,2.7,2.3,3.6c5.5,2.4,10.5,5.6,16,8
		c2.5,1.1,4.8,2.7,5.6,5.2c0.5,1.2,1.3,2.2,2.3,3c4.6,3.5,4,7.5,2.8,11.8c-0.2,0.7-0.5,1.4-0.8,2.1c-2.2,4.7-1.1,9.2,1.3,13.6
		c5,9.3,6,18.8,0.9,28.3c-0.9,1.8-1.7,3.7-1.3,5.5c1,4.9,1.4,9.9,4.1,14.4c2.1,3.4,3.7,7.2,4.6,11.2c0.7,3.5,3.6,5.7,7.6,7
		c2.5,0.8,5,1.2,7.7,1.2c5.4-0.2,8.8,2.2,12,4.9c1.9,1.7,3.7,3.6,5.3,5.6c3.3,4.4,8,7.5,13.3,8.8c2.7,0.6,5.3,1.4,7.8,2.4
		c2.8,1.2,5.8,1.3,8.7,0.4c5.3-1.4,10.7-2.7,15.9-4.2c3.5-1,6.1-2.9,6.2-6.1c0.1-3.5,1.9-6.4,4.7-9.2c4.7-4.8,7.6-10.7,14-14.6
		c1.9-1.2,2.1-3.1-0.4-4.4c-1.3-0.7-2.1-2-2.2-3.4c-0.3-3.9-3.6-5.5-7.8-6.5c-2.2-0.5-4.4-0.7-6.6-1.1c-3.5-0.7-4.2-1.4-3.7-3.9
		c0.4-2.3,0.9-4.6,1.5-6.8c0.7-2.1,0.4-4.5-0.8-6.4c-3.1-4.3-3.4-8.7-2.4-13.5c0.9-4.2-0.6-8-5.4-10.8c-4.5-2.6-6-6.6-7.9-10.4
		c-0.6-1.2-0.2-2.2,1.2-3.1c2.7-1.6,2.1-3.5,0.5-5.3c-2.3-2.5-4.4-5.1-6.7-7.5c-5-5.4-10.2-10.7-17.2-14.8c-1.7-1.1-3.7-1.6-5.7-1.6
		c-3.4,0.2-6.6-1.3-8.7-4c-3-3.7-5.9-7.4-10.8-9.9c-1.8-0.7-2.9-2.6-2.6-4.5c0.3-4.7,3.5-8.5,6.6-12.3c0.7-0.8,1.6-1.3,2.6-1.6
		c4.6-1,9.1-2.1,14.2-0.7c5.5,1.6,11.1,3.6,17.3,3.3c2.5,0,5,0.9,7,2.5c2.9,2.1,6.3,3.4,9.9,3.9c1.6,0.1,3.3,0.5,4.8,1.2
		c3,1.7,5.9,1.3,9.1,0.6c8.3-1.6,16.5-2.1,25-0.3c8.3,1.8,14.9,5,20.4,10c4.9,4.5,9,9.3,15,13c1.8,1.1,3.1,2.8,3.7,4.8
		c0.7,2.5,1.6,5,1.3,7.7c-0.2,1.8-0.5,4,1.5,5.4c4.9,3.5,9.3,7.5,16.5,8.6c5.1,0.8,9,3.1,10.8,7.4c1,2.5,3,4.7,4.6,7
		c2.8,3.7,5.2,7.6,7.1,11.8c0.9,2.5,2.5,4.7,4.6,6.4c1.4,1,2.1,2.6,1.9,4.3c-0.3,4.2-0.6,8.4,0.1,12.6c0.7,4.4,0.9,9,0.6,13.5
		c-0.3,4.1,0.2,8.2,6,10.4c0.8,0.4,1.4,0.9,1.9,1.5c6.6,6.9,14.2,12.8,22.7,17.3c3.2,1.7,3.6,2.4,1.5,5c-2.1,2.6-3.4,5.7-3.9,9
		c-0.3,1.8-0.9,3.5-1.8,5c-1.7,2.8,0.9,5.3,1.8,7.9c0.6,1.6,2.8,1.8,4.7,1.9c2.7,0.3,4.4,1.4,5.3,3.4c0.8,1.8,2.4,2.8,4.7,3.5
		c4.3,1.3,6.2,4,6.3,7.5c0.2,4.2,1,4.7,6.4,4.6c1.1,0,2.2-0.1,3.3-0.3c5.8-1.4,11.9-1.3,17.7,0.2c2.8,0.7,6,1.3,8.8,0.2
		c6.5-2.6,12-5.9,12.5-12.3c0.3-4.4,3.1-7.7,8.1-10.4c6.8-3.6,10.3-8.7,8-15.3c-0.4-1-0.4-2-0.2-3c2.6-11,15.3-18.1,29.3-15.9
		c2.9,0.5,5.9,0.1,8.5-1.2c2.2-1.1,4.5-2.2,6.7-3.3s3.6-2.3,3.9-4.5c0.9-5.7,6.9-6.8,12.5-5.8c1.6,0.3,2.9,0.4,4.1-0.4
		c2.5-1.8,5.3-1.8,8.4-0.9c5.6,1.7,10-0.8,13.6-3.4c3.2-2.5,0.9-5.4-1-8c-0.2-0.2-0.4-0.5-0.5-0.8c-2.3-7.2-1.3-11.9,9.1-12.3
		c4.7-0.2,5.8-1.5,4.8-5.1c-0.3-1.1-1.2-2.4,0.4-3.1c5-2.2,7.2-6.1,10.3-9.5c4-4.2,8.1-5,13.6-2.6c4.1,1.7,8.2,0.6,10.3-2.6
		c1.1-1.7,1.4-3.6,2.1-5.4c1.9-4.5,2.9-9.4,8.9-12.1c1.9-0.9,2.4-2.3,0.9-3.7c-2.4-2.2-13.7-7.4-17-11.4c-2.1-1.4-13-18.3-13-20.5
		c0-2.4-1.2-4.4-3.6-6.2c-4.7-3.6-4.1-8.2-2.9-12.7c0.6-2.3,6.4-4.5,9.8-4.2c1.1,0.1,2.1,0.7,3.3,0.4c2-0.4,2.8,0.3,3,1.7
		c0,0.1,0.1,0.3,0.1,0.4c2.2,5.2,8.2,6.5,13.7,3c3-1.9,4.6-4.3,4.2-7.2c-0.2-2.3,0.9-3.5,3.3-4.5c1-0.4,1.9-0.9,2.9-1.3
		c7.7-3.3,10.5-7.6,9.1-14.3c-0.4-1.8-0.1-3.5-0.3-5.2c-0.2-1.3,0.6-2.6,1.9-2.8c0,0,0.1,0,0.1,0c1.7-0.5,3.1-1.9,3.6-3.7
		c2.8-6.8,5.9-13.5,9.3-20c1.4-2.5,1.2-5.7-0.6-8c-3.3-4.3-2.1-12.7,3.4-15.8c2.4-1.3,4-2.9,4-5.4c0-1.3,1-2.5,2.5-3.3
		c2.8-1.4,7.6-7.4,8.6-8.8c2.2-3.2,4-6.5,5.5-9.9c1.6-3.6,4.5-5.5,8.6-6.9c2.6-0.9,5.5-1,8.1-1.5c2.2-0.5,3.8-0.5,5.5,0.8
		c2.2,1.7,4.9,1.8,7.8,1.4c7.6-1,12.5-4.9,17.3-9.1c0.9-1,2-1.7,3.3-2.1c4.7-1.5,7.2-4.2,7.4-8.4c0.2-5.9,7-11.9,14.1-13.6
		c4.8-1.2,9.1-0.2,13.8,0.3c9.9,1,18.2,6.3,20.5,13.8c0.9,2.8,1.1,6,4.1,8c3.5,2.3,5.2,5.2,6.8,8.3c1.5,2.6,3.2,5,5.1,7.3
		c1.8,2.3,4.2,3.2,7.1,4.5"/>
	<path class="st0" d="M596.3,704.2c2.4,0.2,4.7,0.4,7.1,0.8c2.6,0.5,5.2,0.6,7.8,0.4c5.8-0.4,9.9,2.8,9.2,7.4
		c-0.3,2-1.3,3.9-1.8,5.9c-0.9,3.3-0.5,3.8,3.6,5.6c5.8,2.6,7.7,5.5,6,9.5c-0.3,1.1-1.1,2-2.2,2.4c-3.9,1.2-6.7,3.7-10.5,4.9
		c-2,0.6-3.3,1.9-4.8,3c-4.3,3-6.8,2.8-10.5-0.8c-1.3-1.3-2.6-2.5-4.1-3.6c-3-2.1-6.8-2.8-10.4-1.9c-6.6,1.4-12.2-1.5-13.5-6.7
		c-0.3-1.3-0.2-2.7-1.2-3.8c-2.6-2.9-1.5-5.5,0.7-8c1.8-2,3.3-4.1,4.7-6.4c1.7-3,5.5-4.7,9.2-6.1
		C588.9,705.3,592.5,704.5,596.3,704.2z"/>
	<path class="st0" d="M177.7,397.9c-5.5,0-7.7-1.9-6.5-6c1.1-3.7,2-7.3,0.9-11.1c-0.8-2.6,0.5-4.8,3.1-6.6c2.1-1.7,4.3-3.3,6.5-4.8
		c3.9-2.3,5.6-5.2,6-8.9c0.3-2.9,4.4-5.1,7.7-4c5.3,1.6,11.2,7.3,7.3,12.7c-4.5,6.3-6.5,13.2-9.5,19.9
		C191.1,394.2,184.6,398,177.7,397.9z"/>
	<path class="st0" d="M1920.3,114c-5.3-1.6-10.7-0.9-16.1-0.9c-2.4,0-4.7,0.6-6.8,1.7c-4.8,2.4-7.9,5.4-8.9,10
		c-1.2,5.4-5.6,9.5-12.6,11.3c-3.6,0.9-8.1,1.5-10.5-1c-3-3.1-7.3-5.4-8.8-9.4c-0.3-1.4-1.6-2.3-3-2.2c-3.3,0.2-5.2-1.2-7.3-2.8
		s-4.4-2.4-7-0.9c-4.8,2.8-10.5,3-16,3.6c-6.9,0.6-12.7,3.2-18.6,5.6c-2.6,1.8-5.8,3.1-6.8,3.6c-1.4,0.7-3,1.3-3.8,2.5
		c-4.3,7.4-11.6,13.2-16.7,20.1c-0.5,0.6-0.9,1.3-1.5,1.9c-1.4,1.6-0.9,2.9,0.6,4.3c4.5,4.2,7.9,9.6,9.7,15.5
		c0.3,1.5,0.9,2.9,1.7,4.1c2.3,3.4,3.2,7.7,2.4,11.8c-0.7,4.8,0.8,9.3,7.1,12.3c5.1,2.5,10.4,4.6,15.8,6.5c0.7,0.2,1.7,0.3,2,0.7
		c3.5,4,9,4.2,14.3,4.7c2.4,0.2,3.4,1.1,4.1,3c1.2,3.1,6.1,5.4,10.2,4.4c7.4-1.8,15.3-2.1,22.1-5.6c4.2-2.1,10.8-1.6,14.1,1
		c4.4,3.4,9.4,4.9,15.2,3.1c4.7-1.5,8.8-0.1,12.9,0.9c2.6,0.7,5.2,1.5,7.8,2.5c3,1.1,5.2,3,5.6,5.8"/>
	<path class="st0" d="M1022.7,923.4c0.3-2.3,0.7-4.3-1.2-6c-0.9-0.8-0.5-1.6,0.5-2.3c0.9-0.8,1.9-1.5,3-2c8-2.4,14.9-6.9,24-7.3
		c5-0.2,7.1,0.3,7.5,4c0.6,5.9,2.6,11.8-1.6,17.7c-3.8,5.2-8.9,8.4-16.4,9.3c-2,0.4-4-0.3-5.4-1.7c-1.5-1.5-3-3.1-5.3-3.8
		C1022.9,929.7,1021.9,926.8,1022.7,923.4z"/>
	<path class="st0" d="M403.8,806.8c0.7-2.1-0.2-3.7-2.2-5.1c-2.5-1.8-4.6-3.8-5.4-6.5c-0.2-0.6-0.5-1.1-1.1-1.5
		c-3-1.5-2.7-3.6-2.1-5.8c0.7-2.8,3.1-4.7,6.1-5.9c3.5-1.5,7.9,1.2,7.4,4.4c-0.5,3.7,1.2,6.8,4.5,9.4c5.3,4.2,8.6,10.6,8.9,17.4
		c0,0.1,0,0.3,0,0.4c-0.2,3.2-1.6,5.1-4.3,5.5c-3.1,0.5-7.1-1.2-8.4-3.8C406.1,812.5,402.9,810.2,403.8,806.8z"/>
	<path class="st0" d="M1759.4,862.3c1.1-6.1,3.1-11.9,11.2-15c5.7-2.2,11.3-4.4,15.9-7.9c4.2-3.2,9-1.6,13.1-0.3
		c3.2,0.9,5.3,4,4.8,7.3c-0.5,4.6-0.6,9.3-2.2,13.8s-7.3,7.7-13.1,6.4c-4.4-1.1-9.1-0.3-13,2.2c-4.1,2.4-8.4,2.2-12.6,0.1
		C1760.4,867.4,1758.3,865.5,1759.4,862.3z"/>
	<path class="st0" d="M1061.2,910.8c0.2-3,0-5.5,3.4-6.9c3.6-1.4,7.7-1.1,11.1,0.9c4.1,2.1,8.4,3.8,12.9,5.1c1,0.4,1.9,0.8,2.8,1.4
		c4.6,2.9,4.3,6.6-0.8,9c-2,0.9-4.2,1.4-6.4,1.3c-2.5,0-5,0.7-7.1,2.1c-5.3,3.1-9.9,2-11.7-3.1c-0.8-2.2-0.7-4.5-3.5-6.1
		C1060.5,913.5,1061.3,911.7,1061.2,910.8z"/>
	<path class="st0" d="M1818.7,91.4c0.1-2.9,0.9-5.7,2.5-8.2c3.1-5.2,10.8-6.7,17.2-3.5c3.9,2,7.5,4.3,11.1,6.6
		c3.3,2.1,4.3,7.4,1.4,10.3c-3.9,4-10.4,6.6-16.2,4.6c-4.8-1.7-9.3-3.9-14.4-5.3C1817.8,95.3,1819.3,93.1,1818.7,91.4z"/>
	<path class="st0" d="M869.3,738c4.9,0.1,6-0.6,5.7-4.4c0-1.4,0.2-2.9,0.5-4.3c0.3-3.3-1.5-4.9-5.8-5c-2.2-0.1-4.4,0.3-6.5,1.1
		c-4.4,1.9-7.7,4.4-9.5,8.1c-2,4.1,0,6.4,5.8,6.1c1.5-0.1,2.9-0.4,4.3-0.9C865.6,738.1,867.4,737.8,869.3,738z"/>
	<path class="st0" d="M870.5,774.5c-0.3,2.5,0.2,5,1.3,7.3c1.8,3.4,3.5,4,7.4,1.8c3.3-1.8,6-4.3,9.9-5.5c1.3-0.4,1.9-1.7,2.4-2.8
		c1.2-2.4,0.6-3.4-2.7-4.1c-1.9-0.5-3.7-1.2-5.4-2.2c-1.9-1-3.8-1.9-5.8-2.5c-3-1-4.4-0.1-5.9,1.8
		C870.1,770.2,870.8,772.3,870.5,774.5L870.5,774.5z"/>
	<path class="st0" d="M363.5,997c0.4,3.6-2.3,6.6-2.1,10c0,2.2-0.5,4.4-1.3,6.4c-0.4,1.2-1.1,2.3-2.2,3c-1.6,1.2-3.5,0.7-5.3,0.3
		c-1.3-0.1-2.2-1.3-2.1-2.6c0-0.1,0-0.1,0-0.2c0.1-1.7,0.2-3.5,0.5-5.2c0.6-3.6,0.5-6.8-2.5-10.2c-3.5-3.9-2.5-6.6,1.5-9.2
		c3.5-2.4,8.2-1.9,11.2,1.1C363.1,992.5,363.4,994.8,363.5,997z"/>
	<path class="st0" d="M178.5,872.3c0.9,0,1.8,0.3,2.5,0.9c4.1,2.8,8.7,3.6,14.3,3.9c6.8,0.4,14.4,1,19.1,6.1
		c1.2,1.1,2.8,1.7,4.5,1.5c4.1,0,8.2,0.2,12.3,0.7c3.3,0.4,6.6-0.5,9.1-2.6c2-1.7,4.2-3.3,6-5.2c7-7,32.1-2.9,36.8,9.4
		c1,3,2.5,5.9,4.4,8.4c0.4,0.5,9.4,10,13.2,14.4c3.1,3.7,7.4,6.3,12.1,8.8c9.6,5,18.8,10.5,26.6,17.3c1.9,1.7,4.1,3.1,6.4,4.3
		c4.3,2.2,7.1,5.3,8.3,9c1.9,6.1,4.6,12,6.8,18c0.3,1,0.6,2,0.8,3c0.7,3.1-1.2,5.8-5,6.9c-0.9,0.3-1.8,0.4-2.7,0.6
		c-8.3,1.4-12.3-0.3-14.3-6.7c-1.1-3.5-2.2-9.1-4.7-10.9c-8-6.3-16.9-11-29-10c-2.5,0.3-5,1-7.3,2.2c-11,4.9-22.9,1.2-28.2-6.7
		c-1.3-1.9-3.1-3.4-5.3-4.3c-6.3-3.2-12.6-6.2-20.5-6.6c-2-0.2-4,0-6,0.4c-4.1,1-8.4,1.7-12.6,2.3c-4.8,0.9-9.7,0.3-14.2-1.6
		c-3.9-1.7-8.5-2.3-12.6-3.7c-3.9-1.3-5.2-2.7-4.3-5.6c0.6-2.1,2.3-4.2,1.2-6.3c-3.3-6.1-5.4-12.8-12.1-17.5c-1.4-1-3-1.9-3.7-3.2
		c-2.3-4-6.3-7.2-9.4-10.8c-3-3.4-6.9-6.1-11.2-7.8c-4.2-1.7-7.9-3.8-10.3-7.1c-1.2-1.8-3.3-3.2-4.9-4.7s-2.6-3.5-1.1-5.6
		c0.2-0.4,0.5-0.8,0.6-1.2c2-4.3,6.6-6.1,12.2-4.4c5.2,1.6,10.3,3.6,13.9,7.2c2.6,2.6,6.4,4.4,8.5,7.4"/>
	<path class="st0" d="M415.1,754.2c-0.5,3.1-2.7,5.6-5.7,6.6c-3.8,1.4-7.6,3-11.2,4.8c-1,0.5-2,0.8-3.1,0.9
		c-3.4,0.4-6.3-1.8-5.1-4.2c2.2-4.6,4.5-9.2,9.6-12.4c3.5-2.2,9.7-2.2,13,0.1C414,750.9,414.9,752.5,415.1,754.2z"/>
	<path class="st0" d="M344.2,995.6c-0.2,0.7-0.4,1.5-0.6,2.2c-1.4,2.7-2.7,3-6.3,1.8c-2.6-0.7-4.7-2.6-5.5-5.1
		c-0.9-2.5-1.3-5.1-2.8-7.4c-0.2-0.2-0.1-0.6-0.2-0.8c-0.8-3.4,0.3-5.4,3.4-6c2.7-0.5,5.2,0.7,6.4,3.7c1.4,3.3,2.6,6.6,4.9,9.6
		C343.8,994.2,344,994.9,344.2,995.6z"/>
	<path class="st0" d="M424,780.1c0,4.5-2.1,7.3-6.1,8.3s-7.4-0.8-6.3-3.8s-0.1-5.3-1.6-7.8c-1.2-2.1,0.1-6.1,2.5-7.3
		c1.5-0.8,3.4-1.4,4.5-0.1C419.8,772.8,423.5,776,424,780.1z"/>
	<path class="st0" d="M1098.9,899.6c1.4,0.2,4,0.5,6.6,0.8c2.8,0.4,4.9,1.5,5.4,3.8c0.6,2.5-1.3,4.3-3.7,5.4
		c-2.2,0.9-4.5,1.4-6.9,1.6c-2.6,0.4-4-1.2-5.3-2.6c-0.5-0.4-1.1-0.8-1.8-1c-2.7-1.2-3.6-2.9-2.7-5.1s3-3.2,6.1-2.9
		C1097,899.6,1097.3,899.6,1098.9,899.6z"/>
	<path class="st0" d="M1598.7,87.2c0,2.9-4.2,5-8.2,4c-3-0.8-5.9-1.8-8.8-2.9c-4.2-1.5-4.6-3.2-2-7.2c1.2-1.9,5.1-2.9,7.7-1.6
		c2.5,1.3,5.2,2.3,8,3C1598.1,83.1,1598.4,85.3,1598.7,87.2z M1584.6,81.2c-1.8,0.1-3.4,1.2-4.3,2.7c-0.8,1.5,0.6,2.6,2.3,2.9
		c3,0.6,6.1,1.4,9,2.3c1.4,0.5,2.9,0,3.8-1.2c0.7-1.2,1-2.7-0.7-3.6C1591.6,82.9,1587.5,83,1584.6,81.2L1584.6,81.2z"/>
	<path class="st0" d="M778.5,191c1.5,0.3,2.9,0.7,4.4,1.2c2.8,1.2,3.8,3.4,2.2,5.5c-1.7,2.4-3.7,4.7-5.9,6.7
		c-2.5,2.3-5.2,2.2-7.6,0.1c-1.1-1-1.7-1.9-0.5-3.1c1.4-1.5,1.7-2.9,0.6-4.8C770.1,194.2,774.3,190.7,778.5,191z"/>
	<path class="st0" d="M1808.1,813.7c3.1,0.1,4.3,1.8,2.5,4.3c-2.4,3.3-4.6,6.6-5.7,10.3c-0.3,0.9-1.3,1.7-2.2,2.5
		c-2.1,2-4.3,2-6.7,0.3c-4.2-3-4.3-6.1-0.1-9.3c1.4-1,2.5-2.3,3.2-3.9C1800.3,815.4,1804.4,813.6,1808.1,813.7z M1795.9,826.1
		c0.2,1.1,0.3,1.8,0.4,2.5c0.2,1,1,1.8,2,1.9c1.2,0.4,2.6,0.1,3.4-0.9c0.5-0.5,1-1.2,1.2-1.9c0.8-3.5,3-6.5,4.9-9.6
		c0.5-0.8,1.5-1.5,0.6-2.3s-2.5-0.3-3.7-0.1c-1.4,0.1-2.6,1-3.3,2.2c-0.9,2.3-2.5,4.4-4.5,5.8
		C1796.2,824.2,1795.8,825.1,1795.9,826.1z"/>
	<path class="st0" d="M1654.4,158.6c0.3-2.8,2.1-5.2,4.3-7.3c1.5-1.4,4.2-1.4,6.3-0.5s2.2,2.7,1.4,4.2c-1.3,2.1-2.1,4.6-2.2,7.1
		c0,1.5-1.6,2.6-3.6,2.9c-1.7,0.4-3.6-0.3-4.5-1.8C1655.1,161.7,1654.2,160.3,1654.4,158.6z M1663.8,153.9c0-0.3-0.4-0.8-1.1-1
		c-0.5-0.1-1.1-0.1-1.6,0.1c-2.3,1-4.3,6.6-2.8,8.1c0.7,0.8,1.9,1.2,2.5,0C1661.9,158.9,1662.8,156.5,1663.8,153.9L1663.8,153.9z"/>
	<path class="st0" d="M1645.7,152.7c-2.4,0.2-4.8,0.4-7.2,0.6s-3.4-0.7-3.2-2.6c0.3-3,2.2-4.8,6.1-5.3c2.4-0.3,4.7-1,7.2-0.8
		c3.8,0.3,6.4,1.8,6.4,3.9s-2.2,4-5.9,4.4c-1.1,0.1-2.2,0.1-3.3,0L1645.7,152.7z M1641,151.2c2.8-0.1,5.6-0.3,8.3-0.4
		c1.8-0.1,2.7-1.1,2.6-2.3s-1.6-1.4-2.9-1.5c-3-0.3-5.7,0.9-8.8,0.7c-1.2-0.1-2.2,0.8-2.3,2c0,0.2,0,0.4,0,0.6
		C1638.2,151.6,1639.7,151.5,1641,151.2L1641,151.2z"/>
	<path class="st0" d="M1126.4,911.7c0,2.9-3,5.8-6,5.8s-7.6-3.2-7.5-5.5c0.1-3.3,3.3-6,7.2-5.9
		C1124.7,906.1,1126.4,907.7,1126.4,911.7z"/>
	<path class="st0" d="M1413.2,77.8c0,0.4,0.1-0.3-0.1-0.8c-0.7-1.4-1.4-2.8,0.6-3.9c2.3-1.2,4.9-1.7,7.4-1.5c1,0.1,1.9,0.8,2.3,1.7
		c2,3.7-1.7,8.9-6.8,9.4C1413.7,83.1,1412.8,82.1,1413.2,77.8z"/>
	<path class="st0" d="M175.5,915.4c0.1-1-0.4-2,0.3-3c0.6-1.1,1.8-1.6,3.1-1.5c4.8,0.4,8.5,6.4,6,9.6c-0.9,1.2-2.4,1.3-3.9,1
		C177.1,920.8,175.5,919,175.5,915.4z"/>
	<path class="st0" d="M768.3,193.1c-0.2,1.3-0.5,2.6-0.9,3.8c-1.1,2.7-4.2,3.3-6.8,1.2c-2-1.5-2.7-4.2-1.6-6.4c1-1.8,4-2.9,6.9-2.8
		c0.8-0.1,1.6,0.4,1.9,1.2C768.1,191.1,768.2,192.1,768.3,193.1z"/>
	<path class="st0" d="M367.1,984.9c-2.2,0-4.4-2-4.4-3.8s5.1-4.8,8.5-4.8c2.4,0,4.3,1.5,4.3,3.3C375.5,982.1,371,984.9,367.1,984.9z
		"/>
	<path class="st0" d="M1396,106.5c-3.9-0.1-4.5-0.8-3.4-3.6c0.7-1.4,1.7-2.7,2.9-3.6c1.3-1.1,2.9-2.1,4.8-1.2
		c1.6,0.7,2.6,2.4,2.3,4.1C1402.4,104.4,1398.9,106.6,1396,106.5z"/>
	<path class="st0" d="M854.9,759.7c0,1.7-2.1,3.3-4.3,3.3s-5.6-2.3-5.5-3.7c0.1-1.1,3.1-2.9,5-3
		C852.4,756.1,854.9,757.9,854.9,759.7z"/>
	<path class="st0" d="M160.5,383.7c-0.1,1.6-3,3.8-5.3,3.8c-2.5,0.1-4.1-1.4-3.9-3.4c0.2-2.9,2.6-5.1,5.5-5.1
		C159,379.1,160.6,381,160.5,383.7z M154.2,384.2c0.1,0.7,0.8,1.1,1.4,1c0.9,0,1.6-0.8,1.6-1.7c0-0.1,0-0.2,0-0.3
		c-0.1-0.6-0.6-1.1-1.3-1.1c0,0-0.1,0-0.1,0C154.5,382.4,154.3,383.3,154.2,384.2L154.2,384.2z"/>
	<path class="st0" d="M766.4,182c0-2.2,0.7-2.7,4.8-2.8c3.1-0.1,4.9,0.9,4.9,2.5c0,1.9-3,3.8-5.9,3.8
		C767.8,185.5,766.4,184.3,766.4,182z M772.2,182.5c0.5-0.9-0.1-1-0.6-1.1c-0.7-0.2-1.4,0.1-1.8,0.7c-0.4,0.6,0.3,0.7,0.8,0.8
		C771.1,183.1,771.8,183,772.2,182.5L772.2,182.5z"/>
	<path class="st0" d="M831.4,762c-0.1,2.3-2.2,4-4.8,3.8s-5.4-2.2-5.2-3.8c0.1-1.4,3.6-3.3,6-3.3C830,758.8,831.5,760,831.4,762z
		 M826.6,763.6c1.2-0.1,1.7-0.6,1.7-1.4s-0.8-1-1.5-1c-0.9,0-2,0-2,1C824.9,763,825.6,763.5,826.6,763.6L826.6,763.6z"/>
	<path class="st0" d="M180.1,360.8c-0.2,1.7-1.6,3.1-3.3,3.3c-1.4,0.3-2.9-0.3-3.6-1.6c-1-1.9,0.9-3,2.2-4.2c1-0.9,2.4-1.1,3.6-0.5
		C180.3,358.3,180.2,359.5,180.1,360.8z"/>
</g>
</svg>
