<svg xmlns="http://www.w3.org/2000/svg" viewBox="0 0 1920 1080"><defs><style>.cls-1{fill:none;stroke:#b3cadb;stroke-miterlimit:10;opacity:0.13;}</style></defs><title>background-1</title><g id="map_drawing"><path class="cls-1" d="M273,132.31a1.53,1.53,0,0,1,1.24-1.53c7.18-2.13,13.26-6.63,20.17-9.32,2.76-1.07,4.39-2.59,3.61-5.8a4.06,4.06,0,0,1-.09-2.52c2.34-4.45,0-7.66-2.27-11.3Q281.25,78.23,266,55.12c-1.52-2.3-3.3-4.43-4.81-6.74a8.57,8.57,0,0,0-6.26-4c-3.86-.64-6.85-5.83-5.92-9.53,1-4.16,6.78-7.21,10.8-5.72,3.31,1.22,6,6.3,4.16,9.36-2.74,4.53-1.27,7.6,1.35,11.56,11,16.55,21.34,33.49,32.57,49.88.78,1.14,1.69,2.2,2.37,3.39,1,1.75,2,2.48,4.1,1.32,3.33-1.79,6.32-.58,8.89,1.91,3.94,3.82,5.65,8.58,3.77,13.65-1.25,3.38.07,5.19,1.86,7.36q17,20.59,33.94,41.2,23.07,28,46.19,55.88c7.38,8.88,15,17.61,22.39,26.45,1.53,1.82,2.95,2.69,5.27,1.16a6,6,0,0,1,3.92-1.06c3.89.68,5.8-1.05,7.46-4.39,4.07-8.18,8.38-16.26,12.83-24.24,8.49-15.24,15.56-31.21,24-46.47,6.26-11.31,11.88-23,17.8-34.47.71-1.38,1.5-2.72,2.26-4.08,1.58-2.84,2.45-5.37-.08-8.5s-1.92-7.26-.59-10.9c1.24-3.39,5.57-6.26,8.37-6.05,4.31.33,8.63,3.49,9.27,7.61.42,2.71,1.79,3.27,4,3.79,8.24,2,16.59,3.35,24.91,4.86,14.77,2.68,29.52,5.48,44.31,8.06,10.55,1.84,21.14,3.43,31.73,5,1.47.22,4,1.26,4.34,0,.62-2.35,2.75-4.37,1.61-7.28-1.63-4.16-2.76-8.52-4.25-12.74-4.84-13.66-9.76-27.29-14.62-40.95-1.34-3.77-2.53-7.29-7.06-8.81-2.86-1-3.18-6.19-1.22-9.77,1.09-2,5.89-2.74,8.5-1.32s4,5.84,1.92,8.17c-2.71,3.07-2.09,5.93-1,9.08Q614,103,623,128.11c.58,1.63,1.44,3.17,1.87,4.83.55,2.13,1.64,2.88,3.91,3.25,6,1,8.33,7.31,4.66,12.15-2.9,3.82-7.68,3.94-10.28-.46-1.42-2.4-3.07-2.84-5.21-3.28q-19.54-4-39.21-7.29c-20.78-3.46-41.49-7.27-62.21-11.06-3.11-.57-5.63-1-7.1,2.73a5.81,5.81,0,0,1-5.34,3.61c-3.29.08-5,2-6.34,4.53-3.19,5.91-6.4,11.82-9.45,17.8-7.52,14.76-14.84,29.62-22.45,44.33s-15.63,29.57-23.43,44.36c-.88,1.67-1.39,3.56-2.36,5.17a10,10,0,0,0-1.13,8.64c1.3,4.69-.85,8.55-5.23,11.28-3.51,2.19-6.76,2.58-10,.06-2.37-1.87-4.25-.67-6.17.41-6.31,3.54-12.58,7.17-18.85,10.8-12.39,7.19-24.73,14.47-37.15,21.59-3,1.7-5.62,3.39-5.82,7.24a5.37,5.37,0,0,1-.72,1.93c-1.55,3.17-4.53,5.13-7.32,4.83-3.41-.36-4.41-2.94-5.15-5.7-1-3.55,0-5.77,3.06-7.9,2.2-1.52,4.23-3,6.91-.76,2.46,2,4.58,0,6.59-1.08,10.79-5.81,21.56-11.66,32.05-18,8.27-5,17-9.25,25-14.67,2.19-1.48,4.55-2.76,3.66-6.07a.68.68,0,0,1,0-.51c2.92-3.8.52-6.29-1.8-9.29-7.71-10-15.51-19.82-23.93-29.2-4.71-5.25-8.72-11.12-13.22-16.57q-19.3-23.35-38.75-46.59c-8.62-10.36-17.27-20.68-25.79-31.12-1.51-1.85-2.79-2.67-5.19-1.83a8.09,8.09,0,0,1-8.65-2c-2.12-2.08-3.95-1.77-6.49-.83C288.39,126.3,281.06,130.1,273,132.31Zm27.35-17.66c.12,3.53,3.78,8.22,6.79,9.12,1,.29,2.08.86,3,.14,2-1.69,4.77-2.89,4.87-6.14.12-4.11-.75-7.68-4.42-10.3-3-2.16-4.44.49-6.62,1.4C301,110.13,300.64,112.47,300.39,114.65Zm201.94,1.47c-3.38-.18-5.61,1.42-6.43,4.55-.9,3.44.44,7,3.13,8.41,3.17,1.62,5.84,1.21,8-1s.29-5.16,2-7.38c.41-.52-.12-2-.54-2.89a3.1,3.1,0,0,0-2.59-1.45C504.73,116.21,503.52,116.2,502.33,116.12ZM430.94,254c-3.75.15-5.8,2.34-7.17,5.64-1.7,4.09.14,7.56,4.51,8.08,4,.48,9-4.34,8.62-8.38-.07-.71-.32-2.24-1.32-1.66-2.49,1.43-2.44.19-2.33-1.7C433.35,254.39,432.37,253.85,430.94,254ZM261.86,36.74a5.4,5.4,0,0,0-5-5.5c-2-.06-4.7,2.79-4.88,5.22a5.28,5.28,0,0,0,4.77,5.65C259.51,42.18,261.75,39.83,261.86,36.74ZM628.37,138.49a3.8,3.8,0,0,0-3.95,3.83c-.08,3,1.75,5.71,3.89,5.84s4.39-2.49,4.42-4.86A4.62,4.62,0,0,0,628.37,138.49ZM353.48,307.58c0-1.37-2.61-4.3-3.89-4.41C348,303,345,306.15,345,308c0,2.08,1.89,4.33,3.63,4.3C350.59,312.28,353.52,309.39,353.48,307.58ZM599.7,69.86c2.83-.12,4.83-1.94,4.87-4.07a3.5,3.5,0,0,0-3.68-3.34,4.63,4.63,0,0,0-3.79,4.69C597.28,68.95,598.31,69.82,599.7,69.86Z"/><path class="cls-1" d="M1426.19,773.91c-2.77,4.92-6.69,8.84-10.2,13.08-1.11,1.34-2.51,2.32-1.3,4.44,1.09,1.9,2,3,4.66,3.09,27.11.9,54.23.82,81.35,1,29,.24,58,1,87,.56,16.24-.24,32.48.15,48.73.18,15,0,30.06,0,45.09,0,2.84,0,5.67.16,6.12-3.81a2.69,2.69,0,0,1,2.1-2.13c3.34-.6,3.6-3.26,4.14-5.78q4.86-22.51,8.94-45.17c3.21-17.62,6.62-35.19,9.8-52.82,1.71-9.49,3.07-19,4.69-28.55q4.34-25.51,8.81-51c2.53-14.27,5.23-28.52,7.84-42.78.16-.85.23-1.71.36-2.56.4-2.49-.2-4-2.89-5.16-6.68-2.76-8.84-9.51-5.44-15.79a8.52,8.52,0,0,1,4.57-4c4.32-1.64,12.76,1,15.54,4.7,2.14,2.88,1.92,7.52-.56,10.61a5.66,5.66,0,0,1-1.86,1.75c-5.71,2.49-7.62,7-8.49,13-1.78,12.12-4.32,24.12-6.52,36.18q-7.64,42-15.22,84c-2.19,12.18-4.24,24.39-6.32,36.59-3.39,19.89-6.73,39.79-10.13,59.68-.51,3-.66,5.49,1.94,8a6.27,6.27,0,0,1,.08,9.26c-3.66,3.65-6.09,3.94-9.8.65a10.92,10.92,0,0,0-7.57-2.75c-21.42-.11-42.84-.14-64.26-.24-22.47-.1-44.94-.29-67.41-.38-14.14-.05-28.3.45-42.42-.08-16.05-.6-32.1-.23-48.15-.72-12.77-.39-25.57.1-38.36.09-5,0-8.13,3.63-11.38,6.41-1.53,1.31-1.32,4.84-1.62,7.4-1.51,13-2.64,26.11-4.46,39.09-2.55,18.13-4.28,36.36-6.54,54.52a200.56,200.56,0,0,0-1.86,20.12c-.07,3-.1,5.62,2.62,7.88,2.4,2,2.16,5.19.24,7.45-2.6,3.07-6,4.1-8.61,2.63-3.16-1.75-3.91-8-.85-10.18,2.72-2,3.33-4.65,4-7.47,1.92-8.6,2.3-17.42,3.42-26.14,2.36-18.47,4.17-37,6.38-55.5,1.49-12.51,3-25,4.23-37.54a4.45,4.45,0,0,0-1.77-4.38c-2.79-2.43-5.29-3.78-9.45-3.59-13.81.65-27.47,2.68-41.22,3.84-10.67.91-21.33,2-32,3.1-10.45,1.09-20.88,2.5-31.34,3.45-10,.91-19.92,2-29.88,3-19.41,2-38.86,3.67-58.22,6.24-4.11.54-8.25.89-12.36,1.32-3.67.38-5.76,1.69-7.46,5.12-3.79,7.62-13.65,8.9-19.66,2.95-1-1-2.12-2-2.05-3.48.17-3.51-1-7.41,1.47-10.39,3.37-4.05,1.73-7.59-.32-11.32-.67-1.21-2.6-2.1-1-4.26,2.51,1.28,3.26,3.83,4.28,6.07,1.87,4.09,1.81,4.12,5.92,3.4s9.9,2,11.86,6.45c1.45,3.31,3.6,3.74,6.52,3.45L1226,813.2c11.17-1.1,22.35-2.16,33.52-3.32,16.14-1.67,32.26-3.44,48.4-5.12,8.4-.87,16.83-1.54,25.23-2.48,11.83-1.32,23.62-3,35.47-4.15,9.27-.89,18.54-1.82,27.79-2.89,2.42-.28,4.07-.62,4.82-3.53,1-3.8,3.36-5.05,7.58-4.2,2.63.53,4-.23,5.78-2.08C1418.32,781.45,1421.54,776.95,1426.19,773.91Zm-262.3,45.75c0,5.48,2.8,8.73,7.58,8.77,5.46,0,11.24-5.2,11.27-10.23,0-4.14-5.29-9.74-9.37-9.62C1168.58,808.72,1163.15,812.18,1163.89,819.66Zm570.69-280.33c-4.67-.22-7.11,2.4-7.27,7.81-.12,3.86,3.64,7.65,7.88,7.94,4.71.32,9.63-3.93,9.84-8.5S1741.78,539.67,1734.58,539.33Zm-325.72,260c3.1-.08,4.57-1.33,4.46-3.78s-4-5.45-6.79-5.37c-2,.05-3.29,1.61-3.24,3.89C1403.37,797.66,1405.2,799.4,1408.85,799.3Zm289.68-3.87c-.09-2-2.18-3.59-4.43-3.46-1.71.1-4,2.81-4.05,4.75s2.1,3.84,4.16,3.78S1698.64,797.7,1698.53,795.43Zm-301.44,140.5c.08-1.42-1.26-2.59-3.1-2.7-2.47-.15-4.63,1.43-4.86,3.55s1,4.06,2.83,4.16C1394,941.05,1397,938.22,1397.09,935.93Z"/><path class="cls-1" d="M1230.52,511.62c-3-3.75-3.38-8.57-5.19-12.82-6.28-14.73-10.77-30.15-17.31-44.8-1.24-2.78-2.32-4.5-5.54-5.21-4.9-1.08-7.39-5.79-5.8-9.7s5.93-6.53,10-5.46a12.54,12.54,0,0,0,10.33-1.63c9.27-5.63,18.9-10.62,28.19-16.24,8.07-4.88,16.61-9.1,24.84-13.79,14.7-8.37,29.09-17.29,43.89-25.47,9.05-5,18.16-9.92,27.1-15.11,11.62-6.75,22.91-14.06,34.63-20.63,12.51-7,24.73-14.47,37-21.93,6.75-4.11,14-7.53,20.94-11.3,2.41-1.3,4.72-2.81,7.22-4,2.78-1.32,2.92-3.46.74-5.87a18.81,18.81,0,0,0-3.48-3.07c-11.94-7.9-24.21-15.26-36.44-22.69-17-10.3-33.89-20.74-50.84-31.09q-29-17.68-57.94-35.31l-22.54-13.75c-2.07-1.26-4.06-2.62-6.71-1.54-4.07,1.65-7.63.1-10.43-2.62-1.82-1.77-3.41-2.52-5.81-2a5.38,5.38,0,0,1-2.54-.23,1.22,1.22,0,0,1-.83-1.63c.15-.5.51-1.1,1-.92,4.07,1.3,5.35-1.65,7.13-4.29,2-3,8.7-4.79,11.78-3.19a6.65,6.65,0,0,1,3.83,6.82c-.64,4.32,1.9,6,4.94,7.85,10.69,6.64,21.26,13.49,31.89,20.22,10.2,6.46,20.55,12.68,31,18.76,9.84,5.73,19.34,12,29.07,18,12.22,7.45,24.53,14.76,36.79,22.16,9.74,5.89,19.41,11.91,29.21,17.7,3.1,1.83,6.44,3.21,9.39,5.36,1.28.93,2.9,1,4.73-.2a11.74,11.74,0,0,0,5.63-8.73q3.15-22,6.35-44c1.29-8.88,2.69-17.75,3.89-26.64,2.57-19,5-37.94,7.56-56.92q1.09-8.21,2.18-16.41c.28-2,0-3.67-2.26-4.59-3.29-1.32-5.64-3.62-5.1-7.48s3.6-5.46,6.71-6.53c3.7-1.27,7.25-.12,10.12,2.39,3.32,2.9,2.47,8.82-2.13,10.8s-5.4,5.2-6,9.27q-3.73,26.9-7.59,53.79c-1.54,10.74-2.88,21.52-4.32,32.28-2.33,17.45-4.81,34.87-7.21,52.31-.19,1.37-.21,2.76-.27,4.14s.27,2.75,2,3.14a2.83,2.83,0,0,1,.91.48c4.58,3.13,6.05,6.31,4.55,9.82-2.13,5-7.41,8.31-12,6.68-3.42-1.2-5.72-.41-8.59,1.24-15.87,9.09-32,17.69-47.78,27-15.1,8.91-30.7,16.94-45.58,26.25-5.83,3.65-12.06,6.79-17.76,10.63-11.18,7.54-23.21,13.59-34.73,20.51-16.72,10-33.79,19.48-50.7,29.21-8.23,4.73-16.45,9.47-24.6,14.34-7.66,4.57-10.33,13.08-6.69,21.85,4.9,11.81,8.2,24.18,13,36,1.94,4.77,3.37,9.71,5.4,14.43a6.57,6.57,0,0,1,.6,4.53Zm227.21-214.79c.07-3.19-2.18-5.42-5.52-5.46a6.9,6.9,0,0,0-7,7.29,5.39,5.39,0,0,0,4.93,5.1C1454,303.8,1457.65,300.52,1457.73,296.82ZM1265.8,183.08c0-3.62-1.93-5.82-5.09-5.86-3.62,0-7.61,2.48-7.66,4.86-.07,3.1,3.89,6.24,7.76,6.14C1264.31,188.13,1265.82,186.57,1265.8,183.08Zm206.64-50.31a14.5,14.5,0,0,0,2.38-.22c2.36-.58,4.88-3.09,4.72-4.88-.24-2.59-2.25-3.65-4.4-4.49-3-1.16-5.44.09-7.56,1.94-2.5,2.17-2.09,5,.71,6.84A7.61,7.61,0,0,0,1472.43,132.77ZM1206,436c-3.18-.1-7.07,3.06-7.21,5.86-.08,1.55,2.79,4.31,4.48,4.3,3.91,0,6.3-2.16,6.44-5.8C1209.81,437.41,1208.7,436.1,1206,436Z"/><path class="cls-1" d="M426.06,692.19c.82-.45,1.26-.91,1.66-.88,4.28.28,7.12-1.64,10.18-4.7a10.73,10.73,0,0,0,3.3-9.67q-1.28-12.35-2.57-24.7c-1.9-18.2-3.7-36.41-6-54.57-2-15.93-3.61-31.91-5.28-47.88-.24-2.27-.52-3.52-3.2-4.31-5.84-1.72-8.22-7.77-5.88-13.41,2-4.73,8.16-6.29,12.74-3.2,4.83,3.24,5.46,11.67.9,15.21-2.09,1.62-2.56,3.16-2.27,5.69,1.56,13.89,3.32,27.78,4.19,41.72.78,12.43,3,24.67,4,37.07,1.31,16.16,3.89,32.21,5.94,48.3.3,2.36.36,4.5,3.55,5.48s5.42.53,7.75-1.92c10.26-10.74,20.69-21.33,31-32,13.71-14.12,27.54-28.12,41.06-42.41,9.74-10.29,20.1-19.94,29.94-30.11,9.6-9.93,19.44-19.62,28.66-29.93,6.66-7.46,14-14.31,21-21.51,8.29-8.56,16.5-17.21,24.76-25.8,6.33-6.59,12.78-13.06,19-19.75,3.77-4,3.11-6.55-1.87-8.94l-1.4-.68c-1-.52-2.71-.9-2.07-2.37s2.09-.49,3.07,0c2.4,1.26,4.11,1.51,6-1.3,1.69-2.54,8.14-2.89,10.63-1.26,2.07,1.35,3,6.75,1.59,9.67-1.55,3.31-4.21,5.23-7.89,4.57-3.1-.55-5,.82-6.79,2.68-19.89,20.17-39.8,40.31-59.19,61-7.08,7.54-14.68,14.6-21.85,22.07-14.35,14.94-29.25,29.35-43.55,44.35-16.33,17.13-32.89,34-49.37,51-7.09,7.31-14.27,14.52-21.29,21.89-1.41,1.48-3.44,2.9-1.8,5.77,1.24,2.17,2.38,2.82,4.87,2.42,14.31-2.28,28.65-4.37,43-6.52,14.17-2.12,28.33-4.28,42.51-6.31,19.67-2.82,39.38-5.32,59-8.33,26.46-4.06,53-7.57,79.35-12.41,1.18-.22,2.35-.54,3.54-.72,1.66-.25,2.7-.78,3.09-2.77a5.68,5.68,0,0,1,5.66-4.87,6.46,6.46,0,0,1,6.31,4.44c.83,2.3,1.36,4.58,0,7-2.21,3.9-6.73,5-9.93,1.62-1.82-1.91-3.41-2.17-5.72-2-12.08.76-24,3-35.92,4.72-21.2,3-42.3,6.76-63.53,9.53-27.74,3.62-55.34,8.21-83.06,11.93-14,1.88-28,4.29-42,6.43-3.62.55-6.09,2.09-7.65,5.78-2.6,6.13-12,7.58-16.86,3-1.12-1.06-1.21-2.47-1.63-3.74-.82-2.46-2.13-3.79-4.93-3.34C429.42,693.46,427.8,693.91,426.06,692.19Zm20.16-7.65c-3.59,0-8.71,4.65-8.82,8-.14,4.65,3.16,7.81,8.24,7.88,4.75.07,8.29-3.69,8.16-8.67C453.71,688.48,449.58,684.54,446.22,684.54ZM432.45,537.82c0-5-2.38-7.69-6.87-7.65-3.12,0-5.19,2.38-5.36,6.08-.14,3.16,2.88,6.59,5.87,6.65C429.91,543,432.43,541,432.45,537.82ZM660.37,466c-2.35-.05-5.11,3-5.2,5.7a4.64,4.64,0,0,0,4.57,4.54c2.2,0,4.72-3,4.79-5.73C664.62,467.52,663.29,466.08,660.37,466Zm36.13,184.43c-2,.12-4.62,2.83-4.59,4.82,0,2.75,2.3,5.23,4.71,5.19s4.19-2.37,4-5C700.41,652.31,698.76,650.31,696.51,650.44Z"/><path class="cls-1" d="M949.29,282.32c.44-2.48,2.86-2.77,4.46-3.93a48.25,48.25,0,0,1,6.94-4.51c3.28-1.6,3.13-4.66,3.72-7.43.3-1.39-.86-2.16-1.71-3-7.08-6.84-14.08-13.78-21.28-20.49-9.71-9-19.58-17.92-29.39-26.86-6.37-5.81-12.8-11.54-19.07-17.46-1.64-1.55-2.92-1.66-5-1-5.25,1.71-8.68-.44-9.47-5.46-.61-3.87,3.11-8.11,7.1-8.1,4.68,0,6.79,1.9,6.38,6.62-.25,2.85.89,4.57,2.73,6.28q23,21.32,45.9,42.66,11.37,10.59,22.68,21.25c1.59,1.5,3,2.94,5.28,1a3.92,3.92,0,0,1,2.51-.42,9.19,9.19,0,0,0,8.22-3.5c.6-.73,1.45-1.94,2.51-1,1.51,1.32-.11,2.14-.92,2.82-1.85,1.54-2.62,3.06-1,5.27,2.46,3.3,2,5.82-1.84,9-3.49,2.91-3.78,5.78-3.26,9.92,2.42,19.37,4.42,38.79,6.64,58.19,1.24,10.8,2.66,21.58,3.93,32.38a14.36,14.36,0,0,0,4.59,9.53c2.71,2.46,2.84,5,1.13,7.87-1.58,2.63-4.48,4-7,3.26a6.73,6.73,0,0,1-4.8-6.6c-.07-2.1-.18-4.12,2.2-5.29s2.35-3.23,2.1-5.38c-.86-7.54-1.78-15.07-2.62-22.61-1.64-14.74-3.2-29.49-4.86-44.23-1.12-9.93-2.28-19.85-3.57-29.75-.77-5.9-6.61-8.54-11.69-5.74-3.9,2.14-7.2,5.33-11.6,6.56ZM978.06,269c.05-3-2.08-4.84-5.86-4.93a5.07,5.07,0,0,0-5.17,4.52c-.11,2.44,2.66,5.09,5.4,5.17C975.32,273.88,978,271.61,978.06,269Zm-88.21-78.32a3.9,3.9,0,0,0-4.14-4.07c-2.11-.06-4.92,3.17-4.87,5.61,0,1.39,2.88,3.58,4.51,3.47S889.82,192.55,889.85,190.71Zm99.81,198.21a4.88,4.88,0,0,0-4-4.69c-1.55-.16-3.94,2.47-4.16,4.56s1.76,4.09,4.3,4.16A4,4,0,0,0,989.66,388.92Z"/><path class="cls-1" d="M1284.2,656.22c1.94.08,1.77,1.76,2.23,3q7.87,20.54,15.72,41.09c.7,1.84,1.68,3,3.79,2.67a6.36,6.36,0,0,1,6,2.33c1.48,1.68,3.49,2,5.69,1.78,16-1.51,32-2.45,48-3.85,14.27-1.25,28.51-2.78,42.83-3.61s28.87-2.6,43.31-3.88c5.68-.5,11.37-.78,17.06-1.2,1.55-.11,3.1-.29,4.63-.54,2.89-.48,5.88-.7,8.61-1.65s3.52-4.33,5.89-6.16c3.31-2.55,6.49-3,10.09-1.45s7,7,6.48,9.79c-.79,4.62-5.7,9.3-10.67,9-4.27-.24-6.65,1.71-9.11,4.6-4.06,4.76-7.83,9.82-13.55,14.75,1.09-3.54,3.18-4.94,4.57-6.75,2.72-3.56,5.73-6.9,8.62-10.34,1.46-1.74,2.91-3.28,1.28-5.91s-3.18-4.83-6.79-4.48c-4.8.47-9.63.6-14.43,1q-19.61,1.55-39.22,3.19c-15.14,1.28-30.27,2.61-45.41,3.92q-31.22,2.7-62.45,5.37c-2.13.18-3.58.91-4.44,2.9-1.1,2.53-3.23,4-5.61,5.13-2.17,1.07-4.29,1.37-6.32-.17a6.27,6.27,0,0,1-1.84-7q.62-2,1.31-3.93a4,4,0,0,0,0-3c-4.37-12-8.32-24.07-13-35.94-1.34-3.43-3.12-6.9-3.19-10.78Zm201.95,37c0,4.29,3.61,8.38,7.42,8.34,3.53,0,7.94-4.12,8.1-7.51.19-3.78-3.47-7.7-7.36-7.88C1491,686,1486.17,690.18,1486.14,693.21Zm-174.94,16.1c-.41-1.4-1-3-2.9-3.53s-3.89-.29-5,1.5c-1.25,2-2.38,4.14-1.7,6.62a2.55,2.55,0,0,0,1.47,1.31C1305.45,716.14,1311.12,712.21,1311.21,709.32Z"/><path class="cls-1" d="M258,137.35c-.19,1.73-1.63,2-2.89,2.53l-44.81,18.91L157,181.25c-1.11.47-2.17,1.07-3.29,1.52a2.72,2.72,0,0,0-1.9,3.22,9.45,9.45,0,0,1-1.21,5.48c-2.37,4.8-5.77,6.44-11,5.25a9.59,9.59,0,0,1-7.15-10c.1-2.42.26-4.76,1.58-7,3.3-5.54,9.1-6.47,13.66-1.88,2,2,3.52,2.69,6.61,1.63,14.69-5,28.67-11.71,43-17.47,12.94-5.18,25.79-10.6,38.61-16.1,7.28-3.12,14.51-6.32,22.12-8.57Zm-108.9,49.27c.06-4.73-2.61-8.25-6.23-8.64s-5.9.59-6.61,3.46c-.91,3.65-3.32,7.52.24,11.13a4.11,4.11,0,0,0,.86.53c2.5,1.48,5.06,2.1,7.74.5S148.48,189.07,149.08,186.62Z"/><path class="cls-1" d="M1230.4,511.72c2.8,1.45,2.81,4.62,3.72,7,5,12.82,9.57,25.83,14.32,38.75q7,18.91,14,37.78c4,10.8,8.16,21.58,12.21,32.38,3,7.89,5.85,15.81,8.81,23.71.6,1.6,1.61,3.1.74,4.91l.11-.1c-2.3-2.27-3-5.39-3.89-8.26-2.16-7.25-5.36-14.09-7.93-21.17-6.73-18.47-13.69-36.87-20.7-55.24-4.06-10.64-7.58-21.46-11.87-32-3.43-8.44-6.18-17.16-9.19-25.78a8.67,8.67,0,0,1-.2-2Z"/><path class="cls-1" d="M938.73,288.4c.18,1.53-1.08,2.09-2,2.7q-21.15,13.82-42.84,26.76c-11.82,7-23.4,14.43-35.1,21.63-5.36,3.3-10.52,7-16.52,9.14l.09.1c2.06-3.16,5.54-4.46,8.52-6.35,12.36-7.84,24.66-15.79,37.28-23.19,16.49-9.67,32.18-20.62,48.76-30.14a2.7,2.7,0,0,1,1.91-.55Z"/><path class="cls-1" d="M1050.41,52c8.28.53,9.76.6,9.77,9.56,0,5.11-4.45,8.82-9.66,8.66-5-.15-9-4.88-8.78-10.29A8.36,8.36,0,0,1,1050.41,52Zm7,8.64c0-4.38-1.6-5.88-6.36-5.88-4.14,0-6.52,2.08-6.47,5.63.06,3.89,2.8,6.93,6.17,6.82C1055.5,67,1057.41,65.14,1057.43,60.6Z"/><path class="cls-1" d="M839.43,769.07c5.84.27,7.45,2.39,4.83,7.18-2.83,5.17-4.07,10.93-6.88,16.08-2.63,4.82-5,4.51-9.09,1.41a2.89,2.89,0,0,1-1.19-3.56c.78-2.75,2.28-5.41.9-8.49-.52-1.15.55-2.28,1.21-3.27,1.53-2.29,3.11-4.54,4.68-6.8A5.62,5.62,0,0,1,839.43,769.07Zm-6.72,12.39-.14-.12c-1.85,2.14-2.4,4.72-3,7.42-.59,2.47.32,3.43,2.2,4.41,2.3,1.21,3.35-.47,4-1.91,2.39-5.29,4-10.92,6.82-16,1.15-2.06-.13-3.06-2.21-3.54a4.2,4.2,0,0,0-4.92,1.8C833.9,775.89,830.41,777.72,832.72,781.45Z"/><path class="cls-1" d="M842.26,348.63c-.22,1.35-1.37,1.9-2.29,2.64a16.35,16.35,0,0,0-5.89,8.16c-1.39,4.66-5.72,6.1-9.9,3.89-5.4-2.86-5.4-2.86-9.47-2.56-.17-1.09.63-1.58,1.39-1.81a7.73,7.73,0,0,0,5.73-6c.68-2.61,6.28-4.34,8.88-2.41s4.17,1.2,6.36,0c1.62-.91,3.21-2.13,5.28-1.82Zm-18.44,7.79c.06,3.47,2.12,5.81,5.08,5.47,1.94-.23,3.63-1,3.69-3.49s-2.47-5.73-4.58-5.78C825.38,352.57,823.77,354,823.82,356.42Z"/><path class="cls-1" d="M572.3,315.84c.09,4.91-4.64,8.9-9.29,7.9-3.22-.69-3.46-4-5-6.11-1.31-1.78.81-2.6,1.71-3.7.76-.92,1.53-1.84,2.21-2.82,1.34-1.95,2.86-3.35,5.51-2.74s3.7,2.25,4.21,4.61C571.85,314,572.09,315,572.3,315.84ZM564.84,321c2.31,0,5.06-2.75,5.14-5.06s-1.79-5-3.57-4.92c-1.51,0-5.28,4.58-5.31,6.39A4,4,0,0,0,564.84,321Z"/><path class="cls-1" d="M1551.28,1054.74c1.1,2.4,1.8,4.6,2.95,6.69,1.5,2.74.88,5.22-1.08,6.36-1.42.82-5.92.32-6.74-.75-1.87-2.46-1.83-6.79.66-7.73S1549.95,1056.53,1551.28,1054.74Zm-1.6,6.24c-1.21.25-1.83,1-1.6,2.15a2.3,2.3,0,0,0,2.93,2,1.51,1.51,0,0,0,1.36-1.77A2.51,2.51,0,0,0,1549.68,1061Z"/><path class="cls-1" d="M223.24,797.52a5.25,5.25,0,0,1,4.63,4.76c.06,2.6-2.79,5.51-5.24,5.36a4.46,4.46,0,0,1-4.23-4.33C218.5,800.4,221,797.45,223.24,797.52Zm1.65,5c-.07-.81-.13-1.78-1.19-1.94a1.85,1.85,0,0,0-2.19,1.67,1.54,1.54,0,0,0,1.27,1.9C224.09,804.52,224.69,803.81,224.89,802.56Z"/><path class="cls-1" d="M1217.58,174.87c-1.69,2.18-3.39,2.35-5.09,1.91-2.81-.73-5.57-1.66-8.33-2.56-.83-.27-1.68-.83-1.18-1.84a1.62,1.62,0,0,1,2.25-.51A44.48,44.48,0,0,0,1217.58,174.87Z"/><path class="cls-1" d="M1741,523.43a25.38,25.38,0,0,0,.53,7.21c.14.77-.13,1.47-.9,1.56s-1.21-.51-1.55-1.16a3,3,0,0,1-.35-2,21.53,21.53,0,0,0-.27-9.23c-.28-1.08.11-2.33,1.34-2.36,1.43,0,1.19,1.34,1.2,2.33C1741,521,1741,522.23,1741,523.43Z"/><path class="cls-1" d="M992.61,676.2c-.51,1-.6,1.5-.8,1.56-5.23,1.38-9.66,4.22-13.91,7.43-.54.41-1.31.69-1.69-.14a1.41,1.41,0,0,1,.37-1.32C981.64,681.11,986.05,677.08,992.61,676.2Z"/><path class="cls-1" d="M1154.33,160.57c-5.37.63-9.44-.6-13.74-2.82C1144.6,156.37,1148.76,157.21,1154.33,160.57Z"/><path class="cls-1" d="M1122.52,733.44c-.26.42-.38.81-.63.94a1.13,1.13,0,0,1-1,0,2.68,2.68,0,0,1-1.09-1c-1.84-4.32-5.23-7.22-9-9.77-.76-.52-1.65-1.13-1-2,.9-1.28,1.75-.26,2.46.48,3.08,3.24,6.89,5.79,9.17,9.78C1121.78,732.42,1122.19,732.95,1122.52,733.44Z"/><path class="cls-1" d="M558.84,309.54c-.12.25-.2.64-.44.83a1,1,0,0,1-1.38-.07c-2.56-3-5.07-6-7.59-9.08a1,1,0,0,1,1.39-1.55c2.71,3.08,5.36,6.2,8,9.33C558.91,309.09,558.84,309.32,558.84,309.54Z"/><path class="cls-1" d="M920.86,727.65c-.13.31-.17.71-.39.91q-3.87,3.42-7.8,6.79a.9.9,0,0,1-1.35-.07.89.89,0,0,1,0-1.35c2.51-2.35,5-4.71,7.59-7,.28-.25,1-.14,1.46,0C920.56,726.93,920.69,727.38,920.86,727.65Z"/><path class="cls-1" d="M1694.63,424.32c-4.49-.46-7.75-2.65-11.43-3.28a1.46,1.46,0,0,1-.9-1.07c0-.84.72-1.18,1.41-1.09,1.87.25,3.85.31,5.43,1.47S1693.22,421.28,1694.63,424.32Z"/><path class="cls-1" d="M623.73,454.51c-.11,1-.73,1.81-1.61,1.5a30.57,30.57,0,0,1-9.08-5.45c-.44-.36-.26-1,.06-1.37.18-.22.66-.49.81-.4,3.21,1.8,6.19,4,9.73,5.23C623.72,454,623.7,454.34,623.73,454.51Z"/><path class="cls-1" d="M1667.37,417.6c-.56,1.27-1.26,1.42-1.92,1.28a40.54,40.54,0,0,0-11.32-.42c-.85.07-1.85.3-2-.86-.23-1.5,1-1.57,2-1.64A37.84,37.84,0,0,1,1667.37,417.6Z"/><path class="cls-1" d="M1158,791.77c-.42-.23-1.09-.37-1.22-.72-1.36-3.51-3.47-6.6-5.34-9.83-.49-.85-1.27-1.9,0-2.57,1-.52,1.41.6,1.77,1.3,1.88,3.72,3.73,7.45,5.59,11.18Z"/><path class="cls-1" d="M1737,492.39c2.26,3.47,1.82,7.52,2.88,11.22a1.2,1.2,0,0,1-1.11,1.45,1,1,0,0,1-1.12-.78C1737.59,500.32,1735.76,496.48,1737,492.39Z"/><path class="cls-1" d="M551,349.57c.17,1.11.43,2.29.51,3.49a1.37,1.37,0,0,1-1.14,1.49c-.92.19-1.22-.48-1.36-1.15-.62-2.9-.3-5.85-.35-8.78a1,1,0,0,1,1-1,1.71,1.71,0,0,1,1.2.75C551.69,346,551.16,347.78,551,349.57Z"/><path class="cls-1" d="M1476.38,305.32c-6.32,1.12-10.09.17-12.71-3.14C1467.58,303.11,1471.83,302.71,1476.38,305.32Z"/><path class="cls-1" d="M1065.39,685.17,1051.21,679c3.08-1.37,3.1-1.4,8.06,1.19,2.37,1.24,4.66,2.64,7,4Z"/><path class="cls-1" d="M1010,672.26c4.32-2.7,8.61-1.78,13.56.19-2.64,2.11-4.86.86-6.94.39S1012.27,673.14,1010,672.26Z"/><path class="cls-1" d="M595.66,436.08c3.69,1.71,6.34,4.92,9.8,6.9a1,1,0,0,1,.07,1.73c-.36.27-1.21.5-1.37.32-2.72-3-7.24-4-8.89-8.13C595.23,436.8,595.4,436.61,595.66,436.08Z"/><path class="cls-1" d="M1087.84,699.12c-4.76-2.15-8.43-5.62-12.58-9.23C1078.45,690,1085.34,695,1087.84,699.12Z"/><path class="cls-1" d="M772.34,376.08c3.81-2.79,8.14-4.49,13.09-6.14C782.3,373.64,778.19,375.67,772.34,376.08Z"/><path class="cls-1" d="M1488.4,310.29c5.37.86,9.76,2.41,13.9,6.18C1498.43,316.08,1490.54,312.6,1488.4,310.29Z"/><path class="cls-1" d="M1524.21,327.56c-3.6-1.54-6.49-4.24-10.08-5.74a.84.84,0,0,1-.32-1.28,1,1,0,0,1,.86-.34C1518.66,321.58,1522.4,323.31,1524.21,327.56Z"/><path class="cls-1" d="M1729.64,468.14c3,3.5,3,8,4.34,12.32C1731.16,479.21,1730,476,1729.64,468.14Z"/><path class="cls-1" d="M641.9,463.64c-.91,1.61-2.08,1.53-2.92,1.09-3-1.6-5.92-3.38-8.86-5.11a1.18,1.18,0,0,1-.4-1.76c.51-.8,1.25-.35,1.79,0,1.73,1.08,3.22,2.53,5.15,3.33C638.39,461.88,640,462.75,641.9,463.64Z"/><path class="cls-1" d="M1119.2,148.56c4.53,1.34,8.13,3.59,12.62,4.16C1127.62,155,1122.57,153.36,1119.2,148.56Z"/><path class="cls-1" d="M160.15,190.78c8.28,2.31,9.49,2.91,12.41,6.37C167.63,196.16,163.59,195.26,160.15,190.78Z"/><path class="cls-1" d="M554.45,367.43a1.4,1.4,0,0,1,1.34,1.3c.48,2.37,1,4.73,1.4,7.11a1.65,1.65,0,0,1-.58,1.27c-.44.36-1,.07-1.38-.3-1-1-2.23-7.88-1.61-8.89C553.77,367.67,554.17,367.58,554.45,367.43Z"/><path class="cls-1" d="M249.89,390.5c-.8-3.83,1.43-6.56,1.88-9.61.09-.64,1-.83,1.75-.63s1.27,1,.94,1.56C252.87,384.47,253.05,388.08,249.89,390.5Z"/><path class="cls-1" d="M1724.05,459.27c-3.77-3.83-3.9-8.52-6.62-11.76C1721.13,449.17,1723.06,452.6,1724.05,459.27Z"/><path class="cls-1" d="M954.35,700c3.41-4.71,6-6.5,11-7.89C964,694.35,958.41,698.51,954.35,700Z"/><path class="cls-1" d="M1127.89,740.29c.85-.14,1.25.51,1.61,1.05,1.81,2.72,3.58,5.48,5.34,8.23.41.64.44,1.39-.31,1.73a1.46,1.46,0,0,1-1.37-.39,52.43,52.43,0,0,0-6-9.53C1126.84,741,1127.34,740.46,1127.89,740.29Z"/><path class="cls-1" d="M942.55,708.09c-3.62,2.9-6.61,6.65-11.18,8.28C934.17,712.35,938.31,710.15,942.55,708.09Z"/><path class="cls-1" d="M577.67,413.2c-4-.19-4.73-3.11-6.34-4.83-.94-1-3-2.53-1.52-3.72,1.78-1.4,2.2,1.37,3,2.36C574.24,408.84,576.42,410.13,577.67,413.2Z"/><path class="cls-1" d="M1196.05,170.91a1.21,1.21,0,0,1-1.44,1.13c-2.64-.69-5.26-1.51-7.86-2.34a1,1,0,0,1-.57-1.26.9.9,0,0,1,1.1-.78c2.65.68,5.29,1.4,7.92,2.13A1.18,1.18,0,0,1,1196.05,170.91Z"/><path class="cls-1" d="M1095.19,705.09c3.95,1.43,5.89,5.2,8.68,8a1,1,0,0,1-.09,1.39c-.67.69-1.29.16-1.73-.29-2.55-2.7-5.06-5.44-7.58-8.17Z"/><path class="cls-1" d="M510.61,208.71c.69,2.21,1.29,4.46,2.08,6.63.74,2,1.67,4,2.78,6.55C511.39,219.08,509.6,214.53,510.61,208.71Z"/><path class="cls-1" d="M1527.51,1025.4c-4.29,1.31-7.22-1.19-10.41-2.87-.45-.24-.45-.86-.18-1.35a1,1,0,0,1,1.29-.52C1521.32,1022.2,1524.41,1023.81,1527.51,1025.4Z"/><path class="cls-1" d="M531.52,270.13c-2.79-4.61-4.12-8.63-5.93-13.76A22.6,22.6,0,0,1,531.52,270.13Z"/><path class="cls-1" d="M1461.37,832.64c2.79,2.45,4.65,5.61,6.43,8.83.34.62.27,1.41-.56,1.61a1.44,1.44,0,0,1-1.24-.64c-1.21-2.88-3.49-5-5.08-7.64C1460.55,834.18,1460.43,833.53,1461.37,832.64Z"/><path class="cls-1" d="M581.38,420.13c3.32,1.4,4.65,5.08,7.48,7,.16.11,0,1-.26,1.34a1.47,1.47,0,0,1-2.26-.09c-2.05-2.4-4-4.92-5.93-7.39Z"/><path class="cls-1" d="M1077.16,157.61a18.38,18.38,0,0,1,9.21-4.3c.8-.12,1.81.05,1.87,1.22,0,.88-.75,1.1-1.4,1.1C1083.46,155.64,1080.59,157.88,1077.16,157.61Z"/><path class="cls-1" d="M1010.12,218c0-.32,0-.72.14-1q2.52-3.49,5.12-6.93a1.07,1.07,0,0,1,1.31-.47c.84.36.76,1,.36,1.61q-2.39,3.58-4.87,7.1a1,1,0,0,1-1.36.28A3.15,3.15,0,0,1,1010.12,218Z"/><path class="cls-1" d="M410.55,407.57c2.63,0,3.16,1.35,3.9,2.45.87,1.28,1.64,2.62,2.5,3.91.58.87,2.38,1.59.64,2.78-1.1.75-1.87-.31-2.41-1.23C413.73,413,412.29,410.55,410.55,407.57Z"/><path class="cls-1" d="M422.41,310.71a16.65,16.65,0,0,1-3.86,10.93C418.08,317.91,418.08,317.91,422.41,310.71Z"/><path class="cls-1" d="M1054.08,170.67c3.6-2.15,6.25-5.85,11.15-6.59C1063.4,167.43,1058.41,170.45,1054.08,170.67Z"/><path class="cls-1" d="M1166.85,161.79c2.66,1,5.41,1.93,8.12,3a.91.91,0,0,1,.43,1.29c-.25.47-.67.86-1.22.69-2.77-.87-5.54-1.77-8.28-2.73a.84.84,0,0,1-.45-1.26A5.79,5.79,0,0,1,1166.85,161.79Z"/><path class="cls-1" d="M1477.92,863.19l-5-10.31C1476.9,854.33,1478.54,857.68,1477.92,863.19Z"/><path class="cls-1" d="M564.77,396.23c-3.16-1.93-4.18-5.15-5.41-8.21-.12-.3.29-.94.61-1.25a.85.85,0,0,1,1.31.19C562.71,389.92,564.77,392.63,564.77,396.23Z"/><path class="cls-1" d="M192.58,214.31c-2.3.7-2.62-.66-3.31-1.57-1.43-1.9-2.17-4.31-4.31-5.67-.63-.4-1.11-1-.59-1.64.74-.91,1.7-.33,2.23.24a35.57,35.57,0,0,1,3.16,4C190.71,211.1,191.53,212.59,192.58,214.31Z"/><path class="cls-1" d="M1474,988.8c-3.75-1.64-5.42-5.08-5.25-10.79C1471.28,981.63,1471.79,985.62,1474,988.8Z"/><path class="cls-1" d="M697.9,412.79c-1.35,2.63-2.57,5.26-4.92,7a1.37,1.37,0,0,1-1.85.1c-.63-.57-.35-1.29,0-1.87C692.56,415.38,695.29,414.18,697.9,412.79Z"/><path class="cls-1" d="M1236.44,182.94c-2.4,2.54-4.31.84-6,.27a6.46,6.46,0,0,1-3.72-2.53.9.9,0,0,1,.28-.85,2.06,2.06,0,0,1,1.41-.3C1230.9,180.53,1233.38,181.63,1236.44,182.94Z"/><path class="cls-1" d="M1431.3,808.41c-2.8-1.59-5.56-3.12-8.26-4.75-.29-.17-.38-.94-.3-1.38s.71-1,1.15-.7c2.73,1.65,6.14,2.38,7.79,5.53C1431.79,807.33,1431.51,807.73,1431.3,808.41Z"/><path class="cls-1" d="M1091.72,128.78c-3.32-.61-8.07-4.52-8.34-6.41a1.14,1.14,0,0,1,.35-.85,1.21,1.21,0,0,1,1.81,0C1087.5,123.79,1089.41,126.07,1091.72,128.78Z"/><path class="cls-1" d="M409.12,401c-4-3.52-3.52-7.61-4.94-11.75C406.8,391.14,408.22,394.68,409.12,401Z"/><path class="cls-1" d="M1041.41,675.83c-3.87,1.63-7.32.54-11.53-1.6C1035,673.59,1036.23,673.73,1041.41,675.83Z"/><path class="cls-1" d="M1070.24,93.86c-.23.48-.3.88-.54,1.06a1,1,0,0,1-1.37-.13c-1.68-2.24-1.89-5.12-3.2-7.54-.13-.23.32-.94.67-1.22a.93.93,0,0,1,1.34.38C1068.67,88.74,1069.38,91.4,1070.24,93.86Z"/><path class="cls-1" d="M1498.54,1013.61c2.52,1.27,5.11,2.55,7.67,3.89.18.09.25.63.17.91a1,1,0,0,1-1.14.78c-2.76-.83-5.51-1.75-7.67-3.78-.23-.22-.09-.95,0-1.39C1497.67,1013.83,1498.16,1013.77,1498.54,1013.61Z"/><path class="cls-1" d="M1711.73,437.46c-4.23-2.63-5.48-6.5-9.11-8.55C1706.53,428.21,1709,430.5,1711.73,437.46Z"/><path class="cls-1" d="M986.54,249.8c2-3,3.69-6.36,6.77-8.94A9,9,0,0,1,986.54,249.8Z"/><path class="cls-1" d="M249.71,425.21a15.09,15.09,0,0,0,4.3,8.33,1.19,1.19,0,0,1-.19,1.8,1,1,0,0,1-1.36.08,36.45,36.45,0,0,1-3.84-4.72C247.78,429.36,248.13,427.78,249.71,425.21Z"/><path class="cls-1" d="M733.8,391.42a4.24,4.24,0,0,1-3.38,3.16c-1.79.36-3.78,3.49-5.09,1-.78-1.44,2.49-2.74,4.18-3.77A4.52,4.52,0,0,1,733.8,391.42Z"/><path class="cls-1" d="M1047.69,177.7a7.91,7.91,0,0,1-.8,1.17q-2.67,2.74-5.38,5.43a1.36,1.36,0,0,1-1.8.38c-.72-.51-.45-1.28,0-1.77,2-2.07,4-4.11,6.11-6.08.26-.24.94-.14,1.39,0C1047.42,176.84,1047.51,177.33,1047.69,177.7Z"/><path class="cls-1" d="M197.73,223.12c3.75,2.91,3.92,7.22,4.41,11.41C198.38,231.62,200.23,226.52,197.73,223.12Z"/><path class="cls-1" d="M1079.21,110.34a5.71,5.71,0,0,1-.35,1.16c-.34.57-.92.4-1.35.21-1.19-.5-4.67-6.88-4.47-8.25.12-.8,1.07-1.2,1.44-.66C1076.19,105.29,1077.71,107.91,1079.21,110.34Z"/><path class="cls-1" d="M683.18,428.26c-2.58,2.21-4.17,5.05-6,7.72-.41.61-1,1-1.71.57s-.51-1.19-.1-1.79C677.33,431.85,678.88,428.49,683.18,428.26Z"/><path class="cls-1" d="M696.84,746.53c-.16,0-.4,0-.47-.15-1.73-2.72-3.61-5.41-4.08-8.68-.1-.66,1.25-1.12,1.52-.6,1.49,2.81,2.81,5.73,4.08,8.65C698,746.1,697.49,746.64,696.84,746.53Z"/><path class="cls-1" d="M1139.19,760c4.17,1.79,5.48,5.55,7,9.12.07.15-.29.63-.55.75s-.79.06-.89-.11C1142.88,766.55,1141,763.28,1139.19,760Z"/><path class="cls-1" d="M706.11,406.86c2.27-3.48,5.17-4.36,7.57-5.93a1,1,0,0,1,1.38.13,1.21,1.21,0,0,1-.13,1.82C712.47,404.54,710.11,406.52,706.11,406.86Z"/><path class="cls-1" d="M756.92,382.3a50.91,50.91,0,0,1-9.65,5.71C749.22,383.4,750.18,382.82,756.92,382.3Z"/><path class="cls-1" d="M1440.48,814.37c2.86,3,7.4,4.27,9.32,8.36C1446,820.76,1442,819,1440.48,814.37Z"/><path class="cls-1" d="M1563.29,364.59c2.36,1.34,4.37,4.75,5.46,9.22C1565.68,371.76,1564,369,1563.29,364.59Z"/><path class="cls-1" d="M805.59,364.4A48.41,48.41,0,0,0,795.46,368C798.71,363.07,801.13,362.15,805.59,364.4Z"/><path class="cls-1" d="M666.7,447.49c-.16,3.88-2.39,7.18-3.5,10.79-.07.23-1,.45-1.33.29a1.36,1.36,0,0,1-.52-1.23c1.34-3.38,2.78-6.73,4.18-10.08Z"/><path class="cls-1" d="M554.25,325.77a2.88,2.88,0,0,1-.2,1,33.28,33.28,0,0,0-3.17,5.79,1.08,1.08,0,0,1-1.72.39,1.49,1.49,0,0,1-.47-1.31c.84-2.05,1.76-4.08,2.76-6.06a1.6,1.6,0,0,1,1.78-.74A1.1,1.1,0,0,1,554.25,325.77Z"/><path class="cls-1" d="M412.44,422.83c-4.25.5-6.74-1.93-10.83-2.55C406.64,418.77,408,419.13,412.44,422.83Z"/><path class="cls-1" d="M1100.34,136.16c3.45.69,5.84,3.08,8.42,5.14a.81.81,0,0,1,0,1.3,1.33,1.33,0,0,1-1.86,0C1104.56,140.68,1101.94,139,1100.34,136.16Z"/><path class="cls-1" d="M1626.9,417.32c2-1.74,3.85-.23,5.77-.19s3.71-.33,5.92.64C1634.35,420.44,1630.63,418.08,1626.9,417.32Z"/><path class="cls-1" d="M506.53,196.14c-1.84-4.6-2.71-8.19-2.62-12.3C506,186.28,506.81,190,506.53,196.14Z"/><path class="cls-1" d="M287.84,451.3c-2.65,2.38-5.84,1.91-9.18,2.11C280.84,450.67,281.73,450.44,287.84,451.3Z"/><path class="cls-1" d="M447.63,478.1c-1.87-2.94-2.2-6.21-2.12-9.57C447.3,471.45,448.77,474.45,447.63,478.1Z"/><path class="cls-1" d="M1469.7,938.69a36.73,36.73,0,0,1-1.63,10.26C1466.21,946.1,1466.82,941.78,1469.7,938.69Z"/><path class="cls-1" d="M367.12,420.2l-10.23,1.07A10.18,10.18,0,0,1,367,418.85Z"/><path class="cls-1" d="M1549.56,1041.14c.87,2.65,1.77,5.28,2.57,8a1.25,1.25,0,0,1-.93,1.57,1.15,1.15,0,0,1-1.48-1c-.43-2.78-2-5.41-1.31-8.34Z"/><path class="cls-1" d="M1459.35,736.52c1.95-4.61,5.88-7.56,9.12-11.09C1466.43,730,1462.76,733.14,1459.35,736.52Z"/><path class="cls-1" d="M404.41,368.78c1.27,4.3,1.76,7.49,1.18,11.08C403.15,377,402.73,374,404.41,368.78Z"/><path class="cls-1" d="M687.08,706.71c-2-3.43-1-7.06-.67-10.62.05-.55.66-.74,1.18-.46.26.14.63.54.58.72C687.23,699.73,688.09,703.29,687.08,706.71Z"/><path class="cls-1" d="M414.19,329.32c1,3.24-.77,5.67-1.91,8.28-.31.71-.85,1.15-1.59.73s-.58-1.28-.29-1.86C411.61,334.07,412.92,331.7,414.19,329.32Z"/><path class="cls-1" d="M1475.57,907.94c-.62-4,.81-7.46,1.63-11.48C1478.63,899.93,1478.1,903.21,1475.57,907.94Z"/><path class="cls-1" d="M1479.61,873.67c.77,3.84,1.15,7.65-.36,11.36A21.35,21.35,0,0,1,1479.61,873.67Z"/><path class="cls-1" d="M1579.8,393.92c-3.18-1.88-5.11-4.51-5.09-9.36C1577.71,387.69,1578.68,390.82,1579.8,393.92Z"/><path class="cls-1" d="M1594.47,410.34c-1.29.89-2.3.89-3.26,0-1.49-1.38-2.92-2.83-4.4-4.23-.56-.53-.87-1.09-.24-1.71s1.27-.16,1.75.27C1590.31,406.46,1592.27,408.31,1594.47,410.34Z"/><path class="cls-1" d="M268.82,449.89c-3.94.92-6-1.3-8.93-3.9C264.31,446.23,265.09,446.6,268.82,449.89Z"/><path class="cls-1" d="M502.06,138.25c1.5,3.12.07,6.32.6,9.46.07.4-.42.89-1,.85s-.8-.52-.82-1C500.66,144.41,500.48,141.26,502.06,138.25Z"/><path class="cls-1" d="M247.49,400.84c1.93,4.49-1.29,7.77.12,11.2C244.67,409,244.66,407.86,247.49,400.84Z"/><path class="cls-1" d="M206.68,247.26c1.29,2.36,1.94,4.93,3.22,7.23a1,1,0,0,1-.68,1.56c-.41.09-1.21-.12-1.32-.4C206.86,253,205.46,250.34,206.68,247.26Z"/><path class="cls-1" d="M1555.54,352.68c-.09.9-.87,1.34-1.37.86-2-1.91-3.78-4-5.61-6-.11-.13.06-.67.25-.86a1.18,1.18,0,0,1,.93-.29C1551.13,346.72,1555.46,351.49,1555.54,352.68Z"/><path class="cls-1" d="M1024.12,201.77c1.69-2.9,2.11-6.94,7.38-7.83C1029,197.28,1027.64,200.51,1024.12,201.77Z"/><path class="cls-1" d="M1536.2,1029c3.45,1,6.09,2.9,7.85,7.5A19.69,19.69,0,0,1,1536.2,1029Z"/><path class="cls-1" d="M997.59,233.77c1.72-2.45,3.34-4.81,5-7.11.22-.29.9-.32,1.37-.29.21,0,.56.43.58.68C1004.76,228.87,1000.32,233.19,997.59,233.77Z"/><path class="cls-1" d="M439.51,529.07a1.55,1.55,0,0,1-1.42-1.23,1,1,0,0,1,.55-1.26,13.52,13.52,0,0,1,1.44-.46c1.49-.47,2.32-2.69,4.35-1.69.18.09.28.62.21.89C444.28,526.64,440.9,529.08,439.51,529.07Z"/><path class="cls-1" d="M386.75,721c-1.19,2.72-2.62,5.22-5.28,6.66-.59.32-1.36.62-1.87-.1a1.1,1.1,0,0,1,.53-1.68A44.48,44.48,0,0,0,386.75,721Z"/><path class="cls-1" d="M335.39,424.17c2.17-.76,4.33-1.54,6.51-2.26.87-.29,1.72-.17,2,.9a1.12,1.12,0,0,1-1.09,1.4c-2.45.18-4.75,1.68-7.26,1.26Z"/><path class="cls-1" d="M759.72,781.2l9.46.51c-3.28,2.4-6.39,1.42-9.52.57Z"/><path class="cls-1" d="M352.63,736.93c-6,3-8,2.79-9.94-.79,1.67-.82,2.75,1.15,4.37.85A34.83,34.83,0,0,1,352.63,736.93Z"/><path class="cls-1" d="M296.77,447.87c3.41-1.5,5.71-2.55,8.05-3.5a1.49,1.49,0,0,1,1.35.38c.52.67.09,1.24-.55,1.62A11.42,11.42,0,0,1,296.77,447.87Z"/><path class="cls-1" d="M1533.37,332.26c3.12.93,4.88,3.47,7.48,5.27C1537.91,338.39,1536.39,337.34,1533.37,332.26Z"/><path class="cls-1" d="M1604.57,414.8c3.69-1.36,6.37.69,9.18,2.34C1610.36,417.62,1607.41,416.46,1604.57,414.8Z"/><path class="cls-1" d="M333.29,733c-4.19,1.59-5.93-.82-8-2.2a.75.75,0,0,1-.06-1.25c.34-.27,1-.55,1.33-.39C328.48,730.22,330.34,731.35,333.29,733Z"/><path class="cls-1" d="M407.24,350.14a24.59,24.59,0,0,1-.79,9.43C404.64,356.27,404.74,354.69,407.24,350.14Z"/><path class="cls-1" d="M379.9,419.07c3.58-2.86,5.13-2.81,9.18-.06C385.91,419.94,383.32,418.47,379.9,419.07Z"/><path class="cls-1" d="M689,728.39a29.59,29.59,0,0,1-3-10.13l1.16-.31L690.3,728Z"/><path class="cls-1" d="M1062.31,76.89c-.51.32-.69.49-.72.46-1.86-1.49-3.62-3.07-3.33-5.77a.92.92,0,0,1,1.22-.64C1062.09,72.26,1061.58,74.88,1062.31,76.89Z"/><path class="cls-1" d="M429.87,289.81c.51,3.46.17,5.93-1.2,8.22-.39.65-1,1.06-1.68.75s-.59-1.08-.29-1.74C427.65,294.9,428.58,292.76,429.87,289.81Z"/><path class="cls-1" d="M536.87,281.62c3.52,1.65,3.76,5.53,5.86,8.16C539.62,288.28,539.32,287.88,536.87,281.62Z"/><path class="cls-1" d="M431.19,273.79c2.12,2.88.93,5.84.79,9.69C429.2,279.82,431.2,276.74,431.19,273.79Z"/><path class="cls-1" d="M690.22,672.53c-1.14,4,.24,8.32-1.28,12.33A16.7,16.7,0,0,1,690.22,672.53Z"/><path class="cls-1" d="M421.49,429.63c4.3.28,5.82,3,7.58,5.27.12.16,0,.66-.18.89a.85.85,0,0,1-1.32.06C425.69,434,423.88,432.1,421.49,429.63Z"/><path class="cls-1" d="M316.65,725.54c-2.58.26-4.36-.89-6.25-1.32a1.26,1.26,0,0,1-1-1.53,1.15,1.15,0,0,1,1.59-.86C312.93,722.62,315.19,723,316.65,725.54Z"/><path class="cls-1" d="M735.06,776.36a49.27,49.27,0,0,1,11.14,3.15C742.89,780.52,739.87,779.65,735.06,776.36Z"/><path class="cls-1" d="M519.51,234.86c1.72,3.44,3.55,6.8,4.58,11.46C522.12,244.06,520.07,239.11,519.51,234.86Z"/><path class="cls-1" d="M502.18,159.24c1.11,3.2,1.64,6.36.62,9.57C501.67,165.65,500.85,162.48,502.18,159.24Z"/><path class="cls-1" d="M1480.63,999.2c3.75,1.34,5,4,7.09,5.57.52.39.29.92,0,1.36a.91.91,0,0,1-1.34.28A15.42,15.42,0,0,1,1480.63,999.2Z"/><path class="cls-1" d="M451.54,509.56c1.9,2.1.51,3.4-.48,4.75-.75,1-1.82,2.08-3,1.15-1.46-1.18.21-2,.86-2.91S450.51,510.73,451.54,509.56Z"/><path class="cls-1" d="M901.2,744.38c-1.4,3.15-4.07,4.91-6.93,6.45C895.64,747.7,898.49,746.11,901.2,744.38Z"/><path class="cls-1" d="M451.1,489.61a13.52,13.52,0,0,1,.83,7.58.94.94,0,0,1-1.05.84,1.24,1.24,0,0,1-1.24-1.34C450,494.65,449.72,492.45,451.1,489.61Z"/><path class="cls-1" d="M1473.59,919.28l-1.67,8.09c-1.92-3.22-.71-5.8.52-8.39Z"/><path class="cls-1" d="M440.21,456.88a12,12,0,0,1-3.71-7.88C439.69,450.72,440,451.28,440.21,456.88Z"/><path class="cls-1" d="M398.83,705.29a14.22,14.22,0,0,1-4.78,7.53C394.35,708.75,396.32,706.86,398.83,705.29Z"/><path class="cls-1" d="M416.58,694.32c-.74,1.55-2.13,1.37-3.11,1.88-1.16.6-2.92,2.45-3.69.41-.59-1.55,1.83-2,3.18-2.54C414.07,693.62,415.2,693.21,416.58,694.32Z"/><path class="cls-1" d="M369.47,734.84c-2.09,2.14-4.34,2.34-6.41,2.89a1.44,1.44,0,0,1-1.27-.56c-.34-.74.16-1.33.86-1.56A16.17,16.17,0,0,1,369.47,734.84Z"/><path class="cls-1" d="M1465.9,959.69c.46,2.83,1.75,5.67-.2,8.37C1465.1,965.25,1464.67,962.44,1465.9,959.69Z"/><path class="cls-1" d="M253.05,747.27c-.24,3-1.62,5.19-2.53,8.06C249.24,751.39,249.6,750.28,253.05,747.27Z"/><path class="cls-1" d="M710.09,761.3c-3-1.85-5.91-3.7-6.57-7.46C706,756.12,709.17,757.69,710.09,761.3Z"/><path class="cls-1" d="M258,137.35c1.92.3,3-1.44,4.58-1.92,1.89-.57,3.56-2.05,6.3-1.37-3.54,2.52-6.9,3.89-10.89,3.29Z"/><path class="cls-1" d="M317.48,435.81c1.14-2.59,3.16-3.41,4.69-4.73a1.26,1.26,0,0,1,1.84,0c.76.88.17,1.72-.56,2.11C321.72,434.09,320.32,435.8,317.48,435.81Z"/><path class="cls-1" d="M788.88,780.71a10.7,10.7,0,0,1-8.5,1.6C783.38,779.91,786.16,780.4,788.88,780.71Z"/><path class="cls-1" d="M301.64,719.43a12.24,12.24,0,0,1-6.69-1.56,1.39,1.39,0,0,1-.41-1.3c.16-.34,1-.75,1.24-.61C297.63,716.89,300,717.06,301.64,719.43Z"/><path class="cls-1" d="M287.38,717.22c-2.35,1.11-3.86,1.84-5.39,2.52a.91.91,0,0,1-1.31-.37,1.07,1.07,0,0,1,.23-1.34C282.58,716.38,284.37,715.54,287.38,717.22Z"/><path class="cls-1" d="M1100,150.73a15.45,15.45,0,0,1,8.09,0C1105.06,153.08,1103.45,153.08,1100,150.73Z"/><path class="cls-1" d="M949.2,282.22c-3.26,2.45-6.08,5.63-10.47,6.17l.09.11c3.19-2.57,6-5.72,10.47-6.18Z"/><path class="cls-1" d="M233.6,791.37c.69,1.59-.38,2.58-1.22,3.62s-2,1.93-3,.81c-1.25-1.37.39-2.07,1.32-2.6S232.22,791.34,233.6,791.37Z"/><path class="cls-1" d="M1444.34,753.6c-.1.32-.1.73-.3,1a74.12,74.12,0,0,1-6.34,6.46c1.76-2.88,3.41-5.85,6.76-7.29Z"/><path class="cls-1" d="M242,778.26c-.32,5.46-.32,5.46-3.54,6.57C239.52,782.33,241.21,780.52,242,778.26Z"/><path class="cls-1" d="M259.79,734.48,257.18,740C255.9,737,255.9,737,259.79,734.48Z"/><path class="cls-1" d="M246.67,763.27c.72,1,.93,1.18.9,1.29-.44,1.88.7,4-1,5.68a.48.48,0,0,1-.46,0C244.58,768,246.29,766.13,246.67,763.27Z"/><path class="cls-1" d="M271.17,722a6.67,6.67,0,0,1-3.46,4.51c-.42.22-1.09.35-1.33-.25a1.65,1.65,0,0,1,.06-1.39A7.65,7.65,0,0,1,271.17,722Z"/><path class="cls-1" d="M801.57,780.08c1.76-1.66,3.87-1.49,6.63-1.65C806,781.07,803.7,780.22,801.57,780.08Z"/><path class="cls-1" d="M1444.46,753.73c.34-2.65,2.6-3.72,4.32-5.23-1.24,1.91-2.41,3.88-4.45,5.1Z"/><path class="cls-1" d="M1429.18,770.24a19.57,19.57,0,0,1,4.09-5.11C1432.54,767.53,1432.54,767.53,1429.18,770.24Z"/><path class="cls-1" d="M1450.85,746.54a6.51,6.51,0,0,1,2.41-4.38c.63-.64,1-1.79,2.64-1.64C1454.85,742.85,1453.17,744.37,1450.85,746.54Z"/><path class="cls-1" d="M719.69,769.15c-2.54.24-3.38-1.6-4.7-3.66,3.1,1.38,3.1,1.38,4.62,3.75Z"/><path class="cls-1" d="M719.6,769.24a3.46,3.46,0,0,1,2.43.58c.65.47,1.53.75,1.53,2-2.15.26-2.66-1.77-3.88-2.7Z"/><path class="cls-1" d="M240.13,345.94c1.63,2.58,3,5.2,1.73,8.85C239.38,351.88,240.64,348.73,240.13,345.94Z"/><path class="cls-1" d="M868.13,767.63c-.28,1-1.23,1.11-2,1.3-1,.27-2,1.61-3.18.49a.94.94,0,0,1-.11-.9c.72-1.09,1.92-1.27,3.1-1.42C866.73,767,867.57,766.77,868.13,767.63Z"/><path class="cls-1" d="M832.72,781.45c1-.78,1.72-2.22,3.36-1.7.23.07.56.6.49.72-1,1.8-2.59.82-4,.86Z"/></g></svg>