<svg xmlns="http://www.w3.org/2000/svg" viewBox="0 0 1920 1080"><defs><style>.cls-1{fill:none;stroke:#cad8e0;stroke-miterlimit:10;}</style></defs><title>bgbgbg</title><g id="Layer_23" data-name="Layer 23"><path class="cls-1" d="M1722.57,114.76a11.13,11.13,0,0,1-5.08,12.08c-2.33,1.42-4.06,3.48-6.27,5a7.22,7.22,0,0,0-2.62,3.62c-1.65,5.6-6.29,8.59-10.29,12.05-2.53,2.19-5.24,4.18-7.82,6.35a12.44,12.44,0,0,1-18.77-2.48,6.25,6.25,0,0,0-4.53-2.81c-6.14-.9-11.9-3.31-18.18-4-5.62-.6-9.69-5.09-13.71-8.9-1.07-1-1.26-2.73-1.44-4.24-.73-6.1-.44-12,2.22-17.75a43.23,43.23,0,0,0,2.84-7.54c1.65-6.48,6.24-9.85,12.19-11.54a96.81,96.81,0,0,1,12.8-2.52c4.8-.68,9.35,1,13.8,2.4a132.56,132.56,0,0,0,29.06,5.84c3.8.3,6.67,2.58,9.3,4.66C1719.12,107.41,1722.06,110.47,1722.57,114.76Z"/><path class="cls-1" d="M362.48,388.84c5.18-.75,8.2,3,10.38,6.89s4.91,5.87,9.11,5.92c9.49.11,18.06,3.32,26.48,7.32a19.34,19.34,0,0,1,10.92,13.58c.84,3.42,1.33,6.93,1.89,10.42.62,3.92-2.24,6.49-3.91,9.5-.51.91-1.5.41-2.22,0-7.69-5-16.26-5.87-25.12-5.51a11.32,11.32,0,0,1-3.46-.54A34.22,34.22,0,0,0,375.61,435c-3.57.15-6.82-.68-9.22-4-2.75-3.82-7.55-5.58-10.32-9.51-.75-1.06-2.06-1.06-3.19-1.31-10-2.24-11.61-10-10.86-17.07.24-2.3,2-3.89,3.51-5.38a79.28,79.28,0,0,1,7.6-6.59C355.74,389.19,358.9,388.7,362.48,388.84Z"/><path class="cls-1" d="M1707.65,522.23c-3.36.94-6.26,1.85-9.2,2.56-5.14,1.25-9.73,3.67-14.27,6.27a50.06,50.06,0,0,1-19.47,6.46c-3.4.38-5.75-.56-7.65-3.49-2.74-4.22-5.39-8.54-8.8-12.27a7.73,7.73,0,0,1-1.91-6.52,176.84,176.84,0,0,0,1.42-25.65c-.16-4.42,2.22-7.64,4.2-11.12,4.16-7.32,11-10.48,18.82-12.08a4.15,4.15,0,0,1,2.44.34A34.29,34.29,0,0,0,1682,469c5.24,1,11.23,6,11.48,12.43.19,4.88,3.1,7.71,7.84,8.47,5.11.83,8,3.39,8.78,8.78.7,4.8,2.21,9.49,3.5,14.19,1.14,4.17,1.11,4.5-2.53,7.09C1709.83,520.87,1708.53,521.65,1707.65,522.23Z"/><path class="cls-1" d="M1666.73,164.51c.85-.1,2.18-.3,3.52-.4,10-.73,19.63-2.68,28.47-7.72,2.18-1.24,4.71-1.88,6.85-3.16,3.14-1.88,5.8-1.58,8.65.61A147.49,147.49,0,0,1,1727,164.23c1.44,1.39,1.95,2.71.95,4.39-3.93,6.6-6.12,14-10.18,20.63a24.69,24.69,0,0,1-13.12,10.92,46.91,46.91,0,0,0-11.51,6c-7.11,5.1-19.77,3.32-25.4-.44a7.51,7.51,0,0,1-2.37-2.57c-4.93-8.62-9.18-17.53-11.32-27.31-.46-2.1-.15-4,1.69-5.44C1658.93,167.94,1662.24,165.67,1666.73,164.51Z"/><path class="cls-1" d="M1737.5,92c6.79-1.26,13.93-3.53,21.44-1.88,5.06,1.12,9.44,3.18,12.49,7.75,3.54,5.3,3.39,10.89-1,15.58-3.68,4-7.65,7.81-8.19,13.54a26.09,26.09,0,0,1-2.1,7.18,17.12,17.12,0,0,1-4.88,6.94c-4.46,3.78-8.6,8-14.09,10.42a18.1,18.1,0,0,1-17.74-1.36c-2.67-1.68-3.39-3.59-2-6.32a19.28,19.28,0,0,0,1.87-6.72c.36-3.13,2.13-5.6,4-8,3.82-4.81,4.71-9.8,1.5-15.4-2.3-4-2.14-8.79-3.37-13.16-.68-2.44,3.18-6.31,6.69-7.21C1733.79,93,1735.51,92.94,1737.5,92Z"/><path class="cls-1" d="M76.26,42.29c1.22-.32,2.72.48,3.43-.64,1.64-2.6,4.16-2,6.37-1.8,4.83.37,9.68.89,14.45,1.74a10.82,10.82,0,0,1,8,5.64c2.33,4.47,4.4,9.06,6.62,13.58.74,1.51.95,2.94-.55,4.06-3.6,2.7-5.63,6.72-8,10.29-4.56,6.87-10.8,12-17,17-3.58,2.91-8.12,4.6-11.54,8-1.55,1.52-3.75,1.15-5.69.16a26.05,26.05,0,0,0-14-3.25c-1.48.11-2.87-.32-3.37-1.68C53.1,90.46,50,86,52.66,80.1c2.18-4.87,4.14-9.82,6.46-14.65A47.42,47.42,0,0,0,63,51c.47-3.61,1.66-5.76,5.61-6.46C71.19,44.1,73.18,41.17,76.26,42.29Z"/><path class="cls-1" d="M1621.74,443.19c-1.87-2.62-1.85-5.35-.44-8.42,1.88-4.1,3.43-8.36,5-12.6.91-2.46,2.15-4.55,4.63-5.68q4.8-2.17,9.62-4.32a4.65,4.65,0,0,1,5.52.94,12.9,12.9,0,0,0,10.09,3.69,17.2,17.2,0,0,1,5.95,1c6.25,1.76,8.83,5,9.22,11.57.26,4.35,0,8.73.57,13.07a6.32,6.32,0,0,1-1.07,4.34,39.94,39.94,0,0,1-11.39,11.89c-5.48,3.58-11.62,5.06-17.68,6.94-9,2.77-15.72-3.35-18.68-9.77a7.06,7.06,0,0,1-.26-4.45C1623.69,446.9,1623.64,446.89,1621.74,443.19Z"/><path class="cls-1" d="M407.86,930.22a93.87,93.87,0,0,1,.81-14.89c.55-5,6-10.1,10.92-10.36a1.82,1.82,0,0,1,1,.08c4.29,2.78,10.07,3.09,13.11,8a15,15,0,0,0,4.91,5,16.57,16.57,0,0,1,8.28,13.08c.23,2.2,1.52,3.62,2.92,5.12,4.77,5.12,5.16,8.84.67,14.2a142.5,142.5,0,0,1-12.94,13.35c-3,2.71-3.7,2.39-6.92-.1-1.46-1.13-2.92-2.26-4.39-3.38-3.53-2.68-7.32-4.86-11.86-5.11-2.63-.15-4.33-1.62-4.53-3.89C409.2,944,406.19,936.9,407.86,930.22Z"/><path class="cls-1" d="M371.78,379.48c.52-8.82,2.39-11,11.19-12.54,1.81-.33,3.68-.31,5.51-.55,6.12-.8,9.43-4.08,10.7-10.15,1-4.58,1.69-9.21,3.62-13.55,1.28-2.86,2.41-3.57,5.27-2.46a4.05,4.05,0,0,1,1.33.71c3,2.78,6.53,4.68,9.79,7,3.52,2.55,3.72,3.77,1.61,7.58a3,3,0,0,1-.51.87c-3.73,3.13-5.16,7.69-7.54,11.69a39,39,0,0,0-5.64,18c-.17,2.78-3,6.23-5.83,6.76-5.09.95-10.22,1.69-15.35,2.41-3.22.45-5.41-1.17-7.13-3.76-1.9-2.87-2.67-6.51-6.19-8.29C371.35,382.57,371.63,380.83,371.78,379.48Z"/><path class="cls-1" d="M404.94,959.21c14.29.59,24.18,6.53,30,18.84a19.34,19.34,0,0,1,1.94,8.26c0,3.28-.83,6.39-4,8.16-5.77,3.25-10.5,7.79-15.15,12.37-3.37,3.32-7,4.36-11.4,2.77-1.42-.51-2.86-1-4.31-1.39a8.77,8.77,0,0,1-5.79-5.16c-3.35-7.18-5.28-14.79-7-22.46a7.91,7.91,0,0,0-.71-2.89c-.76-1.16-3-1.92-1.84-3.67,1.5-2.34,1.06-5.77,4-7.22a14.57,14.57,0,0,0,3.76-3.29C397.62,960.35,401.32,958.76,404.94,959.21Z"/><path class="cls-1" d="M693.17,133.15c-.61,5-1.67,9.48-5.81,12.64a15.81,15.81,0,0,0-2.94,3.43c-2.86,3.95-6.91,6.29-11.09,8.5a3,3,0,0,1-2.84-.19,16.82,16.82,0,0,0-13.23-.25c-1.72.66-3.52,1.13-5.3,1.66-8,2.39-13.41-2.2-16-8.53-.63-1.55-1-3-2.32-4.27a4.73,4.73,0,0,1,.52-7c3.68-2.52,5.68-6.16,7.39-10,2.87-6.51,6.33-12.51,11.66-17.43A20.22,20.22,0,0,1,659,108a5.45,5.45,0,0,1,6.1,1,94.46,94.46,0,0,0,16.3,11c3.74,2.07,6.66,5.11,9.8,7.91A6.33,6.33,0,0,1,693.17,133.15Z"/><path class="cls-1" d="M1544.38,74.71l.26,0c0,.5-.09,1-.09,1.51,0,5.85,1.81,8,7.65,9.11,3,.56,6,1,8.69,2.51a32.57,32.57,0,0,0,13.18,4.31c3.45.3,3.92.11,4.27-3.43.2-2-.64-4,.13-6,2.32-5.88,2.17-12.59,6.33-17.89,1.6-2,1.07-4.07-1.07-5.13-4.31-2.15-8.72-4.15-13.22-5.87-4.71-1.81-10-1-14.73-3a2.25,2.25,0,0,0-2.33.6,6.44,6.44,0,0,1-3.22,1.23c-3.48.66-4.11,1.43-3.93,5.1a26.74,26.74,0,0,1-.59,6C1545.08,67.36,1544.81,71,1544.38,74.71Z"/><path class="cls-1" d="M765,111.05c0,10.9-1.06,13-10.76,15.42-8.74,2.18-16.86,6.62-26.09,7-1.14,0-2.32.65-3.46.24a52.61,52.61,0,0,0-13.78-2.74,3.13,3.13,0,0,1-3-3c-.25-5.21-2-10.39,1-15.62,1.6-2.8,1.61-6.48,3.84-9.17,2-2.44,4.07-4,7.77-3,3.06.82,6.51,1.62,9.78,0a1.73,1.73,0,0,1,1.41,0c6.81,4,13.54,2.25,20.25-.25a15.61,15.61,0,0,1,5.44-.89c5.23,0,6.49,1,7.16,6.26C764.85,107.5,764.9,109.69,765,111.05Z"/><path class="cls-1" d="M1856.8,154.93c-2.35-4.56-5.7-8.71-6.58-14-.49-3-1.29-6.32-4.5-7.43-5.1-1.76-9.53-3.65-15.84-3.4-11.38.45-13.39,13.23-14.65,16.1-2.07,4.72-1.32,7.61,2.46,11,4.95,4.49,11.33,7.12,15.82,12.2a2.28,2.28,0,0,0,1.3.73c3.58.41,6.13,3.1,8.11,5.3a22.94,22.94,0,0,0,9.29,6.32c3.69,1.42,5.72.65,6.51-3.3a63.4,63.4,0,0,0,1.17-9.47A27.09,27.09,0,0,0,1856.8,154.93Z"/><path class="cls-1" d="M374.52,358.64a5.11,5.11,0,0,1-1.15,3.52,41.5,41.5,0,0,1-3.23,3.83c-4.18,3.88-8.21,7.87-11.28,12.77-1.62,2.59-4.37,4.08-6.92,5.69s-5.18,2.39-7.23,4.51c-1.35,1.39-2.73.93-3.87-.44a15.49,15.49,0,0,0-1.88-2.35c-7.5-6-5.08-6-3.41-13.85.31-1.47,1.25-2.95.75-4.39-1.77-5,.07-9.88,1.75-14.19,2.73-7,6.64-13.49,10.32-20a4,4,0,0,1,5.26-1.74c1.53.68,3.33,1,4.61,2a46.52,46.52,0,0,1,16.1,23.5A6.56,6.56,0,0,1,374.52,358.64Z"/><path class="cls-1" d="M399.38,931.22c.26,5.85.69,10.18.25,14.57a8.62,8.62,0,0,1-5.17,7.48c-5.92,2.72-11.82,5.5-18.37,6.58-2.3.38-3.46-.15-4.38-2.11-1.92-4.08-3.87-8.15-6-12.14a3.44,3.44,0,0,1,0-3.77A69.14,69.14,0,0,0,371.29,930c2.52-6.37,7.58-10.61,13-14.35,3.92-2.71,11.72-.86,14.63,3.06.91,1.22.67,2.59.61,3.88A59,59,0,0,0,399.38,931.22Z"/><path class="cls-1" d="M1713.42,477.58c-7.23,3.32-11.83,2.45-14.61-2.94-2.51-4.88-5.55-9.58-10.16-13-2.28-1.67-.75-3.06.73-3.83a83.07,83.07,0,0,1,11.84-5.45,12.84,12.84,0,0,0,4.73-2.47c7.88-7,16.84-5.73,24.14-1.67,3.3,1.84,4.62,5.43,2.64,8.61C1727.18,465.75,1720.67,473.8,1713.42,477.58Z"/><path class="cls-1" d="M1214.89,1028.61a6.42,6.42,0,0,0-.48-4.43c-1.08-2-2.06-3.88-.64-6,1.59-2.41,3.45-4.39,6.45-5.3a40.85,40.85,0,0,1,10.39-1.47c5.5-.21,10.31-2.82,15.34-4.56,4.29-1.49,8.66-2.66,13-3.89,3.88-1.1,4.51-.39,5.64,3.37,1.35,4.46.18,7.55-3.48,10.54-4.3,3.51-9.33,5.31-14.21,7.46-3.86,1.7-7.13,4.4-11.06,6-1.88.76-2.76,2.89-3.9,4.54-3,4.34-7.14,5.7-12.19,3.92-3-1.05-5-4.72-4.92-9.12C1214.84,1029.28,1214.87,1028.95,1214.89,1028.61Z"/><path class="cls-1" d="M668,93.51c-.13-6.36,1.58-11.49,2.39-16.74a2.84,2.84,0,0,1,3.33-2.41c5.83.42,11.29-1.06,16.63-3.2,2.53-1,4.95-.41,7.29.68,3.19,1.49,6.36,3,9.57,4.5,5.52,2.53,7.29,5.87,5.66,11.47-1.51,5.2-3.34,10.08-9.41,12-3.66,1.18-5.24,5-7.46,7.94a12.1,12.1,0,0,1-11.33,5.11c-2.68-.22-5.19-1.11-6.4-3.41-1.7-3.23-4.48-5.44-6.9-7.89C668.75,98.89,667.74,96.09,668,93.51Z"/><path class="cls-1" d="M1786.27,914.66c-1.39-.15-2.57-.22-3.73-.42a2.35,2.35,0,0,1-2.18-2.86c.94-5.4.93-11,4-15.94a18.94,18.94,0,0,1,8.71-8,25.26,25.26,0,0,0,8.26-5.58,34.79,34.79,0,0,1,8.75-6.55c2.82-1.49,5.76-1.47,8.58-2.17,3-.76,6.4,4,5.51,7.36A11.2,11.2,0,0,1,1822,885c-6.37,7.22-10.94,15.66-16,23.72a10.26,10.26,0,0,1-7.91,4.74C1794.08,913.95,1790,913.79,1786.27,914.66Z"/><path class="cls-1" d="M234.77,826c5.88-.95,10.31,3.31,15.2,6.44a2.26,2.26,0,0,1,.91,2.68c-.72,2.56-1.74,5-1.3,7.83.18,1.14-1.1,2-1.86,2.89-2.71,3.21-5.43,6.41-8.14,9.62a14.26,14.26,0,0,1-4.84,3.54,5.67,5.67,0,0,1-6.16-.25c-2.79-1.87-5.59-3.72-9.25-3.39-1.44.13-2.4-.94-3.27-2.05a59.12,59.12,0,0,1-6.82-11.7c-2.11-4.51-.27-9.9,4.36-11.13C220.35,828.71,226.89,825.67,234.77,826Z"/><path class="cls-1" d="M231,873a8.06,8.06,0,0,1-1.74,5.61,7.78,7.78,0,0,0-1.44,3.69c-1.07,5.24-5,8.53-10.39,7.61-6.52-1.11-12.66.09-18.9,1.38-4,.82-4.85.72-6.22-3.09-2.45-6.84-5.21-13.68-3.8-21.32.64-3.46,2.47-5.48,5.21-7.45,5.24-3.77,11-2.35,16.18-1.31a56.07,56.07,0,0,1,16.33,6.32C229.83,866.47,231.12,868.54,231,873Z"/><path class="cls-1" d="M170.39,926.82c-.55-3.49.88-6.14,3.58-8.31,3.21-2.57,5.06-6.25,7.2-9.62,4.68-7.36,10.7-11.88,19.9-10.58,4.52-2.07,5.69,1.27,7.42,4.29a42.84,42.84,0,0,1,4.4,10.68,18.39,18.39,0,0,1-1.14,11.83,11.47,11.47,0,0,1-7.94,7.17,37.26,37.26,0,0,1-5.92,1.08c-3.24.31-6.33,1-8.83,3.18-3.16,2.82-7.17,2.75-11,3-2.45.19-4.39-1.47-5.69-3.6A13.1,13.1,0,0,1,170.39,926.82Z"/><path class="cls-1" d="M1605.16,166l-6.23,2c-4.54,1.42-9.05,2.45-13.37-.65a2.74,2.74,0,0,0-1.39-.58c-5.27-.15-6.1-4.5-7.65-8.11a3.39,3.39,0,0,1-.25-2.44c2.11-4.35,3.27-9.18,6.91-12.75,3.28-3.23,7.28-3.2,11.27-2.72a35.32,35.32,0,0,0,13-.45c2.63-.65,5.37-.23,8,0,4.93.51,8.55,7.06,6.13,11.44a95.86,95.86,0,0,1-7.22,10.83C1612.14,165.55,1608.38,165.23,1605.16,166Z"/><path class="cls-1" d="M650,88.91c-1.88-3.2-4.58-5.89-8.74-6-2-.07-4,.1-6.05.14-4.32.07-8.54,1.77-13,.49-1.9-.55-3.15.86-3.45,2.8s-4.5,7.54-4.6,7.72c-1.42,1.75-6.17,15.15-4.13,16.83a30.09,30.09,0,0,1,7.46,8.73c1.56,2.83,2.51,2.81,5.31,1.23a16.91,16.91,0,0,0,4.36-4.15c5.24-6.13,10.42-12.29,17.31-16.73a31.85,31.85,0,0,0,4.49-4A5.51,5.51,0,0,0,650,88.91Z"/><path class="cls-1" d="M82.43,358.52l-2.74-2.44c-6.53-5.83-6.57-6-2.65-14,1.3-2.64,2.9-3.34,5.67-2.29s5.68,2.86,7.06,5.44c3.55,6.66,9.65,9.9,15.91,13.07a29.21,29.21,0,0,1,7.21,4.52,24.21,24.21,0,0,1,1.84,1.7c1.87,2.19,2.22,5,.86,6.4s-4.5,1.7-6.57.45c-1-.6-1.77-1.55-2.74-2.2-1.52-1-3.27-2.44-5-1.94-5.66,1.66-9.61-1.57-13.76-4.28A21.67,21.67,0,0,1,82.43,358.52Z"/><path class="cls-1" d="M1813.37,867.41c-2.45,0-7.4-3.63-8-6a3.22,3.22,0,0,1,.91-3.21,29.74,29.74,0,0,1,2.64-2.32c3.37-2.69,4.74-5.72,2.87-10.1-1.69-4-.6-7.27,2.35-9.39,1.41-1,2.71-1.49,4.56-.4a53.2,53.2,0,0,0,11.82,5.26c6.75,2,8.12,8.95,3.1,13.88-4.09,4-8.93,7-13.57,10.33C1818,866.95,1815.69,867.13,1813.37,867.41Z"/><path class="cls-1" d="M1722.21,375.06c-5.69,2.41-9.08.83-10.23-5.2-.61-3.21-1.47-6.62.95-9.7,1.41-1.81.51-3.89.12-5.85-1.7-8.55-1.56-9,5-14.55,5.16-4.37,9.28-4,13.87,1.23,2.53,2.9,4.58,6.16,7.45,8.83,2.33,2.16,2.2,5.36,1.14,8.07s-2.36,5.52-4.89,7.51C1731.3,368.82,1727.54,373,1722.21,375.06Z"/><path class="cls-1" d="M508,882.57a10.75,10.75,0,0,1-3.17,8.23c-3.93,3.73-7.38,7.81-9.42,13a10.76,10.76,0,0,1-2.31,3.29c-3.47,3.63-5.93,3.26-8.64-.92-1.69-2.61-2.12-4.4,0-7.51,2.51-3.64,5-8,3.21-13.18-.77-2.3-.59-5-.48-7.5.19-4.21,3.22-6.56,7.44-6.05q2,.24,4,.4C504.38,872.73,508,876.77,508,882.57Z"/><path class="cls-1" d="M1794.07,843.39c2,.13,4,.36,6,.37,2.23,0,2.85,1.21,3,3.17a8.49,8.49,0,0,1-2.29,6,16.57,16.57,0,0,0-3.58,15.45c1.28,5.2-.93,7.39-6.35,7-3.17-.25-6.23-1.27-9.48-1.16-1.83.06-2.48-1.51-2.46-3.19a20,20,0,0,0-1.91-8.74c-1.15-2.53-.25-5.2,1.26-7.58,2.55-4,6.26-7,9.59-10.29C1789.57,842.63,1791.89,843.15,1794.07,843.39Z"/><path class="cls-1" d="M237.74,760c6.74-.35,9,2.29,7.27,8.09a56.26,56.26,0,0,1-4,10.25c-2.49,4.64-7,7-11.65,9.11-1.38.63-2.88,1-3.64,2.48-.9,1.8-1.63,3.92-3.84,4.38-3,.62-6,1-8.94-.13-4.08-1.49-4.64-2.45-3.5-6.71,2-7.68,6-14,12.93-18.25a49.6,49.6,0,0,0,8-6.14C232.63,760.92,235,759.51,237.74,760Z"/><path class="cls-1" d="M1658.67,406.26c1.5,4.5,3.57,5.53,8.62,3.49,4.19-1.7,8.17-3.84,12.83-4a5.81,5.81,0,0,0,2.34-.88c2.46-1.32,5-5.55,3.8-7.48-2.94-4.57-1.54-13.29-9.76-12.88-.26,0-5.92-.07-7.4,1.09-4.4,3.45-8.28,7.38-10.29,12.78A11.53,11.53,0,0,0,1658.67,406.26Z"/><path class="cls-1" d="M431.52,94a5.7,5.7,0,0,1-1.66,4.2,23.5,23.5,0,0,0-4.75,7.64c-1.71,3.91-2.72,4-5.74,1.27-1.88-1.72-3.62-3.43-4-6.15a5,5,0,0,0-3.77-4.29A7,7,0,0,1,408,94a39.29,39.29,0,0,0-9-8.69c-1.86-1.21-1.68-2.58-1.14-4.32a11.51,11.51,0,0,1,2.29-3.88c1.92-2.31,4.36-4.13,6.1-6.67,1.19-1.73,2.55-1.43,3.76.55,1.56,2.55,3.52,4.8,5.07,7.39,1.68,2.8,4,5.16,7.79,5.8,3.45.58,5.75,3.32,7.67,6.14A5.88,5.88,0,0,1,431.52,94Z"/><path class="cls-1" d="M1548.35,204.27c-1.06-5.21,0-9,3.14-10.74,3-1.61,4.29-1.73,7.3.52,4.15,3.11,7.58,7.09,12,9.9a49,49,0,0,1,5.19,4,6.43,6.43,0,0,1,2.08,7.69c-.23.63-.35,1.3-.58,1.92-2.91,7.6-3,7.63-10.62,5.21-3-.93-6.49-.17-8.81-3-.41-.5-1.36-.72-1.53-1.24-1.66-5-5.82-8.49-7.83-13.26C1548.54,204.92,1548.46,204.59,1548.35,204.27Z"/><path class="cls-1" d="M477.68,895.43a8.66,8.66,0,0,1-3.68,5.92,114.57,114.57,0,0,0-9.43,7.52,20.63,20.63,0,0,1-6.18,3.33c-.95.38-2.14.86-2.91.25-2.13-1.69-4.68-1.55-7.09-2.08-3.35-.74-4.83-3.67-2.46-5.82,6.16-5.6,10.57-13.11,18.5-16.81,2.39-1.11,4.36-1.26,6.53.36,1.6,1.19,3.47,2,5.16,3.09A3.39,3.39,0,0,1,477.68,895.43Z"/><path class="cls-1" d="M1642.24,172.71a55.33,55.33,0,0,0-9,3.26c-6.17,2.63-14.81-2.22-16.08-8.85-.13-.66-.45-1.34,0-1.91,3.55-4.61,6.55-9.73,13.61-9.81a58.33,58.33,0,0,1,13.86,1.93c4.77,1.1,5.78,3.93,4.75,8.66C1648.43,170.37,1646.39,172.92,1642.24,172.71Z"/><path class="cls-1" d="M1279.84,1003.57c-5,.33-5.93-3.25-7.63-5.74-.69-1-.66-2.57-.85-3.9a2.63,2.63,0,0,1,2.17-3.32c6.74-2,10.18-7.06,12-13.44,1.2-4.1,3.47-5.53,7.4-4.43,3.48,1,4.53,2.69,3.33,6.32-2.26,6.8-4,13.83-9.09,19.38a33.08,33.08,0,0,1-5.88,4.65A3.08,3.08,0,0,1,1279.84,1003.57Z"/><path class="cls-1" d="M1602,105.21c-4.53-.17-8.47-2.08-12.1-4.54-2.24-1.52-2.69-3.76-1.35-6.69a38.55,38.55,0,0,0,2.62-8.13c.62-2.91,2-4.16,5-4.47a37.72,37.72,0,0,1,14.42,1.52,4.54,4.54,0,0,1,3.44,4.45c.4,5.26-1.46,10-4,14.3C1608.36,104.29,1605.26,105.38,1602,105.21Z"/><path class="cls-1" d="M1583.39,117.71a6.62,6.62,0,0,1-.68,2.78c-4,5.51-6.86,12-13.15,15.51a10.56,10.56,0,0,1-4.24,1.45c-3.64.33-6.22-2.91-4.58-6.19a15,15,0,0,0,1.74-7.67,4.68,4.68,0,0,1,.85-3.34c3.46-4.07,7.58-7.44,12.66-9.05C1580.51,109.75,1583.4,112.35,1583.39,117.71Z"/><path class="cls-1" d="M1324.68,996.22c-2.28.08-4.19-1.54-6.37-2.34-1.88-.69-3.65-1.82-5.67-.33-1.1.81-2.27.4-3.32-.2a19.35,19.35,0,0,1-6-6,4.55,4.55,0,0,1-.05-4.81c.82-1.64,1.43-3.39,2.2-5.06,1.48-3.18,7.71-5,9.33-2.18,4,6.83,11,6.18,17,8.34.31.11.67.08,1,.16,3.55,1,3.65,1.83,1.77,5.28-1.44,2.64-3.61,4.34-5.85,6.08A6,6,0,0,1,1324.68,996.22Z"/><path class="cls-1" d="M1695.5,445.31c-6.72,2.41-6.56,2.37-8.37-4.44-1-3.89-.91-7.27,2-10.26.46-.48.92-1.28,1.45-1.34,4-.46,6.27-3.55,9.22-5.62,2-1.41,4.39-1.44,6.76-1.23a3.14,3.14,0,0,1,2.82,2.46,13.37,13.37,0,0,1-5.32,16.14A34.58,34.58,0,0,1,1695.5,445.31Z"/><path class="cls-1" d="M1877.1,144.75c-.53,3.49-1.2,6.9-3.14,10-2.9,4.61-6.69,5.6-10.56,1.89-3.25-3.12-6-6.85-6.34-11.69-.09-1.17-.17-2.35-.24-3.53-.35-5.22,1.42-7.37,6.72-7.22a16.58,16.58,0,0,1,11.77,5A6.16,6.16,0,0,1,1877.1,144.75Z"/><path class="cls-1" d="M201.45,815.51c-1-2.64.11-4,1.31-5.54,2.41-3,5.9-4.38,9.14-6.07,2-1.05,3.74-.05,4.34,2,1.38,4.85,2.49,9.78,2.14,14.87-.2,3-2.07,4.85-4.63,6.08s-5.19,1.25-7.87,1.23c-1.47,0-2.3-.82-3-2.2C201.07,822.4,200.2,818.84,201.45,815.51Z"/><path class="cls-1" d="M472.81,923.18a26.9,26.9,0,0,1-2,9.76c-1.41,3.4-4.3,4.5-7.31,5.62a2.8,2.8,0,0,1-1,.12c-1.62,0-7.49-5.44-8.26-7.49-.67-1.79.62-3.24.7-4.89.08-1.87,1.58-2.32,2.85-3.15,2.65-1.73,4.81-4.06,7.53-5.81,5.63-3.62,7.12-1.53,7.51,3.83C472.85,921.83,472.81,922.51,472.81,923.18Z"/><path class="cls-1" d="M375.32,316.19c0,6-1.89,8.37-6.52,8.65-.91.05-1.9,0-2.09-.91-1-5.06-5.1-8.63-6.29-13.63a29.38,29.38,0,0,1-.82-8c0-1.15-.07-2.28.84-3.3,3.06-3.45,5.16-3.54,8.82-.66,2.71,2.14,3.77,5,4.57,8.17A44.33,44.33,0,0,1,375.32,316.19Z"/><path class="cls-1" d="M59.31,327.85c1.32.93,3.54,2.71,6,4.18A11.36,11.36,0,0,1,70.82,340c.41,2,.73,3.61-1.46,4.62-2,.93-4.27,1.12-5.32-1-1.7-3.45-4.44-3.63-7.59-3.36s-5.87.34-7.77-3-.37-6.28,1-9C51.8,324.05,54.94,323.79,59.31,327.85Z"/><path class="cls-1" d="M762.08,88.64c-.1,4.59-3.06,7.06-9.25,8.47-2.62.6-6.11-1.29-7.42-3.95A8.15,8.15,0,0,1,745,89.7c-.06-1.51.07-3-.1-4.52-.65-5.54-.68-5.53,4.67-7.81,1.38-.59,2.69-1.39,4.1-1.89,2.71-1,5.34,0,6.08,2.65C760.75,81.82,761.07,85.7,762.08,88.64Z"/><path class="cls-1" d="M1802,836.33c-2.27-.38-4.26-.31-6.18-2-3.19-2.79-1.24-5.93-1.27-8.91,0-2.51,2.28-2.49,4-3.07a4.3,4.3,0,0,0,.94-.33c6-3.89,10.35-.07,14.84,3.12a2.19,2.19,0,0,1,.44,3.49A19.7,19.7,0,0,1,1802,836.33Z"/><path class="cls-1" d="M243.2,809.23c0,5-1.78,7.35-6.67,8.52-.48.12-1,.07-1.49.19-6.88,1.68-7.49,1.49-10-5.16-.7-1.87-3.47-3.36-1.75-5.83,2.65-3.82,2.14-9.51,7.73-11.71a10.17,10.17,0,0,1,7.68-.27,3,3,0,0,1,2.27,2.43C241.39,801.42,243.12,805.17,243.2,809.23Z"/><path class="cls-1" d="M1710.9,335c-.34-2.3-2.64-1.87-4.27-2.29a17.31,17.31,0,0,0-2.61-.56c-4.8-.48-7.43,1.32-8.56,5.79-.7,2.74-.78,5.61-2,8.24-.7,1.51-.05,2.7,1.68,2.85,2.66.23,5.34.41,8,.4C1708.73,349.48,1711.17,336.8,1710.9,335Z"/><path class="cls-1" d="M1611.74,187.84a17.21,17.21,0,0,1-3.17.15,33.87,33.87,0,0,0-8.93-.24c-2.46.29-3.18-.7-2.54-3.34.5-2.05-.27-3.46-1.17-5.12-1.67-3.08-.5-5.06,2.93-5.66,6-1,10.66,1.87,15.24,5,2.13,1.44,1.65,3.9,1.48,6C1615.4,186.92,1613,186.94,1611.74,187.84Z"/><path class="cls-1" d="M1709.46,79.52c5.12-.7,9.72-1.79,14,1.35,3.82,2.77,4,4.75.29,7.8-2.66,2.18-5.92,3.1-9,4.4-3.65,1.52-6.09-.42-8.32-2.83-1.53-1.65-1.51-6.31-.21-8.57A3.68,3.68,0,0,1,1709.46,79.52Z"/><path class="cls-1" d="M1693.72,940.22a13.93,13.93,0,0,0,8.3-.38c1-.34,2.31.22,3.41.58a4.38,4.38,0,0,1,3,4.21c.13,1.94-1.51,2.36-3,2.79-4.16,1.22-8.14,3-12.5,3.55s-6.82-.48-7.1-3.38S1688.21,939.53,1693.72,940.22Z"/><path class="cls-1" d="M355.3,308.85c0,4.88-2.17,7.74-6.28,8.78a2.63,2.63,0,0,1-3.36-1.31,14,14,0,0,1-2.22-7.12c-.08-3.52,1-7,.41-10.53a2.13,2.13,0,0,1,1.09-2.13c1.77-1.1,7.37.75,8.37,2.76C354.85,302.4,354.66,305.85,355.3,308.85Z"/><path class="cls-1" d="M209.64,764c1.76.19,2.84,1.16,2.73,2.93a4.73,4.73,0,0,1-1.62,3.58c-2.9,2.12-4.09,5.22-5.19,8.41a9.51,9.51,0,0,1-4.77,5.56c-1.51.8-3,1.15-4.11-.14s-3.2-2.9-2.11-5.2c1.48-3.1,2.23-6.62,5.82-8.47,2-1,3.64-2.93,5.34-4.54A8.18,8.18,0,0,1,209.64,764Z"/><path class="cls-1" d="M185.38,792.46c-1-2.63.08-3.65,2.8-3.64a16.24,16.24,0,0,0,4.44-.68,5.18,5.18,0,0,1,6.13,2.13c1.91,2.57,3.1,5.7,1.69,8.43s-4.81,3.93-7.73,5.15c-2.24.93-3.16-1.44-4.8-2-1.35-.47-1.53-1.78-1.65-2.88C186,796.8,185.11,794.73,185.38,792.46Z"/><path class="cls-1" d="M1691.27,83.21c3.21-1.2,5.29-.31,7.26.56s2.47,3,1.23,5.06c-2.26,3.75-7.53,5.61-12.25,4.32-1.13-.31-2.23-.69-3.36-1-2.79-.71-3.33-2.42-1.26-4.55C1685.43,85,1689,84.22,1691.27,83.21Z"/><path class="cls-1" d="M1830.28,803.43c-.89,3.29-1.47,6.64-3.91,9.2-4,4.19-11.33,2.89-13.21-2.39a3.12,3.12,0,0,1,1-3.21c3.2-3.46,7.18-6,10.93-8.75.85-.63,2.12-.84,2.71.13C1828.76,800,1831.07,801,1830.28,803.43Z"/><path class="cls-1" d="M1707,391.81a12,12,0,0,1,5.24-.69c5.65.21,6.49,1.15,5.87,6.62-.13,1.16-.33,2.32-.44,3.49-.48,5.21-.47,5.27-5.37,6-2.15.31-4.33.45-6.5.57-2,.11-3.09-.83-3.28-2.91-.33-3.58.51-7,1.45-10.36C1704.45,392.74,1706.18,392.64,1707,391.81Z"/><path class="cls-1" d="M1825.39,825.92a9.89,9.89,0,0,1,8.05-9.57,1.67,1.67,0,0,1,2.06,1.63c.33,2,.85,3.9,2.72,5.16a2.12,2.12,0,0,1,.75,2.25c-.5,2.79-5.94,7.44-8.78,7.45C1827.07,832.84,1825.4,830.45,1825.39,825.92Z"/><path class="cls-1" d="M1663.13,83.71a6.81,6.81,0,0,1,3.42-8,5.68,5.68,0,0,1,1.87-.66c2.93-.35,7.42,4.32,7.74,8,.27,3.14-2.71,6.55-6,6.85C1667.61,90.06,1664.08,87,1663.13,83.71Z"/><path class="cls-1" d="M1780.45,922.27c2.05,4.23-2.77,3.64-3.78,5.35-2.1,3.56-5.46,5.35-9.3,6.27-2.54.61-4.15-.54-5.66-3.08s.29-3.85,1.62-5.17c1-1,2.5-1.51,3.64-2.5C1770.84,919.79,1775.08,919.88,1780.45,922.27Z"/><path class="cls-1" d="M183.94,819c.61-3,1.07-6.1,2-9.11.52-1.79,4.38-1.73,6.08-.06,3.89,3.81,3.57,12.61-.58,16.14-1.51,1.29-3,1.37-4.39-.12A11.76,11.76,0,0,1,183.94,819Z"/><path class="cls-1" d="M439,123.06c0,1.29-3.74,5.27-6.45,5.85-2.36.51-4.56-1.2-5.69-4.44a8.13,8.13,0,0,0-.85-2.36c-2.41-3-.93-5.64.84-8.17a4.73,4.73,0,0,1,6.89-1.2C436.74,115,439.08,117.9,439,123.06Z"/><path class="cls-1" d="M1689,79.88a19.92,19.92,0,0,0-2.62.2c-1.85.31-3.53.74-4.73-1.46-1.11-2-1.72-4-.75-6.15,1.69-3.79,8.28-5.86,11.72-3.54,2.5,1.69,1.8,4.47,1.7,6.88C1694.25,78.49,1692.16,79.3,1689,79.88Z"/><path class="cls-1" d="M1564.89,168.12c3.25-.77,6.67.23,7.93,2,1.44,2,1.49,6.61,0,8.67s-4.14,1.91-6.16,3c-1.41.76-2.1-1.24-3-2.09a8.77,8.77,0,0,1-1.47-1.36c-1.18-1.71-4.05-2.74-3.18-5.26C1560,170.23,1562.8,169.06,1564.89,168.12Z"/><path class="cls-1" d="M127.34,390.72c-3.77-3.31-4.42-4.83-3.38-7.2,1.42-3.21,8.3-4.76,11-2.48a3.3,3.3,0,0,1,.37.34c.67.77,1.25,11,.6,11.79a2.54,2.54,0,0,1-3.56.64A28.19,28.19,0,0,1,127.34,390.72Z"/><path class="cls-1" d="M726.73,87a4.81,4.81,0,0,0,.24-.85c.9-8,.89-7.94,8.82-6.16,2.07.46,2.79,1.54,2.31,3.57-.42,1.78-.87,3.57-1.11,5.38-.28,2.1-.83,4-3.08,4.67-1.67.53-4.89-.93-6-2.78C727.19,89.71,726.42,88.55,726.73,87Z"/><path class="cls-1" d="M339.74,281.61c4,.21,7.81,3.36,7.72,6.32-.1,3.56-4.06,6.92-8,6.8-3.26-.11-5.95-3.88-5.79-8.14C333.8,283.38,336.18,281.42,339.74,281.61Z"/><path class="cls-1" d="M1739.32,166.1c.05,0,.79-.42,1.5-.84,1.11-.66,3-1,2.76-2.49-.27-1.71-2.14-1.8-3.63-1.85a11.14,11.14,0,0,0-3,.19,2.67,2.67,0,0,0-2,3.78C1735.67,166.51,1736.9,167.11,1739.32,166.1Z"/><path class="cls-1" d="M1875.54,127.07c-3.63.06-7.29-2-7.18-4,.16-2.89,3.17-7.37,5.07-7.54,2.78-.25,7.4,3.55,7.66,6.21C1881.27,123.67,1878.34,127.68,1875.54,127.07Z"/><path class="cls-1" d="M192.23,763.33c2.53-.09,3.06.92,2.53,3.41-1,4.63-4.83,7.33-7.13,11.06a3.76,3.76,0,0,1-2,1.33c-1.46.44-3.22-1.39-2.41-2.58,1.61-2.34,1.74-5,2.19-7.59C186.24,764.13,187.39,764.29,192.23,763.33Z"/><path class="cls-1" d="M1306,970.53c-1,0-2,0-3,0-1.32-.06-2.87.08-3.35-1.55s-.68-3.44.62-4.72,2.78-2.92,5-3.05a8.9,8.9,0,0,0,2.93-.5c1.79-.77,3.59-1.44,5,.43a6.71,6.71,0,0,1,.94,6.24,4.76,4.76,0,0,1-4.61,3.26c-1.16,0-2.33-.12-3.5-.19Z"/><path class="cls-1" d="M1741.25,939.78c.57,4.48-2.76,7.74-8.06,7.57a2.76,2.76,0,0,1-2.69-1.85c-.74-1.76.18-6.33,1.73-7.93,1.34-1.39,6.46-2.1,8.11-1.13S1741.16,938.8,1741.25,939.78Z"/><path class="cls-1" d="M1610.84,70.72c-.09,3.35-3.52,6-7.59,5.77-2.64-.12-3.88-1.69-3.83-4.83.07-3.69,2.21-6.74,4.61-6.57C1608.7,65.41,1610.93,67.26,1610.84,70.72Z"/><path class="cls-1" d="M1703.31,530.82a5.48,5.48,0,0,1,7.29,3.1c.57,1.47-2.11,7.16-3.64,7.71-2.19.79-5.05-1.7-6.82-5.92C1699.08,533.19,1699.65,532.31,1703.31,530.82Z"/><path class="cls-1" d="M727.64,66c.08-4.1,1-5.53,3.57-5.35,3.59.25,6.1,2.72,6.15,6.05a4.58,4.58,0,0,1-4.89,4.56C728.58,71.1,727.56,70,727.64,66Z"/><path class="cls-1" d="M1280.2,968.79a21.14,21.14,0,0,1-3.93,10,3.51,3.51,0,0,1-4.87,1.16,3.94,3.94,0,0,1-2-4.68c1-3.3,2.18-6.59,5-9a4,4,0,0,1,4.12-1C1280.09,965.81,1280.11,967.28,1280.2,968.79Z"/><path class="cls-1" d="M640.62,1025.15c-.06,1.46-1.18,3-2.06,4.58-.35.65-1.09.66-1.79.44-3.67-1.17-6.67-6.28-5.9-10,.36-1.74,1.16-3.41,2.85-3.83s3.24.55,4.45,1.86A12.15,12.15,0,0,1,640.62,1025.15Z"/><path class="cls-1" d="M1631.29,138.15c1.81,0,3.77,0,4.91,2.19.61,1.17,1.39,2.25,2.12,3.36s.41,2.16-.4,3.17-1.41,2-3.19,1.71c-4.14-.73-5.93-2.33-6.39-6.38C1628.08,139.89,1628.92,138.65,1631.29,138.15Z"/><path class="cls-1" d="M336.88,248.22c1.84.1,3,2.4,4,4.73.89,2.08,4.7,6.73,2.63,8.56-3,2.64-8.83-.48-10.06-4.35A19.53,19.53,0,0,0,331.9,254C330.48,251.31,332.6,248.1,336.88,248.22Z"/><path class="cls-1" d="M1589.58,182.14c.68,2.39-1.12,4.63-4.39,5.47-1.53.39-4.93-3.22-5.61-6-.62-2.53,0-3.71,2.1-4.2C1585.83,176.5,1588.43,178,1589.58,182.14Z"/><path class="cls-1" d="M1583.77,202.78c.67-1.74.06-3.75.17-5.74a1.73,1.73,0,0,1,2.08-1.7c3.06.45,5.91,1.38,7.57,4.31.64,1.12.82,2.44-.53,3-2.26,1-4.54,2.1-7.14,2A1.94,1.94,0,0,1,1583.77,202.78Z"/><path class="cls-1" d="M1702.53,387c-2.54,1.07-6.56-.23-7.3-2.36-.59-1.69,1.25-5.92,2.86-6.57,2.23-.9,6.36.75,7.4,3S1705.29,385.89,1702.53,387Z"/><path class="cls-1" d="M1695.14,420.25c-2.2.95-5.69-.21-6.57-2.19s1.34-6.41,3.4-7.22c1.84-.72,6.34,1.62,7,3.67S1697.89,419.07,1695.14,420.25Z"/><path class="cls-1" d="M509.69,866.63c0-.16.06-.33.08-.49.81-7.47,3.25-8.66,9.6-4.69a2.52,2.52,0,0,1,1.25,2c.41,3.8-4.37,8.69-8.22,8.38C510.81,871.71,509.49,869.18,509.69,866.63Z"/><path class="cls-1" d="M105.73,142.4c0,3.24-1.26,4.71-4.25,4.86-2.05.1-4.49-2.64-4.58-5.15-.11-3.47.82-4.94,3.19-5C103.72,137,105.69,138.83,105.73,142.4Z"/><path class="cls-1" d="M1847.63,838.09c-2.62-.06-5-1.9-5.47-4-.24-1.14,3.43-1.68,4-3.54.67-2,2.53-.79,3.92-.6,2.37.31,2.82,2.23,3.05,4.06.26,2-1.19,3-2.83,3.63A13.19,13.19,0,0,1,1847.63,838.09Z"/><path class="cls-1" d="M1651.84,156.17c-.58-1.49,1.5-5.08,3.17-5,2.44.1,5,.35,6.69,2.58,1.15,1.52.75,2.82-.72,3.78-1.86,1.22-6.81.77-8.51-.68A7.41,7.41,0,0,1,1651.84,156.17Z"/><path class="cls-1" d="M1701,566.33c1,2.4-.8,7-3,7.79-1.74.58-4.51-.93-5.26-2.86-1.19-3.08-.4-5.81,2-6.82C1697.38,563.3,1700.06,564.1,1701,566.33Z"/><path class="cls-1" d="M102.31,112.67c-.27,1.72-.51,3.54-.86,5.33a2.31,2.31,0,0,1-2,2c-1.65.25-3.83-1.79-4.75-4.46-.65-1.87-.68-3.65,1.26-4.82a8.23,8.23,0,0,1,4.86-.83C102.35,110,102.37,111.37,102.31,112.67Z"/><path class="cls-1" d="M543.13,964.3c0,.83-.14,1.67-.11,2.5.06,1.63-.74,2.37-2.3,2.68a2.87,2.87,0,0,1-3.31-1.56c-1.51-2.4-.82-4.93-.14-7.23.49-1.64,2.52-1.25,4-1.15a2.24,2.24,0,0,1,2.19,2.3A13.55,13.55,0,0,1,543.13,964.3Z"/><path class="cls-1" d="M581.13,939.19c-.07,2.84-1.41,5-3.08,5-2.21,0-3-1.7-3.85-3.45-1.2-2.55-.1-4.58,1.25-6.57.89-1.31,2.08-.7,3.16-.24C581.19,935,580.49,937.57,581.13,939.19Z"/><path class="cls-1" d="M142.88,378a5.61,5.61,0,0,1-.89-7.71c.86-1.15,5-.92,6.44.36,2.2,2,2.67,5.16,1,7.13C147.69,380,145.18,380.09,142.88,378Z"/><path class="cls-1" d="M202.28,754.87c0,1.69-2.54,3.58-4.83,3.56a3.28,3.28,0,0,1-3.51-2.91c-.27-1.77,3.66-5.11,5.6-5C200.74,750.59,202.31,753.1,202.28,754.87Z"/><path class="cls-1" d="M86.24,720.85a4.85,4.85,0,0,1-5.06,5c-1.52-.11-2.87-2.32-2.84-4.63,0-2.08,2.19-3.51,5.13-3.53C85.75,717.63,86.3,718.95,86.24,720.85Z"/><path class="cls-1" d="M86.84,113.28c-2.77.12-3.34-1.74-4-3.43s.21-2.46,1.69-2.92c1.08-.34,2-1.33,3.26-.94,1.65.52,3.11,1.36,3.32,3.29C91.19,110.43,87.87,113.21,86.84,113.28Z"/><path class="cls-1" d="M423.51,135.59a8.36,8.36,0,0,1-.76,8.09c-.65,1-1,2.24-2.39,2.29-1.63.06-2.23-1.27-2.85-2.46-1.16-2.23-.29-3.84,1.62-5.11C419,139,421.54,136,423.51,135.59Z"/><path class="cls-1" d="M126.87,367.37a1.64,1.64,0,0,1-.72-1.19c0-1.32,0-2.82,1.26-3.6s2.22.22,3.15.88a15.78,15.78,0,0,1,2.23,2c1.42,1.49,2.92,3.15,1,5.15S127.54,367.78,126.87,367.37Z"/><path class="cls-1" d="M1698.94,586.51c-1.55.73-2.49.74-3.36,0s-.55-1.48-.4-2.28c.51-2.79,2.19-4.35,4.58-4.36a2.64,2.64,0,0,1,2.45,1.37,2.14,2.14,0,0,1-.4,2.72C1700.77,585,1699.59,585.95,1698.94,586.51Z"/><path class="cls-1" d="M1696.83,360.47c1.81-1.33,2.9-.18,3.6,1.18,1,1.91-.41,4.73-2.56,5.65-1.32.56-2.54.82-3.34-.81A4.6,4.6,0,0,1,1696.83,360.47Z"/><path class="cls-1" d="M358.52,285.82c-.32,1.46-.93,2.81-2.48,2.7-2.06-.15-2.48-1.89-2.53-3.62,0-1.49.58-2.75,2.24-2.57C357.71,282.54,358.28,284.16,358.52,285.82Z"/></g></svg>