<svg id="Layer_1" data-name="Layer 1" xmlns="http://www.w3.org/2000/svg" viewBox="0 0 4128 4124"><defs><style>.cls-1{fill:#eacc4e;}.cls-2{fill:#fff;}</style></defs><title>face</title><path class="cls-1" d="M15.22,2094v-84c3.22-11,3.09-22.34,3.55-33.56,2-50.3,6.23-100.41,12-150.41a2016.8,2016.8,0,0,1,34.12-202.86c46.78-211.85,124.66-411.62,236.05-597.74Q643.51,453.11,1254.85,185c106.38-46.62,216.43-82.63,329.38-109.78a2048.06,2048.06,0,0,1,208.1-38.77c42.6-5.68,85.35-10.07,128.25-12.87,26.27-1.71,52.54-3.36,78.87-4.08,3.3-.09,6.7.21,9.76-1.52h136c1.5,3.29,4.57,2,7,2.17,27.6,1.66,55.21,3.16,82.78,5.36q85.23,6.82,169.51,21a2022.45,2022.45,0,0,1,308.87,76.86q367.18,123,664.17,371.43,434.8,365.31,622.84,901.66c65,186.39,102.39,378.35,109.19,575.94a36.2,36.2,0,0,0,1.66,9.6v168a54.53,54.53,0,0,0-1.67,11.72c-.15,11.66-.08,23.35-.85,35a2120.67,2120.67,0,0,1-27.12,227.13A2008.64,2008.64,0,0,1,3988,2771.59q-163.3,442.54-502.9,770-322.6,310.87-745.76,459.1a2023.4,2023.4,0,0,1-317.67,82.79c-11.92,2.11-23.82,4.81-35.88,5.43-1.45-4.31-.88-8-.88-11.62q0-703,0-1406c0-14.78-1.39-13,12.61-13q225-.06,450,0c2.67,0,5.35-.2,8,0,4.86.43,7-1.27,7.74-6.47,4.47-31,9.34-61.88,14.07-92.81q11.32-74,22.64-148.08,11.66-76,23.38-152,10.48-68.1,20.94-136.21c2.82-18.37,5.56-36.75,8.36-55.28-4.48-1.81-8.51-1.14-12.42-1.14q-270.5-.05-541,0c-3,0-6-.14-9,0-3.74.19-5.63-1.24-5.34-5.16.12-1.66,0-3.33,0-5q0-186,0-372c0-35.79,3.46-71.17,12.41-105.88,14.5-56.27,41.39-105.19,86.08-143.31,36.83-31.41,79.87-50.06,126.62-60.95,37.2-8.66,75-11.54,113.06-11.65,80.33-.23,160.67-.05,241-.09,14.69,0,12.81,1.33,12.81-12.76q.06-239,0-478c0-13.51,0-13.39-13.8-15.48q-70.11-10.63-140.57-18.68-69.49-8-139.23-12.9c-34.55-2.48-69.18-3.85-103.81-5.12-72.76-2.66-145.2-.51-217.28,10.42-64.13,9.73-126.51,25.89-186.62,50.38C2070.43,923,1981,987.23,1909.72,1076.06c-56.59,70.57-96.23,150-122.77,236.21-28.55,92.71-41.58,187.81-41.91,284.59-.52,152-.13,304-.18,456,0,15,2.06,13.45-13.11,13.45q-247,.05-494,0c-14.14,0-12.85-1.93-12.85,12.73q0,283.5,0,567c0,13.87-1.62,12.21,12.22,12.22q248,.06,496,0c12.91,0,11.75-1.16,11.75,11.9q0,704,0,1408c0,2.33,0,4.67,0,7,0,3-1.47,4.14-4.45,3.58-2.62-.48-5.29-.69-7.92-1.13-41.73-6.93-83.27-14.88-124.5-24.33-214.77-49.23-417-129.92-604.68-245.37Q417,3457.3,159.33,2818.31C97.29,2664,56.58,2503.91,34.8,2339c-8-60.49-13.6-121.17-16-182.14-.11-3,.25-6-1.31-8.8,1.07-2.92.28-5.87.1-8.81C16.7,2124.17,14.3,2109.17,15.22,2094Z"/><path class="cls-2" d="M2384.79,4088.93c0-468.66.07-948.86.09-1417.52,0-14.78-1.39-13,12.61-13q225-.06,450,0c2.67,0,5.35-.2,8,0,4.86.43,7-1.27,7.74-6.47,4.47-31,9.34-61.88,14.07-92.81q11.32-74,22.64-148.08,11.66-76,23.38-152,10.48-68.1,20.94-136.21c2.82-18.37,5.56-36.75,8.36-55.28-4.48-1.81-8.51-1.14-12.42-1.14q-270.5-.05-541,0c-3,0-6-.14-9,0-3.74.19-5.63-1.24-5.34-5.16.12-1.66,0-3.33,0-5q0-186,0-372c0-35.79,3.46-71.17,12.41-105.88,14.5-56.27,41.39-105.19,86.08-143.31,36.83-31.41,79.87-50.06,126.62-60.95,37.2-8.66,75-11.54,113.06-11.65,80.33-.23,160.67-.05,241-.09,14.69,0,12.81,1.33,12.81-12.76q.06-239,0-478c0-13.51,0-13.39-13.8-15.48q-70.11-10.63-140.57-18.68-69.49-8-139.23-12.9c-34.55-2.48-69.18-3.85-103.81-5.12-72.76-2.66-145.2-.51-217.28,10.42-64.13,9.73-126.51,25.89-186.62,50.38-105.14,42.84-194.61,107.05-265.85,195.89-56.59,70.57-96.23,150-122.77,236.21-28.55,92.71-41.58,187.81-41.91,284.59-.52,152-.13,304-.18,456,0,15,2.06,13.45-13.11,13.45q-247,.05-494,0c-14.14,0-12.85-1.93-12.85,12.73q0,283.5,0,567c0,13.87-1.62,12.21,12.22,12.22q248,.06,496,0c12.91,0,11.75-1.16,11.75,11.9q0,704,0,1408c0,2.33,0,4.67,0,7,0,1.82-1.76,3.56-2.78,3.63.22,0,1.84.07,1.84.07s334.51,35.58,632.11,2.15C2391.42,4089.44,2376,4091.17,2384.79,4088.93Z"/></svg>