<svg id="Layer_1" data-name="Layer 1" xmlns="http://www.w3.org/2000/svg" viewBox="0 0 111.82 113.77"><defs><style>.cls-1{fill:#efd978;opacity:0.11;}</style></defs><title>Artboard 1</title><path class="cls-1" d="M94.75,61.7a35,35,0,0,1-1.15,8.73,35.77,35.77,0,0,1-5.18,11.24,37.89,37.89,0,0,1-12,11.06,39.49,39.49,0,0,1-15.74,5.18q-82.45-23.23-8.33-80.5a31.13,31.13,0,0,1,6.54-.13A40.17,40.17,0,0,1,87,30.74,41,41,0,0,1,95.23,45.1c1.86,5.65,2.1,11.2,1.8,17.08,0,.69.94-1.45.79-1.14q.55-1.2,1.06-2.41a6.54,6.54,0,0,0,.47-1.29c-.37-6.28-1.27-12.14-4-17.89a42,42,0,0,0-70.61-8.63,42.08,42.08,0,0,0,7.7,60.57A41.72,41.72,0,0,0,90.54,82.7,42.89,42.89,0,0,0,96.6,71.19a51.84,51.84,0,0,0,2.47-13.07l-2.28,1.65C96.45,60,94.79,61.09,94.75,61.7Z"/><path class="cls-1" d="M93.93,60.38a40.74,40.74,0,0,1-3.31,14.54A36,36,0,0,1,86.32,82Q63.61,112.83,15.57,60.8l-.24-4.31a44.75,44.75,0,0,1,.91-8.78c2.59-13.13,12.66-24.22,25-29A40.4,40.4,0,0,1,91,36.26a44.61,44.61,0,0,1,3.38,7.64c1.91,5.54,2.06,11.23,1.75,17.06,0,.68.73-1.56.62-1.2a12.65,12.65,0,0,0,1-3.76,51.8,51.8,0,0,0-1.48-11.07,39.8,39.8,0,0,0-4.1-10.09A44,44,0,0,0,78.78,20.65a42.08,42.08,0,0,0-64.12,24,44.36,44.36,0,0,0,.29,23C18.6,80.79,29.6,91.53,42.46,95.69a42.38,42.38,0,0,0,38.6-6.43A41.16,41.16,0,0,0,93.84,73a53.31,53.31,0,0,0,3.85-17,.84.84,0,0,0-.51.37q-.78.85-1.52,1.74C95.26,58.51,94,59.64,93.93,60.38Z"/><path class="cls-1" d="M93.28,62.27A34.63,34.63,0,0,1,92.13,71a36.23,36.23,0,0,1-7.66,14.45,38.57,38.57,0,0,1-13,9.74,40.2,40.2,0,0,1-29.28,1.55,40.71,40.71,0,0,1-27.25-43q5.1-44.67,80.58,9c0,.77.76-1.92.65-1.5q.39-1.5.75-3a9.06,9.06,0,0,0,.3-1.58,56.27,56.27,0,0,0-1.46-8.91,45.81,45.81,0,0,0-3.18-8.09A41.42,41.42,0,0,0,80.34,25.34a41.87,41.87,0,0,0-62.4,14c-5.85,11.12-6.59,25.2-1.21,36.69a43.19,43.19,0,0,0,25.58,23A42.26,42.26,0,0,0,87.73,85.81a43.49,43.49,0,0,0,5.85-9.28,47.15,47.15,0,0,0,3-8.26,61.53,61.53,0,0,0,1.75-10.88,1.16,1.16,0,0,0-.64.4q-1,.93-2,1.9C95.29,60.08,93.33,61.51,93.28,62.27Z"/><path class="cls-1" d="M93.64,64.56a35.43,35.43,0,0,1-4.18,16.59,39,39,0,0,1-7.52,9.72,39.52,39.52,0,0,1-37.73,8.5A40.26,40.26,0,0,1,17.28,72.44a39.53,39.53,0,0,1-1.59-8.27L36.78,25.65a34.58,34.58,0,0,1,7.24-3q21.75-5.34,38.9,7.93l-4.27-2.91,7.14,5.81L81.84,30l6.54,6.7L85,32.6l5.65,7.51-2.83-4.63,5,8.75-1.33-3a37.69,37.69,0,0,1,4.65,17.25A31.79,31.79,0,0,1,96,65.08c0,.2,0,.24.16.07A8.89,8.89,0,0,0,97.29,63c.41-.89.83-1.77,1.2-2.67a2.72,2.72,0,0,0,.38-1.22A52.47,52.47,0,0,0,95.1,45.66a38.26,38.26,0,0,0-7.37-10.78,67.57,67.57,0,0,0-9.17-8,40.35,40.35,0,0,0-34.85-5,41.72,41.72,0,0,0-3.59,77.88,43.34,43.34,0,0,0,32.26.75A41.76,41.76,0,0,0,91.95,85a43.55,43.55,0,0,0,5.23-10.14l1.31-4.36a37.25,37.25,0,0,0,1.29-8.64c0-.09-3.21,1.22-3.14,1.19C96.42,63.12,93.68,64.06,93.64,64.56Z"/><path class="cls-1" d="M94.73,60.42c-.6,7.39-2.25,14-6.49,20.07L85.7,83.72l-63.86-48a40.39,40.39,0,0,1,5-6.66A41.14,41.14,0,0,1,56.73,15.88,40.36,40.36,0,0,1,87.09,29.57,40.92,40.92,0,0,1,95.28,44c1.82,5.67,2,11.23,1.67,17.11,0,.62.77-1.24.65-.94a9.29,9.29,0,0,0,1.08-3.07c-.09-4.6-.32-9-1.71-13.46a45.3,45.3,0,0,0-4.54-10.09,41.7,41.7,0,0,0-66.87-6.27C15.25,39,11.83,56.37,17.94,70.9A42.6,42.6,0,0,0,54.47,97.32a41.7,41.7,0,0,0,22.65-5.18A40.88,40.88,0,0,0,91.9,77.83C95.84,71.55,97.34,64.31,98,57c0,0-1.75,1.54-1.77,1.56C95.87,59,94.78,59.81,94.73,60.42Z"/><path class="cls-1" d="M93.51,59.23a35.8,35.8,0,0,1-1.23,8.87q-4.08,15.65-20.4,24l4-2-7.81,3.51L72.34,92l-8.25,2.76,4.51-1.29-8.64,2,4.7-.86-9,1.13,4.9-.42-9.26.25,5,.11L47,94.92l5.11.65-9.24-1.73,5.07,1.25-9-2.78,5,1.86-8.75-3.75L40,92.91l-8.28-4.76,4.59,3.12c-14.65-10.72-21-21-21.27-35.87a40.76,40.76,0,0,1,2.06-12.94c4.4-14,17.71-24.8,32.1-27.08a40,40,0,0,1,25.4,4.26c14.62,7.9,22.08,23,21.07,40.29-.05.86.25.17.38-.28a12.26,12.26,0,0,0,.65-3.33c0-5.85-.6-11.54-2.87-17a43.37,43.37,0,0,0-14.3-18.51,42.39,42.39,0,0,0-39.63-5.69A44.88,44.88,0,0,0,26,23.36,40.55,40.55,0,0,0,12.82,47.7c-1.39,10.76,1,22,7.65,30.77A43.07,43.07,0,0,0,36.41,91.64,46.2,46.2,0,0,0,47,95.22,43.77,43.77,0,0,0,64.16,95a41.81,41.81,0,0,0,15.57-7.11,40.18,40.18,0,0,0,8.48-8.53,38.6,38.6,0,0,0,5.67-11,57.73,57.73,0,0,0,2.31-12.89c0-.6-1,1-.87.81C94.85,57,93.57,58.36,93.51,59.23Z"/><path class="cls-1" d="M92.76,59a21.19,21.19,0,0,1-2.13,10.24Q87,86.31,67.33,92.43L59.5,94.06a43.66,43.66,0,0,1-28.13-6.81L36,89.77l-7.78-5.1,4.22,3.17-7.1-6.06,3.82,3.8-9-10.84,1.61,2.86-6-14.5a30.14,30.14,0,0,1-.78-6.36,21.32,21.32,0,0,1,0-4.37Q14.93,40,29,33.08,33.69,17.13,47.16,14.9l4.31-.61a41.9,41.9,0,0,1,11.11.55,39.55,39.55,0,0,1,17.5,7.84l3.13,2.74,9.17,13.43c2.94,6.38,3.32,14,2.86,20.83,0,.61.16.18.29,0,.36-.36.38-1.94.4-2.44a42,42,0,0,0-.21-8.63A44.09,44.09,0,0,0,93,38.47,41.87,41.87,0,0,0,71,15.65a45.13,45.13,0,0,0-23-3.17,40.6,40.6,0,0,0-13.39,4.11A41.07,41.07,0,0,0,20.17,28.45,42.06,42.06,0,0,0,11.92,50.8a38,38,0,0,0,3.67,18.86,42.85,42.85,0,0,0,12.1,15.15A50.8,50.8,0,0,0,38,91.54a40.36,40.36,0,0,0,31.39.94A41.26,41.26,0,0,0,85.5,80.77a37.43,37.43,0,0,0,5.3-8.12c2.55-5.29,3.52-10.94,3.92-16.77,0-.56-.81.89-.69.69A7.1,7.1,0,0,0,92.76,59Z"/><path class="cls-1" d="M94.17,62.1A35,35,0,0,1,93,70.86a35.79,35.79,0,0,1-7.64,14.48,38.49,38.49,0,0,1-13,9.77,40.15,40.15,0,0,1-43.66-7,41.56,41.56,0,0,1-5.49-6.2l-2.25-3.5L86.27,31.22a40.9,40.9,0,0,1,8.26,14.31c1.86,5.63,2.13,11.16,1.85,17,0,.2,0,.23.16.06a9.74,9.74,0,0,0,.93-2.28c.41-1.12,1.41-2.81,1.28-4-.64-6.1-1.85-11.91-4.73-17.4A42.28,42.28,0,0,0,16,70.37,42.3,42.3,0,0,0,88.51,86a42.92,42.92,0,0,0,6.06-9.27,46.05,46.05,0,0,0,3.14-8.25A59.09,59.09,0,0,0,99.5,57.62c0,.1-2.75,2.07-2.79,2.1C96.34,60,94.22,61.4,94.17,62.1Z"/><path class="cls-1" d="M93,60a47,47,0,0,1-1.15,8.77,36.7,36.7,0,0,1-3.07,7.87L22.19,79.77A30.88,30.88,0,0,1,19,74.44a40.29,40.29,0,0,1-3-7.77c-3.18-11.71-1-25,6.46-34.75A41.54,41.54,0,0,1,50.89,15.77a40.42,40.42,0,0,1,19.36,2.78,39.37,39.37,0,0,1,7.44,4q7.85,4.81,9.63,15.19,10,9.76,7.9,22.71c-.05,1,.26.15.38-.33a14.91,14.91,0,0,0,.6-3.75,49.2,49.2,0,0,0-1.67-12.49A42.23,42.23,0,0,0,66.91,15.7a41.79,41.79,0,0,0-25-.22A43.69,43.69,0,0,0,17.63,34.66,40.26,40.26,0,0,0,12,57.27,42.26,42.26,0,0,0,79.47,88.91,40.81,40.81,0,0,0,89.4,78.07a39.18,39.18,0,0,0,4.47-9.41,57.47,57.47,0,0,0,2.21-12.85c0-.63-1.08,1.1-1,.94q-.73,1-1.42,2.09A6,6,0,0,0,93,60Z"/><path class="cls-1" d="M93.31,58.85,93,63.25Q92,76.71,80.09,83a18.46,18.46,0,0,1-11,8.65q-22.77,8.21-45.69-13.5L27,81.86l-5.84-7.12L24.27,79l-5-7.91,2.42,4.71c-5-10.81-7.51-19.65-5.15-30.34A24,24,0,0,1,22,34a24.12,24.12,0,0,1,7.32-10.16l3.27-2.61a24.26,24.26,0,0,1,11.55-4.76,24.05,24.05,0,0,1,12.48-2.68,31.4,31.4,0,0,1,6.68.71A39,39,0,0,1,84,25.19C89.75,31,94.16,38.61,95.54,46.75a51.56,51.56,0,0,1,.35,12.89c0,.51.15.18.29.06.31-.26.44-1.64.45-2a46.19,46.19,0,0,0-2-17.26A42.82,42.82,0,0,0,53.5,11.46,41.78,41.78,0,0,0,23.72,24.57a44.76,44.76,0,0,0-5.67,7.71,38,38,0,0,0-4.2,11.38,37.14,37.14,0,0,0,.29,16.91,44,44,0,0,0,2.17,6.52,32.67,32.67,0,0,0,3,5.91l6,8.19A39.91,39.91,0,0,0,42.51,92.76,40.73,40.73,0,0,0,70,92.11a41.39,41.39,0,0,0,15.8-11.26A33.76,33.76,0,0,0,91,73c.61-1.29,1.21-2.72,1.71-4.06A44.43,44.43,0,0,0,95,56.36c0-.5-.73.67-.63.52A5.24,5.24,0,0,0,93.31,58.85Z"/><path class="cls-1" d="M93.63,63.53c-.3,4.42-.73,8.66-2.45,12.8A38.71,38.71,0,0,1,86,85.27c-9,11.68-25.27,17.36-39.41,13.94a41.94,41.94,0,0,1-18.54-9.85,38.45,38.45,0,0,1-7.68-9.82l-1.85-3.72q-11.37-31,16.83-51.08L31.81,26.9l7.25-4.05-3.87,1.9,7.71-3.42-4.12,1.56,8.16-2.67-4.38,1.21L51.1,19.5l-4.57.78,8.87-1-4.77.34,9.15-.17-4.88-.17,9.22.84-5-.7,9.13,1.78-4.95-1.28,8.9,2.81L67.3,20.84l8.64,3.76-4.72-2.47,8.2,4.74L74.91,23.8,88.55,36l-2-2.74c8.49,12.56,10,18.87,9.36,30.81,0,.22,0,.24.16.06a10,10,0,0,0,1-2.41c.36-1,.72-2,1.05-2.95a3.19,3.19,0,0,0,.31-1.33,47.84,47.84,0,0,0-4.49-15.2A43.32,43.32,0,0,0,78.26,25.28a43.92,43.92,0,0,0-18-6.08c-15.51-1.86-31.36,6-39.64,19.19a41.48,41.48,0,0,0-6.29,20.49C13.72,75,22.84,91,37.43,98.1A42.79,42.79,0,0,0,71.6,99.84,43.3,43.3,0,0,0,97.3,72.58a60.22,60.22,0,0,0,2.48-13.06s-3.18,1.86-3.17,1.85C96.29,61.57,93.68,62.9,93.63,63.53Z"/><path class="cls-1" d="M93.81,61.14A35.32,35.32,0,0,1,89.63,77.6l-2.14,3.54A37.56,37.56,0,0,1,79,90a38.06,38.06,0,0,1-10.89,5.71q-11.83,4.48-23.35-5.15-14.92,1-21.9-9.49C12.78,67.11,12.4,46.95,23,33.17A41.2,41.2,0,0,1,43,18.76c8.22-2.56,17.41-2.91,25.61,0A41.29,41.29,0,0,1,87.19,31.87a40.22,40.22,0,0,1,6.21,10.77c2.44,6.29,2.92,12.2,2.58,19,0,.76.79-1.81.67-1.41q.42-1.42.8-2.85a8.28,8.28,0,0,0,.33-1.51c-.5-6.07-1.53-11.72-4.21-17.25A42.31,42.31,0,1,0,32.18,92.39,42.31,42.31,0,0,0,90.38,81,45.28,45.28,0,0,0,96,69.39a56.2,56.2,0,0,0,2.34-13.15,1.06,1.06,0,0,0-.59.41q-.94.94-1.83,1.91C95.54,59,93.87,60.36,93.81,61.14Z"/></svg>