<svg
	 xmlns="http://www.w3.org/2000/svg" xmlns:xlink="http://www.w3.org/1999/xlink" x="0px" y="0px" viewBox="0 0 1110.1 1080"
	 style="enable-background:new 0 0 1110.1 1080;" xml:space="preserve">
<style type="text/css">
	.st0{fill:#EACC4E;}
	.st1{fill:#FFFFFF;}
</style>
<g id="g5891">
	<path id="background" class="st0" d="M1096.2,135c0-74.5-60.5-135-135-135h-810c-74.5,0-135,60.5-135,135v810
		c0,74.5,60.5,135,135,135h810c74.5,0,135-60.5,135-135V135z"/>
	<g id="shapes">
		<rect id="rect11" x="145" y="376.9" class="st1" width="180.9" height="544.1"/>
		<path id="path13-0" class="st1" d="M236.7,114.5c-61.9,0-102.3,40.7-102.3,94c0,52.2,39.2,94,99.9,94h1.2
			c63.1,0,102.3-41.8,102.3-94C336.6,155.2,298.5,114.5,236.7,114.5L236.7,114.5z"/>
		<path id="path15" class="st1" d="M769.9,364.1c-96,0-138.9,52.8-163,89.8v-77H426c2.4,51,0,544.1,0,544.1h180.9V617.1
			c0-16.3,1.2-32.5,6-44.2c13.1-32.5,42.8-66.1,92.8-66.1c65.4,0,91.6,49.9,91.6,123V921h180.9V609
			C978.1,441.8,888.9,364.1,769.9,364.1z"/>
	</g>
</g>
</svg>
