<svg id="Layer_1" data-name="Layer 1" xmlns="http://www.w3.org/2000/svg" viewBox="0 0 554 114"><defs><style>.cls-1{opacity:0.4;}.cls-2{isolation:isolate;}.cls-3{fill:#b3cadb;}</style></defs><title>piotr</title><g id="hamburger"><g class="cls-1"><g class="cls-2"><path class="cls-3" d="M8.66,60.81v39.94H5.15V6.2H34.7a40.43,40.43,0,0,1,13.25,2,26.29,26.29,0,0,1,9.55,5.58,23.09,23.09,0,0,1,5.78,8.7,31.52,31.52,0,0,1,1.95,11.33A31.22,31.22,0,0,1,63.3,45a22.05,22.05,0,0,1-5.75,8.51A25.94,25.94,0,0,1,48,58.93,42.58,42.58,0,0,1,34.7,60.81Zm0-3.51h26A36.25,36.25,0,0,0,47,55.45a23.16,23.16,0,0,0,8.41-5A19.34,19.34,0,0,0,60.19,43a26.63,26.63,0,0,0,1.53-9.06,28.65,28.65,0,0,0-1.53-9.42,20,20,0,0,0-4.81-7.7A23.16,23.16,0,0,0,47,11.62,35.15,35.15,0,0,0,34.7,9.7h-26Z"/><path class="cls-3" d="M82.23,8.53a3.56,3.56,0,0,1,1-2.57A3.39,3.39,0,0,1,85.81,4.9,3.5,3.5,0,0,1,88.37,6a3.5,3.5,0,0,1,1.07,2.57,3.4,3.4,0,0,1-1.07,2.53,3.56,3.56,0,0,1-2.57,1,3.55,3.55,0,0,1-3.57-3.57Zm5.33,92.22H84.05V30.48h3.51Z"/><path class="cls-3" d="M105.29,64.25a42.79,42.79,0,0,1,2.24-14.16A33.22,33.22,0,0,1,113.83,39a28.64,28.64,0,0,1,9.71-7.24A29.5,29.5,0,0,1,136,29.18a29.88,29.88,0,0,1,12.57,2.6A28.25,28.25,0,0,1,158.28,39a33.53,33.53,0,0,1,6.27,11.07,42.77,42.77,0,0,1,2.24,14.16V67a43.37,43.37,0,0,1-2.21,14.16,32.79,32.79,0,0,1-6.27,11.07,28.63,28.63,0,0,1-9.71,7.24,29.5,29.5,0,0,1-12.47,2.6,29.87,29.87,0,0,1-12.57-2.6,28.52,28.52,0,0,1-9.74-7.24,33.21,33.21,0,0,1-6.3-11.07A42.79,42.79,0,0,1,105.29,67ZM108.79,67a38.75,38.75,0,0,0,1.85,12A31.18,31.18,0,0,0,116,89.06,25.89,25.89,0,0,0,124.58,96a25.22,25.22,0,0,0,11.56,2.57A24.88,24.88,0,0,0,147.6,96a25.67,25.67,0,0,0,8.51-6.92A31.52,31.52,0,0,0,161.43,79a38.72,38.72,0,0,0,1.85-12V64.25a38,38,0,0,0-1.85-11.85,31.63,31.63,0,0,0-5.36-10.07,26.47,26.47,0,0,0-8.57-7,26.44,26.44,0,0,0-23,0,26.12,26.12,0,0,0-8.54,7,32,32,0,0,0-5.33,10.07,38,38,0,0,0-1.85,11.85Z"/><path class="cls-3" d="M191.66,11.52v19h16v3.57h-16V83.93a27.06,27.06,0,0,0,.84,7.47,11.15,11.15,0,0,0,2.31,4.45A7.26,7.26,0,0,0,198.19,98a14.58,14.58,0,0,0,4.06.55,34.82,34.82,0,0,0,3.57-.16q1.56-.16,3.38-.42l.58,3.31a8.16,8.16,0,0,1-1.69.39q-1,.13-2,.23t-2,.13l-1.62,0a20,20,0,0,1-6-.84,10,10,0,0,1-4.51-2.92,13.84,13.84,0,0,1-2.82-5.58,33.35,33.35,0,0,1-1-8.77V34.05h-13V30.48h13v-19Z"/><path class="cls-3" d="M256.86,33l-2.18-.26a21.06,21.06,0,0,0-2.37-.13,21.85,21.85,0,0,0-8.77,1.69A20.8,20.8,0,0,0,236.79,39a24.89,24.89,0,0,0-4.71,7,36,36,0,0,0-2.7,8.77v46h-3.51V30.48h3.51V45.1A25.87,25.87,0,0,1,238,33.47q5.71-4.29,14.35-4.29a18.65,18.65,0,0,1,2.86.19,10.49,10.49,0,0,1,2.08.52Z"/></g></g></g></svg>