<svg xmlns="http://www.w3.org/2000/svg" viewBox="0 0 1920 1080"><defs><style>.cls-1{fill:#cad8e0;}</style></defs><title>pod-kry</title><g id="plansza2_tlo" data-name="plansza2 tlo"><path class="cls-1" d="M1722.57,118.76a11.13,11.13,0,0,1-5.08,12.08c-2.33,1.42-4.06,3.48-6.27,5a7.22,7.22,0,0,0-2.62,3.62c-1.65,5.6-6.29,8.59-10.29,12.05-2.53,2.19-5.24,4.18-7.82,6.35a12.44,12.44,0,0,1-18.77-2.48,6.25,6.25,0,0,0-4.53-2.81c-6.14-.9-11.9-3.31-18.18-4-5.62-.6-9.69-5.09-13.71-8.9-1.07-1-1.26-2.73-1.44-4.24-.73-6.1-.44-12,2.22-17.75a43.23,43.23,0,0,0,2.84-7.54c1.65-6.48,6.24-9.85,12.19-11.54a96.81,96.81,0,0,1,12.8-2.52c4.8-.68,9.35,1,13.8,2.4a132.56,132.56,0,0,0,29.06,5.84c3.8.3,6.67,2.58,9.3,4.66C1719.12,111.41,1722.06,114.47,1722.57,118.76Zm-69.65-17.45c-3.44,1.69-7.8,2.18-9.49,6.61-1.61,4.23-3.47,8.36-5.1,12.58-4.23,11-2.15,17.88,6.92,23.46a17.45,17.45,0,0,0,7.64,2.39,87.4,87.4,0,0,1,14.32,2.9c3.43.91,7.9,1.42,8.46,6.52.1.9.94,1.3,1.78,1.58,4.17,1.37,8.15,1.83,11.82-1.46,3.25-2.91,6.61-5.72,10.08-8.38a19.55,19.55,0,0,0,6.65-8.7,15.08,15.08,0,0,1,5.59-7c1.5-1.09,3-2.17,4.42-3.36,4.7-3.92,5.19-8.22,1.87-13.29-4.09-6.25-10.37-8.57-17.21-9-8-.45-15.58-2.42-23.1-4.82C1669.34,98.79,1661.19,98.26,1652.92,101.31Z"/><path class="cls-1" d="M362.48,392.84c5.18-.75,8.2,3,10.38,6.89s4.91,5.87,9.11,5.92c9.49.11,18.06,3.32,26.48,7.32a19.34,19.34,0,0,1,10.92,13.58c.84,3.42,1.33,6.93,1.89,10.42.62,3.92-2.24,6.49-3.91,9.5-.51.91-1.5.41-2.22,0-7.69-5-16.26-5.87-25.12-5.51a11.32,11.32,0,0,1-3.46-.54A34.22,34.22,0,0,0,375.61,439c-3.57.15-6.82-.68-9.22-4-2.75-3.82-7.55-5.58-10.32-9.51-.75-1.06-2.06-1.06-3.19-1.31-10-2.24-11.61-10-10.86-17.07.24-2.3,2-3.89,3.51-5.38a79.28,79.28,0,0,1,7.6-6.59C355.74,393.19,358.9,392.7,362.48,392.84Zm14,43.28a39.39,39.39,0,0,1,5,.48,100.34,100.34,0,0,0,16.46,1.93c5.52.28,11.12.49,15.86,4,1.18.87,2.06.45,3-.64a6.35,6.35,0,0,0,1.06-7,13.1,13.1,0,0,1-.85-4.39c-.45-6.78-3.77-12.16-9.83-14.68-8-3.32-15.95-7-25-7.27-4.34-.14-8.63-1.46-10.68-6.24a14.36,14.36,0,0,0-2.73-3.59c-2.72-3.05-9.72-4.43-12.34-2.42-2.93,2.24-5.77,4.59-8.7,6.84a7.91,7.91,0,0,0-3.24,7c.17,6,2.66,9.28,8.46,11,1.59.46,3.62.23,4.6,1.72,2.66,4,7,6.24,10.08,9.81C369.87,435.23,372.6,437.09,376.46,436.12Z"/><path class="cls-1" d="M1774.65,520.23c-3.36.94-6.26,1.85-9.2,2.56-5.14,1.25-9.73,3.67-14.27,6.27a50.06,50.06,0,0,1-19.47,6.46c-3.4.38-5.75-.56-7.65-3.49-2.74-4.22-5.39-8.54-8.8-12.27a7.73,7.73,0,0,1-1.91-6.52,176.84,176.84,0,0,0,1.42-25.65c-.16-4.42,2.22-7.64,4.2-11.12,4.16-7.32,11-10.48,18.82-12.08a4.15,4.15,0,0,1,2.44.34A34.29,34.29,0,0,0,1749,467c5.24,1,11.23,6,11.48,12.43.19,4.88,3.1,7.71,7.84,8.47,5.11.83,8,3.39,8.78,8.78.7,4.8,2.21,9.49,3.5,14.19,1.14,4.17,1.11,4.5-2.53,7.09C1776.83,518.87,1775.53,519.65,1774.65,520.23Zm-2.79-2.46c.45-.22.9-.45,1.36-.65,4.26-1.86,4.56-2.69,4.19-7.13-.35-4.24-2.06-8.14-2.7-12.24-.69-4.42-2.95-6.42-7.09-7.15-5.8-1-9-4.65-10.11-10.38-1.28-6.7-4.69-9.87-11.42-10.6a12.68,12.68,0,0,1-4.88-1,7.76,7.76,0,0,0-6.81-.2,6.83,6.83,0,0,1-4.4.61,3.06,3.06,0,0,0-2.84.7c-5.43,4.57-9.93,10.06-10,17.32-.11,8.42-.31,16.79-1.23,25.15a7.39,7.39,0,0,0,1.76,6.11,72.73,72.73,0,0,1,8.33,11.34,5.3,5.3,0,0,0,5.52,2.7c4.87-.51,9.87-1,14.12-3.41C1754,524.21,1762,519,1771.86,517.77Z"/><path class="cls-1" d="M1666.73,168.51c.85-.1,2.18-.3,3.52-.4,10-.73,19.63-2.68,28.47-7.72,2.18-1.24,4.71-1.88,6.85-3.16,3.14-1.88,5.8-1.58,8.65.61A147.49,147.49,0,0,1,1727,168.23c1.44,1.39,1.95,2.71.95,4.39-3.93,6.6-6.12,14-10.18,20.63a24.69,24.69,0,0,1-13.12,10.92,46.91,46.91,0,0,0-11.51,6c-7.11,5.1-19.77,3.32-25.4-.44a7.51,7.51,0,0,1-2.37-2.57c-4.93-8.62-9.18-17.53-11.32-27.31-.46-2.1-.15-4,1.69-5.44C1658.93,171.94,1662.24,169.67,1666.73,168.51Zm-8.31,17.79c1.85,5.38,3.37,9.79,5.79,13.89,7.19,12.22,18.76,13.57,28.27,7.33a64.06,64.06,0,0,1,13-6.49c4.36-1.62,7.49-4.78,9.83-9,3.38-6,5.81-12.46,8.76-18.67a2.52,2.52,0,0,0-.74-3.51c-2.85-2.33-5.72-4.65-8.45-7.12-4.56-4.14-6.14-4.43-11.69-1.7-.75.37-1.45.85-2.18,1.26a68.23,68.23,0,0,1-31.62,9c-3.26.12-6.16,1.62-9,3a5.16,5.16,0,0,0-2.88,5.45C1657.89,182.29,1657.82,184.84,1658.43,186.3Z"/><path class="cls-1" d="M1737.5,96c6.79-1.26,13.93-3.53,21.44-1.88,5.06,1.12,9.44,3.18,12.49,7.75,3.54,5.3,3.39,10.89-1,15.58-3.68,4-7.65,7.81-8.19,13.54a26.09,26.09,0,0,1-2.1,7.18,17.12,17.12,0,0,1-4.88,6.94c-4.46,3.78-8.6,8-14.09,10.42a18.1,18.1,0,0,1-17.74-1.36c-2.67-1.68-3.39-3.59-2-6.32a19.28,19.28,0,0,0,1.87-6.72c.36-3.13,2.13-5.6,4-8,3.82-4.81,4.71-9.8,1.5-15.4-2.3-4-2.14-8.79-3.37-13.16-.68-2.44,3.18-6.31,6.69-7.21C1733.79,97,1735.51,96.94,1737.5,96Zm2.32,2.8c-1,.25-1.94.53-2.92.76-1.15.26-2.32.41-3.45.71-3,.82-5.51,3.39-4.81,5.49,1.26,3.84,1.28,8,3.14,11.66,3,5.82,2.52,11.31-1.44,16.51-2.67,3.5-5.14,7-4.13,11.87a6.34,6.34,0,0,1-.49,2.44c-1,4.2-.16,5.15,4.11,6,6,1.18,10.93-1.07,15.52-4.36,7.54-5.42,13.86-11.73,14.56-21.81.21-3,2.17-5.23,4-7.41,1.41-1.66,2.92-3.24,4.38-4.86,3.12-3.44,3.22-7.22,1.2-11.2-2.65-5.25-7.52-7-12.83-7.62A38.72,38.72,0,0,0,1739.82,98.79Z"/><path class="cls-1" d="M76.26,46.29c1.22-.32,2.72.48,3.43-.64,1.64-2.6,4.16-2,6.37-1.8,4.83.37,9.68.89,14.45,1.74a10.82,10.82,0,0,1,8,5.64c2.33,4.47,4.4,9.06,6.62,13.58.74,1.51.95,2.94-.55,4.06-3.6,2.7-5.63,6.72-8,10.29-4.56,6.87-10.8,12-17,17-3.58,2.91-8.12,4.6-11.54,8-1.55,1.52-3.75,1.15-5.69.16a26.05,26.05,0,0,0-14-3.25c-1.48.11-2.87-.32-3.37-1.68C53.1,94.46,50,90,52.66,84.1c2.18-4.87,4.14-9.82,6.46-14.65A47.42,47.42,0,0,0,63,55c.47-3.61,1.66-5.76,5.61-6.46C71.19,48.1,73.18,45.17,76.26,46.29ZM53.78,88.24a30.79,30.79,0,0,0,1.95,7.55,3,3,0,0,0,3.11,2.12c5-.37,9.54,1.65,14.12,3.19a4.48,4.48,0,0,0,4.64-.64c5.07-3.81,10.48-7.17,15.67-10.8,8.09-5.67,12.32-14,18.17-21.27a3.6,3.6,0,0,0,.49-4.24c-2.4-4.23-4.14-8.82-7.08-12.75a4.53,4.53,0,0,0-2.7-2.14c-4.64-.67-9.12-2.39-13.86-2.37-2.15,0-4.55-.13-6.29,1.38s-3.62,1.39-5.64,1.45c-7.72.26-10.42,2.57-12.29,10-.9,3.56-.95,7.38-3,10.62-2.87,4.61-4.31,9.83-6.33,14.8C54.33,86.2,54.06,87.34,53.78,88.24Z"/><path class="cls-1" d="M1688.74,441.19c-1.87-2.62-1.85-5.35-.44-8.42,1.88-4.1,3.43-8.36,5-12.6.91-2.46,2.15-4.55,4.63-5.68q4.8-2.17,9.62-4.32a4.65,4.65,0,0,1,5.52.94,12.9,12.9,0,0,0,10.09,3.69,17.2,17.2,0,0,1,5.95,1c6.25,1.76,8.83,5,9.22,11.57.26,4.35,0,8.73.57,13.07a6.32,6.32,0,0,1-1.07,4.34,39.94,39.94,0,0,1-11.39,11.89c-5.48,3.58-11.62,5.06-17.68,6.94-9,2.77-15.72-3.35-18.68-9.77a7.06,7.06,0,0,1-.26-4.45C1690.69,444.9,1690.64,444.89,1688.74,441.19ZM1702,414.68c-3.22,1.2-5.28,2.82-6.33,5.5q-2.57,6.56-5.08,13.15c-1,2.72-1,5.44,1.18,7.49s2,4,1.25,6.43c-.45,1.42-1.1,2.78-.76,4.39,1.07,5,8.35,10.31,13.4,9.19,6.48-1.44,12.8-3.16,18.7-6.7,4.19-2.51,6.89-6.11,10.19-9.31,1.12-1.08.88-2.48,1.1-3.77.62-3.53-.32-7-.4-10.53-.21-8.66-2-10.82-10.5-12.52-.65-.13-1.32-.18-2-.25-4.14-.47-8.42-.51-11.37-4.24a2.48,2.48,0,0,0-2.76-.74Z"/><path class="cls-1" d="M407.86,934.22a93.87,93.87,0,0,1,.81-14.89c.55-5,6-10.1,10.92-10.36a1.82,1.82,0,0,1,1,.08c4.29,2.78,10.07,3.09,13.11,8a15,15,0,0,0,4.91,5,16.57,16.57,0,0,1,8.28,13.08c.23,2.2,1.52,3.62,2.92,5.12,4.77,5.12,5.16,8.84.67,14.2a142.5,142.5,0,0,1-12.94,13.35c-3,2.71-3.7,2.39-6.92-.1-1.46-1.13-2.92-2.26-4.39-3.38-3.53-2.68-7.32-4.86-11.86-5.11-2.63-.15-4.33-1.62-4.53-3.89C409.2,948,406.19,940.9,407.86,934.22ZM420,912.31c-4.09-.07-7.71,2.64-8.26,6.26-1.79,11.88-2.13,23.72,1.59,35.38a3,3,0,0,0,2.8,2.43c5.62.24,9.6,3.65,13.7,6.85.66.52,1.35,1,2,1.53,1.87,1.52,3.58,1.37,5.38-.23a120.63,120.63,0,0,0,11.32-12.07c3.13-3.68,3-4.84.13-8.79-1.74-2.43-4.2-4.58-4.49-7.76-.48-5.36-3.61-8.92-7.65-11.85a16.21,16.21,0,0,1-4.89-4.94C428.93,914.45,423.58,914.28,420,912.31Z"/><path class="cls-1" d="M371.78,383.48c.52-8.82,2.39-11,11.19-12.54,1.81-.33,3.68-.31,5.51-.55,6.12-.8,9.43-4.08,10.7-10.15,1-4.58,1.69-9.21,3.62-13.55,1.28-2.86,2.41-3.57,5.27-2.46a4.05,4.05,0,0,1,1.33.71c3,2.78,6.53,4.68,9.79,7,3.52,2.55,3.72,3.77,1.61,7.58a3,3,0,0,1-.51.87c-3.73,3.13-5.16,7.69-7.54,11.69a39,39,0,0,0-5.64,18c-.17,2.78-3,6.23-5.83,6.76-5.09.95-10.22,1.69-15.35,2.41-3.22.45-5.41-1.17-7.13-3.76-1.9-2.87-2.67-6.51-6.19-8.29C371.35,386.57,371.63,384.83,371.78,383.48Zm13.79,12.63c4.93-.64,8.93-1,12.88-1.7,3.49-.59,5-2.42,5.79-5.92,1.43-6.38,2.91-12.68,6.29-18.49,2.19-3.76,4-7.72,6.76-11.14,1.9-2.33,1.73-3.13-.65-4.9-2.82-2.1-5.71-4.11-8.68-6-2.36-1.49-3.13-1.19-3.81,1.66a81.37,81.37,0,0,0-1.84,10.4,13.37,13.37,0,0,1-2.52,6.48A15.66,15.66,0,0,1,387,373.41a20.54,20.54,0,0,0-7.39,1.28c-3.74,1.59-6.44,8-4.07,10.49s3.5,5.26,5.14,7.93C382.12,395.45,383.88,396.43,385.57,396.11Z"/><path class="cls-1" d="M404.94,963.21c14.29.59,24.18,6.53,30,18.84a19.34,19.34,0,0,1,1.94,8.26c0,3.28-.83,6.39-4,8.16-5.77,3.25-10.5,7.79-15.15,12.37-3.37,3.32-7,4.36-11.4,2.77-1.42-.51-2.86-1-4.31-1.39a8.77,8.77,0,0,1-5.79-5.16c-3.35-7.18-5.28-14.79-7-22.46a7.91,7.91,0,0,0-.71-2.89c-.76-1.16-3-1.92-1.84-3.67,1.5-2.34,1.06-5.77,4-7.22a14.57,14.57,0,0,0,3.76-3.29C397.62,964.35,401.32,962.76,404.94,963.21Zm-14.34,14.52c.11,5,5.88,23.78,8.26,27.81,2.78,4.69,12.69,7.48,16.83,3s9.09-7.83,13.9-11.43c4.17-3.12,5.48-6.57,3.49-11.45-4-9.83-10.65-16.42-21.66-18.86-8.62-1.91-14.18,1.7-19.48,7.3A4.15,4.15,0,0,0,390.61,977.73Z"/><path class="cls-1" d="M693.17,137.15c-.61,5-1.67,9.48-5.81,12.64a15.81,15.81,0,0,0-2.94,3.43c-2.86,3.95-6.91,6.29-11.09,8.5a3,3,0,0,1-2.84-.19,16.82,16.82,0,0,0-13.23-.25c-1.72.66-3.52,1.13-5.3,1.66-8,2.39-13.41-2.2-16-8.53-.63-1.55-1-3-2.32-4.27a4.73,4.73,0,0,1,.52-7c3.68-2.52,5.68-6.16,7.39-10,2.87-6.51,6.33-12.51,11.66-17.43A20.22,20.22,0,0,1,659,112a5.45,5.45,0,0,1,6.1,1,94.46,94.46,0,0,0,16.3,11c3.74,2.07,6.66,5.11,9.8,7.91A6.33,6.33,0,0,1,693.17,137.15ZM690.49,139a6.83,6.83,0,0,0-2.12-6.16c-3.55-3.31-7-6.7-11.75-8.39-2.67-.95-4.89-2.89-7.07-4.75a50.7,50.7,0,0,0-5.32-3.77c-3-2-5.54-1.49-8.3.48-5.55,4-8.77,9.65-11.68,15.53-2.15,4.35-3.75,9-7.39,12.46-1,.92-1.95,2-1.19,3.52,1.54,3.16,2.61,6.59,4.88,9.35s5.21,4.7,9.25,3.42c2.24-.71,4.65-.88,6.85-1.66a24.1,24.1,0,0,1,13.37-.75,8.32,8.32,0,0,0,6.22-1.25c5.2-3,8.64-7.85,12.65-12.07C690.37,143.39,690.47,141.27,690.49,139Z"/><path class="cls-1" d="M1542.15,77.23c-.92-6.12,2.4-11.82,1.8-17.94-.33-3.36,5.4-7.66,9-7.14,5.7.83,11.37,1.95,17,3.09a21.7,21.7,0,0,1,7.39,3,14.16,14.16,0,0,0,5.58,2.09c5.84.87,7.92,6.23,4.15,10.72a15.51,15.51,0,0,0-3.21,6.68,25.16,25.16,0,0,1-1.75,5.78,12.53,12.53,0,0,0-1.14,8.76,6.84,6.84,0,0,1-.53,4.43c-1,2.16-3.24,3.52-5.35,2.63-5.06-2.13-10.78-2.07-15.59-5-2.77-1.7-6.13-1.66-9.25-2.27-4.72-.93-7.75-4-8-8.79C1542.05,81.27,1542.15,79.25,1542.15,77.23Zm2.23,1.47.26,0c0,.5-.09,1-.09,1.51,0,5.85,1.81,8,7.65,9.11,3,.56,6,1,8.69,2.51a32.57,32.57,0,0,0,13.18,4.31c3.45.3,3.92.11,4.27-3.43.2-2-.64-4,.13-6,2.32-5.88,2.17-12.59,6.33-17.89,1.6-2,1.07-4.07-1.07-5.13-4.31-2.15-8.72-4.15-13.22-5.87-4.71-1.81-10-1-14.73-3a2.25,2.25,0,0,0-2.33.6,6.44,6.44,0,0,1-3.22,1.23c-3.48.66-4.11,1.43-3.93,5.1a26.74,26.74,0,0,1-.59,6C1545.08,71.36,1544.81,75,1544.38,78.71Z"/><path class="cls-1" d="M765,115.05c0,10.9-1.06,13-10.76,15.42-8.74,2.18-16.86,6.62-26.09,7-1.14,0-2.32.65-3.46.24a52.61,52.61,0,0,0-13.78-2.74,3.13,3.13,0,0,1-3-3c-.25-5.21-2-10.39,1-15.62,1.6-2.8,1.61-6.48,3.84-9.17,2-2.44,4.07-4,7.77-3,3.06.82,6.51,1.62,9.78,0a1.73,1.73,0,0,1,1.41,0c6.81,4,13.54,2.25,20.25-.25a15.61,15.61,0,0,1,5.44-.89c5.23,0,6.49,1,7.16,6.26C764.85,111.5,764.9,113.69,765,115.05Zm-1.91,2c-.27-2.14-.44-4.29-.84-6.4-.7-3.69-2.05-4.71-5.69-4.74-2.25,0-4.23.95-6.3,1.58-6,1.85-11.85,2.56-18.19.46a39.73,39.73,0,0,0-12.65-2c-3.41,0-5.27,1.45-6.83,4.09-1.4,2.38-1.31,5.22-2.48,7.63-2,4.09-.93,8.22-.39,12.35.23,1.74,1.34,2.52,3.13,2.6,2.34.11,4.91-.14,7,.75,6.59,2.88,12.89,1,19.09-.82,5.45-1.58,10.62-4,16.21-5.28C761.82,125.65,763,123.79,763.08,117Z"/><path class="cls-1" d="M1822.05,141.26c-1.57,3-3.07,6-4.72,8.92s-1.69,5.22.84,7.71a28.1,28.1,0,0,0,5.7,4.83c2.74,1.57,5.58,3.1,7.78,5.53a7.53,7.53,0,0,0,3.26,2.31c5.12,1.38,8.54,5.17,12.32,8.42a20.66,20.66,0,0,0,5.43,3.59c2,.83,3.45.2,3.81-1.86,1.28-7.22,3.1-14.28-1.32-21.44-3.1-5-6.61-10.18-7-16.52a3.07,3.07,0,0,0-2.17-3.07c-3.67-1.13-7.11-3-11-3.45-2.86-.32-5.73-.55-7.68,2.45-1.08,1.66-3.09,1.88-4.93,2.2-.27-1.41-.19-2.75,1.22-3.51,2.07-1.11,3.95-2.54,6.22-3.32,6-2,10.74,1.64,15.84,3.4,3.21,1.11,4,4.47,4.5,7.43.88,5.33,4.24,9.49,6.58,14a27.09,27.09,0,0,1,3.1,14,63.38,63.38,0,0,1-1.17,9.47c-.79,3.95-2.82,4.72-6.51,3.3a22.94,22.94,0,0,1-9.29-6.32c-2-2.2-4.53-4.89-8.11-5.3a2.28,2.28,0,0,1-1.3-.73c-4.5-5.08-10.88-7.71-15.82-12.2-3.78-3.43-4.52-6.32-2.46-11C1816.76,146.65,1818.13,143,1822.05,141.26Z"/><path class="cls-1" d="M374.52,362.64a5.11,5.11,0,0,1-1.15,3.52,41.5,41.5,0,0,1-3.23,3.83c-4.18,3.88-8.21,7.87-11.28,12.77-1.62,2.59-4.37,4.08-6.92,5.69s-5.18,2.39-7.23,4.51c-1.35,1.39-2.73.93-3.87-.44a15.49,15.49,0,0,0-1.88-2.35c-7.5-6-5.08-6-3.41-13.85.31-1.47,1.25-2.95.75-4.39-1.77-5,.07-9.88,1.75-14.19,2.73-7,6.64-13.49,10.32-20a4,4,0,0,1,5.26-1.74c1.53.68,3.33,1,4.61,2a46.52,46.52,0,0,1,16.1,23.5A6.56,6.56,0,0,1,374.52,362.64ZM336.47,382a12.32,12.32,0,0,0,.12,1.67c.69,3.17,3.85,4.07,5.83,6,1.58,1.55,2.73-1.13,4.16-1.71.62-.25,1.19-.63,1.78-.94,4.14-2.16,8.32-4.28,9.64-9.35.24-.91,1.24-1.08,1.77-1.66,3.39-3.71,7.71-6.53,10.43-10.87,1-1.56,2.22-3.14,1.53-5.12-2.72-7.78-6.54-14.84-13.48-19.74-5.18-3.66-8.7-2.62-10.9,3.37a60.28,60.28,0,0,1-4.53,9c-2.39,4.21-4.79,8.78-4.3,13.72a29.94,29.94,0,0,1-1.35,12.37A31.93,31.93,0,0,0,336.47,382Z"/><path class="cls-1" d="M399.38,935.22c.26,5.85.69,10.18.25,14.57a8.62,8.62,0,0,1-5.17,7.48c-5.92,2.72-11.82,5.5-18.37,6.58-2.3.38-3.46-.15-4.38-2.11-1.92-4.08-3.87-8.15-6-12.14a3.44,3.44,0,0,1,0-3.77A69.14,69.14,0,0,0,371.29,934c2.52-6.37,7.58-10.61,13-14.35,3.92-2.71,11.72-.86,14.63,3.06.91,1.22.67,2.59.61,3.88A59,59,0,0,0,399.38,935.22ZM396.76,931c.1-.82.19-1.32.22-1.82.31-6.24-4-9.66-9.66-7.2-5.14,2.25-9.83,5.54-12.2,10.81-1.72,3.82-3.78,7.47-5.38,11.34-.59,1.43-1.21,2.86-.54,4.36a68.3,68.3,0,0,1,3.56,9.39A2.61,2.61,0,0,0,376.2,960c3.89-.92,7.88-1.29,11.66-2.87,8.15-3.4,9.81-5.62,9.6-14.37C397.36,938.73,397,934.72,396.76,931Z"/><path class="cls-1" d="M1780.42,475.58c-7.23,3.32-11.83,2.45-14.61-2.94-2.51-4.88-5.55-9.58-10.16-13-2.28-1.67-.75-3.06.73-3.83a83.07,83.07,0,0,1,11.84-5.45,12.84,12.84,0,0,0,4.73-2.47c7.88-7,16.84-5.73,24.14-1.67,3.3,1.84,4.62,5.43,2.64,8.61C1794.18,463.75,1787.67,471.8,1780.42,475.58ZM1759,457.4c4.08,4.74,7.7,9.32,10.36,14.58,1.14,2.25,3.15,2.94,5.54,2.44a15.53,15.53,0,0,0,6.29-3,63.21,63.21,0,0,0,14.41-15.19c2.43-3.59,2.41-5.73-1.35-7.74-5.24-2.8-10.69-4-16.25-.51a40.13,40.13,0,0,0-6.14,4.4,4.6,4.6,0,0,1-4,1.55C1764.36,453.39,1762,455.54,1759,457.4Z"/><path class="cls-1" d="M1214.89,1032.61a6.42,6.42,0,0,0-.48-4.43c-1.08-2-2.06-3.88-.64-6,1.59-2.41,3.45-4.39,6.45-5.3a40.85,40.85,0,0,1,10.39-1.47c5.5-.21,10.31-2.82,15.34-4.56,4.29-1.49,8.66-2.66,13-3.89,3.88-1.1,4.51-.39,5.64,3.37,1.35,4.46.18,7.55-3.48,10.54-4.3,3.51-9.33,5.31-14.21,7.46-3.86,1.7-7.13,4.4-11.06,6-1.88.76-2.76,2.89-3.9,4.54-3,4.34-7.14,5.7-12.19,3.92-3-1.05-5-4.72-4.92-9.12C1214.84,1033.28,1214.87,1032.95,1214.89,1032.61Zm1.57-4.16c-.12,2,.53,4.31.69,6.64.2,2.87,1,4.84,4.17,5.34s5.83,1.17,8.07-2c1.51-2.17,2.55-4.92,5.07-6.17,4.64-2.3,8.67-5.79,13.65-7.36,4.82-1.52,8.42-4.8,12.23-7.78a5,5,0,0,0,1-6.39c-1.17-2.11-3-.76-4.49-.73a9.23,9.23,0,0,0-1.9.64c-10.33,2.72-20,7.74-31.12,7.75C1218.43,1018.35,1216.23,1022.11,1216.46,1028.45Z"/><path class="cls-1" d="M668,97.51c-.13-6.36,1.58-11.49,2.39-16.74a2.84,2.84,0,0,1,3.33-2.41c5.83.42,11.29-1.06,16.63-3.2,2.53-1,4.95-.41,7.29.68,3.19,1.49,6.36,3,9.57,4.5,5.52,2.53,7.29,5.87,5.66,11.47-1.51,5.2-3.34,10.08-9.41,12-3.66,1.18-5.24,5-7.46,7.94a12.1,12.1,0,0,1-11.33,5.11c-2.68-.22-5.19-1.11-6.4-3.41-1.7-3.23-4.48-5.44-6.9-7.89C668.75,102.89,667.74,100.09,668,97.51ZM687.78,114c3.16.56,5.57-1.48,7.25-4.36a23,23,0,0,1,9.7-9.06c7.39-3.83,8.06-14.05,1.13-18-3.43-2-7-3.9-11.08-4.6-1.69-.29-3.34-.57-4.93.14-4.2,1.85-8.75,2.2-13.15,3.19-3.92.89-4.9,1.63-5.52,5.38-.49,2.94-.47,6-1.08,8.88a8.41,8.41,0,0,0,2.63,8.19,35.76,35.76,0,0,1,5,5.65C679.92,112.8,683.31,113.91,687.78,114Z"/><path class="cls-1" d="M1786.27,918.66c-1.39-.15-2.57-.22-3.73-.42a2.35,2.35,0,0,1-2.18-2.86c.94-5.4.93-11,4-15.94a18.94,18.94,0,0,1,8.71-8,25.26,25.26,0,0,0,8.26-5.58,34.79,34.79,0,0,1,8.75-6.55c2.82-1.49,5.76-1.47,8.58-2.17,3-.76,6.4,4,5.51,7.36A11.2,11.2,0,0,1,1822,889c-6.37,7.22-10.94,15.66-16,23.72a10.26,10.26,0,0,1-7.91,4.74C1794.08,917.95,1790,917.79,1786.27,918.66Zm-2.46-7.74c-.21,4.25.47,4.84,4.3,4.4,1.83-.21,3.72-.77,5.49-.52,7,1,11.08-3.1,14.11-8.36a122.81,122.81,0,0,1,11.19-16.57,16.11,16.11,0,0,0,1.92-2.93c.76-1.51,1.52-3.24.35-4.75a4.79,4.79,0,0,0-5-1.56c-3.65.78-7.2,2-10,4.53a53.47,53.47,0,0,1-13,8.51,14.94,14.94,0,0,0-7.26,8C1784.54,904.79,1783.53,908,1783.81,910.92Z"/><path class="cls-1" d="M234.77,830c5.88-.95,10.31,3.31,15.2,6.44a2.26,2.26,0,0,1,.91,2.68c-.72,2.56-1.74,5-1.3,7.83.18,1.14-1.1,2-1.86,2.89-2.71,3.21-5.43,6.41-8.14,9.62a14.26,14.26,0,0,1-4.84,3.54,5.67,5.67,0,0,1-6.16-.25c-2.79-1.87-5.59-3.72-9.25-3.39-1.44.13-2.4-.94-3.27-2.05a59.12,59.12,0,0,1-6.82-11.7c-2.11-4.51-.27-9.9,4.36-11.13C220.35,832.71,226.89,829.67,234.77,830Zm-10.14,24.4c.47,1.7.64,3.39,2.47,4.54,4.77,3,8.34,1.39,11.89-2.68,1.73-2,3.28-4.4,5.2-6.06,2.9-2.52,3.13-5.72,4-8.88a2.82,2.82,0,0,0-.86-3.18c-3.35-2.83-6.75-5.39-11.45-5.66-7.43-.43-14.08,2.86-21.12,4.25-3.78.74-4.74,3.88-3.19,7.62a26,26,0,0,0,4.78,8.2C220.07,856.57,219.91,856.72,224.63,854.42Z"/><path class="cls-1" d="M231,877a8.06,8.06,0,0,1-1.74,5.61,7.78,7.78,0,0,0-1.44,3.69c-1.07,5.24-5,8.53-10.39,7.61-6.52-1.11-12.66.09-18.9,1.38-4,.82-4.85.72-6.22-3.09-2.45-6.84-5.21-13.68-3.8-21.32.64-3.46,2.47-5.48,5.21-7.45,5.24-3.77,11-2.35,16.18-1.31a56.07,56.07,0,0,1,16.33,6.32C229.83,870.47,231.12,872.54,231,877Zm-40.8.18c-.21,4.12,1.14,8.42,3,12.61,1.08,2.49,2.68,3.31,5.56,2.87,6.42-1,12.82-2.26,19.44-1.54,4.28.46,6.21-1.23,7.1-5.35.51-2.34,1.66-4.38,2.45-6.58,1.37-3.8,1-5.42-2.45-7.66-6.54-4.31-14-6-21.56-7.56-4.13-.83-6.77,1.39-9.64,3C190.5,869,189.84,872.76,190.23,877.21Z"/><path class="cls-1" d="M170.39,930.82c-.55-3.49.88-6.14,3.58-8.31,3.21-2.57,5.06-6.25,7.2-9.62,4.68-7.36,10.7-11.88,19.9-10.58,4.52-2.07,5.69,1.27,7.42,4.29a42.84,42.84,0,0,1,4.4,10.68,18.39,18.39,0,0,1-1.14,11.83,11.47,11.47,0,0,1-7.94,7.17,37.26,37.26,0,0,1-5.92,1.08c-3.24.31-6.33,1-8.83,3.18-3.16,2.82-7.17,2.75-11,3-2.45.19-4.39-1.47-5.69-3.6A13.1,13.1,0,0,1,170.39,930.82Zm40.71-10.15c.36-4.24-2.19-8.85-5.28-13.37-2.21-3.23-5.34-4.09-8.72-3.58a19.63,19.63,0,0,0-13.44,8.89,87.07,87.07,0,0,1-8.13,10.87c-2.75,2.94-3.49,6.4-3.12,10.23.45,4.68,4.06,7.64,8.7,6.92a16.48,16.48,0,0,0,7.94-3c3.17-2.53,6.68-3.41,10.69-3.71C207.81,933.37,210.89,929.9,211.1,920.67Z"/><path class="cls-1" d="M1605.16,170l-6.23,2c-4.54,1.42-9.05,2.45-13.37-.65a2.74,2.74,0,0,0-1.39-.58c-5.27-.15-6.1-4.5-7.65-8.11a3.39,3.39,0,0,1-.25-2.44c2.11-4.35,3.27-9.18,6.91-12.75,3.28-3.23,7.28-3.2,11.27-2.72a35.32,35.32,0,0,0,13-.45c2.63-.65,5.37-.23,8,0,4.93.51,8.55,7.06,6.13,11.44a95.86,95.86,0,0,1-7.22,10.83C1612.14,169.55,1608.38,169.23,1605.16,170Zm-3.3-.84c7.57-.41,12.25-4.7,15.33-11.25.28-.6.79-1.09,1.13-1.66a6.44,6.44,0,0,0-5-10,29.32,29.32,0,0,0-6.5.5,46,46,0,0,1-10,.57c-11.88-.81-12.58-.28-16.5,11.15-.16.48-.4.93-.53,1.41a6.17,6.17,0,0,0,1.05,5.69,14.6,14.6,0,0,0,14.73,5.21Z"/><path class="cls-1" d="M612.79,104.47a8.65,8.65,0,0,1,1.69-4.67,20.07,20.07,0,0,0,4.35-9.5c.3-1.93,1.55-3.34,3.45-2.8,4.44,1.28,8.65-.42,13-.49,2,0,4-.2,6.05-.14,4.16.14,6.86,2.84,8.74,6a5.51,5.51,0,0,1-1,7,31.87,31.87,0,0,1-4.49,4c-6.89,4.44-12.08,10.6-17.31,16.73a16.92,16.92,0,0,1-4.36,4.15c-2.8,1.58-3.75,1.59-5.31-1.23a30.1,30.1,0,0,0-7.46-8.73c-2.85-2.35-2.86-3.13-1.14-6.44.92-1.77,1.78-3.62,4-4.13.14,1.13-.78,1.8-1.21,2.67-1.9,3.88-1.9,4.36,1.5,7.23a48.64,48.64,0,0,1,5.66,6.38c2,2.4,2.47,2.5,4.82.33a131.78,131.78,0,0,0,11.76-12.43c1.3-1.55,2.53-3.35,4.3-4.13,2.76-1.21,4.49-3.46,6.54-5.38,2.86-2.68,2.76-4.43,0-7.19A9.49,9.49,0,0,0,640,89a30.93,30.93,0,0,0-12,1.15c-1,.32-1.92,1.06-2.86.62-3.43-1.58-4.5.87-5.59,3.18A43.79,43.79,0,0,1,612.79,104.47Z"/><path class="cls-1" d="M82.43,362.52l-2.74-2.44c-6.53-5.83-6.57-6-2.65-14,1.3-2.64,2.9-3.34,5.67-2.29s5.68,2.86,7.06,5.44c3.55,6.66,9.65,9.9,15.91,13.07a29.21,29.21,0,0,1,7.21,4.52,24.21,24.21,0,0,1,1.84,1.7c1.87,2.19,2.22,5,.86,6.4s-4.5,1.7-6.57.45c-1-.6-1.77-1.55-2.74-2.2-1.52-1-3.27-2.44-5-1.94-5.66,1.66-9.61-1.57-13.76-4.28A21.67,21.67,0,0,1,82.43,362.52Zm3.74-13.62c-1.33-.91-2.42-1.7-3.56-2.41a2.08,2.08,0,0,0-2.75.21c-3.67,3.51-3.11,8.51,1.27,11.34a17.76,17.76,0,0,1,4.51,4.47,15.92,15.92,0,0,0,12.5,6.39c3.76.11,7.4.22,10.22,3.19a3.55,3.55,0,0,0,.8.61,3.1,3.1,0,0,0,4.14-.49c1-1.26-.26-2.67-1.37-3.28-3.07-1.69-5.52-4.24-8.87-5.63-6-2.5-11.92-5.37-14.87-11.87A12.08,12.08,0,0,0,86.17,348.9Z"/><path class="cls-1" d="M1813.37,871.41c-2.45,0-7.4-3.63-8-6a3.22,3.22,0,0,1,.91-3.21,29.74,29.74,0,0,1,2.64-2.32c3.37-2.69,4.74-5.72,2.87-10.1-1.69-4-.6-7.27,2.35-9.39,1.41-1,2.71-1.49,4.56-.4a53.2,53.2,0,0,0,11.82,5.26c6.75,2,8.12,8.95,3.1,13.88-4.09,4-8.93,7-13.57,10.33C1818,870.95,1815.69,871.13,1813.37,871.41Zm1.92-3a5.35,5.35,0,0,0,1.41-.26c6.27-2.95,12-6.72,16.3-12.21,1.57-2,1.18-4.08-.63-5.86a13.53,13.53,0,0,0-4.63-3c-2.95-1.14-5.88-2.32-8.82-3.48-1.18-.46-2.29-1.65-3.67-.54s-1,2.76-.68,4.21a14.75,14.75,0,0,0,1.07,2.81c1.51,3.47,1.31,4.91-1.35,7.48a34.94,34.94,0,0,0-4.35,4.87c-.64.9-1,1.82-.2,2.71C1811.25,866.79,1812.85,868.28,1815.29,868.43Z"/><path class="cls-1" d="M1789.21,373.06c-5.69,2.41-9.08.83-10.23-5.2-.61-3.21-1.47-6.62.95-9.7,1.41-1.81.51-3.89.12-5.85-1.7-8.55-1.56-9,5-14.55,5.16-4.37,9.28-4,13.87,1.23,2.53,2.9,4.58,6.16,7.45,8.83,2.33,2.16,2.2,5.36,1.14,8.07s-2.36,5.52-4.89,7.51C1798.3,366.82,1794.54,371,1789.21,373.06Zm-.37-2.1c1.63-1,3.47-2.16,5.35-3.26a36.47,36.47,0,0,0,8.84-7.36c2.39-2.69,3.88-6.1,1.75-9.25-2.6-3.86-5.15-7.9-8.85-10.91-3.39-2.76-5.52-3-8.69-1-4.08,2.54-6.3,6-5,9.48,1.88,4.87,1.29,9-1.33,13.39-1.72,2.86-.09,5.39,1.76,7.75C1784.41,372,1786.38,371.89,1788.84,371Z"/><path class="cls-1" d="M508,886.57a10.75,10.75,0,0,1-3.17,8.23c-3.93,3.73-7.38,7.81-9.42,13a10.76,10.76,0,0,1-2.31,3.29c-3.47,3.63-5.93,3.26-8.64-.92-1.69-2.61-2.12-4.4,0-7.51,2.51-3.64,5-8,3.21-13.18-.77-2.3-.59-5-.48-7.5.19-4.21,3.22-6.56,7.44-6.05q2,.24,4,.4C504.38,876.73,508,880.77,508,886.57Zm-10.89-7.24c-6.49-.14-9.39,2.72-7.52,8.27,1.71,5.06.53,9.14-1.73,13.41a10.88,10.88,0,0,0-1.63,5.24,3.41,3.41,0,0,0,1.95,3.28c1.25.59,2.29-.07,3.18-.9.73-.68,1.8-1.37,2-2.21,1.22-5.6,5.34-9.1,9.07-12.88,2.52-2.55,4.23-5.28,2.6-9S500.8,878.93,497.08,879.33Z"/><path class="cls-1" d="M1794.07,847.39c2,.13,4,.36,6,.37,2.23,0,2.85,1.21,3,3.17a8.49,8.49,0,0,1-2.29,6,16.57,16.57,0,0,0-3.58,15.45c1.28,5.2-.93,7.39-6.35,7-3.17-.25-6.23-1.27-9.48-1.16-1.83.06-2.48-1.51-2.46-3.19a20,20,0,0,0-1.91-8.74c-1.15-2.53-.25-5.2,1.26-7.58,2.55-4,6.26-7,9.59-10.29C1789.57,846.63,1791.89,847.15,1794.07,847.39Zm-4,28.36c4.35.3,5.06-.06,4.32-3.5-1.23-5.68.46-10.5,3.32-15.19,1.1-1.81,2.91-3.77,1.31-5.92-1.4-1.88-3.94-1.5-6.05-1.68a5.73,5.73,0,0,0-2.93.61c-4,2-6.85,5.3-9.23,9-1.86,2.88-1,5.77.33,8.59a4.19,4.19,0,0,1,.35,1.46c.46,7.14,1.94,6,7.58,6.58C1789.37,875.74,1789.7,875.74,1790,875.76Z"/><path class="cls-1" d="M237.74,764c6.74-.35,9,2.29,7.27,8.09a56.26,56.26,0,0,1-4,10.25c-2.49,4.64-7,7-11.65,9.11-1.38.63-2.88,1-3.64,2.48-.9,1.8-1.63,3.92-3.84,4.38-3,.62-6,1-8.94-.13-4.08-1.49-4.64-2.45-3.5-6.71,2-7.68,6-14,12.93-18.25a49.6,49.6,0,0,0,8-6.14C232.63,764.92,235,763.51,237.74,764Zm.16,2.08a12.23,12.23,0,0,0-6.07,2.46c-3.45,2.67-7,5.27-10.39,8-4.91,3.87-7.36,9.47-10.2,14.78a2.27,2.27,0,0,0,.14,2.81c2.75,3,9.89,2.74,12-.84,1.59-2.7,3.81-3.76,6.45-5.07,4.28-2.12,8.44-4.87,10.26-9.78.82-2.2,1.57-4.42,2.33-6.64C243.77,767.87,242.45,766.05,237.9,766.12Z"/><path class="cls-1" d="M1735.83,381.4c3.09-1.49,6.54-.86,9.84-1.28a3.16,3.16,0,0,1,3,1.59c2.06,3.06,4.3,6,6.08,9.25,2.94,5.28-.33,13.58-6.21,15.23-4.7,1.32-9.34,2.71-13.88,4.46-8,3.08-10.66-1.63-12.08-9.3-.78-4.19,1.64-7.94,4.18-11C1729.43,387.17,1731,382.64,1735.83,381.4Zm-10.16,22.86c1.5,4.5,3.57,5.53,8.62,3.49,4.19-1.7,8.17-3.84,12.83-4a5.81,5.81,0,0,0,2.34-.88c2.46-1.32,5-5.55,3.8-7.48-2.94-4.57-3-12.16-11.21-11.75-.26,0-.53-.38-.81-.56-1.85-1.23-3.67-.64-5.15.52-4.4,3.45-8.28,7.38-10.29,12.78A11.53,11.53,0,0,0,1725.67,404.26Z"/><path class="cls-1" d="M431.52,98a5.7,5.7,0,0,1-1.66,4.2,23.5,23.5,0,0,0-4.75,7.64c-1.71,3.91-2.72,4-5.74,1.27-1.88-1.72-3.62-3.43-4-6.15a5,5,0,0,0-3.77-4.29A7,7,0,0,1,408,98a39.29,39.29,0,0,0-9-8.69c-1.86-1.21-1.68-2.58-1.14-4.32a11.51,11.51,0,0,1,2.29-3.88c1.92-2.31,4.36-4.13,6.1-6.67,1.19-1.73,2.55-1.43,3.76.55,1.56,2.55,3.52,4.8,5.07,7.39,1.68,2.8,4,5.16,7.79,5.8,3.45.58,5.75,3.32,7.67,6.14A5.88,5.88,0,0,1,431.52,98Zm-2.21.17a5.51,5.51,0,0,0-1-3.12c-1.69-2.35-3.53-4.38-6.54-5.17a14.8,14.8,0,0,1-9.31-7.2c-4.41-7.72-6.13-6.17-11.12-.27a3.16,3.16,0,0,0-.28.42c-1.58,2.64-1.61,3.63,1.1,5.42,4.78,3.16,7.37,8.67,12.68,11.27,2,1,2.66,3.38,3.45,5.44a6.53,6.53,0,0,0,2.53,3.67c1,.56,1.9.85,2.44-.49a28.71,28.71,0,0,1,5.41-8.42A4.77,4.77,0,0,0,429.31,98.22Z"/><path class="cls-1" d="M1548.35,208.27c-1.06-5.21,0-9,3.14-10.74,3-1.61,4.29-1.73,7.3.52,4.15,3.11,7.58,7.09,12,9.9a49,49,0,0,1,5.19,4,6.43,6.43,0,0,1,2.08,7.69c-.23.63-.35,1.3-.58,1.92-2.91,7.6-3,7.63-10.62,5.21-3-.93-6.49-.17-8.81-3-.41-.5-1.36-.72-1.53-1.24-1.66-5-5.82-8.49-7.83-13.26C1548.54,208.92,1548.46,208.59,1548.35,208.27Zm2.57-1.56c1.19,3.9,4.15,6.29,5.41,9.55,2.2,5.69,7.3,7.37,12.14,9.5,1.24.54,2.78.73,3.76-.43,2.16-2.55,2.6-5.74,2.85-8.94.18-2.27-1.68-3.24-3.09-4.2a99,99,0,0,1-13.89-11.57c-3-2.92-6.57-1.58-7.24,2.55A17.51,17.51,0,0,0,1550.92,206.71Z"/><path class="cls-1" d="M477.68,899.43a8.66,8.66,0,0,1-3.68,5.92,114.57,114.57,0,0,0-9.43,7.52,20.63,20.63,0,0,1-6.18,3.33c-.95.38-2.14.86-2.91.25-2.13-1.69-4.68-1.55-7.09-2.08-3.35-.74-4.83-3.67-2.46-5.82,6.16-5.6,10.57-13.11,18.5-16.81,2.39-1.11,4.36-1.26,6.53.36,1.6,1.19,3.47,2,5.16,3.09A3.39,3.39,0,0,1,477.68,899.43ZM448,910.23c2.23,1.8,4.36.64,5.92,1.72,3.66,2.55,6.27.74,9.34-1.57,3.28-2.46,5.65-5.9,9.57-7.76,3.15-1.5,2.5-4.82-.81-6.48-.3-.15-.61-.27-.9-.44-4.48-2.61-5.15-2.49-9.14.36C456.55,899.92,453.18,905.67,448,910.23Z"/><path class="cls-1" d="M1642.24,176.71a55.33,55.33,0,0,0-9,3.26c-6.17,2.63-14.81-2.22-16.08-8.85-.13-.66-.45-1.34,0-1.91,3.55-4.61,6.55-9.73,13.61-9.81a58.33,58.33,0,0,1,13.86,1.93c4.77,1.1,5.78,3.93,4.75,8.66C1648.43,174.37,1646.39,176.92,1642.24,176.71ZM1631.56,178c4.36-1.16,7.46-3.32,11.1-4.17,2.73-.64,4.05-2.94,4.11-6,.05-2.84-2-3.84-4.09-4.35-3.89-1-7.79-1.91-11.91-1.63a11,11,0,0,0-7.81,4c-2.47,2.8-2.5,5.8-.36,8.75A8.49,8.49,0,0,0,1631.56,178Z"/><path class="cls-1" d="M1279.84,1007.57c-5,.33-5.93-3.25-7.63-5.74-.69-1-.66-2.57-.85-3.9a2.63,2.63,0,0,1,2.17-3.32c6.74-2,10.18-7.06,12-13.44,1.2-4.1,3.47-5.53,7.4-4.43,3.48,1,4.53,2.69,3.33,6.32-2.26,6.8-4,13.83-9.09,19.38a33.08,33.08,0,0,1-5.88,4.65A3.08,3.08,0,0,1,1279.84,1007.57Zm13.57-24.15c0-2.41-.74-3.56-2.26-3.67-1.74-.12-2.5.73-3.15,2.45-2.39,6.34-5.56,12.15-12.21,15.12-1.43.64-1.61,1.59-.89,3.25,2.23,5.16,4.36,5.75,8.54,1.9a23.74,23.74,0,0,0,2-2.26c3.85-4.59,5.06-10.51,7.8-15.65A2.83,2.83,0,0,0,1293.41,983.41Z"/><path class="cls-1" d="M1602,109.21c-4.53-.17-8.47-2.08-12.1-4.54-2.24-1.52-2.69-3.76-1.35-6.69a38.55,38.55,0,0,0,2.62-8.13c.62-2.91,2-4.16,5-4.47a37.72,37.72,0,0,1,14.42,1.52,4.54,4.54,0,0,1,3.44,4.45c.4,5.26-1.46,10-4,14.3C1608.36,108.29,1605.26,109.38,1602,109.21ZM1600.51,88c-5.51-.08-6.3.53-7.75,5.81-.44,1.61-1,3.19-1.58,4.78-.81,2.31-.23,4,2.19,4.77a37.47,37.47,0,0,1,5.53,2.34c2.55,1.34,7.6.26,8.8-1.9,1.86-3.33,3.79-6.69,3.88-10.74,0-2.07-.83-3.37-2.65-3.67C1606.13,88.89,1603.42,87.76,1600.51,88Z"/><path class="cls-1" d="M1583.39,121.71a6.62,6.62,0,0,1-.68,2.78c-4,5.51-6.86,12-13.15,15.51a10.56,10.56,0,0,1-4.24,1.45c-3.64.33-6.22-2.91-4.58-6.19a15,15,0,0,0,1.74-7.67,4.68,4.68,0,0,1,.85-3.34c3.46-4.07,7.58-7.44,12.66-9.05C1580.51,113.75,1583.4,116.35,1583.39,121.71Zm-19.89,16.6c7.24-2.27,14.11-8.7,16.25-14.71a10.52,10.52,0,0,0,.45-1.43c.58-2.89-1.32-4.7-4-3.59a31.93,31.93,0,0,0-9.24,5.92,3.4,3.4,0,0,0-1.19,2.14C1565.8,130.48,1564,134,1563.5,138.31Z"/><path class="cls-1" d="M1324.68,1000.22c-2.28.08-4.19-1.54-6.37-2.34-1.88-.69-3.65-1.82-5.67-.33-1.1.81-2.27.4-3.32-.2a19.35,19.35,0,0,1-6-6,4.55,4.55,0,0,1-.05-4.81c.82-1.64,1.43-3.39,2.2-5.06,1.48-3.18,7.71-5,9.33-2.18,4,6.83,11,6.18,17,8.34.31.11.67.08,1,.16,3.55,1,3.65,1.83,1.77,5.28-1.44,2.64-3.61,4.34-5.85,6.08A6,6,0,0,1,1324.68,1000.22Zm0-2.77c2,.13,4-1.19,5.59-2.91,2.75-2.94,2.37-4-1.31-5.64a14.54,14.54,0,0,0-4.84-1.25c-3.71-.29-6.74-1.16-8.75-4.8-1.07-1.94-3.43-2.64-5.78-1.64-2.18.93-5.08,4.9-4.91,6.63.3,3,5.92,7.23,8.76,6.24a5.1,5.1,0,0,1,4.72.64C1320,995.85,1321.87,997.1,1324.71,997.45Z"/><path class="cls-1" d="M1762.5,443.31c-6.72,2.41-6.56,2.37-8.37-4.44-1-3.89-.91-7.27,2-10.26.46-.48.92-1.28,1.45-1.34,4-.46,6.27-3.55,9.22-5.62,2-1.41,4.39-1.44,6.76-1.23a3.14,3.14,0,0,1,2.82,2.46,13.37,13.37,0,0,1-5.32,16.14A34.58,34.58,0,0,1,1762.5,443.31Zm3.09-4.42c5.16-.87,7.25-5,9.55-8.92,1.11-1.88.12-3.62-.86-5.17-1.15-1.82-2.87-1.21-4.51-.74a31.5,31.5,0,0,0-9.47,4.52c-4.19,3-5.06,6.14-3,10.88.82,1.91,2.07,2.86,3.81,1.31C1762.44,439.55,1764,439.31,1765.59,438.89Z"/><path class="cls-1" d="M1877.1,148.75c-.53,3.49-1.2,6.9-3.14,10-2.9,4.61-6.69,5.6-10.56,1.89-3.25-3.12-6-6.85-6.34-11.69-.09-1.17-.17-2.35-.24-3.53-.35-5.22,1.42-7.37,6.72-7.22a16.58,16.58,0,0,1,11.77,5A6.16,6.16,0,0,1,1877.1,148.75Zm-2.51-.34A5,5,0,0,0,1872,143a17.42,17.42,0,0,0-7.62-2.27c-4.24-.32-5.89,2-5.14,6.32A26.9,26.9,0,0,0,1860,151c1.14,3.43,3,6.39,6.47,7.84,2.58,1.07,4.12.56,5.42-1.81A19.58,19.58,0,0,0,1874.59,148.41Z"/><path class="cls-1" d="M201.45,819.51c-1-2.64.11-4,1.31-5.54,2.41-3,5.9-4.38,9.14-6.07,2-1.05,3.74-.05,4.34,2,1.38,4.85,2.49,9.78,2.14,14.87-.2,3-2.07,4.85-4.63,6.08s-5.19,1.25-7.87,1.23c-1.47,0-2.3-.82-3-2.2C201.07,826.4,200.2,822.84,201.45,819.51Zm14.68,1.86c.06-3-.75-5.76-1.25-8.57-.32-1.79-1.29-2.58-3.25-1.86-7.19,2.65-10.07,9.1-7.2,16.2.46,1.13.81,2.31,2.34,2.16C211.74,828.84,216.62,827.41,216.13,821.37Z"/><path class="cls-1" d="M472.81,927.18a26.9,26.9,0,0,1-2,9.76c-1.41,3.4-4.3,4.5-7.31,5.62a2.8,2.8,0,0,1-1,.12c-1.62,0-7.49-5.44-8.26-7.49-.67-1.79.62-3.24.7-4.89.08-1.87,1.58-2.32,2.85-3.15,2.65-1.73,4.81-4.06,7.53-5.81,5.63-3.62,7.12-1.53,7.51,3.83C472.85,925.83,472.81,926.51,472.81,927.18Zm-2.28.73c0-.55,0-1.06-.11-1.56-.41-2.93-1-3.16-3.92-1.88a21,21,0,0,0-6.24,4.18c-4.89,4.71-4.84,5.66.57,9.93a3.11,3.11,0,0,0,4,.31C469.36,936.45,470.21,932.34,470.53,927.91Z"/><path class="cls-1" d="M375.32,320.19c0,6-1.89,8.37-6.52,8.65-.91.05-1.9,0-2.09-.91-1-5.06-5.1-8.63-6.29-13.63a29.38,29.38,0,0,1-.82-8c0-1.15-.07-2.28.84-3.3,3.06-3.45,5.16-3.54,8.82-.66,2.71,2.14,3.77,5,4.57,8.17A44.33,44.33,0,0,1,375.32,320.19ZM361.78,311A27.27,27.27,0,0,0,366,322.64c.78,1.24.84,3,3,2.5a3.58,3.58,0,0,0,3-3.45,29.15,29.15,0,0,0-1.14-12.86c-1.22-3.61-3.71-5.67-5.93-5.12S361.69,306.76,361.78,311Z"/><path class="cls-1" d="M59.31,331.85c1.32.93,3.54,2.71,6,4.18A11.36,11.36,0,0,1,70.82,344c.41,2,.73,3.61-1.46,4.62-2,.93-4.27,1.12-5.32-1-1.7-3.45-4.44-3.63-7.59-3.36s-5.87.34-7.77-3-.37-6.28,1-9C51.8,328.05,54.94,327.79,59.31,331.85ZM52.76,333c-2,2.15-2.75,5.3-1.83,7.06,1.34,2.53,3.5,2,5.7,1.55,2.61-.5,4.94.51,7.18,1.68,1,.54,1.87,1.44,2.92,1.92,1.27.58,2.2-.36,1.75-1.4-.89-2.07-1.35-4.46-3.69-5.73a42.2,42.2,0,0,1-8.36-5.49C54.91,331.25,53.71,331.77,52.76,333Z"/><path class="cls-1" d="M762.08,92.64c-.1,4.59-3.06,7.06-9.25,8.47-2.62.6-6.11-1.29-7.42-3.95A8.15,8.15,0,0,1,745,93.7c-.06-1.51.07-3-.1-4.52-.65-5.54-.68-5.53,4.67-7.81,1.38-.59,2.69-1.39,4.1-1.89,2.71-1,5.34,0,6.08,2.65C760.75,85.82,761.07,89.7,762.08,92.64Zm-2.45.19c-.65-3.09-1.15-6.22-2-9.25a2.31,2.31,0,0,0-3.58-1.51c-1.9,1.08-3.92,1.83-5.88,2.73a2.58,2.58,0,0,0-1.63,2.35c0,3,0,6,1.75,8.68,1.89,2.79,3.43,3,6.49,1.24a28.58,28.58,0,0,1,3.17-1.45A2.66,2.66,0,0,0,759.63,92.83Z"/><path class="cls-1" d="M1802,840.33c-2.27-.38-4.26-.31-6.18-2-3.19-2.79-1.24-5.93-1.27-8.91,0-2.51,2.28-2.49,4-3.07a4.3,4.3,0,0,0,.94-.33c6-3.89,10.35-.07,14.84,3.12a2.19,2.19,0,0,1,.44,3.49A19.7,19.7,0,0,1,1802,840.33Zm1.42-12.92c-.7.12-1.38.18-2,.34-2.94.7-4.28,2.56-4,5.47.27,2.65,1.71,3.87,4.89,3.93a11.43,11.43,0,0,0,3.48-.41c2.58-.78,6-4.2,5.37-5.39-1.18-2.2-3.42-3.06-5.8-3.5C1804.69,827.74,1804,827.56,1803.42,827.41Z"/><path class="cls-1" d="M243.2,813.23c0,5-1.78,7.35-6.67,8.52-.48.12-1,.07-1.49.19-6.88,1.68-7.49,1.49-10-5.16-.7-1.87-3.47-3.36-1.75-5.83,2.65-3.82,2.14-9.51,7.73-11.71a10.17,10.17,0,0,1,7.68-.27,3,3,0,0,1,2.27,2.43C241.39,805.42,243.12,809.17,243.2,813.23Zm-1.93-.93c-.09-.67-.19-1.67-.35-2.67-.32-2-.62-4-1-6a3.45,3.45,0,0,0-2.3-2.46,7,7,0,0,0-8.52,2.33A16.45,16.45,0,0,0,226,813c-.25,5.31,3.38,7.88,8.34,6.37.64-.19,1.29-.32,1.94-.48C240.19,817.93,241.33,816.52,241.27,812.3Z"/><path class="cls-1" d="M1775.27,339.11a26.07,26.07,0,0,1-.24,4,5.35,5.35,0,0,1-4.88,4.35c-2.67,0-5.35-.17-8-.4-1.73-.15-2.39-1.34-1.68-2.85,1.23-2.64,1.31-5.51,2-8.24,1.09-4.28,3.55-6.12,8-5.84a11.66,11.66,0,0,1,3,.54c1.64.55,4.16,0,4.52,2.37s0,5-2.74,6.37c-.93-1.61.35-3.82-1.27-5.18-3.12-2.62-7.27-1.16-8.34,2.86-.22.81-.43,1.63-.59,2.45-.3,1.55-2.17,3.17-.62,4.62s3.89.11,5.86.33c.7.08,1.1-.59,1.39-1.25C1772.36,341.42,1773.94,340.37,1775.27,339.11Z"/><path class="cls-1" d="M1611.74,191.84a17.21,17.21,0,0,1-3.17.15,33.87,33.87,0,0,0-8.93-.24c-2.46.29-3.18-.7-2.54-3.34.5-2.05-.27-3.46-1.17-5.12-1.67-3.08-.5-5.06,2.93-5.66,6-1,10.66,1.87,15.24,5,2.13,1.44,1.65,3.9,1.48,6C1615.4,190.92,1613,190.94,1611.74,191.84Zm-2.08-2.07c1.31-.38,2.48-.77,2.71-2.47a4.66,4.66,0,0,0-2.45-5,20.71,20.71,0,0,0-8.59-2.33c-1.9-.18-2.61.83-2.3,2.82C1599.93,188.42,1604.18,191.29,1609.66,189.78Z"/><path class="cls-1" d="M1709.46,83.52c5.12-.7,9.72-1.79,14,1.35,3.82,2.77,4,4.75.29,7.8-2.66,2.18-5.92,3.1-9,4.4-3.65,1.52-6.09-.42-8.32-2.83-1.53-1.65-1.51-6.31-.21-8.57A3.68,3.68,0,0,1,1709.46,83.52Zm6.44,10.73c.78-.36,2.5-1,4.08-1.92,1.26-.71,3-1.3,2.83-3.13-.16-2-2.06-2.52-3.52-3.17-2.77-1.23-5.59.1-8.39.21-2.58.11-3.68,2.09-2.89,4.53C1709.06,94,1711.58,95.35,1715.91,94.25Z"/><path class="cls-1" d="M1693.72,944.22a13.93,13.93,0,0,0,8.3-.38c1-.34,2.31.22,3.41.58a4.38,4.38,0,0,1,3,4.21c.13,1.94-1.51,2.36-3,2.79-4.16,1.22-8.14,3-12.5,3.55s-6.82-.48-7.1-3.38S1688.21,943.53,1693.72,944.22Zm-.52,7.92c3.82.38,6.92-2.19,10.56-2.61a1.38,1.38,0,0,0,1.1-1.47c0-.87-.75-1-1.39-1.12-3.92-.57-7.7,1.53-11.75.4-1.51-.42-2.5,1.72-2.55,3.16-.07,2.07,1.89,1.26,3,1.55A6.32,6.32,0,0,0,1693.2,952.15Z"/><path class="cls-1" d="M355.3,312.85c0,4.88-2.17,7.74-6.28,8.78a2.63,2.63,0,0,1-3.36-1.31,14,14,0,0,1-2.22-7.12c-.08-3.52,1-7,.41-10.53a2.13,2.13,0,0,1,1.09-2.13c1.77-1.1,7.37.75,8.37,2.76C354.85,306.4,354.66,309.85,355.3,312.85Zm-2.63-.48c-.51-1.85-1.11-4.28-1.86-6.65a2.32,2.32,0,0,0-2.68-1.77c-1.1.18-1.53,1.1-1.85,2.12a17.11,17.11,0,0,0,0,9.41c.75,3,2.68,3.57,5,1.59C352.56,315.93,352.57,314.46,352.67,312.37Z"/><path class="cls-1" d="M209.64,768c1.76.19,2.84,1.16,2.73,2.93a4.73,4.73,0,0,1-1.62,3.58c-2.9,2.12-4.09,5.22-5.19,8.41a9.51,9.51,0,0,1-4.77,5.56c-1.51.8-3,1.15-4.11-.14s-3.2-2.9-2.11-5.2c1.48-3.1,2.23-6.62,5.82-8.47,2-1,3.64-2.93,5.34-4.54A8.18,8.18,0,0,1,209.64,768Zm-.41,3.67c-2.07.37-10.63,7-11.23,8.43-.71,1.69-1.5,3.6.1,5.1,1.26,1.19,4.13-.34,5-2.77C204.61,778.54,206.25,774.77,209.22,771.68Z"/><path class="cls-1" d="M185.38,796.46c-1-2.63.08-3.65,2.8-3.64a16.24,16.24,0,0,0,4.44-.68,5.18,5.18,0,0,1,6.13,2.13c1.91,2.57,3.1,5.7,1.69,8.43s-4.81,3.93-7.73,5.15c-2.24.93-3.16-1.44-4.8-2-1.35-.47-1.53-1.78-1.65-2.88C186,800.8,185.11,798.73,185.38,796.46Zm13.12,2.7c0-2.06-2.64-4.5-4.67-4.36-2.57.18-5.72,3.32-5.76,5.76a4.73,4.73,0,0,0,4.1,4.24C194.33,804.79,198.52,801.06,198.49,799.16Z"/><path class="cls-1" d="M1691.27,87.21c3.21-1.2,5.29-.31,7.26.56s2.47,3,1.23,5.06c-2.26,3.75-7.53,5.61-12.25,4.32-1.13-.31-2.23-.69-3.36-1-2.79-.71-3.33-2.42-1.26-4.55C1685.43,89,1689,88.22,1691.27,87.21Zm-3.74,6.44c2.18.65,4.17,1.86,6.28.39,1-.73,2.77-1.39,2.43-2.89-.43-1.89-2.22-.76-3.42-.86C1690.35,90.09,1688.75,91.34,1687.54,93.66Z"/><path class="cls-1" d="M1830.28,807.43c-.89,3.29-1.47,6.64-3.91,9.2-4,4.19-11.33,2.89-13.21-2.39a3.12,3.12,0,0,1,1-3.21c3.2-3.46,7.18-6,10.93-8.75.85-.63,2.12-.84,2.71.13C1828.76,804,1831.07,805,1830.28,807.43Zm-9,8.57c1.41.07,3.06-.06,3.65-1.24a27.52,27.52,0,0,0,2.45-7c.33-1.68-1.75-2.76-3.61-2.09-2.12.77-3.51,2.51-5,4.05-1.07,1.08-2.22,2.24-1.56,3.93S1819.6,815.72,1821.25,816Z"/><path class="cls-1" d="M1774,389.81a12,12,0,0,1,5.24-.69c5.65.21,6.49,1.15,5.87,6.62-.13,1.16-.33,2.32-.44,3.49-.48,5.21-.47,5.27-5.37,6-2.15.31-4.33.45-6.5.57-2,.11-3.09-.83-3.28-2.91-.33-3.58.51-7,1.45-10.36C1771.45,390.74,1773.18,390.64,1774,389.81Zm9,4.11c-.26-1.49-1.33-2-2.86-1.95a16.92,16.92,0,0,1-4.49.1c-2.85-.66-3.56.86-3.79,3.13s-1.08,4.82.44,6.82,3.76.21,5.65.14C1782.61,402,1784.74,398.47,1782.95,393.91Z"/><path class="cls-1" d="M1825.39,829.92a9.89,9.89,0,0,1,8.05-9.57,1.67,1.67,0,0,1,2.06,1.63c.33,2,.85,3.9,2.72,5.16a2.12,2.12,0,0,1,.75,2.25c-.5,2.79-5.94,7.44-8.78,7.45C1827.07,836.84,1825.4,834.45,1825.39,829.92Zm5.83-5.27c-1.78.11-3.2,2.23-3,4.54.18,2.6,1.64,4.63,3.16,4.38,1.29-.21,4.32-3,4.25-3.88C1835.52,828.52,1832.11,824.59,1831.23,824.65Z"/><path class="cls-1" d="M1663.13,87.71a6.81,6.81,0,0,1,3.42-8,5.68,5.68,0,0,1,1.87-.66c2.93-.35,7.42,4.32,7.74,8,.27,3.14-2.71,6.55-6,6.85C1667.61,94.06,1664.08,91,1663.13,87.71Zm9.39-.68c-.76-2.19-1.67-4.25-4.15-4.71-1.35-.25-2.15.82-2.56,2-.6,1.74.92,4,3.62,5.3.82.41,1.6,1.5,2.68.64S1672.68,88.1,1672.52,87Z"/><path class="cls-1" d="M1780.45,926.27c-2.21,1.69-2.77,3.64-3.78,5.35-2.1,3.56-5.46,5.35-9.3,6.27-2.54.61-4.15-.54-5.66-3.08s.29-3.85,1.62-5.17c1-1,2.5-1.51,3.64-2.5C1770.84,923.79,1775.08,923.88,1780.45,926.27Zm-5.33,2.14c0-1.7-1.4-1.76-2.48-1.44a12,12,0,0,0-6.87,4.81c-.46.69-1,1.48-.2,2.23a4.17,4.17,0,0,0,2.07,1.27C1770,935.45,1775,930.84,1775.12,928.4Z"/><path class="cls-1" d="M183.94,823c.61-3,1.07-6.1,2-9.11.52-1.79,4.38-1.73,6.08-.06,3.89,3.81,3.57,12.61-.58,16.14-1.51,1.29-3,1.37-4.39-.12A11.76,11.76,0,0,1,183.94,823Zm7.82-2.53c1-2.34-.59-3.41-2.07-3.89-2-.65-2.4,1.35-2.79,2.7a8.42,8.42,0,0,0,0,5.86c.41.93,1,1.85,2.12,1.91s1.7-.87,2.06-1.86A13.23,13.23,0,0,0,191.76,820.48Z"/><path class="cls-1" d="M439,127.06c0,1.29-3.74,5.27-6.45,5.85-2.36.51-4.56-1.2-5.69-4.44a8.13,8.13,0,0,0-.85-2.36c-2.41-3-.93-5.64.84-8.17a4.73,4.73,0,0,1,6.89-1.2C436.74,119,439.08,121.9,439,127.06Zm-6.88,2.34c2.56-.19,5-2.51,4.89-4.71-.12-2.86-3-5.92-5.28-5.64s-4.6,2.1-4.55,3.66C427.33,125.49,430.31,129.53,432.17,129.4Z"/><path class="cls-1" d="M1689,83.88a19.92,19.92,0,0,0-2.62.2c-1.85.31-3.53.74-4.73-1.46-1.11-2-1.72-4-.75-6.15,1.69-3.79,8.28-5.86,11.72-3.54,2.5,1.69,1.8,4.47,1.7,6.88C1694.25,82.49,1692.16,83.3,1689,83.88Zm-.72-2.63c2.56-.72,3.3-2,2.67-4.35-.68-2.5-2.69-2.22-4.43-2.06-1.92.18-3.13,2.56-2.63,4.64C1684.39,81.33,1685.88,81.93,1688.33,81.24Z"/><path class="cls-1" d="M1564.89,172.12c3.25-.77,6.67.23,7.93,2,1.44,2,1.49,6.61,0,8.67s-4.14,1.91-6.16,3c-1.41.76-2.1-1.24-3-2.09a8.77,8.77,0,0,1-1.47-1.36c-1.18-1.71-4.05-2.74-3.18-5.26C1560,174.23,1562.8,173.06,1564.89,172.12Zm.76,2.62c-2.44.74-3.6,2.2-3,3.8.78,2.17,4.68,4.51,6.43,3.85s3-3.44,2.42-5C1570.77,175.36,1567.88,174.06,1565.64,174.74Z"/><path class="cls-1" d="M127.34,394.72c-3.77-3.31-4.42-4.83-3.38-7.2,1.42-3.21,8.3-4.76,11-2.48a3.3,3.3,0,0,1,.37.34c.67.77,1.25,11,.6,11.79a2.54,2.54,0,0,1-3.56.64A28.19,28.19,0,0,1,127.34,394.72Zm1-1.63c1.28.77,2.47,2.53,4.25,1.69,2.08-1,.74-2.88.59-4.41a23.85,23.85,0,0,0-.3-2.45c-.15-.74-.75-1-1.45-1.09-2.09-.24-3.43.86-4.48,2.48C125.83,391.12,127.29,392,128.39,393.09Z"/><path class="cls-1" d="M726.73,91a4.81,4.81,0,0,0,.24-.85c.9-8,.89-7.94,8.82-6.16,2.07.46,2.79,1.54,2.31,3.57-.42,1.78-.87,3.57-1.11,5.38-.28,2.1-.83,4-3.08,4.67-1.67.53-4.89-.93-6-2.78C727.19,93.71,726.42,92.55,726.73,91Zm8.42-1.05c.14-2.46-.56-3.25-3-3.52-2.14-.23-3.32,1.11-3.36,3.79a3.59,3.59,0,0,0,3.58,3.89C735.58,94.22,734.71,91.61,735.15,89.94Z"/><path class="cls-1" d="M339.74,285.61c4,.21,7.81,3.36,7.72,6.32-.1,3.56-4.06,6.92-8,6.8-3.26-.11-5.95-3.88-5.79-8.14C333.8,287.38,336.18,285.42,339.74,285.61Zm.36,2.82c-2.4-.07-3.93,1.3-3.85,3.57a3.31,3.31,0,0,0,2.91,3.52c2.07.31,5.18-2,5.24-3.78S342.51,288.5,340.1,288.43Z"/><path class="cls-1" d="M1731.79,168.6c-1-4.13.29-5.83,4.63-5.87,3.08,0,6.25-1.15,9.13,1.14,1.91,1.52,2.35,2.79.6,4.43a17.93,17.93,0,0,1-9.28,4.64C1734.47,173.35,1732.49,171.48,1731.79,168.6Zm7.53,1.5c.05,0,.79-.42,1.5-.84,1.11-.66,3-1,2.76-2.49-.27-1.71-2.14-1.8-3.63-1.85a11.14,11.14,0,0,0-3,.19,2.67,2.67,0,0,0-2,3.78C1735.67,170.51,1736.9,171.11,1739.32,170.1Z"/><path class="cls-1" d="M1875.54,131.07c-3.63.06-7.29-2-7.18-4,.16-2.89,3.17-7.37,5.07-7.54,2.78-.25,7.4,3.55,7.66,6.21C1881.27,127.67,1878.34,131.68,1875.54,131.07Zm-1.26-8c-1.82-.06-2.46,1.2-2.66,2.51-.23,1.54,1.14,2,2.3,2s3,.26,3.11-1.55C1877.09,124.49,1875.77,123.51,1874.28,123.1Z"/><path class="cls-1" d="M192.23,767.33c2.53-.09,3.06.92,2.53,3.41-1,4.63-4.83,7.33-7.13,11.06a3.76,3.76,0,0,1-2,1.33c-1.46.44-3.22-1.39-2.41-2.58,1.61-2.34,1.74-5,2.19-7.59C186.24,768.13,187.39,768.29,192.23,767.33Zm-3,8.35a2.64,2.64,0,0,0,2.49-2.73c.09-1.12.57-2.56-1.06-2.88s-2.89.58-3.2,2.37C187.18,774,188.09,774.91,189.21,775.68Z"/><path class="cls-1" d="M1306,974.53c-1,0-2,0-3,0-1.32-.06-2.87.08-3.35-1.55s-.68-3.44.62-4.72,2.78-2.92,5-3.05a8.9,8.9,0,0,0,2.93-.5c1.79-.77,3.59-1.44,5,.43a6.71,6.71,0,0,1,.94,6.24,4.76,4.76,0,0,1-4.61,3.26c-1.16,0-2.33-.12-3.5-.19Zm-.13-3a5,5,0,0,0,5.18-.49,2.39,2.39,0,0,0,1-2.66,1.84,1.84,0,0,0-2.38-1.29c-2.14.41-4.27.91-6.38,1.47-1,.27-2,.93-1.74,2.11.29,1.56,1.46,1.58,2.74,1.16A13.17,13.17,0,0,1,1305.87,971.51Z"/><path class="cls-1" d="M1741.25,943.78c.57,4.48-2.76,7.74-8.06,7.57a2.76,2.76,0,0,1-2.69-1.85c-.74-1.76.18-6.33,1.73-7.93,1.34-1.39,6.46-2.1,8.11-1.13S1741.16,942.8,1741.25,943.78ZM1737,943c-3.14-.07-3.63,1.48-3.83,3.23a2,2,0,0,0,1.82,2.47c1.45.18,3.43-1.57,3.34-3S1737.8,943,1737,943Z"/><path class="cls-1" d="M1610.84,74.72c-.09,3.35-3.52,6-7.59,5.77-2.64-.12-3.88-1.69-3.83-4.83.07-3.69,2.21-6.74,4.61-6.57C1608.7,69.41,1610.93,71.26,1610.84,74.72Zm-6.6,2.58c1.53,0,4.36-1.87,4.16-2.79-.45-2.08-2.08-2.32-3.84-2.36-2.48-.05-1.78,2-2,3.23C1602.31,76.49,1603,77.29,1604.24,77.3Z"/><path class="cls-1" d="M1770.31,528.82a5.48,5.48,0,0,1,7.29,3.1c.57,1.47-2.11,7.16-3.64,7.71-2.19.79-5.05-1.7-6.82-5.92C1766.08,531.19,1766.65,530.31,1770.31,528.82Zm.76,2.77a1.72,1.72,0,0,0-.6,2.57c.6,1.08,1.23,2.55,2.88,1.84a2.36,2.36,0,0,0,1.35-2.87C1774.12,531.47,1772.43,531.69,1771.07,531.59Z"/><path class="cls-1" d="M727.64,70c.08-4.1,1-5.53,3.57-5.35,3.59.25,6.1,2.72,6.15,6.05a4.58,4.58,0,0,1-4.89,4.56C728.58,75.1,727.56,74,727.64,70Zm4.15-2.29c-1.57-.16-1.7.66-1.78,1.51-.13,1.3.22,2.33,1.73,2.34,1.15,0,2.57-.17,2.47-1.66S732.68,67.92,731.79,67.66Z"/><path class="cls-1" d="M1280.2,972.79a21.14,21.14,0,0,1-3.93,10,3.51,3.51,0,0,1-4.87,1.16,3.94,3.94,0,0,1-2-4.68c1-3.3,2.18-6.59,5-9a4,4,0,0,1,4.12-1C1280.09,969.81,1280.11,971.28,1280.2,972.79Zm-3-1.05c-2.72,2.44-5.53,3.8-5.77,7.33-.07,1.08-.06,1.95,1.12,2.46a2,2,0,0,0,2.65-.72C1277,978.36,1278.45,975.79,1277.23,971.74Z"/><path class="cls-1" d="M640.62,1029.15c-.06,1.46-1.18,3-2.06,4.58-.35.65-1.09.66-1.79.44-3.67-1.17-6.67-6.28-5.9-10,.36-1.74,1.16-3.41,2.85-3.83s3.24.55,4.45,1.86A12.15,12.15,0,0,1,640.62,1029.15Zm-4.1,1.71c1.31-.31,2.06-1,2.1-1.72a7.81,7.81,0,0,0-2-5.37,1.67,1.67,0,0,0-2.18-.59c-1,.66-1.9,2.27-1.1,2.85C635.08,1027.3,634.43,1030.25,636.52,1030.86Z"/><path class="cls-1" d="M1631.29,142.15c1.81,0,3.77,0,4.91,2.19.61,1.17,1.39,2.25,2.12,3.36s.41,2.16-.4,3.17-1.41,2-3.19,1.71c-4.14-.73-5.93-2.33-6.39-6.38C1628.08,143.89,1628.92,142.65,1631.29,142.15Zm3.86,7.91c-1.5-1.26-.95-3.94-3.66-5A6.53,6.53,0,0,0,1635.15,150.07Z"/><path class="cls-1" d="M336.88,252.22c1.84.1,3,2.4,4,4.73.89,2.08,1.22,4.11-.85,5.94-3,2.64-5.35,2.14-6.58-1.73A19.53,19.53,0,0,0,331.9,258C330.48,255.31,332.6,252.1,336.88,252.22Zm-1,3a1.71,1.71,0,0,0-1.55,2.2c.2,1.47-.59,3.67,2,3.69a2,2,0,0,0,2.16-2.19A4.39,4.39,0,0,0,335.9,255.19Z"/><path class="cls-1" d="M1589.58,186.14c.68,2.39-1.12,4.63-4.39,5.47-1.53.39-4.93-3.22-5.61-6-.62-2.53,0-3.71,2.1-4.2C1585.83,180.5,1588.43,182,1589.58,186.14Zm-5.73-2.11c-.52.23-1.08.51-.87,1.34.29,1.16.85,2.18,2.16,2.26,1,.06,1.34-.76,1.16-1.64A2.2,2.2,0,0,0,1583.85,184Z"/><path class="cls-1" d="M1583.77,206.78c.67-1.74.06-3.75.17-5.74a1.73,1.73,0,0,1,2.08-1.7c3.06.45,5.91,1.38,7.57,4.31.64,1.12.82,2.44-.53,3-2.26,1-4.54,2.1-7.14,2A1.94,1.94,0,0,1,1583.77,206.78Zm3.76-3.55c-.63.43-.5,1.06-.26,1.64a1.06,1.06,0,0,0,1.57.56c.44-.19.89-.46.57-1.07S1588.58,203,1587.54,203.23Z"/><path class="cls-1" d="M1769.53,385c-2.54,1.07-6.56-.23-7.3-2.36-.59-1.69,1.25-5.92,2.86-6.57,2.23-.9,6.36.75,7.4,3S1772.29,383.89,1769.53,385Zm.24-4.64A16,16,0,0,0,1766,378c-.92-.3-1,1-.79,1.84.46,1.9,1.6,2.93,3.61,2.43C1769.4,382.13,1770,381.62,1769.77,380.41Z"/><path class="cls-1" d="M1762.14,418.25c-2.2.95-5.69-.21-6.57-2.19s1.34-6.41,3.4-7.22c1.84-.72,6.34,1.62,7,3.67S1764.89,417.07,1762.14,418.25Zm.58-4.68a3.67,3.67,0,0,0-3.66-1.81,1.41,1.41,0,0,0-1,1.92c.6,2,2.33,1.41,3.72,1.38C1762.51,415.05,1762.84,414.43,1762.71,413.58Z"/><path class="cls-1" d="M509.69,870.63c0-.16.06-.33.08-.49.81-7.47,3.25-8.66,9.6-4.69a2.52,2.52,0,0,1,1.25,2c.41,3.8-4.37,8.69-8.22,8.38C510.81,875.71,509.49,873.18,509.69,870.63Zm9.26-2.92c-1.12-.54-2.33-1.06-3.48-1.68-1.83-1-3-.15-3.39,1.53s-1.27,3.57.13,4.71c1.67,1.36,3.42,0,5-1A3.79,3.79,0,0,0,518.95,867.7Z"/><path class="cls-1" d="M105.73,146.4c0,3.24-1.26,4.71-4.25,4.86-2.05.1-4.49-2.64-4.58-5.15-.11-3.47.82-4.94,3.19-5C103.72,141,105.69,142.83,105.73,146.4Zm-2.22-.27a2,2,0,0,0-2-1.52c-1.1-.06-2.05.19-2.07,1.51s.66,2.28,2.11,2.17C102.59,148.2,103.31,147.52,103.5,146.13Z"/><path class="cls-1" d="M1847.63,842.09c-2.62-.06-5-1.9-5.47-4a2.06,2.06,0,0,1,1.25-2.46c1.32-.63,1.25.56,1.47,1.25a3.84,3.84,0,0,0,2.82,2.63,1.59,1.59,0,0,0,2.07-.92c.4-1,0-1.55-1-1.87-1.17-.37-3.21-.3-2.6-2.16.67-2,2.53-.79,3.92-.6,2.37.31,2.82,2.23,3.05,4.06.26,2-1.19,3-2.83,3.63A13.19,13.19,0,0,1,1847.63,842.09Z"/><path class="cls-1" d="M1651.84,160.17c-.58-1.49,1.5-5.08,3.17-5,2.44.1,5,.35,6.69,2.58,1.15,1.52.75,2.82-.72,3.78-1.86,1.22-6.81.77-8.51-.68A7.41,7.41,0,0,1,1651.84,160.17Z"/><path class="cls-1" d="M1768,564.33c1,2.4-.8,7-3,7.79-1.74.58-4.51-.93-5.26-2.86-1.19-3.08-.4-5.81,2-6.82C1764.38,561.3,1767.06,562.1,1768,564.33Zm-6.36-.12c.25,2.43-.1,4.09,1.75,4.73.94.32,1.66-.53,1.87-1.3C1765.95,565,1763.56,565.39,1761.63,564.21Z"/><path class="cls-1" d="M102.31,116.67c-.27,1.72-.51,3.54-.86,5.33a2.31,2.31,0,0,1-2,2c-1.65.25-3.83-1.79-4.75-4.46-.65-1.87-.68-3.65,1.26-4.82a8.23,8.23,0,0,1,4.86-.83C102.35,114,102.37,115.37,102.31,116.67Zm-2.87,3.08c0-1.7-.43-2.43-1.37-2.31a1.78,1.78,0,0,0-1.59,2.07,1.35,1.35,0,0,0,1.25,1.27C99,120.89,99.42,120.12,99.44,119.75Z"/><path class="cls-1" d="M543.13,968.3c0,.83-.14,1.67-.11,2.5.06,1.63-.74,2.37-2.3,2.68a2.87,2.87,0,0,1-3.31-1.56c-1.51-2.4-.82-4.93-.14-7.23.49-1.64,2.52-1.25,4-1.15a2.24,2.24,0,0,1,2.19,2.3A13.55,13.55,0,0,1,543.13,968.3Zm-2.56-1a.91.91,0,0,0-1,.85c0,.27.15.77.33.81.61.16.93-.28,1-.81A2.25,2.25,0,0,0,540.57,967.31Z"/><path class="cls-1" d="M581.13,943.19c-.07,2.84-1.41,5-3.08,5-2.21,0-3-1.7-3.85-3.45-1.2-2.55-.1-4.58,1.25-6.57.89-1.31,2.08-.7,3.16-.24C581.19,939,580.49,941.57,581.13,943.19Zm-3.73,1.13c.9-.12.85-.82.88-1.43s-.09-1.42-.83-1.49c-1.1-.09-1.22.84-1.18,1.65A1.19,1.19,0,0,0,577.4,944.32Z"/><path class="cls-1" d="M142.88,382a5.61,5.61,0,0,1-.89-7.71c.86-1.15,5-.92,6.44.36,2.2,2,2.67,5.16,1,7.13C147.69,384,145.18,384.09,142.88,382Zm4.8-5.48c-1.35-.59-2.82-1.17-4.32.28a2.08,2.08,0,0,0,.1,3.41,3.32,3.32,0,0,0,4.54.07C149.28,379.25,148.58,378,147.68,376.57Z"/><path class="cls-1" d="M202.28,758.87c0,1.69-2.54,3.58-4.83,3.56a3.28,3.28,0,0,1-3.51-2.91c-.27-1.77,3.66-5.11,5.6-5C200.74,754.59,202.31,757.1,202.28,758.87Z"/><path class="cls-1" d="M86.24,724.85a4.85,4.85,0,0,1-5.06,5c-1.52-.11-2.87-2.32-2.84-4.63,0-2.08,2.19-3.51,5.13-3.53C85.75,721.63,86.3,722.95,86.24,724.85Zm-2.79.75a.62.62,0,0,0-.83-.72,1.84,1.84,0,0,0-1.07.7.64.64,0,0,0,.52,1A1.22,1.22,0,0,0,83.45,725.6Z"/><path class="cls-1" d="M86.84,117.28c-2.77.12-3.34-1.74-4-3.43s.21-2.46,1.69-2.92c1.08-.34,2-1.33,3.26-.94,1.65.52,3.11,1.36,3.32,3.29C91.19,114.43,87.87,117.21,86.84,117.28Z"/><path class="cls-1" d="M419,142.53a8.12,8.12,0,0,1,4.52-2.94,8.36,8.36,0,0,1-.76,8.09c-.65,1-1,2.24-2.39,2.29-1.63.06-2.23-1.27-2.85-2.46-1.16-2.23-.29-3.84,1.62-5.11a8.67,8.67,0,0,0-.3,1.94c.07,1,.51,2.12,1.72,1.87s1.17-1.52,1.07-2.46C421.43,142,420.16,142.31,419,142.53Z"/><path class="cls-1" d="M128.44,373.56c3.57-.47,4-.92,3.14-2.82s-1.48-2-3.14,0c-.49.58-.89,1-1.56.63a1.64,1.64,0,0,1-.72-1.19c0-1.32,0-2.82,1.26-3.6s2.22.22,3.15.88a15.78,15.78,0,0,1,2.23,2c1.42,1.49,2.92,3.15,1,5.15S130.26,375.67,128.44,373.56Z"/><path class="cls-1" d="M1765.94,584.51c-1.55.73-2.49.74-3.36,0s-.55-1.48-.4-2.28c.51-2.79,2.19-4.35,4.58-4.36a2.64,2.64,0,0,1,2.45,1.37,2.14,2.14,0,0,1-.4,2.72C1767.77,583,1766.59,583.95,1765.94,584.51Z"/><path class="cls-1" d="M1763.83,358.47c1.81-1.33,2.9-.18,3.6,1.18,1,1.91-.41,4.73-2.56,5.65-1.32.56-2.54.82-3.34-.81A4.6,4.6,0,0,1,1763.83,358.47Zm1.09,2.74c-.31-.72-.77-.89-1.27-.69a.82.82,0,0,0-.38,1.2c.26.54.58,1.34,1.36.66C1764.91,362.13,1764.85,361.51,1764.92,361.21Z"/><path class="cls-1" d="M358.52,289.82c-.32,1.46-.93,2.81-2.48,2.7-2.06-.15-2.48-1.89-2.53-3.62,0-1.49.58-2.75,2.24-2.57C357.71,286.54,358.28,288.16,358.52,289.82Z"/></g></svg>