<?xml version="1.0" encoding="utf-8"?>
<!-- Generator: Adobe Illustrator 21.0.2, SVG Export Plug-In . SVG Version: 6.00 Build 0)  -->
<svg version="1.1" id="Layer_1" xmlns="http://www.w3.org/2000/svg" xmlns:xlink="http://www.w3.org/1999/xlink" x="0px" y="0px"
	 viewBox="0 0 554 78" style="enable-background:new 0 0 554 78;" xml:space="preserve">
<style type="text/css">
	.st0{opacity:0.4;}
	.st1{fill:#B3CADB;}
	.st2{font-family:'Roboto-Thin';}
	.st3{font-size:133px;}
	.st4{enable-background:new    ;}
	.st5{fill:none;stroke:#B3CADB;}
</style>
<title>rakowski</title>
<g id="hamburger">
	<g class="st0">
		<text transform="matrix(1 0 0 1 0.16 -23.25)" class="st1 st2 st3">Piotr</text>
	</g>
	<g class="st4">
		<path class="st5" d="M65.9,71.6L64.7,72h-6.5l-5.1-0.1h-1.5l-4.2,0.2h-1.2l-0.8-0.4L44.6,71l-3-4.2l-0.8-1.1l-3-4L37,60.6
			l-2.6-4.3l-0.8-1.1l-3-4l-0.7-0.7l-0.6-0.3l-1.1-0.1l-3-0.2L24.1,50l-0.7,0.6l-0.3,1.2l-0.2,5.1l0.1,1.5l0.4,5.2l0.1,1.5l0.1,2.2
			v1.5l-0.1,1.5l-0.2,1.1l-0.5,0.5l-1,0.3h-1.5l-4.5-0.3l-4.3,0.3H10l-4.3-0.3l-1.1-0.2l-0.6-0.4l-0.2-0.9L3.8,69l-0.1-1.4l0.2-2.4
			L4,63.7l0.4-5v-1.5l-0.3-5L4,50.7l-0.1-4.9v-1.5l0.3-5v-1.5l-0.3-5v-1.5l0.3-5v-1.5l0.2-4.9v-1.5l-0.1-5v-1.5L4.1,8.8l0.1-1.4
			l0.1-0.6l0.3-1.2l0.6-0.7l1.1-0.3L7,4.5l1.4-0.1l4.2,0.2l11.1,0.4l6.3-0.4h1.5l6.1,0.4h3.5L42.7,5l1.4,0.3l2,0.6l1.4,0.5l1.4,0.6
			l1.5,0.6l1.4,0.7l1.2,0.7l1.8,1.2l1,0.8l0.9,0.9l0.9,1.1l1.3,1.9l0.8,1.2l1.1,1.8l0.7,1.3l0.7,1.4l0.5,1.5l0.3,1.5l0.1,1.5l0.2,2
			v1.5L63.1,30l-0.2,1.6l-0.3,1.6l-0.4,1.5L61.7,36L61,37.4l-0.8,1.4L59.3,40l-0.8,1.1l-0.8,1l-1.5,1.5l-1,0.8l-1.9,1l-1.1,0.7
			L51,46.8l-1.2,0.3L49,47.4l0.4,0.7l3.3,4.7l0.8,1.1l3.3,4.6l0.9,1.1l3.3,4.7l0.9,1.1l2.9,3.3l0.8,1l0.5,1L65.9,71.6z M37.8,35.8
			l2-0.4L41,35l1.1-0.7l0.9-1.1l0.7-1.4l0.4-1.5l0.1-1.5l-0.1-1.6l-0.2-1.6l-0.4-1.4l-0.7-1.4L42,21.8l-1-0.8l-1.3-0.6l-2-0.5
			l-1.5-0.2l-4.6-0.1H30l-4.7,0.3L24.2,20l-0.7,0.3L23,20.8l-0.1,1L23,24l0.2,1.5l0.2,1.6l0.1,1.6l-0.2,5.1l0.1,1l0.2,0.6l0.7,0.3
			l1.1,0.2l4.8,0.4h1.5L37.8,35.8z"/>
	</g>
	<g class="st4">
		<path class="st5" d="M145.5,69.3l0.3,1.3l-0.7,1l-1,0.5l-1.2,0.2h-1.3l-2.1-0.2l-1.4-0.1h-4.2l-5.8,0.4l-1.2-0.5l-0.6-0.7l-0.5-1
			l-2.9-7.8l-0.7-0.9l-0.8-0.2l-1.1-0.1l-5.6-0.4h-1.5l-7-0.2l-5.6-0.1h-1.4L98,60.7h-4.3l-1.2,0.2l-0.7,0.5l-0.6,1.1l-2.1,6.3
			l-0.6,1.5l-1,1.2l-1.4,0.5h-1.5l-5.4-0.3h-1.5L72,72l-1.2,0.1l-1.1-0.6l-0.7-1l0.1-1.2l0.2-0.7l0.6-1.5l1.3-2.9l0.6-1.4l2.3-5.2
			l0.6-1.3l2.4-5.2l0.6-1.4l2.1-5l0.6-1.4l2.5-5.2l0.6-1.3l3.3-7.6l2.6-5.6l0.7-1.5l2-4.2l0.7-1.5l1.8-4.3l0.6-1.4l1.7-3.8l0.5-1
			l0.9-0.6L99.3,5l4.3-0.2h7.3l4.3,0.1l1.6,0.3l1,0.7l0.5,1.2l1.3,3.6l0.6,1.4l2.3,4.4l0.6,1.3l2,4.6l0.6,1.3l1.7,4.7l0.6,1.3l2,4.5
			l0.6,1.3l2,4.6l0.6,1.3l1.9,4.7l0.6,1.3l2.9,5.8l2.2,4.4l0.7,1.3l2.5,5.9L145.5,69.3z M114.5,43.1l-0.4-1.2l-2-6.3l-0.5-1.4
			l-1.9-5.5l-0.5-1.2l-0.9-0.7l-1.2-0.3l-1,0.3l-0.9,0.9l-2.5,6.3l-0.6,1.4l-2.4,6.2l-0.3,1.4l0.3,1.1l1,0.5l1.3,0.2h5.9l4.4,0.3
			l1.2-0.4l0.7-0.7L114.5,43.1z"/>
	</g>
	<g class="st4">
		<path class="st5" d="M216.9,70.1l0.5,0.8l-0.3,0.5l-0.3,0.6l-0.7,0.4h-1.2l-5-0.4h-1.5l-5.9-0.1h-1.5l-6,0.3l-1.1-0.1l-0.8-0.7
			l-3.3-3.6l-0.8-1.1l-2.9-4.1l-0.8-1l-3.6-3.6l-0.9-1.1l-3.1-3.6l-0.7-1l-0.5-0.8l-0.7-0.3l-0.6,0.4l-0.2,1.2v6.4l-0.2,5v1.5
			l0.1,2.2v1.4l-0.1,1.4l-0.1,0.9l-0.5,0.4l-1.1,0.2l-2.9,0.2h-2.9l-4.3-0.4l-1.5,0.1l-4.7,0.4l-0.7-0.3l-0.4-0.6l-0.1-0.8l-0.1-1.3
			v-1.5l0.1-2.3L156,64l-0.4-5v-6.5l0.1-1.5l0.3-5.1l0.1-1.5v-6.5l-0.2-5v-1.5l0.2-5.1v-1.5l-0.2-11.5v-1.5l0.3-5l0.1-1.1l0.3-0.5
			l0.9-0.2l1.4,0.1l2.9,0.3h1.5l4.3-0.4h1.5l4.3,0.3l1,0.1l0.5,0.3l0.3,0.7l0.1,0.9L175,8.5l-0.3,3.1l-0.1,1.5l0.3,4.9v1.5l0.1,4.9
			l0.2,1l0.7,0.2l1-0.7l2.9-4l5-6l2.9-4l0.9-1.1l3.3-3.7l0.7-0.7l0.9-0.2l4.3-0.3h1.5l5.7,0.4l3.5,0.1h1.5l3.5-0.1l1,0.1l0.5,0.4
			l0.2,0.2l-0.1,0.3L214.5,7l-3.5,3.9L210,12l-3.3,4.3l-0.9,1.1l-3.6,4l-0.9,1.1l-3.4,4.1l-0.9,1.1l-3.3,4.1l-1,1.1l-2.3,2.1l-1,1.1
			l-0.5,0.6l-0.5,0.7l0.2,0.6l0.7,0.8l3.4,4.6l1,1.1l4.1,4.1l0.9,1.1l3.6,4.5l0.9,1.1l3.8,4.3l0.9,1.1l4,4.2l0.9,1.1L216.9,70.1z"/>
	</g>
	<g class="st4">
		<path class="st5" d="M287.2,37.7l-0.1,1.5l-0.2,2.1l-0.2,1.4l-0.6,2.8l-0.2,2.1l-0.2,1.4l-0.3,1.5l-0.4,1.4l-0.9,2l-0.7,1.3
			l-2.5,4.2l-0.8,1.2l-0.9,1.2l-0.9,1l-1.5,1.6l-1,0.9l-1.2,0.9l-1.1,0.8l-1.7,1.1l-1.2,0.7l-1.4,0.7l-1.3,0.6l-1.9,0.7l-1.4,0.4
			l-3,0.9l-1.6,0.5l-1.5,0.4l-1.6,0.4l-1.6,0.3l-1.6,0.1h-5l-3.2-0.2l-3.1-0.4l-1.3-0.3l-1.4-0.4l-5-1.7l-1.5-0.5l-1.6-0.7l-3-1.3
			l-1.4-0.7l-1.4-0.8l-1.2-0.9l-1.2-1l-1.1-1.2l-1-1.2l-2.5-2.5l-0.9-1.1l-0.9-1.2l-0.7-1.2l-0.7-1.9l-1.4-4.2l-0.6-2l-0.3-1.4
			l-0.3-1.5l-0.3-1.4l-0.3-2l-0.1-1.4l-0.1-1.6v-1.6l0.1-1.6l0.1-1.7l0.2-1.6l0.3-1.6l0.4-1.6l0.5-1.6l0.5-1.4l0.6-1.5l0.7-2.1
			l0.7-1.5l0.4-0.8l0.7-1.4l1.3-2l0.9-1.3l0.5-0.7l1.1-1.1l1.6-1.3l1.2-0.9l1.2-0.8l2.8-1.9l1.2-0.7l1.3-0.7l1.3-0.7l2-0.8l1.3-0.5
			l1.4-0.5l1.4-0.4l3.5-0.7l1.4-0.3l4.6-0.6l3-0.2l2.8,0.2l2.2,0.1l1.6,0.2l1.6,0.3l1.6,0.4l1.6,0.3l1.5,0.4l1.4,0.4l1.4,0.5l2,0.7
			l1.3,0.6l3.1,1.8l1.2,0.8l1.2,0.9l1.6,1.5l1,0.9l1,1l0.8,1.1l1.3,1.8l0.7,1.2l0.7,1.2l0.7,1.2l1,1.9l0.7,1.2l0.7,1.4l0.5,1.3
			l0.5,2.1l0.6,2.8l0.2,1.6l0.3,1.6L287.2,37.7z M267.7,39.3v-1.6l-0.1-1.6l-0.1-1.5l-0.6-2.8l-0.4-1.3l-1-2l-0.7-1.2l-1.3-1.7
			l-0.9-1l-1.4-1.5l-1-0.8l-2.4-1.4l-1.3-0.6l-1.5-0.5l-1.5-0.3l-3-0.2l-1.4,0.1l-2,0.1l-1.4,0.3l-2.4,0.7l-1.5,0.6l-2.1,1.1
			l-1.3,0.8l-1.5,1.3l-1,1.1l-1,1.4L234,28l-0.3,0.6l-0.8,2l-0.5,1.4l-0.3,0.7l-0.3,1.3l-0.2,1.3l-0.1,1.3l-0.1,1.4v1.4l0.1,1.5
			l0.3,1.5l0.1,0.8l0.4,1.4l0.2,0.7l0.5,1.3l0.4,0.7l0.7,1.3l0.5,0.7l1,1.3l0.6,0.7l1.1,1.1l1.9,1.6l1.3,0.8l1.5,0.7l1.4,0.6l2,0.7
			l1.4,0.3l2.3,0.3l1.6,0.1l2.3-0.2l1.5-0.2l2-0.5l1.3-0.6l2-1.3l1.1-0.8l1.5-1.5l0.9-1l1.2-1.5l0.8-1.3l0.9-2l0.6-1.4l0.5-2.1
			l0.2-1.4L267.7,39.3z"/>
	</g>
	<g class="st4">
		<path class="st5" d="M388.6,6.3l-4.5,11.7l-0.6,1.4l-1.6,5.2l-0.6,1.4l-2.2,5.2l-0.5,1.4l-1.5,5.2l-0.6,1.5l-2.3,4.8l-0.6,1.5
			l-1.5,5.3l-0.5,1.4l-2.4,5.1l-0.5,1.4l-1.7,5.2l-0.5,1.5l-1.6,5.2l-0.4,0.9l-0.5,0.5l-0.7,0.1l-6.2-0.2l-7.3-0.5l-0.9-0.2
			l-0.5-0.7l-2.3-4.6l-0.5-1.3l-1.7-4.8l-0.4-1.3l-1.7-4.7l-0.5-1.3l-1.9-4.7l-0.6-1.3l-1.7-4.7l-0.5-0.8h-0.3l-0.4,0.8l-1.7,4.7
			l-0.5,1.3l-2.2,4.5l-0.5,1.3l-1.5,4.9L330,60l-1.6,4.7l-0.6,1.3l-1.8,4.7l-0.5,1l-1,0.5l-5.8-0.5h-1.5l-5.8,0.5l-0.8-0.5l-0.4-1.1
			l-2.6-5l-0.5-1.4l-1.3-5.3l-0.5-1.4l-2.3-5.2l-0.6-1.4l-2-5l-0.5-1.5l-1.6-5.3l-0.5-1.4L293.5,26l-0.6-1.4l-1.7-5.2l-0.7-1.5
			l-2.3-4.8l-0.7-1.4l-2.1-5.3l-0.1-1.1l0.6-0.7l1-0.3h1.4l3.6,0.3h1.5l6.4,0.1h5l1.2,0.1l0.4,0.4l0.2,0.9l2.1,6.1l0.5,1.4l1.9,6
			l0.5,1.4l2.4,5.6l0.5,1.4l1.9,5.7l0.3,1.5l1.1,5.9l0.4,0.8l0.6,0.1l0.6-0.7l1.6-4.7l0.5-1.3l1.2-4.9l0.4-1.4l1.4-4.6l0.4-1.4
			l1.6-4.8l0.4-1.3l1.5-4.8l0.5-1.3l1.4-4l0.4-1l0.5-0.5l1-0.2l4.7-0.4l1.4-0.1l2,0.1h1.4l1.4,0.1l0.9,0.4l0.6,0.9l0.3,0.7l0.6,1.3
			l1,2.6l0.5,1.3l1.4,4.8l0.4,1.3l1.5,4.8l0.4,1.3l1.1,4.9l0.5,1.3l2.2,4.6l0.4,1.3l0.3,2.1l0.3,1.5l0.4,1.4l0.6,0.7l0.6-0.1l0.5-1
			l1.1-5.4l0.4-1.4l0.7-2l0.5-1.4l0.7-2l0.5-1.5l0.9-4.4l0.5-1.5l1.6-4.2l0.6-1.4l1.8-4.2l0.5-1.4l0.9-3.5l0.4-1.1l0.6-0.7l1.1-0.2
			l4.9,0.4h1.5l5-0.3h1.5l4.9,0.4h1l0.4,0.3L388.6,6.3z"/>
	</g>
	<g class="st4">
		<path class="st5" d="M448.4,51.2l-0.1,1.6l-0.2,1.6l-0.3,1.5l-0.5,2l-0.5,1.3l-0.8,1.9l-0.7,1.2l-1.1,1.7l-0.9,1.1l-1.1,1.1
			l-1.1,1l-1.9,1.2l-1.2,0.8l-1.4,0.7l-1.3,0.7l-2.1,0.7l-2.8,0.9l-1.5,0.3l-2.3,0.4l-1.4,0.2l-2,0.2l-1.3,0.1l-2.1,0.1l-4.5,0.3h-2
			l-1.3-0.1l-2.1-0.2l-1.4-0.2l-1.6-0.3l-1.4-0.5l-2-0.7l-1.3-0.7l-1.4-0.7l-1.3-0.7l-1.2-0.7l-3-2l-1.1-0.9l-1.7-1.3l-1.1-0.9l-1-1
			l-0.7-0.8l-0.1-0.7l0.5-0.8l0.4-0.5l0.9-1l2.6-2.4l0.8-1l1.6-2.4l0.8-1l0.9-1l1-0.6l1,0.2l1,0.7l3,2l1.4,0.7l1.3,0.7l2.1,1
			l1.4,0.5l1.5,0.5l1.5,0.3l2.1,0.1l1.5,0.1l5.9-0.4l1.5-0.2l0.7-0.2l1.4-0.6l1.2-0.7l0.9-0.9l0.5-0.7l0.6-1.4l-0.1-1.6l-0.2-0.7
			l-0.7-1.3l-0.5-0.6l-1.2-0.9l-0.7-0.3l-1.4-0.6l-1.6-0.4l-1.6-0.3l-8.8-0.8l-2.8-0.6l-1.5-0.4l-2-0.7l-1.4-0.5l-1.4-0.7l-3.2-1.6
			l-1.2-0.8l-1.4-0.8l-1.2-0.8l-1.6-1.3l-0.8-1.2l-0.8-1.4l-0.6-1.4l-0.7-2l-0.3-1.4l-0.3-2l-0.2-3l0.1-1.5l0.2-2.2l0.3-1.4l0.4-1.2
			l0.5-1.4l0.9-2l0.7-1.3l0.7-1.1l0.9-1l1.5-1.4l1.2-0.9l1.2-0.8l1.3-0.7l1.8-1l2.8-1.1l1.4-0.5l2.1-0.4l1.5-0.3l2.8-0.4l2-0.4
			l1.5-0.2l1.4-0.1h1.5l2.8,0.3l1.4,0.2l0.7,0.2l1.5,0.2l3.2,0.6l1.6,0.4l1.5,0.5l1.6,0.5l1.5,0.6l1.4,0.7l1.4,0.6l1.8,1l1.3,0.7
			l1.2,0.8l0.8,0.8v0.9l-0.6,1l-1,1.9l-0.7,1.1l-3.5,4.6l-1,1.3l-1.1,0.9l-0.7,0.3l-0.7-0.1l-0.9-0.5l-1.4-0.8l-1.4-0.6l-0.7-0.3
			l-1.4-0.5l-0.7-0.2l-1.6-0.4l-2.1-0.5l-1.5-0.1l-2.4-0.2h-2.4l-1.6,0.1l-1.6,0.3l-1.5,0.5l-0.6,0.3l-1.1,0.8l-0.5,0.6l-0.7,1.3
			l-0.2,1.5l0.3,1.2l0.7,1.2l1,0.9l1.1,0.6l0.7,0.3l1.4,0.3l2.3,0.3l3.2,0.2l1.6,0.3l3.2,0.7l3,0.9l2.1,0.5l1.4,0.4l2.6,0.9l1.9,0.8
			l1.3,0.7l1.3,0.7l1.2,0.7l2.7,2.2l1,1.1l0.9,1.1l1.1,1.7l0.7,1.2l0.7,1.4l0.4,1.4l0.4,2l0.2,1.4L448.4,51.2z"/>
		<path class="st5" d="M518.7,70.1l0.5,0.8l-0.3,0.5l-0.3,0.6l-0.7,0.4h-1.2l-5-0.4h-1.5l-5.9-0.1h-1.5l-6,0.3l-1.1-0.1l-0.8-0.7
			l-3.3-3.6l-0.8-1.1l-2.9-4.1l-0.8-1l-3.6-3.6l-0.9-1.1l-3.1-3.6l-0.7-1l-0.5-0.8l-0.7-0.3l-0.6,0.4l-0.2,1.2v6.4l-0.2,5v1.5
			l0.1,2.2v1.4l-0.1,1.4l-0.1,0.9l-0.5,0.4l-1.1,0.2l-2.9,0.2h-2.9l-4.3-0.4l-1.5,0.1l-4.7,0.4l-0.7-0.3l-0.4-0.6l-0.1-0.8l-0.1-1.3
			v-1.5l0.1-2.3l0.1-1.6l-0.4-5v-6.5l0.1-1.5l0.3-5.1l0.1-1.5v-6.5l-0.2-5v-1.5l0.2-5.1v-1.5l-0.2-11.5v-1.5l0.3-5l0.1-1.1l0.3-0.5
			l0.9-0.2l1.4,0.1l2.9,0.3h1.5l4.3-0.4h1.5l4.3,0.3l1,0.1l0.5,0.3l0.3,0.7l0.1,0.9l-0.1,1.2l-0.3,3.1l-0.1,1.5l0.3,4.9v1.5l0.1,4.9
			l0.2,1l0.7,0.2l1-0.7l2.9-4l5-6l2.9-4l0.9-1.1l3.3-3.7l0.7-0.7l0.9-0.2l4.3-0.3h1.5l5.7,0.4l3.5,0.1h1.5l3.5-0.1l1,0.1l0.5,0.4
			l0.2,0.2L517,6.2L516.2,7l-3.5,3.9l-0.9,1.1l-3.3,4.3l-0.9,1.1l-3.6,4l-0.9,1.1l-3.4,4.1l-0.9,1.1l-3.3,4.1l-1,1.1l-2.3,2.1
			l-1,1.1l-0.5,0.6l-0.5,0.7l0.2,0.6l0.7,0.8l3.4,4.6l1,1.1l4.1,4.1l0.9,1.1l3.6,4.5l0.9,1.1l3.8,4.3l0.9,1.1l4,4.2l0.9,1.1
			L518.7,70.1z"/>
		<path class="st5" d="M545.7,57.4v1.5l-0.4,5v1.5l-0.1,5.1v1l-0.3,0.6l-0.7,0.2l-1.3,0.1l-4.7-0.1h-5.8l-4.7-0.4l-0.6-0.2l-0.3-0.3
			v-0.9l-0.2-2.3v-1.5l-0.1-1.4v-1.4l-0.3-5l0.1-1.5l0.3-5l0.1-1.5l-0.3-5.1v-1.5l-0.1-5v-8l-0.1-5.1v-1.5l0.1-5v-8l-0.2-5.1l0.3-1
			l0.6-0.4l0.9-0.1h0.7l1.4-0.1l2.2,0.1h1.5l4.3-0.2h5.8l1,0.2l0.2,0.6l0.1,1l0.2,2.4l0.1,1.5v9.1l0.1,5v1.5l-0.1,5.1v1.5l0.1,5v1.5
			l-0.2,5v8.1L545.7,57.4z"/>
	</g>
</g>
</svg>
